<svg width="70" height="59" viewBox="0 0 70 59" fill="none" xmlns="http://www.w3.org/2000/svg">
<path d="M42.0302 57.7443C40.716 57.7436 39.4069 57.5533 38.1308 57.1779C33.3533 55.7659 31.4194 53.0986 30.6474 51.3728C27.5841 52.1211 19.3798 53.2555 15.971 45.078C15.1183 43.3396 14.7866 41.304 15.0308 39.3086C15.2749 37.3132 16.0804 35.4778 17.3135 34.1062C19.1666 31.9938 21.6384 30.8402 24.195 30.8945C25.0968 28.6532 26.6527 26.8857 28.5681 25.9273C30.9574 24.8572 33.6974 25.4063 36.7123 27.5573C37.0063 27.7726 37.2175 28.1179 37.3004 28.5188C37.3834 28.9195 37.3312 29.3433 37.1552 29.6983C36.9791 30.0532 36.6935 30.3107 36.3604 30.4147C36.0271 30.5188 35.6731 30.4612 35.375 30.2544C33.0824 28.6179 31.1053 28.1458 29.5011 28.8596C28.7352 29.2929 28.0479 29.903 27.4788 30.6548C26.9095 31.4067 26.4696 32.2859 26.184 33.2418C26.123 33.4614 26.022 33.6621 25.8885 33.8294C25.7552 33.9968 25.5924 34.1267 25.4123 34.2098C25.232 34.2929 25.0386 34.327 24.846 34.31C24.6536 34.2929 24.4665 34.2249 24.2984 34.111C23.7266 33.7251 21.027 34.2004 19.1167 36.3812C18.2833 37.2851 17.7449 38.5146 17.5975 39.8504C17.45 41.1862 17.7032 42.5412 18.3119 43.6737C21.4733 51.2598 30.981 48.0575 31.0779 48.026C31.2577 47.9634 31.4469 47.9478 31.6323 47.9803C31.8177 48.0127 31.9951 48.0926 32.1525 48.2145C32.31 48.3363 32.4438 48.4972 32.5449 48.6864C32.6458 48.8757 32.7118 49.0886 32.7383 49.3111C32.7553 49.4021 33.335 52.526 38.7575 54.1263C42.9618 55.3689 46.9161 54.0242 48.3097 52.0082C48.6358 51.5442 48.8347 50.971 48.8794 50.3665C48.9241 49.762 48.8125 49.1557 48.5596 48.6301C48.4146 48.2521 48.4006 47.8204 48.5211 47.4302C48.6414 47.0399 48.8862 46.7228 49.2015 46.5489C49.5168 46.375 49.8768 46.3584 50.2023 46.5027C50.5278 46.6471 50.7922 46.9404 50.9373 47.3185C51.3987 48.3807 51.5871 49.583 51.4785 50.7737C51.37 51.9643 50.9694 53.0895 50.3274 54.0071C48.684 56.3871 45.5043 57.7443 42.0302 57.7443Z" fill="black"/>
<path d="M14.2592 43.3099C11.3317 43.3759 8.46308 42.3187 6.07179 40.2926C3.10152 37.6364 1.34023 33.4143 0.837733 27.741C0.00420459 18.3491 6.16989 14.1004 10.1819 12.9253C10.8047 10.4886 12.8931 4.58306 18.6572 3.59782C22.1094 2.96383 25.64 3.43577 28.8911 4.96597C30.5293 2.57481 34.1055 -0.175528 39.6562 1.4687C45.097 3.07678 47.2181 5.72064 48.0308 7.37584C51.0665 6.95067 59.6386 6.82189 62.8759 17.8189C65.014 25.0816 62.0358 27.9668 60.6514 28.8722C57.0948 31.2021 51.658 29.5154 49.703 26.4983C46.3139 21.2768 48.6052 17.6463 48.7046 17.4941C48.8089 17.3265 48.9401 17.1855 49.0906 17.0795C49.2409 16.9734 49.4075 16.9047 49.5803 16.877C49.7533 16.8493 49.9291 16.8633 50.0974 16.9184C50.2657 16.9732 50.4232 17.068 50.5604 17.197C50.6978 17.3259 50.8123 17.4865 50.897 17.6695C50.9818 17.8522 51.0353 18.0534 51.0542 18.2614C51.0733 18.4693 51.0574 18.6797 51.0076 18.8801C50.9578 19.0806 50.8751 19.2671 50.7643 19.4286C50.7394 19.4757 49.6834 21.3601 51.7679 24.5717C53.0136 26.4937 57.0896 27.628 59.3965 26.1187C61.5739 24.6924 61.1448 21.3851 60.4027 18.8637C57.2441 8.13357 47.9209 10.531 47.5283 10.6361C47.356 10.6834 47.1775 10.6884 47.0036 10.6508C46.8296 10.613 46.6639 10.5336 46.5163 10.417C46.3687 10.3005 46.2424 10.1492 46.1449 9.97258C46.0474 9.79579 45.9806 9.59723 45.9488 9.38877C45.9488 9.38877 45.1781 6.33556 39.0138 4.514C32.8493 2.69243 30.5713 7.49509 30.4769 7.69437C30.3932 7.87746 30.2801 8.03879 30.1441 8.16918C30.0079 8.2994 29.8516 8.39616 29.6842 8.45353C29.5166 8.51073 29.3413 8.52781 29.1683 8.50335C28.9954 8.47889 28.8283 8.41342 28.6765 8.31091C25.661 6.62621 22.2931 6.06596 19.0092 6.70265C13.7319 7.60642 12.5555 14.2841 12.507 14.5664C12.4557 14.879 12.3263 15.1657 12.1358 15.388C11.9451 15.6101 11.7028 15.7576 11.4407 15.8105C11.0809 15.8858 2.56767 17.7671 3.42341 27.4098C3.85916 32.1702 5.26705 35.6533 7.61843 37.7666C10.0955 39.7426 13.0958 40.5471 16.0388 40.0245C16.3803 39.9491 16.7327 40.0396 17.0186 40.2757C17.3045 40.5121 17.5004 40.8748 17.5632 41.2844C17.6261 41.6937 17.5506 42.1164 17.3535 42.4592C17.1566 42.802 16.854 43.0369 16.5125 43.1122C15.7673 43.2532 15.0135 43.3194 14.2592 43.3099Z" fill="black"/>
<path d="M62.1512 49.1839H62.1238C61.777 49.1749 61.4473 49.0012 61.2073 48.7007C60.9673 48.4003 60.8367 47.998 60.844 47.5821C60.8443 47.375 60.8794 47.1699 60.9474 46.9795C61.0153 46.789 61.1146 46.6169 61.2394 46.4735C61.3642 46.3302 61.5118 46.2187 61.6735 46.1455C61.835 46.0723 62.0074 46.039 62.18 46.0476C62.2978 46.0476 65.6672 45.8798 66.9667 38.1903C68.3183 30.1886 61.5913 25.6527 61.5218 25.6088C61.3712 25.5095 61.2382 25.3757 61.1307 25.2149C61.0231 25.0541 60.943 24.8694 60.895 24.6716C60.8469 24.4735 60.8318 24.2663 60.8506 24.0613C60.8693 23.8565 60.9217 23.6581 61.0043 23.4773C61.0871 23.2966 61.1987 23.1372 61.3328 23.0083C61.4669 22.8793 61.621 22.7833 61.786 22.7255C61.951 22.668 62.1239 22.65 62.2949 22.6725C62.4658 22.695 62.6312 22.7575 62.782 22.8568C65.7209 24.7913 70.9145 30.6138 69.5313 38.8132C67.821 48.944 62.6302 49.1839 62.1512 49.1839Z" fill="black"/>
<path d="M54.5615 58.9696C51.7533 58.8031 49.0127 57.8784 46.5442 56.2648C46.2416 56.0608 46.0189 55.7211 45.9251 55.3204C45.8314 54.9197 45.8743 54.4907 46.0444 54.1278C46.2143 53.765 46.4977 53.4979 46.8319 53.3855C47.1662 53.2731 47.524 53.3245 47.8265 53.5285C47.8775 53.563 53.0292 56.9803 56.6186 55.449C57.2757 55.1556 57.8695 54.6891 58.3563 54.0837C58.8429 53.4785 59.2101 52.7499 59.4304 51.9517C60.0231 50.4474 60.2973 48.7911 60.2289 47.1294C60.1603 45.4678 59.7513 43.852 59.0379 42.425C58.1448 40.9171 56.9669 39.6842 55.6002 38.8266C54.2337 37.9689 52.7174 37.5112 51.1751 37.4905C50.828 37.4696 50.5021 37.2844 50.269 36.9756C50.0359 36.6666 49.9147 36.2592 49.9319 35.843C49.9493 35.427 50.1038 35.0362 50.3615 34.7567C50.6192 34.4772 50.9588 34.3317 51.3059 34.3526C53.2638 34.3983 55.1847 34.9997 56.9114 36.1074C58.6378 37.2153 60.1209 38.7979 61.2388 40.7257C62.1735 42.5739 62.7183 44.6674 62.8261 46.8249C62.934 48.9827 62.6016 51.1391 61.8579 53.108C61.5015 54.3251 60.924 55.4317 60.1669 56.3482C59.4099 57.2646 58.4923 57.9677 57.4808 58.4063C56.5415 58.7916 55.5542 58.982 54.5615 58.9696ZM33.23 19.9228C32.9141 19.9236 32.6084 19.7871 32.3697 19.5389C32.1311 19.2905 31.9755 18.947 31.9316 18.5716C31.8878 18.1964 31.9586 17.8148 32.1311 17.4973C32.3037 17.1799 32.5662 16.9481 32.8701 16.8445C33.2975 16.7441 33.6972 16.5184 34.0338 16.1873C34.3704 15.8563 34.6334 15.4304 34.799 14.9477C34.946 14.2434 34.9565 13.5082 34.8297 12.7983C34.7028 12.0884 34.4421 11.4229 34.0674 10.8526C33.8699 10.5105 33.7937 10.0884 33.8556 9.67905C33.9176 9.26952 34.1126 8.9064 34.3979 8.66935C34.6832 8.43248 35.0352 8.34112 35.3768 8.4154C35.7182 8.48968 36.021 8.72349 36.2187 9.06557C36.8361 10.0418 37.2527 11.1789 37.4345 12.3844C37.6164 13.59 37.5585 14.8299 37.2656 16.0035C36.9611 16.956 36.4676 17.8051 35.8278 18.4774C35.1881 19.1497 34.4213 19.6246 33.5937 19.8617C33.4757 19.9031 33.3531 19.9236 33.23 19.9228Z" fill="black"/>
<path d="M42.8442 28.5381C42.5043 28.5382 42.1776 28.3798 41.9334 28.0963C41.6892 27.8129 41.5466 27.4266 41.5356 27.0192C41.274 17.4047 36.2126 16.865 35.9968 16.8461C35.6513 16.8191 35.329 16.629 35.1001 16.3177C34.8713 16.0062 34.7548 15.5988 34.7759 15.1846C34.7948 14.7722 34.9495 14.3855 35.2058 14.1096C35.4622 13.8337 35.7994 13.6911 36.1433 13.7128C36.2192 13.7128 43.8152 14.3294 44.1501 26.9188C44.1611 27.3345 44.0339 27.7382 43.7967 28.0417C43.5594 28.3449 43.2314 28.523 42.8847 28.5364L42.8442 28.5381ZM33.9424 45.8201C33.7046 45.8197 33.4715 45.7419 33.268 45.5947C33.0644 45.4474 32.8982 45.2367 32.7871 44.9847C32.6759 44.7327 32.6242 44.4493 32.6374 44.1647C32.6504 43.88 32.728 43.6052 32.8615 43.3694C33.2411 42.8336 33.5195 42.2056 33.6776 41.5284C33.8357 40.8514 33.8698 40.1414 33.7775 39.447C33.5783 38.9689 33.3023 38.5427 32.9656 38.1927C32.6288 37.8427 32.2376 37.5758 31.8146 37.4074C31.483 37.2846 31.2055 37.0089 31.0432 36.6407C30.8811 36.2727 30.8475 35.8423 30.9498 35.4447C31.0522 35.0468 31.2822 34.7141 31.5892 34.5195C31.8961 34.3251 32.2549 34.2848 32.5867 34.4074C33.3998 34.7216 34.1476 35.2407 34.7795 35.9299C35.4115 36.6193 35.9131 37.4626 36.2506 38.4036C36.5129 39.5587 36.5393 40.7725 36.3272 41.9423C36.1151 43.112 35.671 44.2034 35.0324 45.1235C34.9126 45.3383 34.7504 45.5142 34.5602 45.6358C34.37 45.7573 34.1578 45.8206 33.9424 45.8201Z" fill="black"/>
<path d="M44.8428 45.8201C44.5532 45.8198 44.2718 45.7043 44.0427 45.4915C43.8138 45.2789 43.6502 44.9811 43.5774 44.6449C43.4531 43.7572 43.164 42.914 42.7316 42.1779C42.2993 41.4417 41.7347 40.8313 41.0795 40.3916C38.7896 39.0909 35.7734 40.7383 35.7433 40.7556C35.5877 40.843 35.4193 40.8928 35.2477 40.9023C35.0759 40.9117 34.9045 40.8804 34.7428 40.8104C34.5812 40.7403 34.4327 40.6327 34.3058 40.4939C34.1788 40.3549 34.0759 40.1874 34.003 40.0009C33.9301 39.8142 33.8885 39.6123 33.8806 39.4065C33.8728 39.2006 33.8989 38.995 33.9572 38.8011C34.0157 38.6074 34.1054 38.4294 34.2212 38.2772C34.337 38.125 34.4768 38.0017 34.6324 37.9141C34.7999 37.8184 38.7713 35.6265 42.1812 37.5439C43.193 38.1686 44.0724 39.0619 44.7527 40.1556C45.4329 41.2495 45.8961 42.5149 46.1068 43.8557C46.1572 44.0879 46.1625 44.3309 46.1224 44.566C46.0822 44.8009 45.9978 45.0217 45.8752 45.2115C45.7528 45.4012 45.5958 45.5546 45.4161 45.6602C45.2364 45.7658 45.0389 45.8205 44.8389 45.8201H44.8428ZM9.11232 31.3104C8.92902 31.3105 8.74797 31.2634 8.58118 31.1722C8.26678 31.003 8.02078 30.692 7.89658 30.3066C7.77238 29.9212 7.77988 29.4926 7.91773 29.1138C8.27023 28.1821 8.78787 27.3537 9.43467 26.6863C10.0815 26.0189 10.8418 25.5286 11.6626 25.2494C13.4147 24.8086 15.2689 25.6543 17.1584 27.7598C17.2847 27.8998 17.3867 28.0681 17.4586 28.2552C17.5306 28.4424 17.5711 28.6447 17.5778 28.8507C17.5846 29.0566 17.5574 29.2622 17.4979 29.4555C17.4385 29.6489 17.3477 29.8262 17.231 29.9775C17.1145 30.1289 16.9741 30.2512 16.8179 30.3375C16.6618 30.4237 16.493 30.4722 16.3213 30.4803C16.1495 30.4884 15.9782 30.4559 15.817 30.3846C15.6557 30.3132 15.5077 30.2044 15.3815 30.0647C14.9876 29.5165 14.4995 29.0771 13.9507 28.7767C13.4018 28.4764 12.8051 28.3223 12.2018 28.3246C11.7835 28.4938 11.3989 28.765 11.0724 29.1212C10.7458 29.4773 10.4844 29.9107 10.3044 30.3942C10.1992 30.6672 10.0311 30.8985 9.81987 31.0607C9.60867 31.2231 9.36327 31.3096 9.11232 31.3104ZM24.341 21.2423C24.1203 21.2423 23.9034 21.1754 23.7102 21.0479C22.9025 20.5988 22.1891 19.9378 21.6228 19.1139C21.0567 18.29 20.652 17.3241 20.4389 16.2875C20.3175 15.2591 20.367 14.2118 20.5845 13.2064C20.8022 12.2008 21.1836 11.2569 21.7068 10.4291C21.9245 10.1161 22.2353 9.91683 22.5732 9.87367C22.9112 9.8305 23.2499 9.94669 23.5176 10.1978C23.7854 10.4487 23.9612 10.8147 24.008 11.2183C24.0546 11.622 23.9685 12.0316 23.7678 12.3603C23.1746 13.3116 22.9026 14.4961 23.0063 15.6772C23.1555 16.2587 23.4083 16.7941 23.7471 17.2468C24.0861 17.6995 24.503 18.0585 24.969 18.299C25.2234 18.4669 25.4239 18.7315 25.5391 19.0511C25.6543 19.3709 25.6774 19.7274 25.6051 20.0646C25.5327 20.4018 25.3688 20.7006 25.1393 20.9137C24.9096 21.127 24.6273 21.2426 24.3369 21.2423H24.341Z" fill="black"/>
<path d="M12.6951 28.2744H12.6584C12.3128 28.2629 11.9849 28.0879 11.7465 27.7874C11.5082 27.4868 11.3789 27.0856 11.3866 26.671C11.4004 23.3869 12.4682 20.2351 14.3688 17.87C16.2693 15.5051 18.8563 14.1085 21.5931 13.9702C21.94 13.9441 22.2816 14.0846 22.5423 14.3603C22.803 14.6362 22.9617 15.0251 22.9833 15.4411C23.005 15.8573 22.888 16.2666 22.6579 16.5792C22.4278 16.892 22.1037 17.0821 21.7566 17.1081C14.3216 17.6666 14.0102 26.387 14.001 26.7588C13.9895 27.1651 13.8468 27.5501 13.6032 27.8329C13.3596 28.1156 13.0341 28.2739 12.6951 28.2744Z" fill="black"/>
</svg>
