<svg width="119" height="119" viewBox="0 0 119 119" fill="none" xmlns="http://www.w3.org/2000/svg">
<path d="M70.2768 57.5816L58.2646 39.2295C58.0738 38.9435 57.7879 38.8006 57.4541 38.8006C57.1206 38.8006 56.8344 38.9435 56.6439 39.2295L44.6316 57.5816C41.4856 62.3484 41.1994 68.2593 43.8212 73.3596C46.3953 78.3171 51.1621 81.4155 56.6915 81.7015C56.9298 81.7015 57.2158 81.7015 57.4541 81.7015C57.6925 81.7015 57.9784 81.7015 58.2168 81.7015C63.6986 81.4631 68.5131 78.3647 71.0395 73.4074C73.6612 68.2593 73.3753 62.3484 70.2768 57.5816ZM69.3712 72.5015C67.1308 76.8394 62.936 79.5565 58.1692 79.7948C57.6925 79.7948 57.2158 79.7948 56.7868 79.7948C51.9723 79.5565 47.7777 76.8394 45.5373 72.5015C43.2493 68.0209 43.4876 62.8251 46.2523 58.6304L57.4541 41.4699L68.6561 58.6304C71.4208 62.8251 71.6592 68.0209 69.3712 72.5015Z" fill="black"/>
</svg>
