<svg width="120" height="119" viewBox="0 0 120 119" fill="none" xmlns="http://www.w3.org/2000/svg">
<path fill-rule="evenodd" clip-rule="evenodd" d="M59.1042 30.194C47.3865 30.194 37.8873 38.9412 37.8873 49.7313H34.0298C34.0298 36.9793 45.2561 26.6418 59.1042 26.6418C72.9524 26.6418 84.1787 36.9793 84.1787 49.7313C84.1787 57.726 79.7647 64.7705 73.0674 68.9122C68.4967 71.7389 64.8906 75.4984 64.8906 79.7678V79.9254C64.8906 87.7728 57.9821 94.1343 49.4602 94.1343C40.9382 94.1343 34.0298 87.7728 34.0298 79.9254V76.3731H37.8873V79.9254C37.8873 85.8109 43.0687 90.5821 49.4602 90.5821C55.8517 90.5821 61.033 85.8109 61.033 79.9254V79.7678C61.033 73.6271 66.1022 68.9406 70.9167 65.9633C76.5925 62.4531 80.321 56.4928 80.321 49.7313C80.321 38.9412 70.822 30.194 59.1042 30.194ZM50.3082 47.9899C50.9946 44.9617 53.8249 42.6269 57.3134 42.6269C61.3321 42.6269 64.4775 45.7257 64.4775 49.4132H68.0596C68.0596 43.6428 63.1862 39.0746 57.3134 39.0746C51.4405 39.0746 46.5671 43.6428 46.5671 49.4132C46.5671 52.3248 47.711 54.6535 50.1829 55.9989C51.5247 56.7292 52.4226 57.35 52.9697 57.8482C53.1039 57.9702 53.2049 58.0739 53.2807 58.1592C52.9498 58.3141 52.4116 58.4903 51.6037 58.6435L52.2768 62.1326C53.4809 61.9042 54.5972 61.5642 55.445 61.0251C56.3294 60.4628 57.1751 59.4888 57.0603 58.0967C56.9627 56.9125 56.1845 55.9526 55.3921 55.2313C54.5458 54.4608 53.3697 53.6812 51.9066 52.8848C51.3306 52.5714 50.8792 52.1543 50.5781 51.5632C51.8188 51.6446 53.3482 51.8332 54.8544 52.2419C56.5436 52.7001 58.0733 53.4001 59.1585 54.4141C60.1764 55.3652 60.8763 56.6543 60.8951 58.5473C60.6635 60.966 60.0857 62.5277 59.4261 63.5396C58.7752 64.5378 57.9916 65.0848 57.1787 65.402C56.3337 65.7319 55.4009 65.8333 54.4622 65.8333C53.996 65.8333 53.5498 65.8088 53.1182 65.7814L52.954 65.7709C52.5956 65.7477 52.2044 65.7225 51.8754 65.7225C50.1746 65.7225 49.3131 67.0284 48.9153 67.7957C48.6399 68.327 48.368 69.0523 48.1346 69.6752C48.0358 69.9388 47.9437 70.1841 47.8613 70.3883C47.5217 71.2306 47.1922 71.8456 46.7956 72.2506C46.4657 72.5877 46.054 72.8209 45.3336 72.8209C44.3813 72.8209 43.8872 72.6081 43.6361 72.4378C43.3891 72.2703 43.2343 72.0476 43.1317 71.7689C43.0221 71.4717 42.985 71.14 42.985 70.8537C42.985 70.7167 42.9934 70.6057 43.0009 70.5356C43.0045 70.5009 43.0078 70.4775 43.0094 70.4672C43.0099 70.4636 43.0101 70.4617 43.0101 70.4617L43.0094 70.4672L43.0081 70.4732L43.0076 70.4764C43.0074 70.4773 43.0069 70.4798 41.245 70.1604C39.4832 69.8411 39.483 69.842 39.4828 69.843L39.4824 69.845L39.4817 69.8493L39.4799 69.859L39.4758 69.8839C39.4726 69.9027 39.469 69.9258 39.4649 69.9534C39.4568 70.0081 39.4473 70.08 39.4382 70.1667C39.4199 70.3389 39.4029 70.5746 39.4029 70.8537C39.4029 71.3993 39.4679 72.1765 39.7674 72.9886C40.0735 73.8191 40.6343 74.7055 41.614 75.3698C42.5892 76.0314 43.8329 76.3731 45.3336 76.3731C47.0664 76.3731 48.3924 75.719 49.3656 74.7252C50.2724 73.7992 50.8115 72.6395 51.1875 71.7071C51.3592 71.281 51.491 70.9259 51.6055 70.6171C51.7833 70.1375 51.92 69.7693 52.1011 69.4196C52.1292 69.3656 52.1541 69.3205 52.1759 69.2832C52.3244 69.2903 52.4992 69.3015 52.7131 69.3152L52.8902 69.3266C53.3355 69.3546 53.8762 69.3855 54.4622 69.3855C55.6278 69.3855 57.0614 69.2653 58.4903 68.7076C59.9514 68.1376 61.3495 67.132 62.4341 65.4681C63.5023 63.8296 64.208 61.6441 64.4702 58.7864C64.475 58.7329 64.4775 58.6792 64.4775 58.6254C64.4775 55.681 63.3429 53.4433 61.6149 51.8288C59.9403 50.264 57.7901 49.3555 55.7996 48.8156C53.7932 48.2712 51.815 48.0655 50.358 47.9923C50.3414 47.9915 50.3249 47.9907 50.3082 47.9899ZM52.2847 69.1251C52.2847 69.126 52.2793 69.1328 52.2684 69.1429C52.2791 69.1294 52.2847 69.1244 52.2847 69.1251Z" fill="black"/>
</svg>
