<svg width="119" height="119" viewBox="0 0 119 119" fill="none" xmlns="http://www.w3.org/2000/svg">
<path d="M89.1708 60.4198C81.987 52.1417 72.0597 42.6269 58.8658 42.6269C53.5374 42.6269 48.6531 44.1334 43.4992 47.3526C39.1539 50.0802 34.6978 53.9178 28.5766 60.2295L28.418 60.3881L29.4804 61.4823C38.2184 70.4263 45.7669 78.1493 58.8658 78.1493C64.654 78.1493 70.2678 76.2621 76.0244 72.3769C80.9245 69.0624 85.0952 64.8601 88.4412 61.4663L89.3135 60.5943L89.1708 60.4198ZM58.8658 45.1642C64.1148 45.1642 69.1577 46.6707 74.2799 50.0168C78.0701 52.4907 81.7967 55.8368 85.9674 60.4991C79.8936 66.6363 70.7752 75.6119 58.8658 75.6119C53.4422 75.6119 48.6847 74.2798 43.9272 71.14C39.5663 68.2696 35.6335 64.2733 31.8434 60.3881C41.2156 50.9206 49.0336 45.1642 58.8658 45.1642Z" fill="black"/>
<path d="M58.8658 73.0747C65.8593 73.0747 71.5523 67.3815 71.5523 60.3881C71.5523 53.3946 65.8593 47.7014 58.8658 47.7014C51.8724 47.7014 46.1792 53.3946 46.1792 60.3881C46.1792 67.3815 51.8724 73.0747 58.8658 73.0747ZM58.8658 50.2864C64.4478 50.2864 69.0149 54.8219 69.0149 60.3881C69.0149 65.9542 64.4478 70.4897 58.8658 70.4897C53.2837 70.4897 48.7324 65.9542 48.7324 60.3881C48.7324 54.8219 53.2837 50.2864 58.8658 50.2864Z" fill="black"/>
<path d="M63.9407 60.3881C63.9407 63.1633 61.6571 65.4628 58.8979 65.4628C56.1385 65.4628 53.7916 63.0522 53.7916 60.2771C53.7916 57.5019 56.2972 55.3135 58.8661 55.3135V52.7762C54.6637 52.7762 51.27 56.2016 51.27 60.4199C51.27 64.6381 54.6796 68.0476 58.8661 68.0476C63.0526 68.0476 66.478 64.6222 66.478 60.4199V60.3881H63.9407Z" fill="black"/>
</svg>
