<svg width="119" height="119" viewBox="0 0 119 119" fill="none" xmlns="http://www.w3.org/2000/svg">
<path d="M74.5448 67.6979C73.8724 68.1103 73.1132 68.3605 72.3275 68.4291C71.2503 68.5094 70.1748 68.2527 69.2502 67.6943C69.0117 67.5506 68.7261 67.5075 68.4557 67.5744C68.1856 67.6414 67.9531 67.813 67.8092 68.0513C67.6655 68.2897 67.6222 68.5754 67.6892 68.8456C67.7559 69.1159 67.9273 69.3484 68.1657 69.4923C69.2996 70.174 70.5959 70.5377 71.919 70.5459C72.1088 70.5459 72.3037 70.5381 72.5028 70.5214C73.6145 70.4251 74.6887 70.0716 75.6405 69.4889C75.8779 69.3436 76.0481 69.1099 76.1133 68.8392C76.1785 68.5685 76.1335 68.2831 75.9883 68.0456C75.843 67.8082 75.6092 67.638 75.3385 67.5728C75.0679 67.5076 74.7824 67.5526 74.5448 67.6979ZM80.7873 41.8162C82.0166 39.8741 82.6665 37.6214 82.6604 35.3229C82.6604 28.5774 77.1441 23.0896 70.3636 23.0896C63.5831 23.0896 58.0668 28.5774 58.0668 35.3229C58.0672 36.0518 58.1327 36.7795 58.2624 37.4969C49.0749 41.0644 42.467 50.7755 42.467 62.1677C42.467 69.1569 45.4752 76.1163 50.7254 81.2981C52.8182 86.0944 56.7198 90.7421 61.0347 93.0767C63.1155 94.2024 65.1822 94.765 67.1803 94.765C69.231 94.7574 71.2364 94.1615 72.9585 93.0484C73.5004 92.7072 74.0439 92.3662 74.5888 92.0254C78.1505 89.7942 80.7278 86.124 82.2821 81.0857C82.8503 80.4843 89.588 73.0914 89.588 62.1677C89.588 53.9514 86.1501 46.61 80.7873 41.8162ZM70.3636 25.1891C75.9865 25.1891 80.5609 29.7351 80.5609 35.3229C80.5649 37.136 80.0762 38.9162 79.1464 40.4728C75.3943 37.6729 70.88 36.0369 66.0276 36.0369C64.0843 36.0366 62.1503 36.3018 60.279 36.825C60.2044 36.3277 60.1669 35.8257 60.1666 35.3229C60.1666 29.7351 64.741 25.1891 70.3636 25.1891ZM81.3152 75.9625C81.2996 76.0494 81.2816 76.1543 81.2607 76.276C80.1048 83.0332 77.485 87.7336 73.4743 90.2459C72.9287 90.5876 72.384 90.9295 71.8403 91.2712C68.1225 93.6109 64.4554 92.5403 62.0338 91.2298C58.1168 89.1108 54.4919 84.7419 52.5955 80.3337C52.5859 80.3081 52.5754 80.2827 52.5639 80.2577C51.7385 78.3187 51.2474 76.3747 51.2171 74.6135L50.9641 59.927C53.2793 60.8042 55.5996 61.149 57.8722 60.9529C59.6156 60.8023 60.7717 60.385 61.7917 60.017C62.899 59.6174 63.7737 59.3013 65.1999 59.433C68.3127 59.7195 71.0375 61.8413 72.0646 62.7404C72.2897 62.9373 72.5277 63.1592 72.7797 63.3945C74.1578 64.6806 76.0451 66.4418 78.9782 66.9249L78.9924 66.9274C79.608 67.0679 80.2381 67.1345 80.8694 67.1258C81.0708 67.1231 81.2731 67.1128 81.4747 67.0947C81.8921 70.0404 81.8383 73.0337 81.3152 75.9625ZM83.4348 76.0206C83.9758 72.7914 83.989 69.4958 83.4737 66.2624C83.4423 66.0589 83.3709 65.8635 83.2638 65.6876C83.1565 65.5116 83.0158 65.3585 82.8496 65.237C82.6832 65.1156 82.4945 65.0282 82.2944 64.9797C82.0942 64.931 81.8866 64.9225 81.683 64.9543C80.9346 65.0733 80.1701 65.0459 79.432 64.874C79.4069 64.8681 79.3817 64.8632 79.3563 64.8591L79.3208 64.8534C77.0131 64.4735 75.525 63.0846 74.2121 61.8594C73.9475 61.6125 73.6976 61.3791 73.4475 61.1603C71.9804 59.8762 68.9831 57.6726 65.3923 57.3422C63.5002 57.1683 62.2693 57.6125 61.079 58.0422C60.1362 58.3821 59.1613 58.734 57.6916 58.861C55.5188 59.0485 53.2798 58.6551 51.0355 57.6919C50.7951 57.5889 50.5327 57.5477 50.2723 57.572C50.012 57.5964 49.7617 57.6855 49.5445 57.8313C49.3274 57.9772 49.1502 58.1748 49.0291 58.4066C48.9079 58.6386 48.8467 58.897 48.8509 59.1585L49.1177 74.6496C49.1299 75.2236 49.1786 75.7963 49.2633 76.3641C46.2432 72.1435 44.5666 67.1604 44.5666 62.1677C44.5666 48.9168 54.1938 38.1365 66.0276 38.1365C77.8612 38.1365 87.4884 48.9168 87.4884 62.1677C87.4884 66.4102 86.4023 70.5867 84.2602 74.5807C83.9827 75.0981 83.7053 75.5781 83.4348 76.0206ZM44.8445 79.2146C44.8445 78.9821 44.7673 78.756 44.625 78.5721C44.4825 78.3881 44.2833 78.2567 44.0582 78.1985C42.729 77.8534 41.5163 77.1594 40.5454 76.1884C39.5744 75.2174 38.8805 74.0047 38.5354 72.6756C38.477 72.4506 38.3455 72.2511 38.1617 72.1088C37.9777 71.9664 37.7518 71.8893 37.5191 71.8893C37.2866 71.8893 37.0607 71.9664 36.8767 72.1088C36.6928 72.2511 36.5614 72.4506 36.503 72.6756C36.1579 74.0047 35.4639 75.2174 34.4929 76.1884C33.5221 77.1594 32.3092 77.8534 30.9801 78.1985C30.7551 78.2567 30.5556 78.3881 30.4134 78.5721C30.2711 78.756 30.1938 78.9821 30.1938 79.2146C30.1938 79.4471 30.2711 79.6732 30.4134 79.857C30.5556 80.041 30.7551 80.1724 30.9801 80.2307C32.3092 80.5758 33.5221 81.2697 34.4929 82.2407C35.4639 83.2116 36.1579 84.4245 36.503 85.7535C36.5614 85.9786 36.6928 86.178 36.8767 86.3203C37.0607 86.4627 37.2866 86.5398 37.5191 86.5398C37.7518 86.5398 37.9777 86.4627 38.1617 86.3203C38.3455 86.178 38.477 85.9786 38.5354 85.7535C38.8805 84.4245 39.5744 83.2116 40.5452 82.2407C41.5163 81.2697 42.729 80.5758 44.0582 80.2307C44.2833 80.1724 44.4825 80.041 44.625 79.857C44.7673 79.6732 44.8445 79.4471 44.8445 79.2146ZM37.5191 82.7572C36.6644 81.29 35.4437 80.0694 33.9764 79.2146C35.4437 78.3597 36.6644 77.1392 37.5191 75.6719C38.3739 77.1392 39.5945 78.3597 41.0619 79.2146C39.5945 80.0694 38.3739 81.29 37.5191 82.7572ZM70.2556 81.8988C70.1494 81.8107 70.0271 81.7445 69.8953 81.7038C69.7637 81.6631 69.6251 81.6487 69.4878 81.6615C69.3505 81.6743 69.2171 81.7141 69.0953 81.7786C68.9735 81.8429 68.8653 81.9308 68.7774 82.0368C68.2968 82.6199 67.6273 83.0167 66.8851 83.1581C65.179 83.4448 63.9005 82.0267 63.8877 82.0123C63.7035 81.8038 63.4439 81.677 63.1661 81.6598C62.8885 81.6425 62.6151 81.7361 62.4064 81.9203C62.1979 82.1045 62.0707 82.364 62.0533 82.6416C62.0359 82.9194 62.1294 83.1927 62.3134 83.4016C62.5009 83.614 64.0616 85.2981 66.4064 85.2981C66.6833 85.298 66.9597 85.2749 67.2327 85.2287C68.4733 85.0079 69.5944 84.3513 70.3938 83.3771C70.4817 83.2709 70.548 83.1485 70.5887 83.0167C70.6293 82.8851 70.6437 82.7466 70.6309 82.6093C70.618 82.472 70.5784 82.3386 70.5139 82.2167C70.4496 82.0949 70.3617 81.9867 70.2556 81.8988ZM63.0181 68.0454C62.8728 67.808 62.6391 67.638 62.3684 67.5728C62.0977 67.5076 61.8123 67.5526 61.5749 67.6979C60.9022 68.1103 60.1431 68.3605 59.3574 68.4291C58.2802 68.5095 57.2047 68.2527 56.2801 67.6943C56.0417 67.5506 55.7559 67.5075 55.4858 67.5744C55.2155 67.6414 54.983 67.813 54.8391 68.0513C54.6954 68.2897 54.6523 68.5754 54.719 68.8456C54.7858 69.1159 54.9574 69.3484 55.1957 69.4923C56.3296 70.174 57.626 70.5377 58.9489 70.5459C59.1389 70.5459 59.3338 70.5381 59.5327 70.5214C60.6445 70.4251 61.7187 70.0716 62.6704 69.4889C62.7879 69.417 62.8903 69.3225 62.9714 69.2111C63.0526 69.0996 63.111 68.9733 63.1432 68.8392C63.1755 68.7053 63.1812 68.5662 63.1597 68.43C63.1382 68.2938 63.0901 68.1632 63.0181 68.0454ZM51.6929 88.3923C50.8396 88.1707 50.061 87.7252 49.4376 87.1018C48.8141 86.4784 48.3685 85.6997 48.147 84.8465C48.0886 84.6213 47.9572 84.422 47.7733 84.2795C47.5893 84.1373 47.3634 84.06 47.1309 84.06C46.8984 84.06 46.6723 84.1371 46.4885 84.2795C46.3045 84.4218 46.1731 84.6211 46.1146 84.8463C45.8931 85.6995 45.4475 86.4784 44.8241 87.1018C44.2007 87.7252 43.422 88.1707 42.5688 88.3923C42.3436 88.4506 42.1443 88.582 42.002 88.766C41.8596 88.9498 41.7823 89.1759 41.7823 89.4084C41.7823 89.6409 41.8596 89.867 42.002 90.0509C42.1443 90.2349 42.3436 90.3663 42.5688 90.4246C43.422 90.6462 44.2007 91.0917 44.8241 91.7151C45.4475 92.3385 45.8931 93.1173 46.1146 93.9706C46.1731 94.1958 46.3045 94.3951 46.4885 94.5373C46.6723 94.6796 46.8984 94.7569 47.1309 94.7569C47.3634 94.7569 47.5893 94.6796 47.7733 94.5373C47.9572 94.3949 48.0886 94.1956 48.147 93.9704C48.3685 93.1171 48.8141 92.3385 49.4376 91.7151C50.061 91.0917 50.8396 90.6462 51.6929 90.4246C51.9181 90.3663 52.1174 90.2349 52.2598 90.0509C52.4021 89.867 52.4794 89.6409 52.4794 89.4084C52.4794 89.1759 52.4021 88.9498 52.2598 88.766C52.1174 88.582 51.9181 88.4506 51.6929 88.3923ZM47.1309 91.2181C46.6428 90.5096 46.0296 89.8963 45.3212 89.4084C46.0296 88.9205 46.6428 88.3072 47.1309 87.5987C47.6188 88.3071 48.2321 88.9204 48.9406 89.4084C48.2321 89.8963 47.6188 90.5096 47.1309 91.2181Z" fill="black"/>
</svg>
