<svg width="120" height="119" viewBox="0 0 120 119" fill="none" xmlns="http://www.w3.org/2000/svg">
<path d="M90.9091 52.0883C90.9091 51.9225 90.7164 35.5224 74.2041 35.5224C63.1145 35.5224 58.2186 42.4164 56.2141 46.8764C54.2094 42.4164 49.3136 35.5224 38.224 35.5224C21.7116 35.5224 21.5189 51.9225 21.5189 51.9863C21.5189 52.2921 19.2958 83.6907 55.8029 94.0381H55.8672C55.9752 94.0935 56.093 94.1281 56.2141 94.14C56.3246 94.1594 56.4376 94.1594 56.5481 94.14C93.1322 83.6907 90.9091 52.2921 90.9091 52.0883ZM24.089 52.0883C24.089 51.5147 24.2431 38.0709 38.224 38.0709C42.1059 37.9248 45.9142 39.1476 48.9727 41.5226C52.0311 43.8979 54.1415 47.2711 54.929 51.0434C54.962 51.1432 55.0007 51.241 55.0447 51.3364C55.0757 51.389 55.1015 51.4446 55.1217 51.5021C55.1785 51.5646 55.2385 51.6242 55.3017 51.6805C55.354 51.7389 55.4099 51.7941 55.4688 51.8462L55.6487 51.9225C55.7397 51.9684 55.834 52.0067 55.9313 52.0373H56.2141C56.2949 52.0501 56.3773 52.0501 56.4582 52.0373C56.5492 52.0122 56.6359 51.9735 56.7152 51.9225C56.7858 51.903 56.8546 51.8774 56.9208 51.8462L57.088 51.6805C57.151 51.6242 57.211 51.5646 57.2678 51.5021L57.3448 51.3236C57.403 51.243 57.4546 51.1577 57.499 51.0688C58.2668 47.2846 60.3711 43.8964 63.4334 41.5136C66.4958 39.1309 70.315 37.9102 74.2041 38.0709C88.1336 38.0709 88.3392 51.5147 88.3392 52.1902C88.5084 57.6752 87.4462 63.129 85.2294 68.1572C80.3207 79.5238 70.5546 87.3863 56.2141 91.5915C22.0972 81.6647 23.9862 53.3626 24.089 52.0883ZM56.1113 60.7408L50.9712 72.9612C50.8748 73.1939 50.7111 73.3932 50.5007 73.5336C50.2904 73.6743 50.0427 73.75 49.7891 73.7512C49.5396 73.7532 49.2951 73.6832 49.0852 73.5496C48.8753 73.4163 48.7091 73.225 48.6068 72.9994L44.3663 63.5568L41.7964 66.921C41.6766 67.0792 41.5214 67.2078 41.3431 67.2963C41.1645 67.3847 40.9678 67.4307 40.7683 67.4307H34.3689C34.0283 67.4307 33.7014 67.2965 33.4603 67.0576C33.2194 66.8185 33.084 66.4944 33.084 66.1565C33.084 65.8185 33.2194 65.4944 33.4603 65.2553C33.7014 65.0164 34.0283 64.8822 34.3689 64.8822H40.1515L43.6211 60.2946C43.7556 60.1183 43.9343 59.9797 44.1392 59.8927C44.3443 59.8055 44.5687 59.7728 44.7905 59.7977C45.0117 59.822 45.2226 59.903 45.4028 60.0327C45.583 60.1621 45.7263 60.3358 45.8183 60.5369L49.7891 69.253L55.0703 56.7012C55.1642 56.4744 55.322 56.2792 55.5249 56.139C55.7277 55.9989 55.9669 55.9197 56.2141 55.9112C56.4731 55.9199 56.7233 56.0062 56.9319 56.1586C57.1406 56.3108 57.298 56.5223 57.3835 56.765L64.0397 75.4462L69.1798 64.3087C69.281 64.0852 69.4453 63.8954 69.6527 63.762C69.8601 63.6286 70.1019 63.5574 70.349 63.5568H76.7742C77.1149 63.5568 77.4417 63.6911 77.6828 63.9302C77.9237 64.1691 78.0591 64.4932 78.0591 64.8312C78.0591 65.1692 77.9237 65.4933 77.6828 65.7322C77.4417 65.9713 77.1149 66.1056 76.7742 66.1056H71.1715L65.0934 79.3709C64.992 79.5945 64.828 79.7843 64.6205 79.9177C64.4131 80.0511 64.1714 80.1222 63.924 80.1227C63.6674 80.1115 63.4198 80.0241 63.2137 79.8719C63.0075 79.7197 62.8521 79.5098 62.7675 79.2689L56.1113 60.7408Z" fill="black"/>
</svg>
