<svg width="119" height="119" viewBox="0 0 119 119" fill="none" xmlns="http://www.w3.org/2000/svg">
<path d="M66.8137 58.221C66.9356 59.9929 66.9379 59.9927 66.9379 59.9927L66.94 59.9925L66.9437 59.9923L66.9508 59.9918L66.9606 59.9909L66.9658 59.9904C66.9658 59.9904 66.9476 59.9925 66.9222 59.9966C66.8713 60.0048 66.7818 60.0218 66.6674 60.0543C66.4345 60.1202 66.1276 60.2412 65.8271 60.4552C65.3125 60.8216 64.5561 61.6354 64.5561 63.689V89.3825C64.5561 89.3825 64.5561 89.3828 62.78 89.3828C61.0039 89.3828 61.0039 89.3818 61.0039 89.3818V63.689C61.0039 60.5518 62.264 58.6316 63.7664 57.5617C64.4744 57.0577 65.176 56.7847 65.6994 56.6365C65.9633 56.5618 66.1894 56.5166 66.3589 56.4893C66.4438 56.4756 66.5153 56.4664 66.5713 56.4602C66.5993 56.457 66.6239 56.4547 66.6439 56.4529L66.6711 56.4506L66.6823 56.4497L66.6873 56.4493L66.6897 56.4492C66.6897 56.4492 66.6919 56.449 66.8137 58.221ZM50.1614 58.221C50.0395 59.9929 50.037 59.9927 50.037 59.9927L50.0353 59.9925L50.0312 59.9923L50.0242 59.9918L50.0143 59.9909L50.0088 59.9904C50.0088 59.9904 50.0276 59.9925 50.0528 59.9966C50.104 60.0048 50.1933 60.0218 50.3075 60.0543C50.5404 60.1202 50.8473 60.2412 51.148 60.4552C51.6625 60.8216 52.4192 61.6354 52.4192 63.689V89.3825C52.4192 89.3825 52.4192 89.3828 54.1953 89.3828C55.9714 89.3828 55.9714 89.3818 55.9714 89.3818V63.689C55.9714 60.5518 54.7107 58.6316 53.2083 57.5617C52.5005 57.0577 51.7991 56.7847 51.2755 56.6365C51.0118 56.5618 50.7858 56.5166 50.6164 56.4893C50.5313 56.4756 50.4597 56.4664 50.4036 56.4602C50.3756 56.457 50.3514 56.4547 50.3312 56.4529L50.3038 56.4506L50.2926 56.4497L50.2876 56.4493L50.2852 56.4492C50.2852 56.4492 50.283 56.449 50.1614 58.221Z" fill="black"/>
<path fill-rule="evenodd" clip-rule="evenodd" d="M38.2716 72.3831C18.9753 64.2444 26.5906 36.7735 39.9856 32.2346C45.5423 30.3518 51.6738 36.5984 51.6346 40.4769C51.6175 42.1539 50.7522 43.789 49.8507 45.4926C48.6671 47.7291 47.4209 50.0837 47.95 52.806C48.8823 57.6017 49.9265 65.6933 47.236 69.5344C44.5454 73.3754 41.8396 73.888 38.2716 72.3831ZM39.652 69.1101C41.0422 69.6964 41.7251 69.6578 42.0997 69.55C42.4842 69.4392 43.2348 69.055 44.3266 67.4964C44.9885 66.5512 45.4393 64.5568 45.3995 61.5754C45.3624 58.7761 44.9111 55.7886 44.4632 53.4838C43.7449 49.7889 45.22 46.7024 46.2725 44.6664C46.4537 44.3156 46.6192 44.0032 46.7716 43.7151C47.1231 43.0512 47.4057 42.5173 47.6554 41.9448C47.9882 41.182 48.0795 40.73 48.0825 40.441C48.0834 40.3488 48.0211 39.879 47.5605 39.1057C47.1279 38.3796 46.4711 37.6061 45.6645 36.949C43.9538 35.5549 42.2982 35.2016 41.1256 35.5989C36.1348 37.2902 31.4426 43.8025 30.3883 51.4444C29.3768 58.7761 31.8822 65.8329 39.652 69.1101ZM76.9898 32.2346C90.3847 36.7735 98 64.2444 78.7039 72.3831C75.1357 73.888 72.4299 73.3754 69.7395 69.5344C67.049 65.6933 68.0932 57.6017 69.0253 52.806C69.5544 50.0837 68.3084 47.7291 67.1247 45.4926C66.2231 43.789 65.3578 42.1539 65.3409 40.4769C65.3017 36.5984 71.4332 30.3518 76.9898 32.2346ZM74.8756 69.55C75.2504 69.6578 75.9333 69.6964 77.3233 69.1101C85.0931 65.8329 87.5985 58.7761 86.587 51.4444C85.5327 43.8025 80.8407 37.2902 75.8498 35.5989C74.6771 35.2016 73.0216 35.5549 71.3108 36.949C70.5043 37.6061 69.8475 38.3796 69.415 39.1057C68.9544 39.879 68.8919 40.3488 68.893 40.441C68.8958 40.73 68.9873 41.182 69.3201 41.9448C69.5698 42.5173 69.8524 43.0512 70.2037 43.7151C70.3563 44.0032 70.5217 44.3156 70.703 44.6664C71.7554 46.7024 73.2304 49.7889 72.5123 53.4838C72.0642 55.7886 71.6131 58.7761 71.5758 61.5754C71.5362 64.5568 71.987 66.5512 72.6489 67.4964C73.7407 69.055 74.4913 69.4392 74.8756 69.55Z" fill="black"/>
</svg>
