<svg width="120" height="119" viewBox="0 0 120 119" fill="none" xmlns="http://www.w3.org/2000/svg">
<path d="M86.5161 102.127C87.1386 102.127 87.7614 101.633 87.7614 100.892V44.7014C87.7614 32.8458 77.9232 23.0896 65.8435 23.0896H25.2453C24.6227 23.0896 24 23.5835 24 24.3245C24 25.0655 24.4981 25.5594 25.2453 25.5594H63.1037C62.8546 30.0054 60.6129 46.0598 45.2953 56.3101C35.4571 57.298 25.4944 57.6685 25.2453 57.6685C24.6227 57.6685 24 58.286 24.1245 58.9034C24.1245 59.521 24.7472 60.1383 25.3698 60.0149C26.4906 60.0149 50.7749 59.2739 60.862 55.9396C58.994 62.3613 55.5072 79.7742 63.2282 99.1632C63.4773 99.7806 64.2245 100.028 64.8471 99.7806C65.4698 99.5337 65.7188 98.7927 65.4699 98.1752C61.2356 87.5545 60.4884 77.4278 60.9865 69.6477C69.4549 71.2531 78.1723 68.6596 85.2707 63.5963V100.892C85.2707 101.633 85.8933 102.127 86.5161 102.127ZM63.8509 54.3342C74.0626 45.1953 79.2931 36.4271 81.161 32.8458C83.6518 36.0566 85.2707 40.0085 85.2707 44.3309C84.1499 46.0598 77.0515 55.6925 62.232 60.1383C62.8546 57.1745 63.6018 55.075 63.8509 54.3342ZM50.0276 55.6925C63.4773 44.7014 65.3452 29.8818 65.5943 25.436H65.8435C71.0738 25.436 75.9306 27.5354 79.4176 30.8698C78.1723 33.4632 73.0664 42.9725 62.1073 52.6051C59.7412 53.9637 55.258 54.9515 50.0276 55.6925ZM61.2356 67.1776C61.3601 65.6956 61.6092 64.2138 61.7337 62.9789C74.4362 59.521 81.7838 52.4817 85.2707 48.5298V60.5088C83.2782 62.1143 73.1909 69.5241 61.2356 67.1776Z" fill="black"/>
</svg>
