<svg width="182" height="182" viewBox="0 0 182 182" fill="none" xmlns="http://www.w3.org/2000/svg">
<g clip-path="url(#clip0_134_434)">
<path d="M113.213 138.119C109.816 138.119 107.552 136.987 104.156 135.855L90.57 130.194L76.9845 135.855C74.7203 136.987 71.3239 138.119 67.9275 138.119C65.6633 138.119 64.5311 138.119 62.2669 136.987L56.6063 181.14L90.57 158.497L124.534 181.14L117.741 136.987C116.609 138.119 114.345 138.119 113.213 138.119ZM146.044 66.7953C144.912 64.531 144.912 61.1346 146.044 58.8704L152.837 45.2849C155.101 40.7564 152.837 35.0958 147.176 32.8315L132.459 27.1709C130.194 26.0388 127.93 23.7745 126.798 21.5103L121.137 6.79263C120.005 2.26413 116.609 -0.00012207 113.213 -0.00012207C112.08 -0.00012207 109.816 -0.00012207 108.684 1.132L93.9664 7.92475H90.57C89.4379 7.92475 88.3058 7.92475 87.1736 6.79263L72.456 1.132C71.3239 -0.00012207 69.0596 -0.00012207 67.9275 -0.00012207C64.5311 -0.00012207 61.1348 2.26413 58.8705 5.6605L53.2099 21.5103C53.2099 23.7745 50.9456 26.0388 48.6814 27.1709L32.8316 32.8315C28.3031 33.9636 26.0389 39.6243 28.3031 45.2849L35.0959 60.0025C36.228 62.2668 36.228 65.6631 35.0959 67.9274L28.3031 81.5129C26.0389 86.0414 28.3031 91.702 33.9638 93.9663L48.6814 99.6269C50.9456 100.759 53.2099 103.023 54.342 105.288L60.0026 120.005C61.1348 124.534 64.5311 126.798 67.9275 126.798C69.0596 126.798 70.1918 126.798 71.3239 125.666L86.0415 118.873C87.1736 118.873 88.3058 117.741 89.4379 117.741C90.57 117.741 91.7021 117.741 92.8343 118.873L107.552 125.666C108.684 126.798 109.816 126.798 110.948 126.798C114.345 126.798 117.741 124.534 120.005 121.137L125.666 106.42C126.798 104.155 129.062 101.891 131.327 100.759L146.044 95.0984C150.573 92.8341 153.969 87.1735 151.705 82.645L146.044 66.7953ZM90.57 108.684C65.6633 108.684 45.285 88.3056 45.285 63.3989C45.285 38.4921 65.6633 18.1139 90.57 18.1139C115.477 18.1139 135.855 38.4921 135.855 63.3989C135.855 88.3056 115.477 108.684 90.57 108.684Z" fill="#6DA1BD"/>
<path d="M124.534 63.3989C124.534 72.4067 120.955 81.0455 114.586 87.4149C108.217 93.7844 99.5778 97.3627 90.57 97.3627C81.5623 97.3627 72.9234 93.7844 66.554 87.4149C60.1846 81.0455 56.6063 72.4067 56.6063 63.3989C56.6063 54.3912 60.1846 45.7524 66.554 39.3829C72.9234 33.0135 81.5623 29.4352 90.57 29.4352C99.5778 29.4352 108.217 33.0135 114.586 39.3829C120.955 45.7524 124.534 54.3912 124.534 63.3989Z" fill="#407BFF"/>
<path d="M89.379 75.4129C96.2012 68.113 102.788 63.1611 111.061 56.1487C113.539 54.0497 113.921 50.3703 111.978 47.7641C109.913 44.9927 105.99 44.438 103.336 46.6411C95.7574 52.9266 89.8613 58.9812 84.2686 65.4479C83.9742 65.7876 83.8271 65.9574 83.6754 66.0525C83.4879 66.1722 83.2704 66.2364 83.048 66.2376C82.8256 66.2388 82.6074 66.177 82.4187 66.0593C82.2668 65.9677 82.1216 65.8035 81.8352 65.4796L81.8232 65.4661L78.8435 62.0923C78.2112 61.3739 77.4218 60.8109 76.5365 60.4473C75.6513 60.0837 74.6941 59.9292 73.7394 59.9958C72.7847 60.0624 71.8582 60.3483 71.032 60.8313C70.2058 61.3143 69.5022 61.9814 68.9759 62.7807C68.2035 63.948 67.8406 65.3387 67.9443 66.7346C68.048 68.1304 68.6123 69.4523 69.5487 70.4927L74.2221 75.6778L74.2267 75.6829C77.7174 79.5559 79.4648 81.4947 81.5628 81.5128C83.6595 81.5309 85.566 79.4931 89.379 75.4129Z" fill="#FFD233"/>
<path d="M81.8232 65.4661L78.8435 62.0923C78.2112 61.3739 77.4218 60.8109 76.5365 60.4473C75.6513 60.0837 74.6941 59.9292 73.7394 59.9958C72.7847 60.0624 71.8582 60.3483 71.032 60.8313C70.2058 61.3143 69.5022 61.9814 68.9759 62.7807C68.2035 63.948 67.8406 65.3387 67.9443 66.7346C68.048 68.1304 68.6123 69.4523 69.5487 70.4927L74.2221 75.6778L74.2267 75.6829C77.7174 79.5559 79.4648 81.4947 81.5628 81.5128C83.6595 81.5309 85.566 79.4931 89.379 75.4129C96.2012 68.113 102.788 63.1611 111.061 56.1487C113.539 54.0497 113.921 50.3703 111.978 47.7641C109.913 44.9927 105.99 44.438 103.336 46.6411C95.7574 52.9266 89.8613 58.9812 84.2686 65.4479C83.9742 65.7876 83.8271 65.9574 83.6754 66.0525C83.4879 66.1722 83.2704 66.2364 83.048 66.2376C82.8256 66.2388 82.6074 66.177 82.4187 66.0593C82.2668 65.9677 82.1216 65.8035 81.8352 65.4796M81.8232 65.4661L81.8352 65.4796M81.8232 65.4661C81.8272 65.4706 81.8312 65.4751 81.8352 65.4796" stroke="#FFD233" stroke-width="3.39638" stroke-linecap="round" stroke-linejoin="round"/>
</g>
<defs>
<clipPath id="clip0_134_434">
<rect width="181.14" height="181.14" fill="white"/>
</clipPath>
</defs>
</svg>
