<svg width="119" height="119" viewBox="0 0 119 119" fill="none" xmlns="http://www.w3.org/2000/svg">
<path d="M80.7255 69.0592C78.2346 66.5755 74.2226 66.5755 71.7317 69.0592C70.7027 70.0917 70.0613 71.4384 69.8972 72.8747L59.1137 62.0567C54.9673 57.8821 49.2848 55.6078 43.4083 55.7424C43.5723 54.7549 43.811 53.7823 44.1241 52.8397C44.2733 52.4058 44.1539 51.9419 43.8408 51.6128L32.3861 40.1215C31.9238 39.6577 31.163 39.6577 30.7007 40.1215C30.2384 40.5854 30.2384 41.3484 30.7007 41.8123L41.6484 52.7948C41.35 53.8272 41.1264 54.8746 40.9772 55.9371C39.9182 56.0867 38.8741 56.3111 37.845 56.6102L26.8975 45.6278C26.435 45.1639 25.6745 45.1639 25.212 45.6278C24.7497 46.0915 24.7497 46.8547 25.212 47.3185L36.6667 58.8098C36.98 59.124 37.4573 59.2437 37.8897 59.0942C38.8293 58.78 39.7989 58.5405 40.7832 58.3759C40.634 64.2712 42.9162 69.9571 47.0625 74.1317L57.8459 84.9497C54.3558 85.3386 51.8351 88.4957 52.223 91.9969C52.3871 93.4335 53.0283 94.7801 54.0576 95.8126C56.5482 98.3112 60.5754 98.3112 63.0661 95.8126C65.2288 93.6429 65.542 90.2464 63.8268 87.7028L65.4375 86.0867C65.9 85.623 65.9 84.8598 65.4375 84.396C64.9752 83.9321 64.2147 83.9321 63.7522 84.396L62.216 85.9223L48.7628 72.4259C44.9743 68.6852 42.9458 63.4931 43.1696 58.1516C48.4942 57.942 53.6697 59.962 57.4283 63.7476L70.8815 77.2438L69.3453 78.7849C68.883 79.2638 68.8979 80.0119 69.3752 80.4758C69.8375 80.9246 70.5684 80.9246 71.0307 80.4758L72.6415 78.8599C75.5499 80.8349 79.5024 80.0868 81.486 77.169C83.2012 74.6254 82.8881 71.2288 80.7255 69.0592ZM58.5469 87.3286C60.7393 87.3286 62.5142 89.1091 62.5142 91.3087C62.5142 93.5082 60.7393 95.2888 58.5469 95.2888C56.3545 95.2888 54.5796 93.5082 54.5796 91.3087C54.5647 89.1091 56.3395 87.3286 58.5469 87.3286ZM79.0401 76.406C77.4889 77.962 74.9682 77.962 73.4171 76.406C71.866 74.8498 71.866 72.3211 73.4171 70.765C74.9682 69.209 77.4889 69.209 79.0401 70.765C80.5912 72.3211 80.5912 74.8498 79.0401 76.406ZM68.7786 39.3734C68.3163 38.9094 67.5555 38.9094 67.0932 39.3734L66.7352 39.7325L48.718 21.6576C48.4942 21.4331 48.196 21.3134 47.8678 21.3134C47.5547 21.3134 47.2414 21.4331 47.0177 21.6576C43.4083 25.2786 43.3934 31.1588 47.0177 34.7947L54.0427 41.8422C54.4155 42.2162 54.9971 42.3061 55.4744 42.0367C57.4283 40.9443 59.8594 41.1688 61.5896 42.6054L62.8275 43.6377L62.6932 43.7725C62.2309 44.2362 62.216 44.9992 62.6932 45.4632L86.8106 69.6578C88.4813 71.3336 91.1957 71.3485 92.8661 69.6727L92.8811 69.6578C94.5515 67.9669 94.5515 65.2438 92.8811 63.568L68.7786 39.3734ZM64.5427 41.932L63.1257 40.7499C60.8885 38.9094 57.8309 38.4457 55.1463 39.538L48.718 33.0891C46.3615 30.7249 46.0332 26.9993 47.9424 24.2611L65.0498 41.4232L64.5427 41.932ZM91.1957 67.9669C90.4499 68.715 89.2567 68.715 88.5111 67.9669C88.5111 67.9669 88.5111 67.9669 88.4962 67.952L65.2288 44.6103L65.4228 44.4158C65.4375 44.4009 65.4524 44.3859 65.4524 44.3859L67.5556 42.2612L67.9134 41.902L91.1808 65.2438C91.9415 65.9919 91.9415 67.2188 91.1957 67.9669Z" fill="black"/>
</svg>
