<svg width="119" height="119" viewBox="0 0 119 119" fill="none" xmlns="http://www.w3.org/2000/svg">
<path d="M80.6968 28.4179H84.0015C89.5536 42.3567 92.3722 53.4722 92.3581 63.6765C92.3445 73.6487 89.6272 82.6098 84.3578 92.3584H80.8381C86.5076 82.3087 89.2998 73.4688 89.3133 63.6719C89.3268 53.7951 86.5174 42.788 80.6968 28.4179ZM36.7747 28.4179H40.0793C34.2588 42.788 31.4493 53.7951 31.4628 63.6719C31.4763 73.4688 34.2686 82.3087 39.9381 92.3584H36.4184C31.149 82.6098 28.4317 73.6487 28.418 63.6765C28.404 53.4722 31.2225 42.3567 36.7747 28.4179ZM58.8659 73.7912V92.3582H61.9107V73.7908L74.3826 60.6955L72.2296 58.4349L60.388 70.8682L48.5466 58.4349L46.3936 60.6955L58.8659 73.7912Z" fill="black"/>
<path fill-rule="evenodd" clip-rule="evenodd" d="M62.4362 46.7121L65.2448 43.4355C67.112 41.2571 67.0286 37.9255 65.0549 35.8531C64.4202 35.1865 63.5591 34.8121 62.6614 34.8121H58.1149C57.2171 34.8121 56.356 35.1865 55.7213 35.8531C53.7476 37.9255 53.6643 41.2571 55.5314 43.4355L58.34 46.7121L51.6445 54.5233L53.9078 56.6621L60.3882 49.1017L66.8685 56.6621L69.1317 54.5233L62.4362 46.7121ZM58.1149 38.0091C58.0247 38.0091 57.938 38.0468 57.8743 38.1137C57.0457 38.9837 57.0107 40.3824 57.7945 41.2967L60.3882 44.3225L62.9817 41.2967C63.7655 40.3824 63.7305 38.9837 62.9019 38.1137C62.8382 38.0468 62.7517 38.0091 62.6614 38.0091H58.1149Z" fill="black"/>
</svg>
