<svg width="264" height="253" viewBox="0 0 264 253" fill="none" xmlns="http://www.w3.org/2000/svg">
<g filter="url(#filter0_d_345_25)">
<path d="M136.609 242.945C201.087 242.945 253.357 190.865 253.357 126.62C253.357 62.3756 201.087 10.295 136.609 10.295C72.131 10.295 19.8613 62.3756 19.8613 126.62C19.8613 190.865 72.131 242.945 136.609 242.945Z" fill="white"/>
</g>
<path d="M252.462 237.944C252.462 238.024 196.098 238.083 126.595 238.083C57.0915 238.083 0.716797 238.024 0.716797 237.944C0.716797 237.864 57.0808 237.808 126.595 237.808C196.109 237.808 252.462 237.87 252.462 237.944Z" fill="#263238"/>
<path d="M146.902 78.3702C147.574 78.4171 148.239 78.2122 148.769 77.7959C149.298 77.3796 149.651 76.7816 149.761 76.1192C149.87 75.4566 149.729 74.7771 149.362 74.2136C148.995 73.6501 148.432 73.243 147.779 73.0722C148.17 72.6298 148.412 72.0761 148.469 71.4896C148.526 70.903 148.396 70.3134 148.1 69.8041C147.803 69.2947 147.352 68.8918 146.81 68.652C146.27 68.4123 145.667 68.3478 145.09 68.468C145.033 67.8909 144.829 67.3376 144.496 66.8624C144.163 66.387 143.712 66.0055 143.186 65.7549C142.662 65.5043 142.081 65.3933 141.5 65.4324C140.919 65.4715 140.359 65.6594 139.873 65.978C139.19 65.4821 138.361 65.2271 137.516 65.253C136.671 65.2789 135.86 65.5844 135.21 66.1211C134.638 66.0495 134.06 66.1621 133.558 66.442C133.055 66.7219 132.656 67.1545 132.419 67.6768C132.18 68.199 132.117 68.7833 132.237 69.3441C132.356 69.905 132.652 70.4131 133.082 70.794" fill="#263238"/>
<path d="M147.326 78.7253C146.952 75.8752 145.515 73.2701 143.3 71.4282C141.084 69.5866 138.256 68.6432 135.373 68.7861L134.778 68.8179C128.397 69.5066 125.415 75.2922 126.271 81.6339L128.254 102.826L128.365 103.854L143.285 106.074L142.993 100.66C142.993 100.66 149.103 99.404 148.875 93.2421C148.763 90.307 148.034 84.2249 147.326 78.7253Z" fill="#AE7461"/>
<path d="M143.074 100.654C140.215 100.797 137.375 100.12 134.891 98.7046C134.891 98.7046 137.017 103.022 143.122 102.164L143.074 100.654Z" fill="#6F4439"/>
<path d="M145.977 84.3836C145.99 84.6119 145.913 84.8362 145.763 85.0093C145.614 85.1823 145.403 85.2904 145.173 85.3107C145.063 85.3247 144.949 85.3165 144.84 85.2864C144.733 85.2562 144.631 85.2048 144.542 85.1352C144.455 85.0658 144.382 84.9793 144.327 84.8813C144.273 84.7831 144.239 84.6751 144.227 84.5637C144.214 84.3355 144.291 84.111 144.441 83.9381C144.591 83.7649 144.803 83.6569 145.031 83.6365C145.141 83.6225 145.255 83.6308 145.364 83.661C145.471 83.691 145.573 83.7425 145.662 83.812C145.749 83.8816 145.822 83.9679 145.877 84.0661C145.931 84.1643 145.965 84.2721 145.977 84.3836Z" fill="#263238"/>
<path d="M146.141 81.7929C146.036 81.9147 145.344 81.4538 144.403 81.5014C143.462 81.5492 142.808 82.0578 142.674 81.9465C142.542 81.8353 142.722 81.6868 143.015 81.4538C143.41 81.1512 143.89 80.9773 144.387 80.9558C144.879 80.929 145.368 81.0589 145.781 81.3267C146.084 81.5385 146.189 81.7399 146.141 81.7929Z" fill="#263238"/>
<path d="M137.363 84.8395C137.377 85.0677 137.3 85.292 137.151 85.4651C137.001 85.6381 136.789 85.7463 136.561 85.7665C136.45 85.7791 136.338 85.7695 136.231 85.7386C136.124 85.7077 136.024 85.656 135.938 85.5866C135.851 85.5172 135.78 85.4312 135.726 85.3339C135.673 85.2366 135.641 85.1297 135.63 85.0195C135.616 84.7919 135.692 84.5681 135.842 84.3958C135.992 84.2236 136.204 84.1166 136.432 84.0976C136.543 84.0852 136.653 84.0944 136.76 84.125C136.867 84.1555 136.965 84.2067 137.052 84.2758C137.138 84.3447 137.211 84.4299 137.265 84.5267C137.318 84.6233 137.35 84.7297 137.363 84.8395Z" fill="#263238"/>
<path d="M136.851 82.4288C136.752 82.5506 136.06 82.0898 135.114 82.1375C134.167 82.1851 133.518 82.6673 133.39 82.5824C133.263 82.4977 133.438 82.323 133.73 82.0898C134.124 81.7854 134.604 81.6113 135.103 81.5918C135.593 81.5639 136.081 81.696 136.49 81.9679C136.793 82.1745 136.905 82.3759 136.851 82.4288Z" fill="#263238"/>
<path d="M140.633 89.2475C141.122 89.0668 141.633 88.9495 142.154 88.8978C142.398 88.8608 142.621 88.7972 142.653 88.633C142.662 88.3835 142.592 88.1375 142.457 87.9283L141.653 86.1322C140.532 83.5733 139.708 81.4594 139.808 81.4169C139.91 81.3745 140.904 83.4143 142.025 85.9733L142.802 87.78C142.97 88.0618 143.032 88.3943 142.977 88.7177C142.947 88.8047 142.897 88.8836 142.829 88.9478C142.763 89.0121 142.683 89.0603 142.594 89.0885C142.466 89.135 142.328 89.1617 142.191 89.1681C141.676 89.261 141.154 89.2876 140.633 89.2475Z" fill="#263238"/>
<path d="M132.178 80.0974C132.21 79.8326 133.065 79.8062 134.017 79.4987C134.969 79.1915 135.703 78.7571 135.873 78.969C135.953 79.0697 135.873 79.3293 135.58 79.6312C135.222 80.0049 134.775 80.2805 134.279 80.4313C133.787 80.5856 133.265 80.6094 132.762 80.5002C132.379 80.3942 132.162 80.2246 132.178 80.0974Z" fill="#263238"/>
<path d="M142.543 77.7082C142.771 77.5281 143.505 77.8778 144.43 78.0421C145.355 78.2062 146.168 78.1904 146.312 78.4393C146.371 78.5612 146.211 78.7519 145.833 78.895C145.318 79.057 144.771 79.0883 144.239 78.9854C143.71 78.8828 143.214 78.6494 142.797 78.3069C142.505 78.0525 142.436 77.8195 142.543 77.7082Z" fill="#263238"/>
<path d="M146.583 75.9438C146.583 75.9438 144.763 72.182 142.86 71.3821C140.559 70.4073 139.712 72.9131 137.543 72.4416C135.374 71.9701 133.172 71.0164 131.062 72.7755C128.754 74.6987 129.939 75.912 129.928 78.6404C129.875 89.703 128.009 92.9454 127.18 87.7532C127.084 87.1863 125.478 86.8155 125.121 84.4208C124.665 81.3161 124.351 77.5331 124.941 75.2867C125.435 73.3953 126.44 72.0497 128.285 70.5184C131.194 68.1291 135.342 67.8694 138.176 68.0177C141.01 68.166 146.599 71.1224 146.583 75.9438Z" fill="#263238"/>
<path d="M127.558 87.552C127.538 87.3271 127.476 87.1085 127.369 86.9091C127.264 86.7096 127.118 86.5338 126.943 86.3921C126.767 86.2504 126.563 86.1458 126.346 86.0847C126.127 86.0236 125.9 86.0072 125.676 86.0367C124.531 86.201 123.287 86.9162 123.48 89.2739C123.824 93.4593 127.966 92.2515 127.966 92.1348C127.966 92.0183 127.717 89.3004 127.558 87.552Z" fill="#AE7461"/>
<path d="M126.925 90.6303C126.925 90.6303 126.856 90.6886 126.733 90.7575C126.569 90.8411 126.38 90.86 126.201 90.8104C125.743 90.6886 125.314 90.0157 125.228 89.2634C125.187 88.9055 125.23 88.5432 125.351 88.2038C125.378 88.0696 125.439 87.944 125.526 87.8378C125.611 87.7318 125.724 87.6481 125.85 87.5945C125.932 87.5663 126.023 87.5672 126.105 87.597C126.187 87.6268 126.257 87.684 126.303 87.7588C126.365 87.8753 126.344 87.96 126.371 87.9653C126.397 87.9707 126.456 87.886 126.408 87.7163C126.371 87.616 126.305 87.5292 126.217 87.4674C126.157 87.4281 126.091 87.4015 126.02 87.3887C125.95 87.3759 125.877 87.3775 125.808 87.3931C125.638 87.4441 125.485 87.5361 125.36 87.6609C125.237 87.7858 125.144 87.9396 125.095 88.1085C124.947 88.4852 124.891 88.8926 124.936 89.2952C125.032 90.1324 125.531 90.8847 126.153 91.0118C126.269 91.0365 126.389 91.0344 126.503 91.006C126.617 90.9775 126.722 90.9234 126.813 90.8475C126.925 90.7364 126.941 90.641 126.925 90.6303Z" fill="#6F4439"/>
<path d="M127.233 79.4245C127.77 79.8165 128.397 80.0679 129.057 80.1557C129.39 80.1873 129.722 80.0972 129.992 79.9022C130.265 79.7072 130.454 79.4208 130.529 79.0961C130.566 78.8047 130.476 78.471 130.657 78.2325C130.837 77.9942 131.301 78.0153 131.657 78.0364C132.276 78.0595 132.882 77.8666 133.374 77.4914C133.866 77.1161 134.21 76.5819 134.347 75.9808C134.547 76.1784 134.814 76.2951 135.094 76.3077C135.375 76.3205 135.652 76.2285 135.867 76.0497C136.281 75.6735 136.639 75.242 136.931 74.7676C137.085 74.5318 137.293 74.3367 137.537 74.1991C137.783 74.0617 138.06 73.9856 138.341 73.9782C138.643 74.0652 138.953 74.1167 139.266 74.1318C139.798 74.0576 140.052 73.4006 140.111 72.8496C140.17 72.2987 140.202 71.6575 140.642 71.3396C141.084 71.0217 141.632 71.17 142.143 71.2231C142.653 71.2761 143.307 71.1171 143.414 70.6191C143.428 70.4849 143.416 70.3488 143.377 70.2194C143.337 70.0899 143.273 69.97 143.184 69.8668C142.819 69.376 142.296 69.0229 141.705 68.865C141.111 68.7073 140.482 68.7542 139.92 68.9979C139.669 68.3187 139.224 67.7277 138.641 67.2976C138.056 66.8673 137.357 66.6168 136.634 66.5767C135.908 66.5367 135.186 66.709 134.559 67.0724C133.93 67.4357 133.422 67.9744 133.097 68.6217C132.63 68.2461 132.08 67.9877 131.491 67.8682C130.903 67.7488 130.295 67.7717 129.718 67.9353C129.14 68.0989 128.611 68.3981 128.174 68.808C127.738 69.2179 127.404 69.7264 127.207 70.2906C126.684 70.1796 126.141 70.2245 125.643 70.4199C125.146 70.6152 124.718 70.9521 124.412 71.3887C124.105 71.825 123.936 72.3418 123.923 72.8739C123.911 73.4061 124.055 73.9302 124.34 74.3808C123.957 74.5927 123.635 74.8987 123.405 75.2695C123.173 75.6405 123.042 76.064 123.021 76.5C123.048 77.3688 123.941 78.19 124.77 77.9252C124.642 78.2694 124.643 78.6489 124.775 78.9919C124.909 79.3346 125.164 79.6168 125.492 79.7849C125.82 79.953 126.2 79.9951 126.556 79.9033C126.912 79.8113 127.224 79.592 127.429 79.2869" fill="#263238"/>
<path d="M140.325 70.2378C140.325 70.2378 140.325 70.2378 140.325 70.312C140.325 70.3863 140.325 70.4392 140.325 70.5399C140.281 70.8258 140.19 71.1029 140.06 71.3611C139.849 71.7768 139.548 72.1393 139.176 72.4206C138.687 72.793 138.09 72.9959 137.475 72.9982L137.543 72.8975C137.689 73.2743 137.68 73.6931 137.518 74.063C137.343 74.4456 137.119 74.8022 136.848 75.1227C136.716 75.3055 136.566 75.4742 136.4 75.626C136.21 75.7715 135.985 75.8679 135.746 75.9068C135.5 75.955 135.245 75.9418 135.005 75.8688C134.766 75.7958 134.547 75.6651 134.368 75.4882L134.524 75.4353C134.486 75.8745 134.356 76.3011 134.144 76.6877C133.932 77.0745 133.641 77.413 133.29 77.6817C132.907 77.9978 132.431 78.1834 131.934 78.2115C131.465 78.2113 131 78.1325 130.556 77.9783L130.668 77.9254C130.474 78.4431 130.151 78.9039 129.732 79.2659C129.544 79.4468 129.315 79.583 129.066 79.6647C128.816 79.7463 128.552 79.7711 128.292 79.7374C127.845 79.6651 127.43 79.4641 127.094 79.159C126.761 78.854 126.526 78.4583 126.415 78.0207L126.51 78.0579C126.079 78.3145 125.572 78.4155 125.075 78.344C124.704 78.2934 124.353 78.1552 124.048 77.9414C123.856 77.8083 123.687 77.6433 123.549 77.4539C123.499 77.389 123.46 77.3178 123.432 77.242C123.606 77.4947 123.829 77.7121 124.086 77.8831C124.387 78.0788 124.733 78.2005 125.091 78.2379C125.56 78.2996 126.038 78.1985 126.44 77.9518L126.521 77.8989V77.989C126.629 78.3962 126.856 78.7633 127.169 79.0453C127.485 79.3275 127.873 79.5127 128.292 79.5784C128.529 79.6083 128.772 79.5841 128.998 79.5081C129.226 79.4319 129.433 79.3056 129.604 79.1387C129.996 78.791 130.296 78.3523 130.477 77.8618L130.51 77.7824H130.588C131.01 77.9286 131.454 78.0021 131.902 77.9996C132.361 77.9783 132.802 77.8092 133.156 77.5174C133.49 77.2654 133.764 76.9465 133.966 76.5813C134.165 76.2162 134.288 75.8131 134.322 75.3982V75.2021L134.459 75.3453C134.618 75.5008 134.811 75.6159 135.023 75.6806C135.235 75.7452 135.459 75.7575 135.677 75.7161C135.887 75.6839 136.087 75.6001 136.258 75.4724C136.416 75.3318 136.559 75.1735 136.682 75.0009C136.948 74.6924 137.169 74.3481 137.336 73.9783C137.413 73.813 137.456 73.6341 137.461 73.4523C137.468 73.2704 137.438 73.0889 137.374 72.9186L137.336 72.8232H137.443C138.028 72.8268 138.6 72.6408 139.07 72.2935C139.434 72.0349 139.735 71.6982 139.953 71.308C140.138 70.9755 140.265 70.6134 140.325 70.2378Z" fill="#455A64"/>
<path d="M137.757 91.8542C138.4 92.0943 139.076 92.2406 139.76 92.2886C140.432 92.4321 141.122 92.4768 141.808 92.4211C140.493 92.0318 139.128 91.8407 137.757 91.8542Z" fill="#263238"/>
<path d="M127.923 102.98C125.996 105.84 124.415 108.916 123.213 112.146C121.378 117.216 121.086 134.673 121.086 134.673L135.219 179.961C135.219 179.961 143.838 179.029 144.828 177.874C145.817 176.72 165.997 154.202 165.427 154.202C164.858 154.202 159.164 152.084 159.164 152.084C159.164 152.084 152.597 120.437 150.337 115.934C148.077 111.431 144.747 106.397 144.747 106.397L127.923 102.98Z" fill="#90C4E1"/>
<path d="M223.84 193L227.13 206.029C227.13 206.029 241.525 207.089 242.37 209.419L217.245 216.688L211.279 196.598L223.84 193Z" fill="#263238"/>
<path d="M219.043 207.194C218.822 207.337 218.662 207.556 218.594 207.81C218.526 208.064 218.555 208.334 218.676 208.566C218.811 208.79 219.027 208.955 219.28 209.025C219.535 209.096 219.804 209.065 220.038 208.943C220.269 208.79 220.437 208.556 220.508 208.288C220.578 208.018 220.548 207.733 220.419 207.485C220.255 207.266 220.011 207.119 219.738 207.076C219.467 207.032 219.189 207.096 218.963 207.252" fill="#E0E0E0"/>
<path d="M217.245 216.688L216.714 214.638L240.997 208.438C240.997 208.438 242.258 208.598 242.359 209.419L217.245 216.688Z" fill="#455A64"/>
<path d="M227.497 205.785C227.53 205.906 226.934 206.14 226.433 206.707C225.934 207.273 225.774 207.883 225.647 207.867C225.519 207.851 225.498 207.094 226.098 206.416C226.699 205.737 227.492 205.663 227.497 205.785Z" fill="white"/>
<path d="M230.449 206.108C230.511 206.218 230.044 206.579 229.779 207.215C229.511 207.851 229.549 208.438 229.428 208.465C229.305 208.492 229.023 207.829 229.369 207.041C229.715 206.25 230.417 205.991 230.449 206.108Z" fill="white"/>
<path d="M232.862 208.815C232.761 208.874 232.41 208.318 232.533 207.554C232.656 206.792 233.144 206.362 233.23 206.448C233.315 206.531 233.058 206.977 232.969 207.623C232.878 208.27 232.98 208.772 232.862 208.815Z" fill="white"/>
<path d="M226.417 202.898C226.417 203.025 225.784 203.02 225.109 203.269C224.435 203.517 223.95 203.889 223.854 203.798C223.76 203.707 224.152 203.125 224.961 202.844C225.768 202.564 226.449 202.786 226.417 202.898Z" fill="white"/>
<path d="M160.057 155.119C160.057 155.119 195.546 145.238 198.22 144.888C200.895 144.539 209.333 144.274 211.907 149.837C214.481 155.4 229.348 202.16 228.881 202.51L213.263 207.385L198.22 165.201C198.22 165.201 185.192 175.082 183.203 175.162C181.215 175.241 143.808 178.441 143.808 178.441L144.771 165.657L160.057 155.119Z" fill="#455A64"/>
<path d="M202.305 157.964C201.69 159.316 200.993 160.63 200.214 161.894C199.519 163.209 198.742 164.478 197.884 165.693C198.501 164.342 199.198 163.029 199.975 161.763C200.67 160.449 201.447 159.181 202.305 157.964Z" fill="#263238"/>
<path d="M138.725 135.532C138.725 135.532 148.981 153.116 150.98 154.107C152.98 155.098 183.24 149.233 183.24 149.233L182.953 142.234L156.458 141.561L151.332 128.364L138.725 135.532Z" fill="#AE7461"/>
<path d="M154.878 145.799C154.809 145.757 155.324 144.74 155.814 143.426C156.303 142.112 156.584 141.01 156.664 141.026C156.483 142.74 155.868 144.38 154.878 145.794V145.799Z" fill="#6F4439"/>
<path d="M144.068 111.659C137.92 104.421 126.292 110.281 128.083 119.606C128.253 120.471 128.538 121.308 128.934 122.096C132.055 128.321 136.953 138.674 136.953 138.674C136.953 138.674 152.878 131.256 152.755 130.467C152.634 129.677 147.996 116.469 144.184 111.812L144.068 111.659Z" fill="#90C4E1"/>
<path d="M144.068 111.659L144.2 111.802L144.556 112.257C145.009 112.845 145.426 113.458 145.806 114.096C147.185 116.458 148.405 118.909 149.454 121.434C150.144 123.023 150.863 124.798 151.581 126.732C151.937 127.696 152.31 128.692 152.645 129.736L152.766 130.128L152.825 130.34L152.852 130.446C152.857 130.513 152.836 130.579 152.793 130.631C152.588 130.839 152.356 131.017 152.101 131.161C151.624 131.468 151.123 131.754 150.613 132.035C146.53 134.255 141.897 136.464 136.99 138.78L136.867 138.838L136.808 138.716L135.347 135.691L131.662 128.072C131.074 126.843 130.49 125.637 129.912 124.454C129.631 123.86 129.349 123.272 129.067 122.695C128.771 122.125 128.515 121.538 128.295 120.936C127.495 118.637 127.595 116.122 128.577 113.894C129.463 111.98 130.958 110.411 132.832 109.433C134.37 108.624 136.104 108.257 137.84 108.374C139.152 108.467 140.423 108.855 141.562 109.507C142.266 109.932 142.915 110.441 143.492 111.023C143.669 111.224 143.811 111.383 143.913 111.505C143.965 111.556 144.009 111.611 144.052 111.669C143.311 110.86 142.453 110.164 141.51 109.603C140.382 108.984 139.131 108.622 137.846 108.543C136.14 108.451 134.443 108.828 132.939 109.635C130.962 110.66 129.426 112.366 128.616 114.435C127.809 116.504 127.78 118.795 128.54 120.883C128.757 121.474 129.014 122.051 129.306 122.61L130.156 124.364L131.912 127.987L135.628 135.574C136.129 136.634 136.623 137.641 137.092 138.605L136.905 138.536C141.808 136.226 146.444 134.027 150.527 131.823C151.034 131.543 151.533 131.262 152.002 130.965C152.231 130.829 152.444 130.665 152.634 130.477L152.608 130.382L152.559 130.191L152.436 129.799C152.101 128.74 151.734 127.765 151.374 126.806C150.661 124.883 149.959 123.097 149.283 121.508C148.253 118.984 147.068 116.526 145.731 114.149C145.362 113.509 144.959 112.888 144.524 112.289C144.387 112.093 144.275 111.934 144.189 111.823C144.143 111.772 144.102 111.717 144.068 111.659Z" fill="#263238"/>
<path d="M180.258 142.504L190.568 141.482L197.922 142.902L203 146.08L202.627 146.743H201.563C201.563 146.743 201.506 147.649 200.957 147.765C200.41 147.882 196.412 146.133 196.225 146.133C196.04 146.133 193.924 145.471 193.924 145.471L198.107 149.217C198.107 149.217 197.804 150.488 196.289 150.001C194.774 149.514 191.648 147.225 191.648 147.225L189.86 146.923C189.86 146.923 183.974 149.28 182.278 149.397C180.582 149.514 178.385 147.998 178.385 147.998L180.258 142.504Z" fill="#AE7461"/>
<path d="M194.002 145.461C193.959 145.529 193.254 145.19 192.312 144.979C191.724 144.901 191.149 144.755 190.594 144.544C191.193 144.484 191.799 144.542 192.375 144.714C192.979 144.803 193.542 145.062 194.002 145.461Z" fill="#6F4439"/>
<path d="M201.565 146.742C201.109 146.489 200.672 146.204 200.257 145.89C199.858 145.619 199.383 145.291 198.852 144.952C198.294 144.566 197.688 144.253 197.05 144.019C195.847 143.678 194.626 143.407 193.391 143.209C192.87 143.152 192.357 143.049 191.854 142.901C192.379 142.888 192.903 142.927 193.418 143.018C194.678 143.158 195.922 143.405 197.139 143.754C197.802 143.996 198.43 144.328 199.002 144.74C199.533 145.095 199.995 145.439 200.378 145.731C200.806 146.029 201.203 146.368 201.565 146.742Z" fill="#6F4439"/>
<path d="M188.127 237.944C194.756 237.944 200.128 232.592 200.128 225.987C200.128 219.382 194.756 214.029 188.127 214.029C181.499 214.029 176.126 219.382 176.126 225.987C176.126 232.592 181.499 237.944 188.127 237.944Z" fill="#455A64"/>
<path d="M208.408 196.136C207.631 194.295 206.326 192.723 204.654 191.618C202.984 190.514 201.023 189.926 199.018 189.928H197.168C196.979 189.929 196.797 189.864 196.654 189.743C196.512 189.622 196.416 189.455 196.385 189.271C196.159 187.871 195.601 186.544 194.76 185.403C193.917 184.261 192.813 183.334 191.541 182.701C191.405 182.636 191.289 182.533 191.209 182.407C191.129 182.279 191.084 182.131 191.084 181.98V165.027C191.084 163.311 190.4 161.665 189.183 160.452C187.965 159.239 186.313 158.557 184.591 158.557H135.252C135.04 158.557 134.837 158.641 134.687 158.79C134.538 158.939 134.454 159.141 134.454 159.353C134.454 159.562 134.538 159.765 134.687 159.914C134.837 160.063 135.04 160.147 135.252 160.147H184.591C185.89 160.147 187.136 160.662 188.054 161.576C188.972 162.491 189.489 163.732 189.489 165.027V181.021C189.487 181.135 189.462 181.247 189.414 181.35C189.366 181.451 189.297 181.543 189.211 181.618C189.126 181.691 189.024 181.746 188.915 181.78C188.807 181.812 188.692 181.82 188.58 181.806C188.243 181.767 187.906 181.748 187.57 181.748H134.96C134.751 181.748 134.554 181.668 134.404 181.524C134.256 181.38 134.169 181.185 134.161 180.979L132.7 133.434C132.634 130.931 131.588 128.554 129.786 126.811C127.982 125.069 125.565 124.098 123.054 124.109H109.372C108.949 124.109 108.543 124.276 108.244 124.574C107.945 124.873 107.777 125.277 107.777 125.698C107.777 126.12 107.945 126.524 108.244 126.822C108.543 127.12 108.949 127.288 109.372 127.288H123.054C124.734 127.28 126.353 127.93 127.559 129.096C128.766 130.263 129.467 131.854 129.509 133.529L131.073 184.2C131.078 184.406 131.165 184.603 131.313 184.747C131.463 184.891 131.663 184.969 131.869 184.969H186.771C188.507 184.969 190.17 185.655 191.396 186.877C192.623 188.098 193.312 189.757 193.312 191.485V213.234C193.312 213.445 193.396 213.647 193.546 213.797C193.696 213.946 193.899 214.029 194.109 214.029H195.704C195.917 214.027 196.118 213.944 196.268 213.795C196.417 213.646 196.501 213.445 196.503 213.234V193.371C196.503 193.16 196.587 192.959 196.736 192.81C196.886 192.661 197.089 192.577 197.3 192.577H199.018C200.492 192.577 201.932 193.009 203.162 193.819C204.39 194.629 205.353 195.781 205.93 197.133L214.156 218.178C214.233 218.373 214.386 218.529 214.578 218.615C214.773 218.7 214.99 218.704 215.188 218.627L216.177 218.245C216.275 218.208 216.364 218.151 216.439 218.08C216.516 218.007 216.576 217.922 216.619 217.826C216.662 217.73 216.685 217.627 216.687 217.524C216.69 217.42 216.671 217.315 216.633 217.219L208.408 196.136Z" fill="#E0E0E0"/>
<path d="M208.408 196.136C208.408 196.136 208.593 196.588 208.939 197.477C209.285 198.367 209.818 199.687 210.497 201.42C211.864 204.895 213.875 210.007 216.459 216.599C216.537 216.805 216.623 217.011 216.703 217.224C216.742 217.338 216.757 217.459 216.748 217.579C216.737 217.7 216.701 217.817 216.644 217.922C216.518 218.132 216.313 218.284 216.076 218.347L215.427 218.6C215.21 218.723 214.955 218.764 214.709 218.718C214.584 218.688 214.466 218.631 214.366 218.549C214.267 218.467 214.188 218.362 214.135 218.245L213.604 216.89L211.349 211.136L206.233 198.086C206.03 197.49 205.773 196.912 205.467 196.36C205.144 195.81 204.756 195.3 204.308 194.844C203.376 193.915 202.212 193.25 200.938 192.917C200.287 192.743 199.615 192.657 198.943 192.661H197.396C197.238 192.648 197.079 192.682 196.938 192.757C196.806 192.838 196.701 192.959 196.64 193.101C196.589 193.256 196.571 193.421 196.587 193.583V196.762C196.587 199.612 196.587 202.542 196.587 205.553C196.587 207.057 196.587 208.581 196.587 210.124V213.044C196.608 213.255 196.571 213.47 196.482 213.663C196.371 213.859 196.193 214.006 195.981 214.082C195.78 214.129 195.571 214.145 195.364 214.129H194.168C193.942 214.143 193.721 214.074 193.544 213.933C193.366 213.793 193.249 213.594 193.211 213.372C193.211 212.544 193.211 211.783 193.211 210.946C193.211 209.325 193.211 207.687 193.211 206.034C193.211 202.725 193.211 199.34 193.211 195.882V193.281C193.211 192.412 193.249 191.522 193.158 190.67C192.986 189.354 192.411 188.123 191.512 187.147C190.612 186.168 189.432 185.491 188.133 185.207C187.238 185.065 186.331 185.017 185.426 185.063H179.864H132.183C132.046 185.063 131.934 185.063 131.779 185.063C131.627 185.049 131.481 184.996 131.354 184.911C131.228 184.825 131.124 184.712 131.051 184.577C130.978 184.444 130.941 184.294 130.939 184.142L130.891 182.552L130.795 179.373C130.725 177.254 130.659 175.136 130.599 173.015C130.469 168.735 130.333 164.405 130.194 160.026C129.918 151.272 129.636 142.345 129.349 133.243C129.273 132.12 128.891 131.039 128.244 130.116C127.599 129.193 126.711 128.462 125.681 128.003C124.635 127.552 123.494 127.357 122.357 127.436H110.106C109.808 127.436 109.532 127.436 109.212 127.436C108.972 127.42 108.737 127.353 108.523 127.241C108.31 127.129 108.122 126.973 107.972 126.785C107.822 126.597 107.713 126.379 107.652 126.147C107.591 125.914 107.579 125.671 107.617 125.434C107.672 125.117 107.813 124.821 108.024 124.579C108.237 124.337 108.511 124.158 108.819 124.061C108.973 124.018 109.132 123.993 109.292 123.987H123.117C125.588 124 127.961 124.949 129.756 126.641C131.549 128.334 132.631 130.643 132.779 133.1C133.08 142.753 133.379 152.29 133.677 161.71C133.823 166.41 133.966 171.076 134.108 175.702C134.14 176.857 134.176 178.013 134.215 179.167L134.269 180.895C134.256 181.016 134.276 181.138 134.327 181.249C134.379 181.36 134.459 181.455 134.561 181.526C134.661 181.593 134.778 181.632 134.901 181.636H185.374C186.436 181.636 187.5 181.604 188.563 181.694C188.675 181.707 188.787 181.691 188.891 181.648C188.994 181.607 189.087 181.542 189.16 181.456C189.227 181.36 189.276 181.252 189.3 181.137C189.325 181.023 189.329 180.904 189.308 180.789V165.206C189.318 164.706 189.256 164.206 189.122 163.723C188.844 162.77 188.274 161.926 187.491 161.31C186.709 160.694 185.752 160.338 184.755 160.291C182.752 160.291 180.741 160.291 178.752 160.291H155.611H135.358C135.114 160.308 134.871 160.234 134.677 160.083C134.582 160.006 134.504 159.909 134.447 159.8C134.392 159.69 134.36 159.569 134.352 159.447C134.345 159.326 134.363 159.204 134.404 159.088C134.447 158.973 134.511 158.868 134.595 158.777C134.677 158.689 134.778 158.618 134.891 158.566C135.003 158.516 135.124 158.49 135.245 158.488H153.884H172H184.31C184.634 158.488 184.964 158.488 185.294 158.525C185.616 158.568 185.935 158.628 186.251 158.706C187.493 159.028 188.612 159.71 189.468 160.665C189.89 161.122 190.238 161.64 190.498 162.203C191.01 163.299 191.234 164.505 191.152 165.711C191.152 168.044 191.152 170.289 191.152 172.443C191.152 174.594 191.152 176.656 191.152 178.617C191.152 179.602 191.152 180.561 191.152 181.494C191.143 181.719 191.152 181.947 191.179 182.172C191.208 182.275 191.259 182.369 191.327 182.453C191.397 182.534 191.482 182.602 191.578 182.648C193.502 183.623 195.018 185.241 195.863 187.221C196.145 187.926 196.352 188.66 196.482 189.409C196.546 189.569 196.664 189.702 196.813 189.787C196.965 189.874 197.14 189.908 197.311 189.885H198.375C199.633 189.839 200.89 190 202.096 190.363C203.095 190.682 204.039 191.151 204.898 191.75C205.577 192.22 206.192 192.776 206.727 193.403C206.968 193.662 207.153 193.932 207.333 194.167C207.515 194.4 207.652 194.638 207.775 194.844C207.959 195.154 208.123 195.474 208.269 195.803L208.419 196.136C208.419 196.136 208.36 196.026 208.258 195.808C208.1 195.483 207.921 195.167 207.727 194.86C207.606 194.653 207.451 194.437 207.287 194.188C207.121 193.938 206.914 193.689 206.674 193.43C206.135 192.812 205.522 192.263 204.845 191.798C203.989 191.205 203.048 190.743 202.054 190.43C200.849 190.07 199.589 189.913 198.332 189.97H197.268C197.079 189.993 196.886 189.954 196.721 189.858C196.555 189.763 196.427 189.617 196.353 189.441C196.225 188.693 196.017 187.962 195.731 187.257C195.081 185.719 194.008 184.392 192.637 183.433C192.268 183.177 191.883 182.95 191.482 182.749C191.375 182.696 191.281 182.621 191.202 182.529C191.124 182.438 191.067 182.334 191.031 182.218C190.997 181.986 190.987 181.749 190.999 181.515C190.999 180.583 190.999 179.624 190.999 178.638C190.999 176.677 190.999 174.615 190.999 172.465C190.999 170.314 190.999 168.067 190.999 165.73C191.081 164.547 190.86 163.363 190.356 162.287C190.097 161.74 189.755 161.234 189.345 160.788C188.933 160.328 188.456 159.932 187.926 159.612C187.393 159.28 186.812 159.033 186.203 158.88C185.893 158.8 185.579 158.742 185.262 158.706C184.942 158.706 184.629 158.664 184.299 158.669H172H153.884H135.245C135.153 158.669 135.06 158.69 134.973 158.728C134.887 158.767 134.811 158.822 134.746 158.891C134.682 158.96 134.634 159.04 134.604 159.129C134.572 159.218 134.559 159.312 134.566 159.404C134.573 159.5 134.598 159.593 134.643 159.678C134.688 159.763 134.748 159.838 134.823 159.898C134.896 159.958 134.982 160.003 135.074 160.029C135.167 160.056 135.263 160.063 135.358 160.051H178.806C180.8 160.051 182.795 160.051 184.825 160.051C185.869 160.095 186.873 160.466 187.691 161.111C188.309 161.598 188.805 162.223 189.138 162.935C189.472 163.647 189.634 164.427 189.611 165.212V169.833C189.611 171.898 189.611 173.976 189.611 176.068V180.799C189.621 180.936 189.621 181.075 189.611 181.213C189.584 181.366 189.516 181.508 189.415 181.625C189.315 181.744 189.19 181.836 189.047 181.895C188.905 181.954 188.75 181.978 188.595 181.964C187.532 181.874 186.468 181.911 185.404 181.9H134.916C134.748 181.893 134.584 181.84 134.443 181.748C134.306 181.653 134.196 181.526 134.121 181.376C134.048 181.225 134.014 181.06 134.023 180.895L133.969 179.167C133.934 178.018 133.901 176.862 133.864 175.702C133.721 171.079 133.579 166.414 133.433 161.71C133.135 152.315 132.836 142.788 132.534 133.132C132.392 130.743 131.344 128.498 129.601 126.853C127.857 125.208 125.551 124.285 123.149 124.273H109.781C109.5 124.253 109.217 124.274 108.941 124.337C108.683 124.417 108.453 124.567 108.276 124.77C108.098 124.973 107.981 125.221 107.936 125.487C107.89 125.752 107.92 126.024 108.022 126.273C108.123 126.522 108.292 126.738 108.511 126.896C108.728 127.054 108.986 127.15 109.255 127.171C109.532 127.171 109.84 127.171 110.127 127.171H122.357C123.533 127.097 124.71 127.3 125.792 127.765C126.866 128.247 127.788 129.01 128.463 129.973C129.137 130.935 129.536 132.062 129.62 133.232C129.907 142.335 130.187 151.267 130.461 160.031C130.595 164.407 130.727 168.735 130.854 173.015C130.921 175.157 130.987 177.285 131.051 179.4L131.146 182.579L131.199 184.168C131.198 184.278 131.224 184.388 131.274 184.486C131.326 184.584 131.401 184.667 131.492 184.729C131.584 184.792 131.69 184.831 131.8 184.841C131.907 184.841 132.055 184.841 132.183 184.841H179.864H185.415C186.335 184.793 187.256 184.843 188.165 184.991C189.511 185.28 190.734 185.98 191.664 186.994C192.594 188.006 193.188 189.281 193.359 190.643C193.455 191.538 193.402 192.407 193.418 193.291V195.856C193.418 199.31 193.418 202.695 193.418 206.007C193.418 207.661 193.418 209.298 193.418 210.919C193.418 211.719 193.418 212.55 193.418 213.319C193.446 213.495 193.541 213.653 193.682 213.761C193.824 213.871 194.001 213.923 194.179 213.907H195.375C195.553 213.921 195.731 213.908 195.906 213.869C196.074 213.813 196.211 213.695 196.295 213.541C196.375 213.377 196.403 213.193 196.38 213.012V212.424C196.38 211.644 196.38 210.866 196.38 210.092V205.521C196.38 202.51 196.38 199.58 196.38 196.73V193.552C196.369 193.373 196.393 193.192 196.45 193.021C196.523 192.844 196.653 192.695 196.82 192.599C196.983 192.506 197.168 192.464 197.353 192.476H198.901C199.589 192.473 200.273 192.563 200.938 192.741C202.241 193.082 203.428 193.764 204.378 194.717C204.838 195.181 205.237 195.703 205.563 196.27C205.872 196.827 206.13 197.41 206.335 198.012L211.427 211.072L213.671 216.832L214.204 218.183C214.251 218.283 214.318 218.373 214.404 218.442C214.489 218.513 214.591 218.565 214.698 218.59C214.921 218.629 215.151 218.59 215.347 218.48L216.001 218.229C216.22 218.178 216.411 218.043 216.532 217.855C216.778 217.462 216.486 217.032 216.341 216.62C213.778 210.023 211.784 204.901 210.429 201.425C209.759 199.687 209.247 198.362 208.896 197.472C208.547 196.582 208.408 196.136 208.408 196.136Z" fill="#263238"/>
<path d="M182.385 161.614H177.03C175.713 161.615 174.435 161.159 173.419 160.323L169.453 157.042C168.439 156.206 167.165 155.746 165.848 155.744H136.395V185.79H188.037V167.247C188.037 165.753 187.441 164.32 186.381 163.264C185.322 162.209 183.884 161.614 182.385 161.614Z" fill="#263238"/>
<path d="M118.332 131.166L133.317 130.318L135.475 185.292L134.119 185.218L125.171 185.616L118.332 131.166Z" fill="#263238"/>
<path d="M167.469 202.51C167.443 211.49 163.93 220.108 157.664 226.562C151.399 233.016 142.87 236.802 133.866 237.127C124.861 237.452 116.078 234.291 109.361 228.306C102.644 222.32 98.5141 213.976 97.8364 205.023C97.1588 196.071 99.9864 187.204 105.726 180.283C111.467 173.36 119.673 168.922 128.625 167.897C137.578 166.874 146.58 169.343 153.747 174.786C160.912 180.231 165.683 188.228 167.059 197.101C167.336 198.891 167.473 200.699 167.469 202.51C167.469 202.686 167.539 202.855 167.664 202.979C167.788 203.104 167.958 203.173 168.134 203.173C168.311 203.173 168.48 203.104 168.605 202.979C168.73 202.855 168.799 202.686 168.799 202.51C168.794 193.137 165.147 184.128 158.62 177.375C152.094 170.623 143.197 166.65 133.794 166.293C124.394 165.936 115.218 169.22 108.194 175.457C101.17 181.695 96.8435 190.4 96.1219 199.747C95.4002 209.094 98.3398 218.356 104.324 225.589C110.308 232.824 118.871 237.467 128.217 238.546C137.562 239.626 146.965 237.056 154.451 231.379C161.937 225.699 166.926 217.354 168.368 208.091C168.649 206.244 168.794 204.379 168.799 202.51C168.799 202.335 168.73 202.166 168.605 202.042C168.48 201.919 168.311 201.848 168.134 201.848C167.958 201.848 167.788 201.919 167.664 202.042C167.539 202.166 167.469 202.335 167.469 202.51Z" fill="#263238"/>
<path d="M149.544 202.617L135.719 202.521H149.544H159.334L162.3 202.558H163.109C163.2 202.549 163.293 202.549 163.386 202.558H163.104H162.3H159.334L149.544 202.617Z" fill="#263238"/>
<path d="M149.093 206.453L135.628 203.274L149.136 206.32L158.67 208.508L161.557 209.197L162.338 209.392C162.432 209.41 162.523 209.438 162.609 209.477C162.516 209.468 162.423 209.452 162.332 209.429L161.541 209.266L158.643 208.625L149.093 206.453Z" fill="#263238"/>
<path d="M147.8 210.033L135.368 203.952L147.859 209.939L156.664 214.203L159.324 215.517L160.04 215.883C160.129 215.919 160.211 215.967 160.286 216.025L160.026 215.921L159.292 215.581L156.632 214.31L147.8 210.033Z" fill="#263238"/>
<path d="M145.733 213.266L134.971 204.578L145.795 213.18L153.426 219.29L155.729 221.16L156.345 221.691C156.42 221.748 156.49 221.812 156.554 221.881C156.472 221.835 156.395 221.781 156.324 221.721L155.68 221.229L153.358 219.396L145.733 213.266Z" fill="#263238"/>
<path d="M142.999 215.952L134.427 205.112L143.074 215.889L149.162 223.523L150.991 225.853L151.481 226.495C151.54 226.569 151.594 226.647 151.64 226.729C151.57 226.663 151.506 226.592 151.449 226.516L150.916 225.896L149.055 223.596L142.999 215.952Z" fill="#263238"/>
<path d="M139.728 217.975L133.8 205.51L139.83 217.927C141.478 221.362 142.977 224.472 144.083 226.724L145.343 229.398L145.672 230.13C145.717 230.215 145.753 230.304 145.779 230.395C145.728 230.315 145.681 230.231 145.642 230.146C145.557 229.981 145.434 229.743 145.28 229.43L143.977 226.781L139.728 217.975Z" fill="#263238"/>
<path d="M136.097 219.215C134.448 211.799 133.145 205.885 133.113 205.743L136.197 219.194C137.038 222.904 137.792 226.273 138.325 228.731C138.591 229.949 138.803 230.94 138.952 231.618L139.111 232.409C139.136 232.499 139.152 232.593 139.159 232.689C139.12 232.602 139.091 232.512 139.074 232.419C139.031 232.238 138.968 231.974 138.883 231.634C138.723 230.956 138.494 229.97 138.213 228.757L136.097 219.215Z" fill="#263238"/>
<path d="M132.269 219.623C132.32 212.005 132.358 205.97 132.358 205.823C132.358 205.97 132.358 212.005 132.358 219.623C132.358 223.428 132.358 226.876 132.358 229.372C132.358 230.622 132.331 231.634 132.326 232.334C132.326 232.679 132.326 232.948 132.326 233.133C132.333 233.227 132.333 233.321 132.326 233.414C132.313 233.321 132.313 233.227 132.326 233.133C132.326 232.948 132.326 232.679 132.326 232.329C132.326 231.634 132.326 230.622 132.326 229.372C132.247 226.876 132.258 223.406 132.269 219.623Z" fill="#263238"/>
<path d="M128.446 219.169C130.189 211.751 131.572 205.881 131.609 205.732C131.577 205.881 130.237 211.761 128.552 219.194C127.695 222.904 126.925 226.262 126.36 228.699C126.068 229.913 125.829 230.892 125.676 231.57C125.585 231.91 125.521 232.174 125.472 232.355C125.453 232.446 125.426 232.535 125.394 232.62C125.398 232.528 125.412 232.435 125.435 232.345C125.472 232.163 125.531 231.899 125.601 231.554C125.754 230.878 125.973 229.892 126.244 228.672C126.807 226.241 127.585 222.877 128.446 219.169Z" fill="#263238"/>
<path d="M124.824 217.887C128.185 211.046 130.843 205.631 130.928 205.499L124.92 217.933L120.666 226.708C120.135 227.825 119.661 228.731 119.347 229.356L118.981 230.071C118.941 230.157 118.895 230.238 118.842 230.315C118.87 230.226 118.905 230.139 118.949 230.055C119.023 229.887 119.14 229.642 119.284 229.324L120.56 226.676C121.639 224.408 123.149 221.288 124.824 217.887Z" fill="#263238"/>
<path d="M121.586 215.825L130.311 205.102L121.682 215.894L115.556 223.502L113.679 225.791L113.147 226.406C113.091 226.481 113.027 226.55 112.956 226.612C112.956 226.612 113.009 226.532 113.116 226.385L113.61 225.749L115.45 223.428L121.586 215.825Z" fill="#263238"/>
<path d="M118.884 213.102L129.78 204.562L118.969 213.186L111.307 219.252L108.967 221.076L108.329 221.563C108.257 221.625 108.179 221.678 108.095 221.721C108.159 221.653 108.228 221.591 108.303 221.536L108.925 221.007L111.232 219.147C113.179 217.615 115.891 215.459 118.884 213.102Z" fill="#263238"/>
<path d="M116.853 209.849C123.767 206.584 129.228 203.993 129.365 203.937L116.901 209.95L108.075 214.187L105.389 215.448L104.655 215.777L104.395 215.883C104.472 215.828 104.553 215.782 104.64 215.745L105.357 215.379L108.016 214.083L116.853 209.849Z" fill="#263238"/>
<path d="M115.604 206.229L129.126 203.274L115.625 206.352L106.08 208.497L103.193 209.101L102.401 209.266L102.124 209.309C102.21 209.27 102.302 209.243 102.395 209.229L103.177 209.033L106.07 208.366L115.604 206.229Z" fill="#263238"/>
<path d="M115.194 202.42L129.046 202.5H115.194H105.41L102.443 202.468H101.635H101.353C101.447 202.459 101.541 202.459 101.635 202.468H102.443H105.41L115.194 202.42Z" fill="#263238"/>
<path d="M115.646 198.607L129.131 201.754L115.619 198.712L106.08 196.534L103.193 195.856L102.411 195.655C102.318 195.637 102.227 195.611 102.14 195.575L102.421 195.618L103.209 195.781L106.106 196.422L115.646 198.607Z" fill="#263238"/>
<path d="M116.938 194.998L129.37 201.07C129.237 201.012 123.777 198.42 116.89 195.094L108.08 190.855L105.421 189.541L104.703 189.175C104.618 189.136 104.536 189.09 104.458 189.038C104.549 189.065 104.636 189.1 104.719 189.143L105.453 189.477L108.112 190.748L116.938 194.998Z" fill="#263238"/>
<path d="M119.001 191.766L129.78 200.445L118.948 191.851L111.307 185.752L109.01 183.882L108.388 183.353C108.314 183.295 108.244 183.231 108.181 183.161C108.264 183.206 108.343 183.259 108.415 183.321L109.053 183.813L111.382 185.641C113.323 187.225 116.024 189.383 119.001 191.766Z" fill="#263238"/>
<path d="M121.735 189.075L130.312 199.908L121.65 189.137L115.556 181.51L113.727 179.183L113.238 178.542C113.176 178.471 113.123 178.393 113.078 178.309C113.146 178.375 113.21 178.443 113.27 178.515C113.387 178.659 113.557 178.871 113.801 179.135L115.668 181.44L121.735 189.075Z" fill="#263238"/>
<path d="M124.995 187.051C128.28 193.938 130.875 199.379 130.939 199.513L124.899 187.099L120.645 178.309L119.379 175.633C119.236 175.315 119.124 175.066 119.044 174.903C119.001 174.818 118.967 174.729 118.943 174.637C118.995 174.717 119.041 174.8 119.081 174.887L119.448 175.601C119.757 176.226 120.198 177.137 120.751 178.251L124.995 187.051Z" fill="#263238"/>
<path d="M128.631 185.79L131.625 199.262C131.593 199.12 130.237 193.238 128.531 185.811C127.684 182.103 126.936 178.732 126.371 176.301L125.738 173.408L125.579 172.625C125.558 172.532 125.544 172.438 125.537 172.342C125.569 172.431 125.595 172.522 125.617 172.614C125.66 172.793 125.727 173.058 125.813 173.392L126.483 176.274C127.036 178.727 127.791 182.082 128.631 185.79Z" fill="#263238"/>
<path d="M132.438 185.397C132.395 193.016 132.363 199.051 132.36 199.173C132.36 199.029 132.36 192.995 132.333 185.397C132.333 181.588 132.333 178.144 132.333 175.644C132.333 174.399 132.333 173.386 132.363 172.687C132.363 172.337 132.363 172.067 132.363 171.888C132.351 171.793 132.351 171.699 132.363 171.607C132.37 171.699 132.37 171.793 132.363 171.888C132.363 172.067 132.363 172.337 132.363 172.687C132.363 173.386 132.363 174.399 132.363 175.644C132.47 178.144 132.465 181.588 132.438 185.397Z" fill="#263238"/>
<path d="M136.277 185.843C134.539 193.259 133.161 199.136 133.129 199.278C133.161 199.136 134.491 193.249 136.172 185.822C137.028 182.113 137.799 178.748 138.357 176.311C138.644 175.098 138.888 174.118 139.043 173.434C139.127 173.095 139.197 172.836 139.239 172.656C139.257 172.562 139.286 172.472 139.325 172.385C139.316 172.481 139.3 172.575 139.277 172.667L139.117 173.45C138.963 174.134 138.746 175.12 138.475 176.338C137.91 178.775 137.14 182.135 136.277 185.843Z" fill="#263238"/>
<path d="M139.883 187.131C136.521 193.97 133.859 199.39 133.789 199.518L139.787 187.083L144.041 178.304L145.36 175.654L145.726 174.939C145.765 174.853 145.81 174.772 145.865 174.695C145.835 174.784 145.799 174.871 145.758 174.955C145.683 175.125 145.567 175.368 145.423 175.686L144.147 178.336L139.883 187.131Z" fill="#263238"/>
<path d="M143.149 189.185L134.443 199.919L143.074 189.116C145.46 186.145 147.626 183.453 149.195 181.51L151.066 179.215L151.597 178.595C151.654 178.523 151.717 178.453 151.784 178.388C151.74 178.471 151.686 178.549 151.624 178.622L151.136 179.258L149.294 181.577L143.149 189.185Z" fill="#263238"/>
<path d="M145.849 191.904L134.979 200.456L145.784 191.824L153.442 185.747L155.777 183.925L156.42 183.437C156.49 183.376 156.566 183.323 156.648 183.279C156.586 183.346 156.516 183.408 156.441 183.463L155.819 183.994L153.511 185.854L145.849 191.904Z" fill="#263238"/>
<path d="M147.859 195.156L135.357 201.086L147.859 195.062L156.675 190.823L159.334 189.567L160.069 189.233C160.153 189.191 160.242 189.155 160.334 189.127L160.088 189.265L159.366 189.631L156.707 190.935L147.859 195.156Z" fill="#263238"/>
<path d="M149.136 198.776L135.628 201.765L149.13 198.674L158.675 196.518L161.571 195.893L162.365 195.73L162.641 195.687C162.553 195.725 162.463 195.751 162.37 195.767L161.587 195.963L158.702 196.636L149.136 198.776Z" fill="#263238"/>
<path d="M132.37 235.275C125.866 235.275 119.509 233.353 114.101 229.752C108.694 226.152 104.479 221.035 101.99 215.049C99.5015 209.062 98.8504 202.475 100.119 196.119C101.388 189.763 104.52 183.925 109.118 179.343C113.717 174.761 119.576 171.641 125.955 170.376C132.333 169.112 138.946 169.762 144.954 172.241C150.963 174.72 156.098 178.92 159.711 184.309C163.324 189.697 165.252 196.03 165.252 202.51C165.243 211.197 161.775 219.524 155.611 225.667C149.446 231.81 141.088 235.264 132.37 235.275ZM132.37 172.396C126.392 172.396 120.549 174.163 115.578 177.471C110.608 180.78 106.734 185.484 104.447 190.986C102.159 196.488 101.561 202.544 102.727 208.385C103.893 214.228 106.772 219.593 110.998 223.804C115.225 228.017 120.611 230.885 126.474 232.046C132.336 233.208 138.413 232.613 143.936 230.333C149.458 228.054 154.18 224.193 157.501 219.242C160.821 214.289 162.595 208.467 162.595 202.51C162.584 194.528 159.397 186.873 153.731 181.227C148.064 175.582 140.382 172.406 132.37 172.396Z" fill="#E0E0E0"/>
<path d="M132.368 172.396H132.858L134.299 172.454L135.363 172.502C135.751 172.539 136.172 172.614 136.628 172.678L138.106 172.9C138.38 172.932 138.651 172.987 138.915 173.063L139.765 173.282C142.619 173.965 145.348 175.084 147.859 176.597C151.199 178.569 154.126 181.163 156.484 184.238L157.461 185.541C157.769 186.001 158.047 186.484 158.345 186.96L158.785 187.681C158.942 187.921 159.083 188.17 159.206 188.429C159.455 188.958 159.705 189.487 159.967 190.018L160.348 190.812C160.45 191.087 160.552 191.368 160.657 191.65L161.284 193.35C161.477 193.922 161.603 194.526 161.769 195.126C161.849 195.428 161.922 195.73 162.003 196.032C162.04 196.184 162.088 196.334 162.12 196.486L162.19 196.953C162.429 198.214 162.582 199.491 162.646 200.774C162.646 201.425 162.732 202.082 162.726 202.743C162.721 203.405 162.657 204.073 162.625 204.746C162.598 205.08 162.625 205.419 162.56 205.753C162.498 206.087 162.455 206.426 162.407 206.76C162.295 207.433 162.215 208.121 162.077 208.794C161.771 210.163 161.375 211.509 160.892 212.827L160.525 213.832C160.461 213.997 160.402 214.171 160.332 214.336L160.099 214.818L159.152 216.773C158.807 217.409 158.402 218.023 158.026 218.654C157.828 218.966 157.659 219.295 157.436 219.592L156.766 220.481C155.867 221.689 154.891 222.836 153.841 223.916L152.144 225.452L151.72 225.838C151.57 225.96 151.411 226.072 151.256 226.187L150.326 226.882L149.396 227.576C149.066 227.788 148.731 227.985 148.396 228.185L147.39 228.795L146.891 229.102L146.358 229.361L144.232 230.389L141.988 231.215C135.78 233.304 129.055 233.304 122.846 231.215L120.596 230.395L118.47 229.361C118.294 229.278 118.113 229.198 117.938 229.102L117.406 228.8L116.369 228.175L115.369 227.566L114.439 226.866L113.508 226.171L113.046 225.827L112.62 225.442L110.919 223.9C109.872 222.818 108.895 221.671 107.994 220.465L107.33 219.576C107.101 219.279 106.936 218.95 106.734 218.643C106.362 218.007 105.958 217.398 105.607 216.757C105.256 216.116 104.974 215.448 104.66 214.802L104.426 214.321C104.357 214.155 104.304 213.981 104.24 213.816L103.868 212.811C103.386 211.493 102.992 210.147 102.688 208.778C102.544 208.105 102.47 207.417 102.358 206.744C102.305 206.41 102.252 206.071 102.204 205.737C102.156 205.403 102.161 205.064 102.14 204.725C102.103 204.057 102.071 203.39 102.039 202.727C102.007 202.066 102.092 201.409 102.119 200.758C102.182 199.475 102.333 198.198 102.571 196.937L102.645 196.47C102.677 196.318 102.719 196.163 102.757 196.016L102.996 195.11C103.161 194.51 103.283 193.906 103.48 193.329C103.677 192.752 103.9 192.19 104.107 191.634C104.208 191.352 104.315 191.071 104.416 190.796L104.798 189.997L105.559 188.434C105.679 188.173 105.819 187.924 105.979 187.686L106.42 186.96C106.718 186.484 106.995 186.001 107.298 185.546L108.281 184.243C110.636 181.167 113.565 178.572 116.906 176.603C119.416 175.091 122.143 173.976 124.994 173.292L125.839 173.074C126.103 172.998 126.374 172.943 126.648 172.911L128.126 172.687C128.582 172.625 129.003 172.55 129.392 172.513L130.456 172.465L131.891 172.406H132.379L131.891 172.443L130.456 172.534L129.392 172.593C129.003 172.635 128.582 172.713 128.126 172.783L126.657 173.01C126.386 173.047 126.117 173.106 125.855 173.186L125.01 173.402C122.18 174.102 119.474 175.228 116.986 176.741C113.672 178.713 110.77 181.302 108.436 184.365C108.117 184.793 107.792 185.229 107.462 185.662C107.133 186.097 106.888 186.6 106.596 187.072L106.16 187.793C106.003 188.029 105.864 188.276 105.745 188.534L104.99 190.091C104.868 190.358 104.74 190.622 104.612 190.881L104.309 191.713C104.107 192.276 103.9 192.837 103.692 193.403C103.485 193.97 103.373 194.574 103.214 195.167L102.98 196.069C102.943 196.216 102.9 196.371 102.868 196.518L102.799 196.985C102.563 198.237 102.414 199.505 102.352 200.779C102.352 201.425 102.267 202.077 102.278 202.727C102.289 203.379 102.347 204.047 102.379 204.714C102.406 205.048 102.379 205.382 102.448 205.716C102.517 206.05 102.549 206.384 102.603 206.718C102.714 207.385 102.789 208.064 102.932 208.735C103.237 210.092 103.632 211.426 104.113 212.731L104.474 213.727C104.538 213.891 104.597 214.061 104.666 214.225L104.9 214.702C105.208 215.349 105.522 215.99 105.835 216.642C106.149 217.292 106.585 217.881 106.957 218.506C107.154 218.814 107.324 219.142 107.548 219.433L108.207 220.318C109.098 221.513 110.068 222.648 111.11 223.714L112.796 225.239L113.216 225.621L113.673 225.965L114.599 226.655L115.524 227.344L116.513 227.947L117.507 228.551L118.007 228.853L118.539 229.112L120.666 230.13L122.893 230.945C129.049 233.016 135.716 233.016 141.872 230.945L144.1 230.13L146.226 229.107C146.401 229.022 146.583 228.944 146.758 228.853L147.258 228.551L148.251 227.947C148.581 227.745 148.916 227.55 149.24 227.344L150.166 226.655L151.087 225.965C151.24 225.848 151.395 225.743 151.543 225.621L151.969 225.239L153.654 223.714C154.695 222.644 155.663 221.508 156.552 220.313L157.217 219.433C157.441 219.142 157.605 218.814 157.807 218.506C158.179 217.881 158.579 217.272 158.924 216.642C159.27 216.011 159.552 215.343 159.865 214.702L160.099 214.225C160.168 214.061 160.222 213.891 160.286 213.727L160.651 212.731C161.133 211.426 161.527 210.092 161.833 208.735C161.97 208.064 162.051 207.385 162.163 206.718C162.209 206.384 162.263 206.05 162.316 205.716C162.37 205.382 162.359 205.048 162.38 204.714C162.418 204.047 162.45 203.389 162.482 202.732C162.514 202.077 162.429 201.425 162.407 200.779C162.347 199.505 162.2 198.237 161.965 196.985L161.89 196.524C161.865 196.371 161.817 196.222 161.78 196.069C161.705 195.767 161.625 195.469 161.552 195.172C161.386 194.579 161.263 193.975 161.072 193.403L160.455 191.718C160.348 191.437 160.249 191.162 160.147 190.887L159.769 190.091C159.52 189.562 159.265 189.033 159.021 188.539C158.898 188.281 158.76 188.033 158.605 187.793L158.169 187.077C157.871 186.6 157.6 186.118 157.297 185.667L156.329 184.371C153.996 181.304 151.094 178.714 147.779 176.741C145.289 175.228 142.585 174.104 139.755 173.402L138.91 173.186C138.648 173.106 138.378 173.047 138.106 173.01L136.634 172.783C136.175 172.713 135.762 172.635 135.373 172.593L134.309 172.534L132.874 172.443L132.368 172.396Z" fill="#263238"/>
<path d="M132.37 235.275L132.902 235.243C133.258 235.243 133.778 235.243 134.465 235.174C136.473 235.037 138.464 234.719 140.414 234.226C143.489 233.441 146.432 232.217 149.152 230.59C152.754 228.432 155.912 225.614 158.461 222.284C161.55 218.238 163.648 213.53 164.587 208.535C165.111 205.762 165.27 202.935 165.056 200.122C164.947 198.651 164.742 197.188 164.439 195.746C164.115 194.267 163.696 192.81 163.185 191.384C160.88 185.092 156.691 179.656 151.182 175.816C145.674 171.975 139.113 169.915 132.392 169.915C125.669 169.915 119.108 171.975 113.599 175.816C108.091 179.656 103.901 185.092 101.598 191.384C101.087 192.81 100.67 194.267 100.349 195.746C99.3684 200.337 99.3944 205.084 100.425 209.664C101.456 214.244 103.466 218.549 106.32 222.284C108.871 225.616 112.032 228.436 115.636 230.595C118.358 232.219 121.3 233.441 124.373 234.226C126.314 234.717 128.298 235.035 130.296 235.174C130.982 235.232 131.508 235.222 131.859 235.243L132.392 235.275C132.392 235.275 131.668 235.275 130.296 235.227C128.289 235.114 126.296 234.813 124.346 234.332C121.257 233.56 118.296 232.347 115.556 230.729C111.926 228.569 108.739 225.744 106.166 222.399C101.267 216.033 98.8844 208.096 99.4712 200.095C99.5755 198.614 99.7817 197.14 100.088 195.687C100.41 194.195 100.829 192.727 101.343 191.29C104.266 183.22 110.241 176.608 117.992 172.872C125.742 169.133 134.654 168.565 142.819 171.289C144.468 171.826 146.07 172.5 147.605 173.308C149.116 174.088 150.563 174.987 151.932 175.994C157.199 179.849 161.203 185.172 163.439 191.29C163.955 192.727 164.375 194.195 164.7 195.687C165.58 199.932 165.625 204.306 164.832 208.567C163.869 213.6 161.734 218.338 158.6 222.399C156.028 225.744 152.841 228.567 149.211 230.723C146.469 232.345 143.507 233.56 140.414 234.332C138.464 234.813 136.472 235.114 134.465 235.227C133.092 235.296 132.37 235.275 132.37 235.275Z" fill="#263238"/>
<path d="M136.039 202.51C136.039 203.233 135.823 203.94 135.42 204.542C135.017 205.142 134.443 205.611 133.773 205.888C133.103 206.165 132.365 206.236 131.654 206.096C130.943 205.956 130.289 205.608 129.775 205.096C129.262 204.585 128.913 203.933 128.772 203.224C128.629 202.514 128.702 201.78 128.98 201.111C129.257 200.443 129.727 199.873 130.331 199.472C130.934 199.069 131.643 198.855 132.369 198.855C133.342 198.855 134.276 199.241 134.964 199.926C135.652 200.612 136.039 201.541 136.039 202.51Z" fill="#263238"/>
<path d="M188.127 232.975C192.157 232.975 195.423 229.72 195.423 225.706C195.423 221.691 192.157 218.437 188.127 218.437C184.099 218.437 180.832 221.691 180.832 225.706C180.832 229.72 184.099 232.975 188.127 232.975Z" fill="#263238"/>
<path d="M191.589 212.175H197.613C197.613 212.175 198.23 215.421 197.613 216.281C197.134 216.947 192.051 223.873 189.808 226.919C189.518 227.31 189.092 227.58 188.614 227.677C188.136 227.777 187.639 227.695 187.218 227.448C186.769 227.193 186.439 226.772 186.299 226.278C186.158 225.782 186.217 225.251 186.463 224.8L191.726 214.93L191.589 212.175Z" fill="#263238"/>
<path d="M191.589 212.175C191.594 212.237 191.594 212.301 191.589 212.365C191.589 212.507 191.616 212.688 191.632 212.894C191.664 213.388 191.712 214.072 191.771 214.94V214.978C190.913 216.599 189.68 218.961 188.181 221.811L186.996 224.053C186.778 224.431 186.586 224.822 186.416 225.223C186.299 225.642 186.331 226.088 186.505 226.484C186.691 226.894 187.019 227.223 187.429 227.409C187.839 227.598 188.302 227.629 188.733 227.502C189.179 227.354 189.557 227.051 189.798 226.649L190.69 225.431L195.822 218.453L196.97 216.901C197.152 216.645 197.348 216.397 197.503 216.159C197.629 215.91 197.701 215.636 197.715 215.358C197.761 214.294 197.683 213.226 197.481 212.18L197.576 212.259L193.189 212.205H191.983H191.551C191.551 212.205 191.68 212.205 191.945 212.205H193.131L197.576 212.154H197.656V212.232C197.874 213.294 197.963 214.377 197.922 215.459C197.913 215.775 197.833 216.084 197.688 216.365C197.514 216.629 197.326 216.869 197.157 217.123L196.061 218.638L190.929 225.6C190.632 226.013 190.329 226.422 190.036 226.823C189.757 227.274 189.325 227.61 188.819 227.772C188.316 227.924 187.774 227.883 187.299 227.661C186.833 227.447 186.464 227.07 186.261 226.601C186.062 226.147 186.028 225.637 186.165 225.159C186.341 224.742 186.543 224.333 186.771 223.941L187.974 221.71L191.664 214.93V214.967C191.637 214.077 191.616 213.377 191.6 212.873C191.6 212.662 191.6 212.488 191.6 212.344C191.591 212.289 191.587 212.23 191.589 212.175Z" fill="#455A64"/>
<path d="M137.607 154.494H185.293C185.73 154.494 186.147 154.666 186.456 154.973C186.764 155.281 186.937 155.696 186.937 156.131V156.327C186.937 156.762 186.764 157.177 186.456 157.485C186.147 157.792 185.73 157.964 185.293 157.964H136.374V155.696C136.374 155.536 136.406 155.378 136.468 155.231C136.53 155.082 136.621 154.949 136.737 154.837C136.851 154.725 136.988 154.636 137.138 154.577C137.286 154.519 137.447 154.49 137.607 154.494Z" fill="#263238"/>
<path d="M184.83 157.964C184.83 158.044 174.047 158.102 160.748 158.102C147.45 158.102 136.666 158.044 136.666 157.964C136.666 157.884 147.444 157.825 160.748 157.825C174.052 157.825 184.83 157.889 184.83 157.964Z" fill="#455A64"/>
<path d="M132.03 184.73C131.955 184.73 131.156 172.831 130.247 158.154C129.338 143.479 128.652 131.564 128.748 131.558C128.845 131.553 129.62 143.453 130.524 158.133C131.429 172.815 132.103 184.73 132.03 184.73Z" fill="#455A64"/>
<path d="M233.064 215.841H213.475V221.028H233.064V215.841Z" fill="#263238"/>
<path d="M72.2937 84.5957C72.2937 84.5957 66.1895 102.487 67.6092 107.256C69.0288 112.024 74.9099 113.492 74.9099 113.492L79.4829 106.551L72.2937 84.5957Z" fill="#FFBF9D"/>
<path d="M92.6917 99.0278H59.5008C58.0529 99.0278 56.8794 100.197 56.8794 101.64V122.022C56.8794 123.464 58.0529 124.634 59.5008 124.634H92.6917C94.1396 124.634 95.3133 123.464 95.3133 122.022V101.64C95.3133 100.197 94.1396 99.0278 92.6917 99.0278Z" fill="#263238"/>
<path d="M93.7181 100.882H58.9585V122.159H93.7181V100.882Z" fill="#FAFAFA"/>
<path d="M61.7978 120.782C61.7235 120.782 61.6597 116.745 61.6597 111.775C61.6597 106.805 61.7235 102.768 61.7978 102.768C61.8723 102.768 61.9361 106.805 61.9361 111.775C61.9361 116.745 61.8723 120.782 61.7978 120.782Z" fill="#263238"/>
<path d="M63.9889 120.782C63.9144 120.782 63.8506 116.745 63.8506 111.775C63.8506 106.805 63.9144 102.768 63.9889 102.768C64.0632 102.768 64.127 106.805 64.127 111.775C64.127 116.745 64.0686 120.782 63.9889 120.782Z" fill="#263238"/>
<path d="M66.1793 120.782C66.1048 120.782 66.041 116.745 66.041 111.775C66.041 106.805 66.1048 102.768 66.1793 102.768C66.2537 102.768 66.3175 106.805 66.3175 111.775C66.3175 116.745 66.259 120.782 66.1793 120.782Z" fill="#263238"/>
<path d="M68.3698 120.782C68.2953 120.782 68.2314 116.745 68.2314 111.775C68.2314 106.805 68.2953 102.768 68.3698 102.768C68.4441 102.768 68.5079 106.805 68.5079 111.775C68.5079 116.745 68.4494 120.782 68.3698 120.782Z" fill="#263238"/>
<path d="M70.5656 120.782C70.4857 120.782 70.4272 116.745 70.4272 111.775C70.4272 106.805 70.4857 102.768 70.5656 102.768C70.6452 102.768 70.7039 106.805 70.7039 111.775C70.7039 116.745 70.6401 120.782 70.5656 120.782Z" fill="#263238"/>
<path d="M72.757 120.782C72.6771 120.782 72.6187 116.745 72.6187 111.775C72.6187 106.805 72.6771 102.768 72.757 102.768C72.8366 102.768 72.8953 106.805 72.8953 111.775C72.8953 116.745 72.8313 120.782 72.757 120.782Z" fill="#263238"/>
<path d="M74.9479 120.782C74.868 120.782 74.8096 116.745 74.8096 111.775C74.8096 106.805 74.868 102.768 74.9479 102.768C75.0276 102.768 75.0862 106.805 75.0862 111.775C75.0862 116.745 75.0117 120.782 74.9479 120.782Z" fill="#263238"/>
<path d="M77.1383 120.782C77.0638 120.782 77 116.745 77 111.775C77 106.805 77.0638 102.768 77.1383 102.768C77.2128 102.768 77.2766 106.805 77.2766 111.775C77.2766 116.745 77.2128 120.782 77.1383 120.782Z" fill="#263238"/>
<path d="M79.3287 120.782C79.2542 120.782 79.1904 116.745 79.1904 111.775C79.1904 106.805 79.2542 102.768 79.3287 102.768C79.4032 102.768 79.4671 106.805 79.4671 111.775C79.4671 116.745 79.4084 120.782 79.3287 120.782Z" fill="#263238"/>
<path d="M81.5192 120.782C81.4447 120.782 81.3809 116.745 81.3809 111.775C81.3809 106.805 81.4447 102.768 81.5192 102.768C81.5937 102.768 81.6575 106.805 81.6575 111.775C81.6575 116.745 81.599 120.782 81.5192 120.782Z" fill="#263238"/>
<path d="M83.7111 120.782C83.6366 120.782 83.5728 116.745 83.5728 111.775C83.5728 106.805 83.6366 102.768 83.7111 102.768C83.7856 102.768 83.8494 106.805 83.8494 111.775C83.8494 116.745 83.7907 120.782 83.7111 120.782Z" fill="#263238"/>
<path d="M85.9067 120.782C85.827 120.782 85.7686 116.745 85.7686 111.775C85.7686 106.805 85.827 102.768 85.9067 102.768C85.9865 102.768 86.045 106.805 86.045 111.775C86.045 116.745 85.9812 120.782 85.9067 120.782Z" fill="#263238"/>
<path d="M88.0971 120.782C88.0174 120.782 87.959 116.745 87.959 111.775C87.959 106.805 88.0174 102.768 88.0971 102.768C88.177 102.768 88.2354 106.805 88.2354 111.775C88.2354 116.745 88.1716 120.782 88.0971 120.782Z" fill="#263238"/>
<path d="M90.2875 120.782C90.2079 120.782 90.1494 116.745 90.1494 111.775C90.1494 106.805 90.2079 102.768 90.2875 102.768C90.3674 102.768 90.4259 106.805 90.4259 111.775C90.4259 116.745 90.3621 120.782 90.2875 120.782Z" fill="#263238"/>
<path d="M84.5824 218.442L80.8601 230.384C80.8601 230.384 94.446 235.232 94.6269 237.717L68.4708 238.014L68.3271 229.302L70.3318 217.494L84.5824 218.442Z" fill="#263238"/>
<path d="M72.7458 229.345C72.4947 229.425 72.2817 229.594 72.148 229.819C72.0145 230.045 71.9697 230.313 72.0227 230.569C72.0927 230.821 72.2569 231.036 72.4813 231.171C72.7059 231.306 72.9736 231.35 73.2297 231.295C73.4957 231.212 73.721 231.032 73.8616 230.793C74.002 230.553 74.048 230.269 73.9901 229.997C73.891 229.741 73.6958 229.533 73.4458 229.418C73.1959 229.303 72.9105 229.288 72.6501 229.377" fill="#E0E0E0"/>
<path d="M68.4601 238.014L68.4229 235.895L93.5687 236.424C93.5687 236.424 94.7385 236.916 94.6323 237.733L68.4601 238.014Z" fill="#455A64"/>
<path d="M81.2699 230.247C81.2699 230.373 80.6318 230.437 80.0042 230.856C79.3768 231.274 79.0524 231.81 78.9408 231.762C78.8291 231.714 79.0046 230.972 79.7703 230.485C80.5361 229.997 81.2964 230.13 81.2699 230.247Z" fill="white"/>
<path d="M84.0507 231.354C84.0507 231.476 83.519 231.698 83.0989 232.238C82.6788 232.78 82.5672 233.357 82.4289 233.352C82.2906 233.346 82.2109 232.625 82.7533 231.963C83.2957 231.3 84.0507 231.226 84.0507 231.354Z" fill="white"/>
<path d="M85.6456 234.602C85.5287 234.629 85.3424 233.998 85.6456 233.293C85.9486 232.588 86.5602 232.307 86.6186 232.414C86.6771 232.519 86.3049 232.895 86.0497 233.472C85.7944 234.05 85.7467 234.586 85.6456 234.602Z" fill="white"/>
<path d="M81.0038 227.178C80.9507 227.296 80.3658 227.125 79.6426 227.178C78.9195 227.232 78.3611 227.464 78.2921 227.359C78.2229 227.253 78.76 226.791 79.6107 226.734C80.4615 226.676 81.0677 227.079 81.0038 227.178Z" fill="white"/>
<path d="M63.3132 47.0159C62.7849 46.5183 62.3744 45.9097 62.1113 45.2343C61.8484 44.5589 61.7393 43.8337 61.7923 43.1113C61.9891 41.6754 63.2972 40.372 64.7434 40.5099C64.5368 39.8266 64.5418 39.0973 64.7579 38.4171C64.9741 37.7369 65.3911 37.1373 65.9547 36.6972C66.5183 36.257 67.2021 35.9964 67.9166 35.9499C68.6314 35.9032 69.3434 36.0725 69.9598 36.4356C69.9218 36.0385 70.0124 35.6398 70.2181 35.2976C70.4238 34.9554 70.7339 34.6877 71.103 34.5336C71.7305 34.2104 74.1499 34.2528 74.8625 35.6515L77.8721 47.2809C78.5788 47.977 79.1406 48.8053 79.5256 49.7182C79.9106 50.631 80.1112 51.6106 80.1156 52.6009C80.1199 53.591 79.9283 54.5724 79.5517 55.4888C79.1749 56.405 78.6204 57.2383 77.9199 57.9407C78.3435 58.5564 78.5706 59.2853 78.5719 60.0317C78.5729 60.7781 78.348 61.5077 77.9265 62.1247C77.5047 62.7416 76.906 63.2176 76.2084 63.4902C75.5109 63.7626 74.7472 63.8191 74.0169 63.652C73.9515 64.1532 73.7783 64.6341 73.5093 65.0624C73.2402 65.4906 72.8815 65.8561 72.4579 66.1337C72.0342 66.4113 71.5552 66.5944 71.054 66.6709C70.5528 66.7473 70.0409 66.715 69.5532 66.5763C69.0656 66.4376 68.6137 66.1957 68.2286 65.8671C67.8434 65.5386 67.5338 65.131 67.321 64.6724C67.1083 64.2139 66.9973 63.7149 66.9957 63.2096C66.9941 62.7043 67.1019 62.2048 67.3119 61.7448C65.6209 62.3328 63.7066 60.9925 63.1856 59.2863C62.6644 57.5803 63.2334 55.7154 64.132 54.1737C63.397 53.9508 62.7434 53.5186 62.2518 52.9302C61.76 52.342 61.4517 51.6233 61.3647 50.8626C61.2777 50.102 61.4158 49.3326 61.762 48.6492C62.1081 47.9657 62.6473 47.3981 63.3132 47.0159Z" fill="#263238"/>
<path d="M72.7674 37.5696C71.1721 38.1311 70.8477 39.4503 70.534 40.5523C69.8587 42.9205 70.752 46.3803 72.1293 48.4306C73.5064 50.481 74.9687 51.5089 77.42 51.8056C77.42 48.0687 77.42 44.3335 77.42 40.6001L72.7674 37.5696Z" fill="#90C4E1"/>
<path d="M71.9913 44.0229C71.44 43.2979 71.162 42.4032 71.2056 41.4948C71.2495 40.5864 71.6122 39.7222 72.2305 39.0532C71.4967 38.1791 71.6988 36.8015 72.4273 35.8742C73.2001 35.0316 74.1546 34.3739 75.2189 33.9511C75.5315 32.6548 76.3293 31.5265 77.4492 30.7968C78.5689 30.067 79.9262 29.7911 81.2434 30.0251C82.5569 28.0119 85.4389 27.6358 87.7679 28.2609C88.3235 28.4523 88.9035 28.5646 89.4906 28.5948C89.9216 28.5539 90.3496 28.4866 90.7722 28.3934C93.1171 28.0226 95.4886 29.6279 96.4565 31.7895C96.5884 32.1453 96.7671 32.482 96.9882 32.7908C97.3413 33.1403 97.738 33.443 98.1687 33.6914C98.6021 34.0136 98.9611 34.4249 99.2206 34.8976C99.4803 35.3702 99.6349 35.8932 99.6735 36.4307C99.732 37.3419 99.4607 38.3167 99.865 39.1326C100.067 39.5459 100.423 39.8691 100.583 40.2983C101.045 41.5433 99.6787 42.852 99.9659 44.1447C100.024 44.4097 100.147 44.6745 100.226 44.913C100.385 45.4381 100.347 46.0027 100.12 46.5023C99.8855 46.8584 99.7213 47.2558 99.6363 47.6732C99.6652 47.9973 99.7366 48.3161 99.8489 48.6215C100.024 49.3898 98.4078 52.4203 97.7485 52.86L77.6702 53.5011C76.9033 53.3466 76.204 52.9572 75.67 52.3871C75.1362 51.8172 74.7943 51.0953 74.6924 50.3224C74.6826 50.0766 74.6093 49.8375 74.4797 49.6283C74.3191 49.4781 74.1291 49.3626 73.9215 49.2891C72.6134 48.6215 72.4166 46.8573 72.523 45.395C72.5604 45.1938 72.5604 44.9872 72.523 44.7858C72.4009 44.4974 72.2198 44.2376 71.9913 44.0229Z" fill="#263238"/>
<path d="M77.7497 43.9274C77.7276 42.0017 78.2265 40.1059 79.194 38.439C80.1615 36.7721 81.5619 35.3955 83.2479 34.4543C84.8437 33.6695 86.5814 33.2118 88.3579 33.1086C90.0063 32.9127 91.6755 33.2212 93.1435 33.9934C94.2548 34.2318 98.3971 37.8451 98.695 41.8611C99.0245 46.3221 99.2532 51.7791 98.7588 55.1063C97.7644 61.8138 92.6225 62.725 92.6225 62.725L92.984 68.2829L96.2809 75.9227L83.567 82.1375L79.4248 69.3635L77.7497 43.9274Z" fill="#FFBF9D"/>
<path d="M96.8811 47.2969C96.8855 47.5202 96.8025 47.7363 96.6497 47.8995C96.4968 48.0627 96.2861 48.1602 96.0622 48.1711C95.9528 48.1814 95.8423 48.1695 95.7373 48.1364C95.6325 48.1032 95.5352 48.0496 95.4514 47.9785C95.3677 47.9075 95.299 47.8203 95.2496 47.7225C95.2003 47.6244 95.1711 47.5177 95.1637 47.4083C95.1593 47.1836 95.2429 46.9661 95.3967 46.802C95.5505 46.6377 95.7626 46.5397 95.9879 46.5287C96.0974 46.5192 96.2077 46.5319 96.3123 46.5656C96.4169 46.5993 96.5137 46.6537 96.597 46.7253C96.6802 46.7968 96.7483 46.8842 96.7971 46.9824C96.846 47.0806 96.8745 47.1875 96.8811 47.2969Z" fill="#263238"/>
<path d="M97.158 44.4466C97.0516 44.5633 96.3923 44.0864 95.467 44.0969C94.5418 44.1076 93.8717 44.5791 93.7602 44.4679C93.6484 44.3566 93.8186 44.2136 94.1111 43.9964C94.5113 43.7156 94.9882 43.564 95.4777 43.5618C95.9589 43.5583 96.4293 43.7046 96.8231 43.9804C97.11 44.1976 97.2111 44.399 97.158 44.4466Z" fill="#263238"/>
<path d="M91.8143 51.8056C92.2998 51.6464 92.8035 51.5486 93.3136 51.5141C93.553 51.5141 93.7763 51.4401 93.8136 51.2811C93.831 51.0368 93.7735 50.7928 93.6487 50.5818C93.42 50.0149 93.1807 49.4162 92.9254 48.7909C91.9258 46.2426 91.1974 44.1498 91.3038 44.1073C91.41 44.0651 92.3033 46.1048 93.3031 48.6533C93.5423 49.2784 93.7763 49.8771 93.9943 50.4493C94.1451 50.7336 94.192 51.0614 94.1273 51.3765C94.0932 51.4602 94.0405 51.5351 93.9733 51.5957C93.9061 51.6562 93.8261 51.7008 93.7391 51.7262C93.6095 51.764 93.4753 51.7835 93.3402 51.7844C92.8347 51.8573 92.3217 51.8644 91.8143 51.8056Z" fill="#263238"/>
<path d="M92.601 62.7303C89.4331 62.8107 86.3048 62.0167 83.5615 60.4363C83.5615 60.4363 86.0129 65.1305 92.7286 64.4311L92.601 62.7303Z" fill="#FF9A6C"/>
<path d="M96.5099 40.7592C96.3557 40.9871 95.6431 40.8441 94.8135 40.9235C93.984 41.0031 93.2981 41.2256 93.1174 41.0242C93.0322 40.9235 93.1174 40.7063 93.4046 40.4944C93.7942 40.2058 94.2597 40.0366 94.7444 40.0069C95.2258 39.9608 95.7103 40.0565 96.1375 40.2824C96.4566 40.4467 96.5737 40.648 96.5099 40.7592Z" fill="#263238"/>
<path d="M86.6509 47.9486C86.6578 48.1731 86.7532 48.3857 86.9164 48.5404C87.0797 48.6951 87.2977 48.7796 87.5228 48.7752C87.6328 48.7787 87.7424 48.7602 87.8453 48.721C87.9479 48.6816 88.0417 48.6222 88.121 48.5461C88.2003 48.47 88.2636 48.3789 88.3069 48.2782C88.3504 48.1774 88.373 48.069 88.3738 47.9593C88.3639 47.7359 88.2677 47.5249 88.1051 47.3707C87.9424 47.2166 87.726 47.1312 87.5016 47.1328C87.3916 47.1292 87.282 47.1477 87.1794 47.1871C87.0765 47.2263 86.9828 47.2858 86.9034 47.3618C86.8241 47.438 86.761 47.5291 86.7175 47.6298C86.6742 47.7307 86.6514 47.8391 86.6509 47.9486Z" fill="#263238"/>
<path d="M84.471 44.9499C84.5881 45.0559 85.2155 44.542 86.1408 44.4997C87.066 44.4572 87.7679 44.8863 87.8637 44.7698C87.9594 44.6533 87.7945 44.5208 87.486 44.3194C87.0708 44.0625 86.5864 43.9385 86.0982 43.9646C85.6169 43.9879 85.1555 44.1623 84.7796 44.4626C84.5029 44.6956 84.4179 44.9023 84.471 44.9499Z" fill="#263238"/>
<path d="M84.392 41.326C84.5886 41.5274 85.2905 41.2782 86.1519 41.2253C87.0133 41.1724 87.7472 41.2889 87.9014 41.061C87.9705 40.9499 87.8429 40.7485 87.5185 40.5631C87.0713 40.3395 86.5706 40.2441 86.0722 40.2876C85.5737 40.3174 85.0941 40.4885 84.6896 40.7803C84.3971 41.0081 84.3068 41.2306 84.392 41.326Z" fill="#263238"/>
<path d="M78.9034 50.2586C78.9034 49.7605 78.3024 48.5949 77.8079 48.5207C76.484 48.3299 74.0857 48.4624 74.123 51.8003C74.123 56.3672 78.7385 55.403 78.749 55.2759C78.7597 55.1487 78.9246 51.9804 78.9034 50.2586Z" fill="#FFBF9D"/>
<path d="M77.473 53.6124C77.473 53.6124 77.3931 53.6707 77.2602 53.7289C77.1659 53.7682 77.0646 53.7886 76.9625 53.7886C76.8602 53.7886 76.759 53.7682 76.6647 53.7289C76.1807 53.554 75.766 52.7912 75.7448 51.97C75.7285 51.5768 75.8032 51.1854 75.9627 50.8256C76.0045 50.6832 76.0806 50.5532 76.1843 50.447C76.2882 50.3408 76.4166 50.2615 76.5583 50.2163C76.6497 50.1907 76.747 50.1978 76.8336 50.2365C76.9201 50.2752 76.9901 50.3431 77.0315 50.4281C77.0953 50.5606 77.0634 50.6507 77.0901 50.656C77.1167 50.6613 77.1858 50.5817 77.1486 50.391C77.1213 50.2786 77.0577 50.1781 76.9677 50.1049C76.8404 50.0127 76.6825 49.9728 76.5263 49.9937C76.3385 50.0309 76.1633 50.1156 76.018 50.2401C75.8726 50.3644 75.762 50.5242 75.6968 50.7038C75.5024 51.1005 75.4091 51.5392 75.4257 51.9805C75.4576 52.8971 75.9308 53.7554 76.5955 53.9461C76.7187 53.9809 76.8483 53.9875 76.9744 53.9655C77.1005 53.9435 77.2201 53.8934 77.324 53.819C77.4676 53.7236 77.4889 53.6229 77.473 53.6124Z" fill="#FF9A6C"/>
<path d="M99.6619 41.5114C98.7313 40.9814 98.1305 40.2185 98.1784 39.1696C97.5669 39.355 96.9341 38.5974 96.5832 38.1099C96.2322 37.6224 95.775 37.3523 95.7962 36.7325C95.8121 36.6137 95.7955 36.4929 95.7483 36.3828C95.6219 36.2293 95.441 36.1306 95.2432 36.1071C94.7592 35.9676 94.3181 35.7092 93.9605 35.3556C93.6028 35.002 93.3399 34.5646 93.1961 34.0833C92.2075 34.5067 91.132 34.6883 90.0588 34.6132C89.8154 34.9466 89.4951 35.2169 89.1249 35.4012C88.7548 35.5856 88.3456 35.6788 87.9319 35.6728C87.5164 35.6589 87.1108 35.544 86.7503 35.3382C86.3898 35.1322 86.0853 34.8414 85.8634 34.4912C85.7059 34.7617 85.4927 34.9959 85.2378 35.1785C84.9831 35.3611 84.6926 35.4881 84.3851 35.5509C83.7596 35.6816 83.1187 35.7228 82.4815 35.6728C82.5991 36.2794 82.4907 36.9078 82.1765 37.4404C81.8623 37.973 81.3637 38.3729 80.7746 38.5656C80.6151 38.6132 80.4237 38.6661 80.3492 38.8146C80.3273 38.8968 80.3232 38.9828 80.3369 39.0668C80.3506 39.1508 80.382 39.2309 80.429 39.3019C80.5162 39.5587 80.5497 39.8306 80.5274 40.1009C80.5051 40.371 80.4276 40.6339 80.2996 40.8731C80.1715 41.1123 79.9957 41.3228 79.7831 41.4919C79.5703 41.6609 79.325 41.7847 79.0625 41.8557C79.2386 41.9996 79.3785 42.1827 79.4706 42.3903C79.563 42.5977 79.605 42.824 79.5936 43.0506C79.5824 43.2774 79.5177 43.4981 79.4052 43.6955C79.2926 43.8929 79.1352 44.0611 78.9455 44.1869C78.7807 44.2822 78.5627 44.4041 78.5946 44.5895C78.6097 44.6596 78.6448 44.7239 78.6956 44.7749C79.0767 45.1761 79.3334 45.6783 79.4346 46.2214C79.4728 46.4979 79.3997 46.7783 79.2314 47.0014C79.0632 47.2246 78.8133 47.3728 78.5361 47.4134C78.6949 47.5246 78.8295 47.667 78.9309 47.8318C79.0325 47.9968 79.099 48.1808 79.1263 48.3724C79.1263 48.7591 78.7381 49.1512 78.3659 49.0187C77.5055 48.867 76.6535 48.6706 75.8135 48.4307C74.5002 46.7565 76.1167 44.8598 76.2229 42.7617C76.378 40.6421 77.0378 38.5896 78.1479 36.7747C78.583 35.9914 79.1193 35.2682 79.7432 34.6237C80.5091 33.9291 81.3489 33.3198 82.2476 32.8065C83.3668 32.0447 84.5997 31.4636 85.9007 31.0846C88.3732 30.4912 90.9574 31.3178 93.2757 32.3137C94.1698 32.6606 95.0138 33.1237 95.7856 33.6913C96.6461 34.4276 97.3667 35.3124 97.9125 36.3032C98.7985 37.6615 99.3807 39.1938 99.6193 40.796" fill="#263238"/>
<path d="M100.572 40.3034C100.513 40.1287 100.427 39.9641 100.317 39.8159C100.216 39.6677 100.078 39.4929 99.9446 39.2862C99.7972 39.0235 99.7066 38.733 99.6787 38.4332C99.6443 38.0577 99.6443 37.68 99.6787 37.3047C99.7209 36.8522 99.7029 36.3962 99.6255 35.9484C99.4616 35.15 99.0439 34.4256 98.4344 33.8821C98.2046 33.6861 97.9592 33.5088 97.7005 33.3524C97.4355 33.1966 97.1982 32.9979 96.9988 32.7642C96.8124 32.501 96.6621 32.2141 96.5521 31.9112C96.2809 31.2637 95.8955 30.6698 95.4141 30.1576C94.9075 29.5987 94.2995 29.1403 93.6222 28.8064C93.2695 28.6335 92.8985 28.5001 92.5162 28.4092C91.9182 28.2694 91.2987 28.2477 90.6923 28.3456C90.4903 28.3774 90.2882 28.425 90.0861 28.4621C89.6811 28.5468 89.2628 28.5468 88.8578 28.4621C88.4484 28.388 88.0443 28.2449 87.6189 28.1442C86.7505 27.9282 85.8518 27.8584 84.9602 27.9376C84.5063 27.984 84.0576 28.0726 83.6202 28.2026C82.7151 28.4687 81.9159 29.0094 81.3338 29.7496L81.1635 29.9773L81.238 29.9455C80.5586 29.8175 79.8602 29.8264 79.1844 29.972C78.5085 30.1176 77.8688 30.397 77.3032 30.7934C76.1904 31.5293 75.4117 32.6706 75.1337 33.9722L75.1709 33.9297C74.6203 34.1817 74.0874 34.4701 73.5757 34.7934C73.0746 35.1074 72.6349 35.5094 72.2782 35.9802C71.9444 36.4475 71.7457 36.9973 71.7039 37.5695C71.6539 38.1212 71.8175 38.671 72.1613 39.1061V39.0319C71.5532 39.674 71.1901 40.5084 71.135 41.3896C71.0767 42.1801 71.2623 42.9693 71.6669 43.6518C71.7587 43.8074 71.8617 43.9562 71.9752 44.0969C72.0868 44.2347 72.2039 44.3619 72.2943 44.4995C72.3884 44.6309 72.447 44.7842 72.4643 44.9446C72.4804 45.1031 72.4804 45.2628 72.4643 45.4214C72.4214 45.9997 72.4445 46.5809 72.5335 47.1538C72.6058 47.6163 72.7664 48.0605 73.0067 48.4625C73.185 48.7591 73.4309 49.0097 73.7247 49.1937C73.9639 49.3473 74.1765 49.4056 74.2936 49.4903C74.3538 49.5297 74.4109 49.5739 74.4636 49.6228C74.4189 49.5652 74.3649 49.5152 74.3041 49.4745C74.1872 49.3844 73.9746 49.3209 73.7724 49.1672C73.4869 48.9802 73.2484 48.73 73.0759 48.4361C72.8449 48.0377 72.6932 47.5989 72.6292 47.1434C72.544 46.5752 72.5244 45.9993 72.5707 45.4267C72.5841 45.2646 72.5841 45.1015 72.5707 44.9392C72.5508 44.7647 72.4887 44.5975 72.39 44.4519C72.2943 44.3088 72.1772 44.1763 72.0656 44.0386C71.9561 43.901 71.8567 43.7557 71.7678 43.6042C71.3826 42.9347 71.2136 42.1634 71.284 41.3948C71.343 40.5416 71.6961 39.735 72.2836 39.1114L72.3208 39.0743L72.2889 39.0319C71.9619 38.62 71.8091 38.0972 71.8635 37.5749C71.8984 37.0309 72.0824 36.5068 72.3953 36.0596C72.7427 35.6009 73.1718 35.2095 73.6609 34.9047C74.1742 34.5875 74.7069 34.3027 75.2559 34.0517H75.2827V34.0199C75.5903 32.7393 76.3767 31.624 77.4814 30.9014C78.5862 30.1787 79.9258 29.9033 81.2274 30.1311H81.2753L81.3018 30.0887L81.4614 29.8715C82.0266 29.1522 82.8039 28.6278 83.684 28.372C84.1106 28.2435 84.5487 28.1564 84.9921 28.1124C85.8641 28.0369 86.7425 28.1049 87.5923 28.3138C88.0124 28.4092 88.4165 28.5521 88.8418 28.6317C89.0541 28.6706 89.2696 28.6883 89.4852 28.6846C89.6963 28.6789 89.9063 28.6541 90.1127 28.6105L90.7188 28.4885C90.9181 28.4605 91.1186 28.4427 91.3197 28.4356C91.7145 28.4246 92.1093 28.4619 92.4948 28.547C92.8615 28.64 93.2178 28.7697 93.5584 28.9336C94.8519 29.5669 95.8759 30.6398 96.4457 31.9589C96.5593 32.2699 96.7149 32.564 96.9083 32.8331C97.1163 33.0742 97.3624 33.2801 97.6367 33.4424C97.8925 33.5983 98.1344 33.7756 98.36 33.9722C98.5759 34.1427 98.7703 34.3384 98.9395 34.555C99.2371 34.9734 99.4469 35.4473 99.5564 35.9484C99.6346 36.3889 99.656 36.8375 99.6202 37.2834C99.5854 37.6624 99.5854 38.0437 99.6202 38.4225C99.6507 38.728 99.7487 39.023 99.9073 39.2862C100.026 39.4691 100.154 39.6458 100.29 39.8159C100.368 39.928 100.439 40.0447 100.503 40.1656C100.535 40.261 100.567 40.3088 100.572 40.3034Z" fill="#455A64"/>
<path d="M83.3813 28.997C83.4979 28.943 83.6115 28.883 83.7216 28.8169C84.0337 28.66 84.3697 28.5561 84.716 28.5095C85.2859 28.4339 85.8655 28.5282 86.3815 28.7811C86.8973 29.0338 87.3264 29.4336 87.614 29.9296C87.7124 30.0963 87.791 30.2743 87.8479 30.4593C87.8853 30.5332 87.9047 30.6149 87.9047 30.6977C87.9047 30.7804 87.8853 30.8621 87.8479 30.9362L87.7417 31.0951L87.9224 31.042C88.3967 30.9028 88.9072 30.9561 89.3421 31.1905C89.6895 31.3752 89.9674 31.667 90.1344 32.0222C90.2424 32.2595 90.3055 32.5145 90.3204 32.7747C90.3204 32.9547 90.3204 33.0554 90.3204 33.0554C90.3204 33.0554 90.3204 33.0554 90.3204 32.9865C90.3252 32.916 90.3252 32.8452 90.3204 32.7747C90.3261 32.4342 90.2411 32.0982 90.0739 31.8013C89.9067 31.5043 89.6633 31.2571 89.3686 31.0845C89.1403 30.9568 88.8888 30.8756 88.6286 30.8456C88.3685 30.8156 88.1049 30.8375 87.8532 30.9097L87.9277 31.0102C87.9798 30.9204 88.0112 30.8199 88.0194 30.7163C88.0277 30.6128 88.0128 30.5087 87.9755 30.4116C87.9142 30.2265 87.8322 30.0487 87.731 29.8818C87.3934 29.3137 86.8804 28.8695 86.2687 28.6156C85.7643 28.4085 85.2117 28.346 84.6734 28.4355C84.3192 28.4903 83.9783 28.6108 83.6685 28.7905C83.5831 28.8372 83.5013 28.8905 83.424 28.9494C83.4088 28.9643 83.3945 28.9803 83.3813 28.997Z" fill="#455A64"/>
<path d="M76.022 34.3429C76.022 34.3429 76.0699 34.4065 76.1815 34.5019C76.3462 34.6379 76.5243 34.7569 76.7132 34.8569C76.9953 35.0093 77.3074 35.0979 77.6277 35.1166C78.0373 35.1416 78.4412 35.013 78.7605 34.7562H78.6594C78.7072 34.8198 78.7498 34.8834 78.7977 34.9416C78.8455 35.0001 78.9039 35.0636 78.9572 35.1219C79.2786 35.4442 79.675 35.6827 80.111 35.8159C80.4652 35.925 80.8368 35.9664 81.2065 35.9378C81.4535 35.9079 81.6952 35.8438 81.9242 35.747C82.0103 35.7151 82.0909 35.6705 82.1636 35.6145C81.8513 35.7257 81.5261 35.7969 81.1958 35.8264C80.835 35.8443 80.4742 35.7941 80.1324 35.6781C79.7199 35.5439 79.3447 35.3151 79.0369 35.0105L78.8881 34.8411L78.7605 34.6662L78.7125 34.6079L78.6594 34.6555C78.3575 34.8926 77.9798 35.013 77.5958 34.9947C77.2894 34.9814 76.9891 34.9056 76.7132 34.7722C76.2772 34.5443 76.038 34.3218 76.022 34.3429Z" fill="#455A64"/>
<path d="M73.6555 38.6081C73.6519 38.6361 73.6519 38.6647 73.6555 38.6928C73.6774 38.7711 73.7134 38.8448 73.7619 38.91C73.9396 39.1592 74.2057 39.3316 74.5064 39.3922C74.947 39.4636 75.3989 39.4085 75.8092 39.2332C76.043 39.1432 76.2824 39.0585 76.5323 38.9366C76.8029 38.8226 77.0237 38.6159 77.1544 38.3538L77.1809 38.2795L77.0747 38.3166C77.4896 38.6482 77.9522 38.916 78.4466 39.1114C78.8566 39.2675 79.3023 39.306 79.7333 39.2227C80.0235 39.1693 80.2948 39.0416 80.5203 38.8517C80.5823 38.8025 80.6376 38.7455 80.6851 38.6823C80.717 38.6399 80.7331 38.6134 80.7277 38.6134C80.7224 38.6134 80.6479 38.6928 80.4884 38.8146C80.2591 38.9769 79.9952 39.0839 79.7175 39.1274C79.3031 39.1929 78.8785 39.1453 78.489 38.9896C78.0103 38.7935 77.5625 38.5294 77.1597 38.2055L77.0852 38.1472L77.0533 38.2373L77.0267 38.3008C76.9161 38.5331 76.7282 38.7201 76.4951 38.8306C76.2671 38.9428 76.0327 39.0419 75.7931 39.1274C75.4056 39.3032 74.9764 39.3673 74.5542 39.3128C74.2708 39.2636 74.0143 39.1151 73.8311 38.8942C73.7665 38.8025 73.7079 38.707 73.6555 38.6081Z" fill="#455A64"/>
<path d="M88.5071 52.4097C89.5585 52.6954 90.5697 53.1119 91.5167 53.6495C91.5751 54.1158 90.7563 55.1118 90.315 55.2761C90.0692 55.3547 89.8082 55.3748 89.5532 55.3343C89.2983 55.2938 89.0564 55.194 88.8474 55.0429C88.4843 54.7117 88.2554 54.2593 88.2039 53.7713C88.1973 53.3001 88.3012 52.8339 88.5071 52.4097Z" fill="#FF9A6C"/>
<path d="M90.1818 55.3289C89.8317 55.3102 89.4877 55.2296 89.1662 55.0904C88.938 54.9739 88.7384 54.8089 88.5814 54.6069C88.4244 54.405 88.3137 54.1713 88.2573 53.922C88.2012 53.6728 88.2005 53.4144 88.2556 53.1649C88.3105 52.9155 88.4199 52.6811 88.5759 52.4785L88.4217 52.5207C89.3469 52.9246 90.3037 53.2524 91.2824 53.5009C90.3952 53.0221 89.4726 52.6111 88.5227 52.2717L88.4324 52.2346L88.3686 52.3089C88.1354 52.606 87.9925 52.9635 87.9566 53.3391C87.9208 53.7145 87.9937 54.0924 88.1664 54.4281C88.3723 54.7934 88.694 55.0804 89.0812 55.244C89.248 55.3353 89.4325 55.39 89.6223 55.4045C89.8121 55.4193 90.0028 55.3933 90.1818 55.3289Z" fill="#263238"/>
<path d="M76.3192 55.4562C76.3049 55.7452 76.3767 56.0318 76.5259 56.2799C76.6751 56.5282 76.8949 56.7267 77.1572 56.8503C77.4198 56.9741 77.7132 57.0175 78.0003 56.975C78.2875 56.9326 78.5555 56.8063 78.7707 56.612C78.9858 56.4177 79.1382 56.1641 79.2088 55.8835C79.2792 55.6029 79.2646 55.3078 79.1665 55.0353C79.0687 54.7631 78.8919 54.5258 78.6586 54.3535C78.4253 54.1814 78.1459 54.082 77.8559 54.0681C77.4677 54.0507 77.0886 54.187 76.8008 54.447C76.5129 54.707 76.3398 55.0696 76.3192 55.4562Z" fill="#455A64"/>
<path d="M80.127 54.7249L82.3815 51.2547L92.5377 49.7183C93.0093 49.6434 93.4923 49.6965 93.9361 49.872L98.9984 51.8376C98.9984 51.8376 99.881 61.1092 92.6175 62.7304C92.6175 62.7304 82.8973 63.5994 80.127 54.7249Z" fill="#455A64"/>
<path d="M78.2017 48.4678C79.0112 48.8578 79.7882 49.3114 80.5254 49.8243C81.313 50.2592 82.0652 50.7552 82.7746 51.3077C81.9288 50.9895 81.1253 50.5696 80.3819 50.0573C79.5923 49.6188 78.8601 49.0849 78.2017 48.4678Z" fill="#455A64"/>
<path d="M96.2805 54.3594C94.7056 54.3466 93.1326 54.244 91.5695 54.0522C89.9981 53.9527 88.4339 53.7616 86.8848 53.48C88.4599 53.486 90.0332 53.5869 91.596 53.7819C93.1674 53.8842 94.7316 54.0771 96.2805 54.3594Z" fill="#263238"/>
<path d="M95.9829 56.6853C95.5056 56.7176 95.0263 56.6998 94.5525 56.6324C93.6752 56.5634 92.4628 56.4256 91.1281 56.2191C89.7935 56.0124 88.6025 55.774 87.741 55.578C87.269 55.5 86.8072 55.3704 86.3638 55.1912C86.8402 55.2153 87.3134 55.2808 87.7783 55.3872L91.1707 55.9488L94.5792 56.4416C95.0535 56.4809 95.5232 56.5624 95.9829 56.6853Z" fill="#263238"/>
<path d="M94.6861 59.2443C94.2892 59.2981 93.8867 59.2981 93.4898 59.2443C92.5273 59.1747 91.5701 59.0454 90.6236 58.8575C89.6765 58.6657 88.7423 58.4144 87.8269 58.1052C87.4388 58.0024 87.0667 57.8473 86.7207 57.6442C86.7207 57.5701 88.4755 58.1739 90.6769 58.582C92.8782 58.99 94.6861 59.1647 94.6861 59.2443Z" fill="#263238"/>
<path d="M69.4867 131.749C69.4867 131.749 75.6016 165.054 75.6016 167.336C75.495 169.208 75.1738 171.06 74.6444 172.857L67.2002 220.772L86.1778 224.582C86.1778 224.582 97.0147 174.61 97.2061 167.987C97.4507 159.612 93.936 130.403 93.936 130.403L69.4867 131.749Z" fill="#90C4E1"/>
<path d="M88.0386 214.15L81.7111 226.013C81.7111 226.013 91.6917 236.403 90.7506 238.729L67.2212 227.338L76.314 208.449L88.0386 214.15Z" fill="#263238"/>
<path d="M74.9317 221.472C74.6714 221.431 74.4052 221.487 74.1841 221.63C73.9629 221.772 73.8031 221.993 73.7353 222.247C73.6851 222.502 73.7353 222.769 73.8758 222.989C74.0162 223.211 74.2362 223.369 74.4903 223.433C74.7659 223.477 75.0477 223.417 75.2816 223.264C75.5152 223.113 75.6844 222.881 75.7559 222.613C75.7815 222.339 75.6994 222.066 75.5266 221.851C75.3541 221.636 75.1044 221.497 74.8306 221.462" fill="#E0E0E0"/>
<path d="M67.2104 227.317L68.1995 225.447L90.3889 237.07C90.3889 237.07 91.2131 238.029 90.7398 238.708L67.2104 227.317Z" fill="#455A64"/>
<path d="M82.1522 226.056C82.0938 226.171 81.4929 225.944 80.7486 226.056C80.0041 226.166 79.467 226.484 79.382 226.39C79.2968 226.294 79.7914 225.711 80.6953 225.615C81.5993 225.52 82.2267 225.987 82.1522 226.056Z" fill="white"/>
<path d="M84.1253 228.292C84.1253 228.413 83.5033 228.365 82.8759 228.661C82.2483 228.96 81.8868 229.414 81.7751 229.356C81.6635 229.297 81.908 228.615 82.695 228.26C83.4819 227.905 84.1733 228.175 84.1253 228.292Z" fill="white"/>
<path d="M84.0938 231.91C83.9769 231.883 84.0938 231.237 84.6946 230.755C85.2955 230.272 85.955 230.278 85.955 230.4C85.955 230.523 85.4604 230.691 84.9766 231.094C84.4927 231.498 84.2109 231.958 84.0938 231.91Z" fill="white"/>
<path d="M83.2902 223.216C83.1945 223.294 82.7585 222.882 82.0727 222.612C81.3866 222.341 80.7965 222.3 80.7858 222.172C80.7752 222.044 81.4558 221.875 82.2427 222.204C83.0298 222.533 83.3913 223.152 83.2902 223.216Z" fill="white"/>
<path d="M100.428 131.542C100.428 132.496 107.606 169.222 107.112 175.315C106.617 181.408 86.858 223.571 86.858 223.571L70.8261 215.279L86.858 178.721V173.218L73.5646 139.442L70.8208 130.403L100.428 131.542Z" fill="#90C4E1"/>
<path d="M100.428 131.542H99.8967L98.4079 131.484L92.5587 131.283L70.8321 130.493L70.9224 130.377C71.7785 133.179 72.7038 136.205 73.6768 139.384L86.9701 173.154V178.721V178.748L72.1453 212.55C71.7466 213.468 71.3424 214.379 70.9436 215.29L70.8852 215.114L86.9117 223.406L86.7256 223.47C92.5322 210.992 97.892 199.216 102.348 188.466C103.459 185.779 104.517 183.167 105.459 180.572C105.916 179.284 106.363 178.008 106.708 176.731C106.897 176.106 106.996 175.459 107.001 174.807C107.001 174.484 107.001 174.166 107.001 173.843L106.937 172.884C106.761 170.33 106.405 167.883 106.102 165.535C105.799 163.187 105.421 160.948 105.081 158.811C103.704 150.277 102.47 143.447 101.641 138.769C101.231 136.427 100.912 134.61 100.694 133.375C100.599 132.761 100.514 132.316 100.471 131.982C100.428 131.648 100.418 131.5 100.418 131.5C100.418 131.5 100.45 131.654 100.498 131.972C100.545 132.289 100.636 132.761 100.742 133.37C100.971 134.599 101.306 136.411 101.737 138.753C102.598 143.437 103.863 150.25 105.262 158.785C105.602 160.905 105.953 163.162 106.293 165.508C106.634 167.856 106.969 170.303 107.149 172.868L107.213 173.838V174.818C107.207 175.486 107.107 176.148 106.916 176.787C106.57 178.075 106.123 179.352 105.666 180.65C104.725 183.231 103.672 185.864 102.566 188.555C98.0995 199.321 92.7714 211.104 86.9701 223.582L86.9117 223.714L86.7841 223.644L70.7575 215.4L70.6406 215.343L70.6937 215.221L71.8954 212.482C77.1118 200.603 82.1261 189.169 86.7309 178.684V178.737V173.223V173.266C81.7698 160.624 77.2553 149.132 73.4693 139.479C72.5016 136.274 71.5871 133.238 70.7363 130.435L70.6991 130.308H70.8267L92.6279 131.198L98.4504 131.447L99.9498 131.516L100.428 131.542Z" fill="#263238"/>
<path d="M79.074 63.9331C79.074 63.9331 74.6606 66.5821 72.3529 71.1914C70.0452 75.8008 69.8485 78.8314 70.7577 89.3746C71.4596 97.5655 73.6983 106.302 72.9218 107.696C70.3855 112.268 68.1735 122.08 67.0142 127.881C66.4453 130.741 66.1692 133.65 66.1901 136.565V139.988L104.651 139.103L102.46 102.784C102.46 102.784 103.289 92.9137 102.295 87.3931C101.301 81.8726 96.3448 71.7265 96.3448 71.7265L79.074 63.9331Z" fill="#90C4E1"/>
<path d="M104.64 139.103C104.51 139.126 104.379 139.137 104.247 139.134L103.125 139.161L98.9983 139.251C95.5101 139.33 90.7034 139.495 85.3859 139.675C80.0686 139.855 75.2511 139.993 71.7628 140.019C70.024 140.019 68.6097 140.019 67.6365 140.019L66.5147 139.993C66.3836 140.002 66.2521 140.002 66.1211 139.993C66.2509 139.968 66.3828 139.958 66.5147 139.961L67.6365 139.929L71.7628 139.839C75.2458 139.76 80.0579 139.601 85.3754 139.415C90.6926 139.23 95.4782 139.103 98.9932 139.076C100.737 139.076 102.146 139.076 103.125 139.076H104.247C104.378 139.074 104.51 139.083 104.64 139.103Z" fill="#263238"/>
<path d="M76.0747 83.6104C76.4522 83.7322 82.6204 107.717 84.5133 110.355C86.4062 112.994 109.106 122.949 109.106 122.949L114.131 118.636L94.058 103.463L87.1454 78.8157L76.0747 83.6104Z" fill="#FFBF9D"/>
<path d="M85.8534 70.0154C82.6629 66.1159 75.7504 66.8364 73.5862 71.2445C72.3266 73.8754 71.7769 76.788 71.9909 79.6951C72.6078 90.1059 77.3669 101.057 77.3669 101.057L94.0953 95.2821C94.0953 95.2821 88.9746 77.0936 87.9485 74.1321C87.3639 72.7053 86.6632 71.3284 85.8534 70.0154Z" fill="#90C4E1"/>
<path d="M85.8538 70.0154C85.9644 70.1413 86.0625 70.2781 86.1461 70.4234C86.327 70.7041 86.5662 71.1281 86.8587 71.6949C87.1512 72.2618 87.4968 72.9612 87.869 73.8142C88.2411 74.6672 88.4964 75.6844 88.8473 76.8076C90.2085 81.3057 92.0378 87.7059 94.202 95.261L94.2339 95.3722L94.1222 95.4146L77.3937 101.195L77.2715 101.237L77.2237 101.121C77.1651 100.988 77.1066 100.84 77.0481 100.697C74.8371 95.3072 73.2457 89.6854 72.305 83.9389C72.1987 83.2767 72.1349 82.6196 72.0497 81.968C71.9647 81.3162 71.9382 80.6752 71.8797 80.0448C71.779 78.8089 71.8075 77.5661 71.9647 76.336C72.1087 75.1881 72.3743 74.0586 72.757 72.9665C73.0823 71.9445 73.5687 70.9805 74.1981 70.1108C74.8009 69.3356 75.5739 68.7085 76.458 68.2776C77.2335 67.8807 78.0716 67.6191 78.9359 67.504C80.3178 67.2872 81.7328 67.4408 83.0354 67.9491C83.8511 68.2744 84.6007 68.7449 85.2476 69.3372L85.7048 69.8669C85.7589 69.9215 85.8087 69.9799 85.8538 70.0419C85.79 69.9969 85.7327 69.9435 85.6835 69.8829L85.2103 69.4008C84.5567 68.8293 83.8058 68.3789 82.993 68.0709C81.7058 67.5888 80.3135 67.4536 78.9571 67.679C78.1119 67.7988 77.2936 68.0622 76.5377 68.4577C75.6821 68.8838 74.9349 69.4979 74.3522 70.2538C73.7427 71.1092 73.2725 72.0551 72.9591 73.0566C72.5864 74.1355 72.3297 75.2508 72.1934 76.3836C72.0428 77.5982 72.0178 78.825 72.1189 80.0448C72.1827 80.6699 72.2146 81.311 72.2945 81.9573C72.3741 82.6038 72.4486 83.2607 72.5602 83.9176C73.5099 89.6399 75.1009 95.2379 77.3034 100.607C77.3618 100.75 77.4203 100.893 77.4788 101.025L77.3034 100.951L94.0372 95.1921L93.9573 95.3457C91.8304 87.7853 90.0225 81.3746 88.6985 76.8658C88.3636 75.7427 88.0764 74.7466 87.7574 73.8778C87.4383 73.0088 87.0608 72.3307 86.7842 71.7585C86.5095 71.1593 86.1987 70.5773 85.8538 70.0154Z" fill="#263238"/>
<path d="M114.014 118.594C114.163 118.631 119.257 120.474 120.395 121.11C121.533 121.746 123.979 125.057 123.825 126.223C123.67 127.389 123.713 128.104 123.41 128.289C123.107 128.475 121.076 128.289 121.076 128.289C121.076 128.289 120.618 130.408 118.417 129.492C118.417 129.492 117.513 131.023 115.891 129.73C115.891 129.73 114.344 130.435 113.738 129.307L113.472 128.48C112.132 127.299 110.861 126.043 109.665 124.718C109.123 124.021 108.713 123.231 108.458 122.387L114.014 118.594Z" fill="#FFBF9D"/>
<path d="M120.863 124.634C121.099 125.213 121.238 125.827 121.272 126.451C121.4 127.066 121.422 127.699 121.336 128.321C121.151 127.725 121.037 127.11 120.996 126.488C120.873 125.878 120.828 125.255 120.863 124.634Z" fill="#FF9A6C"/>
<path d="M118.327 126.393C118.536 126.895 118.627 127.439 118.593 127.982C118.641 128.521 118.57 129.063 118.386 129.572C118.304 129.046 118.28 128.513 118.316 127.982C118.264 127.453 118.267 126.921 118.327 126.393Z" fill="#FF9A6C"/>
<path d="M116.519 128.04C116.594 128.077 116.461 128.475 116.317 128.967C116.174 129.46 116.078 129.863 116.003 129.852C115.929 129.842 115.902 129.407 116.051 128.888C116.2 128.369 116.455 128.008 116.519 128.04Z" fill="#FF9A6C"/>
<path d="M120.028 124.602C120.102 124.602 120.145 125.031 119.81 125.407C119.475 125.783 119.039 125.794 119.039 125.72C119.039 125.645 119.347 125.524 119.603 125.222C119.858 124.92 119.948 124.596 120.028 124.602Z" fill="#FF9A6C"/>
<path d="M121.943 122.949C122.012 122.949 121.943 123.367 121.634 123.728C121.326 124.088 120.922 124.199 120.895 124.13C120.869 124.061 121.156 123.865 121.427 123.548C121.698 123.23 121.868 122.922 121.943 122.949Z" fill="#FF9A6C"/>
<path d="M117.551 126.546C117.63 126.546 117.599 126.949 117.226 127.203C116.854 127.458 116.471 127.346 116.493 127.272C116.514 127.198 116.796 127.171 117.067 126.975C117.338 126.779 117.497 126.525 117.551 126.546Z" fill="#FF9A6C"/>
<path d="M115.211 128.363C115.28 128.4 115.131 128.702 114.77 128.803C114.408 128.904 114.115 128.739 114.153 128.671C114.19 128.602 114.424 128.623 114.684 128.543C114.945 128.464 115.147 128.316 115.211 128.363Z" fill="#FF9A6C"/>
<defs>
<filter id="filter0_d_345_25" x="9.86133" y="0.295044" width="253.496" height="252.65" filterUnits="userSpaceOnUse" color-interpolation-filters="sRGB">
<feFlood flood-opacity="0" result="BackgroundImageFix"/>
<feColorMatrix in="SourceAlpha" type="matrix" values="0 0 0 0 0 0 0 0 0 0 0 0 0 0 0 0 0 0 127 0" result="hardAlpha"/>
<feOffset/>
<feGaussianBlur stdDeviation="5"/>
<feComposite in2="hardAlpha" operator="out"/>
<feColorMatrix type="matrix" values="0 0 0 0 0.654167 0 0 0 0 0.654167 0 0 0 0 0.654167 0 0 0 0.25 0"/>
<feBlend mode="normal" in2="BackgroundImageFix" result="effect1_dropShadow_345_25"/>
<feBlend mode="normal" in="SourceGraphic" in2="effect1_dropShadow_345_25" result="shape"/>
</filter>
</defs>
</svg>
