<svg width="273" height="261" viewBox="0 0 273 261" fill="none" xmlns="http://www.w3.org/2000/svg">
<g filter="url(#filter0_d_345_29)">
<path d="M127.111 243.776C191.421 243.776 243.555 191.535 243.555 127.093C243.555 62.6506 191.421 10.4098 127.111 10.4098C62.8005 10.4098 10.6665 62.6506 10.6665 127.093C10.6665 191.535 62.8005 243.776 127.111 243.776Z" fill="white"/>
</g>
<path d="M199.205 260.094C210.652 260.094 219.932 255.662 219.932 250.194C219.932 244.725 210.652 240.293 199.205 240.293C187.758 240.293 178.478 244.725 178.478 250.194C178.478 255.662 187.758 260.094 199.205 260.094Z" fill="#F0F0F0"/>
<path d="M77.0568 60.7533L112.598 40.1868C113.409 39.7195 114.064 40.0512 114.064 40.9316C114.029 41.4251 113.877 41.9028 113.623 42.3265C113.368 42.7503 113.017 43.1076 112.598 43.3695L77.0568 63.9294C76.246 64.3967 75.5903 64.0648 75.5903 63.1844C75.6271 62.6924 75.7789 62.2157 76.0339 61.7933C76.2886 61.3709 76.639 61.0146 77.0568 60.7533Z" fill="#FAFAFA"/>
<path d="M77.0568 67.7894L112.598 47.2229C113.409 46.7557 114.064 47.0874 114.064 47.9677C114.029 48.4612 113.877 48.939 113.623 49.3628C113.368 49.7864 113.017 50.1437 112.598 50.4058L77.0568 70.9655C76.246 71.4328 75.5903 71.1009 75.5903 70.2273C75.6261 69.734 75.7775 69.2561 76.0323 68.8324C76.2872 68.4088 76.6382 68.0515 77.0568 67.7894Z" fill="#FAFAFA"/>
<path d="M77.0568 74.8255L112.598 54.2656C113.409 53.7983 114.064 54.1302 114.064 55.0038C114.029 55.4971 113.877 55.975 113.623 56.3986C113.368 56.8223 113.017 57.1796 112.598 57.4416L77.0568 78.0016C76.246 78.4756 75.5903 78.1437 75.5903 77.2633C75.6261 76.7701 75.7775 76.2921 76.0323 75.8685C76.2872 75.4449 76.6382 75.0875 77.0568 74.8255Z" fill="#FAFAFA"/>
<path d="M77.0568 81.8618L112.598 61.302C113.409 60.8348 114.064 61.1665 114.064 62.0468C114.029 62.539 113.876 63.0156 113.621 63.4379C113.366 63.8605 113.016 64.2168 112.598 64.4781L77.0568 85.0785C76.246 85.5457 75.5903 85.214 75.5903 84.3337C75.6209 83.8343 75.7699 83.3496 76.025 82.9197C76.2799 82.4899 76.6337 82.1272 77.0568 81.8618Z" fill="#FAFAFA"/>
<path d="M20.6338 186.158V136.173C20.6663 135.562 20.8425 134.968 21.1477 134.438C21.4532 133.909 21.8791 133.459 22.3909 133.126L82.0791 98.5885C83.0455 98.0265 83.8363 98.4802 83.8363 99.6045V149.589C83.8021 150.199 83.6254 150.793 83.3202 151.322C83.0149 151.851 82.5899 152.302 82.0791 152.637L22.3909 187.173C21.4178 187.736 20.6338 187.282 20.6338 186.158Z" fill="#F0F0F0"/>
<path d="M20.6338 183.658V186.158C20.6338 187.282 21.4178 187.736 22.3909 187.173L82.0791 152.637C82.5899 152.302 83.0149 151.851 83.3202 151.322C83.6254 150.793 83.8021 150.199 83.8363 149.589V147.083L20.6338 183.658Z" fill="#90C4E1"/>
<path d="M49.5117 138.326L55.5942 138.008C56.3375 137.968 56.5403 138.388 56.047 138.956L49.0589 146.92C48.5656 147.482 48.167 147.327 48.167 146.582V139.756C48.1695 139.391 48.3097 139.041 48.5592 138.776C48.8086 138.511 49.149 138.351 49.5117 138.326Z" fill="#90C4E1"/>
<path d="M47.9428 151.288C47.214 151.297 46.4957 151.113 45.8614 150.753C44.361 149.88 43.5366 148.044 43.5366 145.647C43.5366 140.758 46.9764 134.812 51.207 132.34C53.2954 131.128 55.262 130.945 56.7757 131.812C58.2897 132.679 59.1073 134.521 59.1073 136.911C59.1073 141.808 55.6607 147.747 51.4369 150.218C50.3855 150.875 49.1809 151.244 47.9428 151.288ZM54.7011 131.738C53.5459 131.783 52.4228 132.131 51.4436 132.747C47.3414 135.117 44.0097 140.907 44.0097 145.647C44.0097 147.896 44.753 149.568 46.1046 150.347C47.4563 151.126 49.2675 150.943 51.207 149.819C55.3092 147.442 58.641 141.692 58.641 136.911C58.641 134.663 57.8977 132.997 56.546 132.212C55.9805 131.894 55.3421 131.731 54.6943 131.738H54.7011Z" fill="#90C4E1"/>
<path d="M155.481 24.0495L151.783 21.9232C150.02 20.738 147.566 20.7854 144.857 22.3566C139.451 25.4716 135.111 33.3747 135.111 40.0112V41.5213C135.111 48.158 144.018 55.3633 144.018 55.3633L147.655 57.4289C147.655 57.4289 145.472 54.9299 145.721 54.4153C148.134 49.5124 154.589 35.6569 154.589 30.2392V28.7291C154.603 27.6361 154.462 26.5465 154.176 25.4921L154.589 25.729L155.481 24.0495ZM144.85 39.2662C142.146 40.8239 139.977 39.5575 139.977 36.4491C141.424 36.2189 145.067 29.9886 144.85 27.9909C147.554 26.4334 149.716 27.6996 149.723 30.8081C149.63 32.5025 149.142 34.1514 148.295 35.6209C147.449 37.0906 146.269 38.3394 144.85 39.2662Z" fill="#90C4E1"/>
<g opacity="0.2">
<path d="M155.481 24.0495L151.783 21.9232C150.02 20.738 147.566 20.7854 144.857 22.3566C139.451 25.4716 135.111 33.3747 135.111 40.0112V41.5213C135.111 48.158 144.018 55.3633 144.018 55.3633L147.655 57.4289C147.655 57.4289 145.472 54.9299 145.721 54.4153C148.134 49.5124 154.589 35.6569 154.589 30.2392V28.7291C154.603 27.6361 154.462 26.5465 154.176 25.4921L154.589 25.729L155.481 24.0495ZM144.85 39.2662C142.146 40.8239 139.977 39.5575 139.977 36.4491C141.424 36.2189 145.067 29.9886 144.85 27.9909C147.554 26.4334 149.716 27.6996 149.723 30.8081C149.63 32.5025 149.142 34.1514 148.295 35.6209C147.449 37.0906 146.269 38.3394 144.85 39.2662Z" fill="black"/>
</g>
<path d="M155.481 24.0495C155.44 24.0206 155.397 23.9957 155.353 23.975C153.616 22.9999 151.298 23.1352 148.743 24.6115C144.891 26.8463 141.559 31.5257 139.957 36.449C139.339 38.322 139.01 40.2795 138.985 42.2526V43.7832C138.985 48.896 144.763 54.8281 147.419 57.2865C147.476 57.338 147.538 57.3856 147.602 57.4287C147.756 57.5245 147.932 57.5865 148.114 57.6107C148.295 57.6349 148.48 57.6207 148.654 57.569C148.83 57.5174 148.994 57.4294 149.134 57.3107C149.273 57.1921 149.387 57.0453 149.467 56.8802C151.764 52.1398 158.448 37.9998 158.448 32.5009V30.9908C158.489 27.5776 157.333 25.1668 155.481 24.0495ZM143.959 39.6793C143.902 39.3572 143.876 39.0309 143.877 38.7041C143.966 37.0089 144.453 35.359 145.3 33.8881C146.144 32.4172 147.324 31.167 148.743 30.239C149.026 30.0755 149.323 29.9351 149.628 29.8191C151.899 28.9931 153.616 30.2999 153.616 33.0562C153.525 34.7498 153.036 36.3979 152.188 37.8665C151.342 39.3351 150.162 40.5827 148.743 41.5077C146.357 42.9028 144.37 42.063 143.959 39.6793Z" fill="#90C4E1"/>
<path d="M153.616 33.063C153.525 34.7566 153.036 36.4047 152.188 37.8733C151.342 39.3419 150.162 40.5895 148.743 41.5146C146.357 42.869 144.37 42.0631 143.959 39.6794C144.268 39.5702 144.567 39.4317 144.85 39.2662C146.268 38.339 147.447 37.0899 148.293 35.6202C149.138 34.1505 149.627 32.5018 149.715 30.8081C149.719 30.4785 149.691 30.1496 149.628 29.826C151.899 28.9999 153.616 30.3068 153.616 33.063Z" fill="#90C4E1"/>
<g opacity="0.2">
<path d="M153.616 33.0633C153.525 34.7569 153.036 36.4051 152.188 37.8735C151.342 39.3421 150.162 40.5896 148.743 41.5147C146.357 42.8691 144.37 42.0632 143.959 39.6795C144.268 39.5703 144.567 39.4319 144.85 39.2664C146.268 38.3391 147.447 37.09 148.293 35.6203C149.138 34.1508 149.627 32.5021 149.715 30.8082C149.719 30.4788 149.691 30.1498 149.628 29.8263C151.899 29 153.616 30.3071 153.616 33.0633Z" fill="black"/>
</g>
<path d="M93.068 182.819C93.068 182.819 95.5077 167.243 90.0878 153.848C84.6677 140.453 77.3621 139.627 73.5775 141.53C69.793 143.433 72.2259 150.862 75.6049 155.852C80.1059 162.401 87.5398 176.501 87.2966 189.165L93.068 182.819Z" fill="#90C4E1"/>
<path opacity="0.2" d="M93.068 182.819C93.068 182.819 95.5077 167.243 90.0878 153.848C84.6677 140.453 77.3621 139.627 73.5775 141.53C69.793 143.433 72.2259 150.862 75.6049 155.852C80.1059 162.401 87.5398 176.501 87.2966 189.165L93.068 182.819Z" fill="black"/>
<path d="M90.635 183.808C90.5744 183.806 90.5146 183.792 90.4595 183.767C90.4042 183.742 90.3546 183.705 90.3138 183.66C90.2727 183.616 90.2412 183.562 90.221 183.505C90.2007 183.448 90.1922 183.388 90.1957 183.327C91.0878 162.002 80.4572 146.081 75.8684 142.979C75.8183 142.945 75.7753 142.902 75.7418 142.852C75.7084 142.801 75.6853 142.745 75.6736 142.685C75.662 142.626 75.6622 142.565 75.6741 142.505C75.6862 142.446 75.7097 142.39 75.7434 142.339C75.7772 142.289 75.8204 142.246 75.8707 142.212C75.921 142.179 75.9776 142.156 76.0368 142.144C76.0962 142.132 76.1571 142.133 76.2163 142.145C76.2755 142.157 76.3319 142.18 76.382 142.214C81.7886 145.83 92.0069 162.11 91.1081 183.368C91.1063 183.427 91.0928 183.487 91.0679 183.541C91.043 183.596 91.0076 183.646 90.9635 183.687C90.9196 183.728 90.8679 183.76 90.8114 183.78C90.755 183.801 90.6951 183.81 90.635 183.808Z" fill="white"/>
<path d="M92.1082 201.314C91.1823 198.984 88.79 196.383 82.6469 193.608C76.5036 190.83 71.881 187.127 71.0296 184.444C70.7733 183.703 70.7399 182.903 70.9333 182.144C71.1267 181.384 71.5384 180.698 72.1176 180.17C72.1176 180.17 66.3258 179.493 65.596 175.94C64.6837 171.456 69.7455 171.164 69.7455 171.164C69.7455 171.164 63.1022 161.792 61.3384 157.621C59.5745 153.449 61.6087 153.198 65.8933 154.791C70.1781 156.381 78.3418 164.392 79.6056 166.836C79.6056 166.836 81.8156 164.129 84.1944 165.91C86.5733 167.69 86.6883 173.02 85.2824 174.944C86.2305 174.766 87.2094 174.869 88.1004 175.238C88.9916 175.606 89.7569 176.226 90.3038 177.023C92.7233 180.199 93.5207 188.142 93.5207 188.142L92.1082 201.314Z" fill="#90C4E1"/>
<path d="M92.5413 199.146C92.4386 199.144 92.3392 199.11 92.2587 199.046C92.178 198.982 92.1205 198.893 92.0953 198.793C88.8108 185.08 73.2197 163.193 63.5353 156.232C63.486 156.196 63.4441 156.151 63.4121 156.101C63.3799 156.05 63.3582 155.993 63.3483 155.932C63.3381 155.873 63.3399 155.811 63.3536 155.752C63.3671 155.694 63.392 155.638 63.4272 155.588C63.4622 155.539 63.5067 155.498 63.5579 155.466C63.6091 155.433 63.6661 155.41 63.7257 155.401C63.7854 155.391 63.8464 155.392 63.9052 155.407C63.9643 155.419 64.0199 155.444 64.0692 155.48C73.8752 162.531 89.6624 184.695 92.9941 198.578C93.0206 198.697 92.9993 198.822 92.9349 198.925C92.8704 199.028 92.768 199.103 92.6494 199.132L92.5413 199.146Z" fill="white"/>
<path d="M214.871 61.0579C214.791 61.057 214.713 61.036 214.642 60.997L212.743 59.8932C212.69 59.8629 212.644 59.8227 212.608 59.7746C212.571 59.7266 212.544 59.6718 212.528 59.6133C212.512 59.5547 212.509 59.4938 212.516 59.4338C212.525 59.3737 212.544 59.3158 212.574 59.2633C212.605 59.2109 212.644 59.1648 212.692 59.1279C212.74 59.091 212.795 59.064 212.853 59.0483C212.912 59.0326 212.973 59.0285 213.033 59.0363C213.092 59.0442 213.15 59.0638 213.202 59.0941L215.101 60.1978C215.154 60.2281 215.2 60.2684 215.237 60.3163C215.273 60.3644 215.3 60.4191 215.316 60.4777C215.332 60.5361 215.335 60.5972 215.328 60.6573C215.321 60.7173 215.3 60.7752 215.269 60.8277C215.23 60.8978 215.172 60.956 215.102 60.9964C215.031 61.0369 214.953 61.0581 214.871 61.0579Z" fill="white"/>
<path d="M92.1094 101.209V201.964C92.1094 203.088 92.8934 203.541 93.8598 202.98L211.141 135.13C211.652 134.796 212.076 134.346 212.382 133.817C212.688 133.287 212.864 132.693 212.898 132.083V31.3289C212.898 30.2048 212.107 29.7511 211.141 30.3131L93.8598 98.1619C93.3495 98.4963 92.9252 98.9465 92.621 99.4761C92.317 100.006 92.1417 100.599 92.1094 101.209Z" fill="#455A64"/>
<path d="M105.835 119.819C105.835 123.333 108.45 124.661 111.688 122.792L204.659 69.0017V56.2974L111.688 110.081C108.45 111.957 105.835 116.311 105.835 119.819Z" fill="#F5F5F5"/>
<path d="M212.567 51.7399C215.798 49.8708 218.42 51.1981 218.42 54.7059C218.42 58.2139 215.798 62.575 212.567 64.4441L204.695 69.0016V56.2974L212.567 51.7399Z" fill="#90C4E1"/>
<path d="M209.73 62.4463C209.392 62.4511 209.062 62.3645 208.77 62.1958C208.411 61.955 208.123 61.6215 207.938 61.2305C207.751 60.8394 207.675 60.4055 207.716 59.9746C207.764 58.9146 208.066 57.8817 208.594 56.9627C209.124 56.0437 209.865 55.265 210.756 54.6923C211.097 54.4142 211.513 54.2464 211.952 54.2115C212.39 54.1764 212.827 54.2758 213.207 54.4963C213.588 54.7169 213.892 55.0482 214.078 55.4462C214.267 55.844 214.329 56.2897 214.258 56.724C214.206 57.7834 213.904 58.8157 213.376 59.7344C212.846 60.6533 212.107 61.4321 211.216 62.0061C210.768 62.2808 210.254 62.4326 209.73 62.4463ZM212.237 55.1663C211.874 55.1843 211.522 55.2964 211.216 55.4914C210.47 55.9883 209.849 56.6517 209.401 57.4294C208.953 58.2072 208.69 59.0783 208.635 59.9746C208.566 60.2443 208.585 60.5293 208.694 60.7862C208.8 61.0432 208.989 61.2575 209.23 61.3967C209.47 61.5358 209.751 61.5919 210.027 61.5565C210.302 61.521 210.558 61.3958 210.756 61.2002C211.504 60.7041 212.126 60.041 212.574 59.2631C213.022 58.4851 213.284 57.6136 213.339 56.7172C213.373 56.4486 213.335 56.1757 213.232 55.9259C213.127 55.6763 212.958 55.4587 212.743 55.2951C212.589 55.2066 212.414 55.1621 212.237 55.1663Z" fill="white"/>
<path d="M213.918 79.5458L124.036 131.514C123.522 131.847 123.095 132.296 122.791 132.826C122.485 133.356 122.309 133.951 122.277 134.562V162.28C122.277 163.404 123.061 163.858 124.036 163.295L213.918 111.307C214.43 110.973 214.857 110.524 215.161 109.994C215.467 109.464 215.643 108.87 215.676 108.259V80.5618C215.643 79.4375 214.859 78.9838 213.918 79.5458Z" fill="#90C4E1"/>
<path opacity="0.2" d="M213.918 79.5458L124.036 131.514C123.522 131.847 123.095 132.296 122.791 132.826C122.485 133.356 122.309 133.951 122.277 134.562V162.28C122.277 163.404 123.061 163.858 124.036 163.295L213.918 111.307C214.43 110.973 214.857 110.524 215.161 109.994C215.467 109.464 215.643 108.87 215.676 108.259V80.5618C215.643 79.4375 214.859 78.9838 213.918 79.5458Z" fill="white"/>
<path d="M156.711 117.232L172.999 107.805C173.81 107.338 174.466 107.67 174.466 108.55C174.429 109.042 174.276 109.519 174.022 109.942C173.767 110.364 173.417 110.72 172.999 110.982L156.711 120.408C155.901 120.875 155.245 120.544 155.245 119.663C155.282 119.171 155.433 118.695 155.689 118.272C155.943 117.85 156.294 117.493 156.711 117.232Z" fill="white"/>
<path d="M155.245 126.015C155.245 126.896 155.92 127.228 156.711 126.76L205.945 98.2771C206.361 98.0138 206.711 97.6561 206.966 97.2327C207.218 96.809 207.369 96.3318 207.405 95.8391C207.405 94.9656 206.729 94.6337 205.945 95.101L156.711 123.584C156.294 123.845 155.943 124.202 155.689 124.624C155.433 125.047 155.282 125.523 155.245 126.015Z" fill="white"/>
<path d="M155.245 132.367C155.245 133.248 155.92 133.579 156.711 133.112L205.945 104.629C206.361 104.366 206.711 104.008 206.966 103.585C207.218 103.161 207.369 102.684 207.405 102.191C207.405 101.318 206.729 100.986 205.945 101.453L156.711 129.936C156.294 130.198 155.943 130.554 155.689 130.976C155.433 131.399 155.282 131.875 155.245 132.367Z" fill="white"/>
<path d="M155.245 138.72C155.245 139.6 155.92 139.932 156.711 139.464L205.945 110.981C206.361 110.718 206.711 110.36 206.966 109.937C207.218 109.513 207.369 109.036 207.405 108.543C207.405 107.67 206.729 107.338 205.945 107.805L156.711 136.289C156.294 136.55 155.943 136.906 155.689 137.328C155.433 137.751 155.282 138.227 155.245 138.72Z" fill="white"/>
<path d="M126.805 133.099L148 120.835C148.972 120.279 149.756 120.733 149.756 121.85V143.202C149.723 143.813 149.547 144.407 149.243 144.937C148.937 145.466 148.51 145.916 148 146.25L126.805 158.506C125.84 159.069 125.049 158.615 125.049 157.498V136.146C125.081 135.535 125.257 134.941 125.563 134.411C125.868 133.882 126.293 133.432 126.805 133.099Z" fill="white"/>
<path d="M143.972 131.494L137.666 144.591L134.455 142.735C134.146 142.556 133.778 142.507 133.431 142.6C133.086 142.693 132.791 142.919 132.612 143.23L125.049 156.347V157.491C125.049 158.615 125.84 159.069 126.805 158.507L148 146.25C148.512 145.917 148.937 145.467 149.243 144.937C149.548 144.408 149.724 143.813 149.756 143.203V135.706L145.491 131.25C145.395 131.126 145.267 131.029 145.12 130.972C144.974 130.914 144.816 130.896 144.66 130.921C144.505 130.946 144.359 131.012 144.238 131.113C144.116 131.214 144.025 131.345 143.972 131.494Z" fill="#90C4E1"/>
<path d="M128.231 140.914C129.541 140.057 130.633 138.903 131.415 137.545C132.195 136.187 132.649 134.664 132.732 133.099C132.777 132.579 132.699 132.056 132.505 131.572C132.309 131.089 132.003 130.658 131.611 130.315L126.805 133.099C126.293 133.432 125.868 133.882 125.563 134.411C125.257 134.941 125.081 135.535 125.049 136.146V141.225C125.867 141.699 126.988 141.631 128.231 140.914Z" fill="#90C4E1"/>
<path d="M213.918 120.835L124.036 172.802C123.524 173.136 123.097 173.586 122.791 174.115C122.487 174.644 122.311 175.239 122.277 175.85V203.589C122.277 204.706 123.061 205.16 124.036 204.604L213.918 152.603C214.43 152.268 214.857 151.819 215.161 151.29C215.467 150.76 215.643 150.165 215.676 149.555V121.85C215.643 120.733 214.859 120.293 213.918 120.835Z" fill="#90C4E1"/>
<path opacity="0.2" d="M213.918 120.835L124.036 172.802C123.524 173.136 123.097 173.586 122.791 174.115C122.487 174.644 122.311 175.239 122.277 175.85V203.589C122.277 204.706 123.061 205.16 124.036 204.604L213.918 152.603C214.43 152.268 214.857 151.819 215.161 151.29C215.467 150.76 215.643 150.165 215.676 149.555V121.85C215.643 120.733 214.859 120.293 213.918 120.835Z" fill="white"/>
<path d="M156.711 158.521L172.999 149.101C173.81 148.634 174.466 148.966 174.466 149.839C174.429 150.333 174.278 150.81 174.023 151.235C173.769 151.657 173.417 152.015 172.999 152.277L156.711 161.697C155.901 162.164 155.245 161.832 155.245 160.959C155.28 160.466 155.431 159.987 155.687 159.565C155.942 159.141 156.294 158.782 156.711 158.521Z" fill="white"/>
<path d="M155.245 167.31C155.245 168.185 155.92 168.516 156.711 168.049L205.945 139.566C206.361 139.303 206.71 138.947 206.964 138.525C207.216 138.102 207.367 137.626 207.405 137.135C207.405 136.254 206.729 135.923 205.945 136.39L156.711 164.873C156.294 165.135 155.942 165.493 155.687 165.915C155.431 166.339 155.28 166.817 155.245 167.31Z" fill="white"/>
<path d="M155.245 173.663C155.245 174.536 155.92 174.869 156.711 174.4L205.945 145.918C206.361 145.655 206.71 145.299 206.964 144.876C207.216 144.454 207.367 143.978 207.405 143.487C207.405 142.607 206.729 142.275 205.945 142.742L156.711 171.226C156.294 171.488 155.942 171.844 155.687 172.268C155.431 172.692 155.28 173.169 155.245 173.663Z" fill="white"/>
<path d="M155.245 180.015C155.245 180.888 155.92 181.221 156.711 180.753L205.945 152.27C206.361 152.008 206.71 151.652 206.964 151.229C207.216 150.807 207.367 150.331 207.405 149.839C207.405 148.959 206.729 148.627 205.945 149.094L156.711 177.577C156.294 177.839 155.942 178.197 155.687 178.621C155.431 179.045 155.28 179.522 155.245 180.015Z" fill="white"/>
<path d="M126.805 174.395L148 162.13C148.972 161.569 149.756 162.021 149.756 163.145V184.492C149.724 185.103 149.55 185.698 149.244 186.227C148.939 186.756 148.512 187.207 148 187.538L126.805 199.803C125.84 200.365 125.049 199.912 125.049 198.788V177.441C125.081 176.83 125.257 176.237 125.563 175.706C125.868 175.177 126.293 174.728 126.805 174.395Z" fill="white"/>
<path d="M143.972 172.79L137.666 185.887L134.455 184.024C134.302 183.936 134.131 183.879 133.955 183.856C133.779 183.833 133.602 183.845 133.429 183.892C133.259 183.938 133.099 184.018 132.958 184.127C132.818 184.236 132.699 184.371 132.612 184.526L125.049 197.642V198.788C125.049 199.912 125.84 200.365 126.805 199.803L148 187.538C148.51 187.207 148.937 186.758 149.243 186.231C149.548 185.702 149.724 185.108 149.756 184.499V176.994L145.491 172.546C145.397 172.419 145.269 172.321 145.122 172.263C144.974 172.202 144.814 172.184 144.658 172.209C144.503 172.234 144.356 172.302 144.235 172.403C144.114 172.507 144.023 172.64 143.972 172.79Z" fill="#90C4E1"/>
<path d="M128.231 182.203C129.541 181.348 130.633 180.195 131.415 178.838C132.195 177.48 132.649 175.959 132.732 174.395C132.777 173.875 132.699 173.351 132.505 172.868C132.309 172.384 132.003 171.954 131.611 171.611L126.805 174.395C126.293 174.728 125.868 175.177 125.563 175.706C125.257 176.237 125.081 176.83 125.049 177.441V182.52C125.867 182.989 126.988 182.921 128.231 182.203Z" fill="#90C4E1"/>
<path d="M212.898 35.6428V31.3289C212.898 30.2048 212.107 29.7511 211.141 30.3131L93.8665 98.1619C93.3547 98.4952 92.9288 98.945 92.6233 99.4745C92.3181 100.004 92.1419 100.599 92.1094 101.209V105.53L212.898 35.6428Z" fill="#90C4E1"/>
<path d="M198.51 39.2727C198.132 39.5214 197.817 39.8558 197.591 40.2486C197.365 40.6415 197.236 41.0819 197.212 41.5346C197.212 42.3674 197.794 42.706 198.51 42.2862C198.889 42.0409 199.207 41.7084 199.433 41.3164C199.66 40.9243 199.79 40.4837 199.813 40.0311C199.813 39.1982 199.232 38.8596 198.51 39.2727Z" fill="#F5F5F5"/>
<path d="M203.682 36.3199C203.301 36.5679 202.987 36.9019 202.759 37.2947C202.533 37.6877 202.402 38.1286 202.377 38.5818C202.377 39.4146 202.965 39.7465 203.682 39.3334C204.062 39.0867 204.379 38.753 204.604 38.3597C204.832 37.9665 204.962 37.5251 204.985 37.0715C204.985 36.2047 204.404 35.873 203.682 36.3199Z" fill="#F5F5F5"/>
<path d="M208.852 33.2998C208.471 33.5451 208.155 33.8775 207.927 34.2696C207.702 34.6617 207.57 35.1022 207.547 35.5549C207.547 36.3877 208.128 36.7263 208.852 36.3132C209.229 36.0645 209.543 35.7301 209.769 35.3373C209.995 34.9444 210.125 34.504 210.15 34.0513C210.15 33.2185 209.568 32.8799 208.852 33.2998Z" fill="#F5F5F5"/>
<path d="M214.768 245.725C214.973 246.245 215.115 246.788 215.188 247.342C215.378 247.916 215.422 248.529 215.316 249.124C214.861 249.884 214.137 250.444 213.289 250.695C212.685 250.834 212.059 250.846 211.451 250.729C210.843 250.613 210.265 250.371 209.755 250.018C208.517 249.279 207.591 248.379 205.835 247.884C204.581 247.613 203.401 247.075 202.375 246.307C201.401 245.527 200.103 243.361 201.963 242.86C203.821 242.358 207.869 244.125 211.552 244.289L214.768 245.725Z" fill="#263238"/>
<path d="M214.594 243.286C214.594 243.286 214.809 245.873 214.809 246.192C214.809 247.065 211.593 248.222 210.997 246.192L210.483 243.443L214.594 243.286Z" fill="#F28F8F"/>
<path d="M210.647 186.53C211.753 188.16 212.766 189.851 213.68 191.595C213.68 191.595 213.998 195.361 213.998 197.867C213.998 202.472 213.289 206.026 212.647 215.1C213.692 216.885 214.29 218.898 214.391 220.965C214.661 225.076 214.667 225.028 214.695 243.99C214.078 244.323 213.403 244.53 212.708 244.597C212.011 244.665 211.308 244.592 210.64 244.383L204.556 217.83L203.881 207.408L201.975 194.454L210.647 186.53Z" fill="#37474F"/>
<path d="M196.251 250.471C196.468 250.695 196.393 251.149 196.494 251.894C196.606 252.466 196.636 253.052 196.581 253.634C196.228 254.44 195.586 255.084 194.784 255.442C194.201 255.653 193.58 255.74 192.962 255.699C192.343 255.66 191.739 255.491 191.189 255.206C189.877 254.623 188.844 253.85 187.04 253.574C185.762 253.463 184.524 253.077 183.41 252.443C182.348 251.766 180.788 249.801 182.572 249.056C184.356 248.311 188.83 249.646 192.5 249.346L196.251 250.471Z" fill="#263238"/>
<path d="M197.097 247.221C197.097 247.221 196.421 250.173 196.238 250.83C195.833 252.409 192.338 252.489 192.338 250.668L192.574 246.469L197.097 247.221Z" fill="#F28F8F"/>
<path d="M202.759 187.335C204.51 190.782 206.199 193.823 206.254 197.495C206.382 205.262 203.164 213.814 201.982 219.429C202.334 221.46 202.434 223.528 202.279 225.584C202.043 227.934 196.697 249.286 196.697 249.286C196.697 249.286 193.724 249.909 192.46 248.561L193.961 207.449L194.366 195.51L202.759 187.335Z" fill="#37474F"/>
<path d="M200.354 166.282L201.456 172.396L206.971 171.99L205.815 165.062L200.354 166.282Z" fill="#FFA8A7"/>
<path d="M212.788 171.543C212.24 169.884 210.139 168.076 208.057 168.47C204.932 169.001 201.849 169.772 198.839 170.771C196.914 171.448 195.156 173.135 194.994 179.488L194.393 195.469C195.225 196.212 196.224 196.741 197.305 197.014C200.231 197.819 202.164 198.3 206.612 197.325C212.404 196.059 213.782 192.544 213.782 192.544C213.782 192.544 213.559 184.086 213.383 179.488C213.241 175.58 213.159 172.688 212.788 171.543Z" fill="#455A64"/>
<path d="M198.002 158.474L169.922 150.842C167.381 150.401 166.32 156.618 168.86 157.051L197.698 159.971L198.002 158.474Z" fill="#263238"/>
<path d="M189.925 171.368L184.188 171.543C184.188 171.543 185.054 162.99 185.587 161.866C186.121 160.742 187.399 160.512 188.668 160.153C189.939 159.794 189.932 159.185 189.932 159.185L188.791 159.069C187.79 158.968 187.392 157.716 187.824 156.869C188.034 156.476 188.371 155.852 188.979 156.021L190.494 156.435C190.517 155.767 190.35 155.104 190.014 154.525C189.507 153.964 189.17 154.14 188.155 153.788C187.404 153.524 185.87 153.055 184.635 153.565C183.397 154.073 182.459 156.401 182.14 158.047C181.819 159.949 181.298 161.813 180.587 163.607C179.484 166.655 177.883 172.911 177.714 175.418C177.639 176.575 177.747 177.267 179.031 177.571C180.316 177.876 189.763 177.895 189.763 177.895L189.925 171.368Z" fill="#FFA8A7"/>
<path d="M196.27 159.043C196.27 159.043 194.919 161.02 195.107 161.237C195.413 161.441 195.753 161.59 196.108 161.677L196.27 159.043Z" fill="#FFA8A7"/>
<path d="M200.347 152.799C199.061 153.476 196.844 154.648 196.231 159.36C195.602 164.196 196.434 165.753 197.083 166.396C197.527 166.829 199.92 166.858 201.136 166.491C202.636 166.045 206.023 164.75 207.57 162.265C209.388 159.34 209.794 155.426 207.746 153.868C206.704 153.077 205.479 152.564 204.185 152.375C202.889 152.188 201.57 152.334 200.347 152.799Z" fill="#FFA8A7"/>
<path d="M204.125 211.153L207.051 202.864C209.319 202.059 211.351 200.7 212.965 198.909C212.965 198.909 212.288 201.273 207.666 203.698L204.457 211.539V215.9L204.125 211.153Z" fill="#263238"/>
<path d="M195.968 154.39C196.386 155.547 197.095 158.392 200.055 159.577C200.055 159.577 200.482 157.769 201.995 157.96C203.509 158.148 203.772 160.092 202.841 161.298C201.907 162.502 201.003 162.069 201.003 162.069C201.003 162.069 200.8 164.663 202.53 165.842C203.173 166.222 203.897 166.448 204.643 166.501C205.388 166.553 206.137 166.432 206.828 166.147C207.82 165.693 209.234 163.302 210.059 161.339C211.801 157.194 212.051 153.889 209.381 152.818C209.051 150.936 208.206 150.225 206.503 149.873C202.841 149.121 200.069 151.532 196.994 151.106C195.42 150.882 195.481 153.062 195.968 154.39Z" fill="#263238"/>
<path d="M209.47 153.476L211.202 152.4C211.051 152.188 210.825 152.042 210.571 151.992C210.317 151.94 210.054 151.988 209.833 152.126C209.613 152.263 209.453 152.478 209.385 152.729C209.319 152.981 209.35 153.246 209.47 153.476Z" fill="#263238"/>
<path d="M188.642 171.253C188.642 171.253 196.718 170.786 198.779 170.772C200.841 170.757 203.029 174.286 201.746 176.691C200.894 178.268 198.238 178.809 194.893 178.973C191.549 179.135 188.176 179.135 188.176 179.135C188.176 179.135 185.168 175.703 188.642 171.253Z" fill="#455A64"/>
<path d="M194.994 178.973C194.994 178.973 200.11 178.905 201.787 176.691C201.787 176.691 201.394 178.045 199.406 178.877C197.982 179.426 196.484 179.75 194.96 179.839L194.994 178.973Z" fill="#37474F"/>
<path d="M169.922 150.842C167.381 150.401 166.32 156.618 168.86 157.051L172.915 157.457C171.266 157.288 172.409 151.513 173.666 151.851L169.922 150.842Z" fill="#455A64"/>
<path d="M272.185 149.183C272.186 150.443 271.808 151.675 271.098 152.717C270.391 153.759 269.385 154.562 268.213 155.022C267.043 155.483 265.76 155.58 264.535 155.298C263.308 155.019 262.194 154.374 261.338 153.449L260.926 152.949C259.964 151.662 259.532 150.056 259.717 148.46C259.902 146.864 260.693 145.401 261.923 144.371C263.155 143.342 264.732 142.825 266.334 142.928C267.934 143.031 269.433 143.745 270.522 144.923L270.949 145.438C271.751 146.521 272.185 147.834 272.185 149.183Z" fill="#455A64"/>
<path d="M272.187 149.183C272.187 150.443 271.808 151.675 271.101 152.717C270.391 153.757 269.387 154.562 268.215 155.022C267.044 155.483 265.762 155.58 264.535 155.298C263.309 155.018 262.196 154.374 261.341 153.449L260.928 152.948L234.868 121.411L245.851 115.058L270.525 144.909L270.949 145.424C271.755 146.511 272.189 147.829 272.187 149.183Z" fill="#455A64"/>
<path d="M250.626 140.481C251.721 141.631 253.211 142.322 254.793 142.414C256.377 142.506 257.936 141.992 259.156 140.976C260.375 139.96 261.165 138.518 261.364 136.942C261.563 135.365 261.157 133.771 260.229 132.483L257.006 128.589C257.97 129.875 258.404 131.483 258.217 133.08C258.032 134.677 257.241 136.142 256.007 137.172C254.775 138.201 253.195 138.716 251.593 138.611C249.991 138.506 248.491 137.789 247.403 136.607L250.626 140.481Z" fill="#90C4E1"/>
<path d="M245.431 65.4804C247.397 65.6999 249.299 66.3198 251.019 67.3021L243.091 62.6836C237.772 59.0199 230.115 59.2367 221.607 64.1531C205.543 73.4512 192.514 96.063 192.514 114.659C192.514 123.794 195.616 130.323 200.732 133.424L200.839 133.492L209.301 138.374C207.801 137.396 206.492 136.15 205.442 134.697C207.527 134.926 209.635 134.805 211.68 134.338C212.423 134.176 213.173 133.979 213.938 133.736C213.838 133.705 213.74 133.667 213.646 133.62C213.239 133.43 212.851 133.203 212.483 132.943C211.819 132.479 211.227 131.917 210.727 131.277C210.044 130.401 209.488 129.432 209.077 128.399C208.528 128.479 207.971 128.52 207.415 128.521C206.099 128.548 204.795 128.286 203.591 127.756C203.308 127.627 203.036 127.48 202.773 127.316C202.537 127.167 202.3 126.991 202.098 126.815C201.609 124.522 201.371 122.183 201.387 119.839C201.387 101.25 214.418 78.6318 230.494 69.3338C232.547 68.1339 234.722 67.1576 236.983 66.4217C237.591 66.6711 238.165 67.0014 238.686 67.4037C239.237 67.828 239.735 68.3193 240.165 68.8666C240.851 69.7448 241.408 70.716 241.822 71.7514C242.375 71.6737 242.931 71.6353 243.491 71.6363C245.019 71.5952 246.53 71.9621 247.87 72.6995C248.21 72.8846 248.531 73.0974 248.835 73.336C248.715 72.7942 248.587 72.2593 248.43 71.7514C247.82 69.4954 246.803 67.3702 245.431 65.4804Z" fill="#263238"/>
<path d="M251.019 67.3023L250.56 67.0516C248.962 66.2133 247.223 65.6804 245.431 65.4806C243.508 65.2656 241.561 65.3548 239.666 65.7448C238.752 65.9181 237.851 66.1443 236.962 66.4219C234.702 67.1578 232.528 68.134 230.475 69.3338C214.396 78.6319 201.367 101.25 201.367 119.84C201.349 122.184 201.588 124.522 202.076 126.815C202.165 127.228 202.267 127.621 202.368 128.013C202.969 130.41 204.014 132.673 205.449 134.684C206.089 135.569 206.827 136.38 207.646 137.101C208.167 137.562 208.724 137.983 209.308 138.361C214.613 141.794 222.149 141.496 230.46 136.675C246.539 127.377 259.568 104.765 259.568 86.1691C259.561 76.8712 256.297 70.3362 251.019 67.3023ZM247.844 72.7199C248.181 72.905 248.505 73.1179 248.809 73.3564C249.319 73.7711 249.783 74.2388 250.196 74.7514C252.222 77.2978 253.298 81.2593 253.298 86.1894C253.298 102.442 241.403 123.11 227.324 131.257C223.778 133.289 220.364 134.399 217.465 134.399C216.256 134.414 215.056 134.183 213.938 133.722C213.838 133.692 213.74 133.654 213.646 133.607C213.241 133.416 212.852 133.19 212.484 132.93C212.028 132.609 211.607 132.241 211.227 131.833C211.058 131.657 210.896 131.46 210.734 131.264C210.052 130.388 209.495 129.419 209.084 128.386C208.055 125.653 207.564 122.746 207.639 119.826C207.639 119.609 207.639 119.399 207.639 119.149C207.936 102.964 219.701 82.7627 233.596 74.7311C233.915 74.5484 234.238 74.3654 234.564 74.1962C236.804 72.9419 239.252 72.1002 241.788 71.7109C242.341 71.6332 242.898 71.5948 243.458 71.5957C244.66 71.5853 245.852 71.8155 246.965 72.273C247.269 72.3943 247.563 72.5416 247.844 72.7131V72.7199Z" fill="#455A64"/>
<path opacity="0.6" d="M250.581 84.3068C250.581 100.56 238.686 121.228 224.61 129.374C221.061 131.406 217.655 132.517 214.749 132.517C213.541 132.531 212.345 132.301 211.229 131.84C211.06 131.663 210.896 131.467 210.734 131.271C210.052 130.394 209.497 129.425 209.086 128.392C208.057 125.66 207.565 122.753 207.639 119.833C207.639 119.616 207.639 119.406 207.639 119.155C207.936 102.97 219.703 82.7694 233.598 74.7379C233.915 74.5549 234.24 74.3721 234.564 74.2029C236.805 72.9486 239.252 72.1069 241.789 71.7175C242.341 71.64 242.9 71.6015 243.458 71.6024C244.66 71.5921 245.853 71.8222 246.965 72.2797C247.147 72.4625 247.317 72.6588 247.479 72.8553C249.506 75.415 250.581 79.3767 250.581 84.3068Z" fill="white"/>
<defs>
<filter id="filter0_d_345_29" x="0.666504" y="0.40979" width="252.889" height="253.366" filterUnits="userSpaceOnUse" color-interpolation-filters="sRGB">
<feFlood flood-opacity="0" result="BackgroundImageFix"/>
<feColorMatrix in="SourceAlpha" type="matrix" values="0 0 0 0 0 0 0 0 0 0 0 0 0 0 0 0 0 0 127 0" result="hardAlpha"/>
<feOffset/>
<feGaussianBlur stdDeviation="5"/>
<feComposite in2="hardAlpha" operator="out"/>
<feColorMatrix type="matrix" values="0 0 0 0 0.654167 0 0 0 0 0.654167 0 0 0 0 0.654167 0 0 0 0.25 0"/>
<feBlend mode="normal" in2="BackgroundImageFix" result="effect1_dropShadow_345_29"/>
<feBlend mode="normal" in="SourceGraphic" in2="effect1_dropShadow_345_29" result="shape"/>
</filter>
</defs>
</svg>
