<svg width="263" height="254" viewBox="0 0 263 254" fill="none" xmlns="http://www.w3.org/2000/svg">
<g filter="url(#filter0_d_345_34)">
<path d="M136.111 243.776C200.421 243.776 252.555 191.535 252.555 127.093C252.555 62.6506 200.421 10.4098 136.111 10.4098C71.8005 10.4098 19.6665 62.6506 19.6665 127.093C19.6665 191.535 71.8005 243.776 136.111 243.776Z" fill="white"/>
</g>
<path d="M125.887 243.102C195.352 243.102 251.665 210.526 251.665 170.34C251.665 130.154 195.352 97.5771 125.887 97.5771C56.4233 97.5771 0.111328 130.154 0.111328 170.34C0.111328 210.526 56.4233 243.102 125.887 243.102Z" fill="#F5F5F5"/>
<path d="M168.148 233.615L240.317 191.862C241.571 191.135 241.571 189.957 240.317 189.232L110.612 114.194C109.908 113.836 109.129 113.649 108.34 113.649C107.551 113.649 106.773 113.836 106.069 114.194L33.9056 155.952C32.6519 156.679 32.6519 157.856 33.9056 158.581L163.606 233.615C164.31 233.973 165.089 234.16 165.878 234.16C166.668 234.16 167.444 233.973 168.148 233.615Z" fill="#E0E0E0"/>
<path d="M63.6657 175.156L40.316 161.619C39.964 161.441 39.5749 161.348 39.1804 161.348C38.7857 161.348 38.3966 161.441 38.0446 161.619L11.3953 177.037C11.2583 177.083 11.1392 177.172 11.0549 177.29C10.9706 177.407 10.9253 177.55 10.9253 177.694C10.9253 177.839 10.9706 177.981 11.0549 178.099C11.1392 178.216 11.2583 178.305 11.3953 178.352L34.7448 191.887C35.0965 192.067 35.4858 192.161 35.8807 192.161C36.2755 192.161 36.6647 192.067 37.0163 191.887L63.6657 176.465C63.8008 176.417 63.918 176.328 64.0009 176.21C64.0837 176.093 64.1281 175.954 64.1281 175.809C64.1281 175.667 64.0837 175.526 64.0009 175.409C63.918 175.291 63.8008 175.204 63.6657 175.156Z" fill="#E0E0E0"/>
<path d="M229.805 99.4013L227.675 100.631L174.403 69.8167L176.532 68.5813L229.805 99.4013Z" fill="#90C4E1"/>
<path d="M176.532 68.5813L227.676 98.1659L227.67 51.0607L176.532 21.4761V68.5813Z" fill="#37474F"/>
<path d="M201.036 34.4232V83.9938L198.906 82.7585V33.188L201.036 34.4232Z" fill="#90C4E1"/>
<path opacity="0.2" d="M201.036 34.4232V83.9938L198.906 82.7585V33.188L201.036 34.4232Z" fill="black"/>
<path d="M202.102 33.8032L201.037 34.4235V83.994L202.102 83.3737V33.8032Z" fill="#90C4E1"/>
<path opacity="0.3" d="M202.102 33.8032L201.037 34.4235V83.994L202.102 83.3737V33.8032Z" fill="black"/>
<path d="M201.036 34.4234L198.906 33.1882L199.971 32.5679L202.1 33.8031L201.036 34.4234Z" fill="#FAFAFA"/>
<path d="M172.268 71.0467L229.805 104.332V49.8307L172.268 16.5454V71.0467ZM174.403 20.241L227.66 51.0608V100.631L174.403 69.8113V20.241Z" fill="#90C4E1"/>
<path opacity="0.2" d="M172.268 71.0467L229.805 104.332V49.8307L172.268 16.5454V71.0467ZM174.403 20.241L227.66 51.0608V100.631L174.403 69.8113V20.241Z" fill="black"/>
<path d="M174.403 69.8164L176.532 68.581V21.476L174.403 20.2407V69.8164Z" fill="#90C4E1"/>
<path opacity="0.3" d="M174.403 69.8164L176.532 68.581V21.476L174.403 20.2407V69.8164Z" fill="black"/>
<path d="M172.268 16.5454L174.403 15.3099L231.935 48.5952L229.805 49.8307L172.268 16.5454Z" fill="#90C4E1"/>
<path d="M231.935 48.5952L229.805 49.8306V104.332L231.935 103.097V48.5952Z" fill="#90C4E1"/>
<path opacity="0.3" d="M231.935 48.5952L229.805 49.8306V104.332L231.935 103.097V48.5952Z" fill="black"/>
<path opacity="0.1" d="M201.036 35.6534L198.911 34.4233V35.6534L201.036 36.8835V35.6534Z" fill="black"/>
<path opacity="0.1" d="M201.037 36.8834L202.102 36.2684L201.037 35.6533V36.8834Z" fill="black"/>
<g opacity="0.6">
<path d="M221.238 66.1842C221.309 66.2123 221.366 66.2674 221.396 66.3372C221.427 66.407 221.428 66.4863 221.4 66.5574C221.364 66.6128 221.309 66.6538 221.245 66.6737C221.183 66.6935 221.114 66.6908 221.053 66.6661C220.991 66.6415 220.94 66.5962 220.908 66.5381C220.876 66.4801 220.865 66.4126 220.876 66.3472C220.904 66.2788 220.957 66.2237 221.025 66.1934C221.092 66.163 221.169 66.1598 221.238 66.1842Z" fill="white"/>
<path d="M223.084 67.9345C223.19 67.9758 223.283 68.0482 223.349 68.1419C223.414 68.2357 223.45 68.3469 223.453 68.4614C223.455 68.576 223.423 68.6887 223.361 68.7853C223.301 68.8817 223.212 68.9577 223.107 69.0035C223.002 69.0493 222.886 69.063 222.773 69.0427C222.661 69.0224 222.557 68.969 222.474 68.8893C222.392 68.8097 222.335 68.7075 222.312 68.5956C222.287 68.4835 222.298 68.3668 222.339 68.2603C222.367 68.1898 222.408 68.1251 222.46 68.0704C222.513 68.0157 222.575 67.9721 222.645 67.9416C222.714 67.9113 222.789 67.8951 222.863 67.8939C222.94 67.8926 223.014 67.9065 223.084 67.9345Z" fill="white"/>
</g>
<g opacity="0.6">
<path d="M192.669 41.5251C192.741 41.5544 192.797 41.6103 192.828 41.681C192.858 41.7517 192.86 41.8317 192.831 41.9035C192.803 41.9748 192.748 42.0318 192.677 42.0622C192.605 42.0927 192.525 42.0943 192.454 42.0665C192.397 42.0298 192.357 41.9746 192.337 41.9103C192.316 41.846 192.319 41.7767 192.344 41.7143C192.371 41.6522 192.417 41.6007 192.476 41.569C192.534 41.5373 192.604 41.5273 192.669 41.5408V41.5251Z" fill="white"/>
<path d="M194.516 43.281C194.621 43.3232 194.714 43.3959 194.778 43.4899C194.842 43.584 194.877 43.6951 194.879 43.8093C194.881 43.9237 194.849 44.0359 194.788 44.132C194.726 44.2278 194.637 44.3033 194.532 44.3488C194.428 44.3944 194.312 44.4077 194.2 44.3872C194.088 44.3669 193.983 44.3137 193.901 44.2342C193.82 44.1549 193.763 44.0529 193.74 43.9412C193.715 43.8296 193.724 43.7131 193.766 43.6068C193.793 43.5355 193.834 43.4705 193.887 43.4153C193.939 43.3602 194.003 43.3161 194.072 43.2858C194.141 43.2553 194.218 43.2393 194.294 43.2386C194.369 43.2377 194.445 43.2521 194.516 43.281Z" fill="white"/>
</g>
<path opacity="0.6" d="M194.516 57.2059C194.621 57.2481 194.714 57.3208 194.778 57.4148C194.842 57.5089 194.877 57.62 194.879 57.7342C194.881 57.8486 194.849 57.9608 194.788 58.0568C194.726 58.1529 194.637 58.2282 194.532 58.2738C194.428 58.3192 194.312 58.3326 194.2 58.3121C194.088 58.2918 193.983 58.2385 193.901 58.1591C193.82 58.0798 193.763 57.9777 193.74 57.8661C193.715 57.7545 193.724 57.6382 193.766 57.5319C193.823 57.3895 193.933 57.2757 194.074 57.2148C194.214 57.1537 194.372 57.1505 194.516 57.2059Z" fill="white"/>
<g opacity="0.3">
<path d="M186.767 48.4063C186.767 48.5269 186.731 48.6448 186.664 48.7451C186.598 48.8454 186.502 48.9236 186.392 48.9697C186.28 49.0159 186.157 49.028 186.04 49.0045C185.923 48.9809 185.814 48.9229 185.729 48.8375C185.643 48.7522 185.585 48.6435 185.562 48.5253C185.539 48.407 185.551 48.2844 185.597 48.1731C185.643 48.0616 185.72 47.9664 185.821 47.8993C185.921 47.8323 186.038 47.7967 186.159 47.7967C186.239 47.7959 186.319 47.8111 186.392 47.8415C186.467 47.872 186.534 47.9169 186.591 47.9736C186.648 48.0304 186.692 48.0979 186.723 48.1722C186.753 48.2465 186.769 48.3261 186.767 48.4063Z" fill="white"/>
<path d="M184.952 50.0673C184.952 50.1391 184.931 50.2091 184.89 50.2688C184.851 50.3284 184.794 50.3749 184.728 50.4024C184.662 50.4298 184.589 50.4371 184.518 50.423C184.449 50.4091 184.385 50.3746 184.333 50.3238C184.284 50.273 184.248 50.2084 184.234 50.138C184.22 50.0676 184.228 49.9948 184.255 49.9285C184.282 49.8622 184.328 49.8056 184.388 49.7657C184.447 49.7258 184.518 49.7046 184.589 49.7046C184.685 49.7046 184.778 49.7429 184.845 49.8108C184.913 49.8788 184.952 49.9711 184.952 50.0673Z" fill="white"/>
<path d="M183.923 47.7966C183.93 47.8381 183.926 47.8805 183.914 47.9206C183.901 47.9608 183.882 47.9979 183.853 48.0296C183.827 48.0611 183.791 48.0864 183.754 48.1039C183.716 48.1212 183.674 48.1301 183.633 48.1301C183.59 48.1301 183.549 48.1212 183.51 48.1039C183.473 48.0864 183.439 48.0611 183.411 48.0296C183.384 47.9979 183.363 47.9608 183.35 47.9206C183.34 47.8805 183.336 47.8381 183.341 47.7966C183.35 47.7259 183.386 47.661 183.439 47.6142C183.492 47.5673 183.562 47.5415 183.633 47.5415C183.704 47.5415 183.772 47.5673 183.825 47.6142C183.88 47.661 183.914 47.7259 183.923 47.7966Z" fill="white"/>
</g>
<g opacity="0.3">
<path d="M222.324 58.0993C222.246 58.1164 222.166 58.118 222.088 58.1039C222.01 58.0899 221.935 58.0605 221.869 58.0175C221.802 57.9746 221.745 57.9189 221.699 57.8535C221.654 57.7881 221.622 57.7145 221.604 57.6369C221.578 57.5187 221.588 57.3955 221.631 57.2827C221.675 57.1698 221.75 57.0725 221.85 57.0032C221.949 56.9337 222.067 56.8954 222.187 56.8929C222.307 56.8906 222.426 56.9243 222.527 56.9897C222.628 57.055 222.708 57.1491 222.756 57.2603C222.804 57.3712 222.819 57.494 222.797 57.613C222.776 57.732 222.719 57.8417 222.634 57.9285C222.55 58.015 222.442 58.0746 222.324 58.0993Z" fill="white"/>
<path d="M220.315 56.6801C220.221 56.7004 220.123 56.6825 220.042 56.6301C219.962 56.5779 219.905 56.4958 219.885 56.4015C219.864 56.3075 219.882 56.2091 219.935 56.1284C219.987 56.0476 220.068 55.9907 220.163 55.9706C220.209 55.9604 220.257 55.9597 220.305 55.9685C220.351 55.977 220.395 55.9946 220.435 56.0207C220.475 56.0465 220.509 56.08 220.538 56.1192C220.564 56.1584 220.582 56.2025 220.593 56.2492C220.603 56.2957 220.603 56.3438 220.595 56.3906C220.586 56.4377 220.57 56.4824 220.543 56.5223C220.516 56.5624 220.484 56.5969 220.445 56.624C220.406 56.6511 220.362 56.6702 220.315 56.6801Z" fill="white"/>
<path d="M222.314 55.1926C222.237 55.2081 222.159 55.1932 222.093 55.151C222.029 55.1086 221.983 55.0423 221.967 54.9666C221.956 54.9108 221.962 54.8529 221.983 54.8004C222.004 54.7478 222.042 54.7028 222.088 54.6709C222.136 54.6392 222.191 54.6219 222.248 54.6213C222.305 54.621 222.36 54.6372 222.408 54.6682C222.456 54.6994 222.493 54.7437 222.515 54.7959C222.538 54.8481 222.545 54.9058 222.534 54.9618C222.523 55.0177 222.499 55.0696 222.458 55.1105C222.419 55.1517 222.369 55.1802 222.314 55.1926Z" fill="white"/>
</g>
<g opacity="0.3">
<path d="M208.965 45.5624C208.965 45.683 208.927 45.801 208.861 45.9012C208.794 46.0015 208.7 46.0797 208.588 46.1259C208.477 46.172 208.355 46.1841 208.236 46.1604C208.118 46.1369 208.01 46.0789 207.925 45.9937C207.839 45.9084 207.782 45.7997 207.757 45.6814C207.734 45.5631 207.747 45.4406 207.793 45.3291C207.839 45.2177 207.917 45.1224 208.017 45.0554C208.117 44.9884 208.236 44.9526 208.355 44.9526C208.517 44.9526 208.671 45.0169 208.785 45.1313C208.899 45.2457 208.965 45.4007 208.965 45.5624Z" fill="white"/>
<path d="M207.147 47.2235C207.147 47.2951 207.126 47.3653 207.087 47.425C207.046 47.4847 206.991 47.5312 206.923 47.5586C206.858 47.5861 206.785 47.5932 206.715 47.5793C206.644 47.5652 206.58 47.5307 206.529 47.4801C206.479 47.4293 206.445 47.3646 206.431 47.2943C206.417 47.2239 206.424 47.151 206.451 47.0848C206.479 47.0185 206.525 46.9618 206.584 46.9219C206.644 46.882 206.714 46.8608 206.785 46.8608C206.881 46.8608 206.973 46.899 207.041 46.967C207.11 47.0351 207.147 47.1273 207.147 47.2235Z" fill="white"/>
<path d="M206.12 44.9527C206.12 44.991 206.113 45.0293 206.099 45.0649C206.084 45.1006 206.063 45.1332 206.036 45.1606C206.01 45.1879 205.978 45.2098 205.942 45.2246C205.907 45.2393 205.869 45.247 205.832 45.247C205.789 45.2527 205.747 45.2493 205.708 45.2372C205.667 45.2251 205.629 45.2046 205.599 45.1768C205.567 45.1492 205.542 45.1152 205.524 45.0771C205.507 45.0388 205.498 44.9972 205.498 44.9554C205.498 44.9133 205.507 44.8718 205.524 44.8335C205.542 44.7954 205.567 44.7614 205.599 44.7338C205.629 44.7062 205.667 44.6855 205.708 44.6734C205.747 44.6613 205.789 44.6579 205.832 44.6636C205.908 44.6636 205.981 44.694 206.035 44.7482C206.09 44.8025 206.12 44.8759 206.12 44.9527Z" fill="white"/>
</g>
<g opacity="0.3">
<path d="M183.798 32.3944C183.798 32.5151 183.763 32.6328 183.697 32.7331C183.629 32.8334 183.533 32.9116 183.423 32.9577C183.311 33.0039 183.19 33.016 183.071 32.9925C182.954 32.969 182.845 32.9109 182.76 32.8256C182.675 32.7402 182.616 32.6316 182.593 32.5133C182.57 32.395 182.582 32.2724 182.628 32.1611C182.675 32.0496 182.751 31.9544 182.852 31.8873C182.952 31.8203 183.069 31.7847 183.19 31.7847C183.352 31.7847 183.507 31.8488 183.62 31.9632C183.734 32.0775 183.798 32.2327 183.798 32.3944Z" fill="white"/>
<path d="M181.983 34.0397C181.983 34.1115 181.962 34.1817 181.921 34.2414C181.882 34.3009 181.825 34.3474 181.759 34.375C181.693 34.4024 181.621 34.4095 181.549 34.3954C181.48 34.3815 181.416 34.347 181.365 34.2962C181.315 34.2455 181.279 34.181 181.265 34.1106C181.253 34.0402 181.26 33.9672 181.286 33.9009C181.313 33.8347 181.361 33.778 181.42 33.7381C181.478 33.6984 181.549 33.677 181.621 33.677C181.717 33.677 181.809 33.7153 181.877 33.7834C181.944 33.8514 181.983 33.9435 181.983 34.0397Z" fill="white"/>
<path d="M180.97 31.7687C180.972 31.8072 180.964 31.8453 180.95 31.881C180.936 31.9168 180.915 31.9492 180.888 31.9766C180.861 32.0041 180.829 32.0258 180.794 32.0406C180.758 32.0556 180.721 32.0632 180.682 32.0632C180.641 32.0687 180.598 32.0654 180.557 32.0532C180.518 32.0411 180.481 32.0206 180.449 31.993C180.419 31.9654 180.392 31.9314 180.376 31.8931C180.358 31.8548 180.349 31.8135 180.349 31.7714C180.349 31.7294 180.358 31.6879 180.376 31.6498C180.392 31.6115 180.419 31.5774 180.449 31.5498C180.481 31.5222 180.518 31.5017 180.557 31.4896C180.598 31.4775 180.641 31.4741 180.682 31.4796C180.758 31.4796 180.831 31.5101 180.886 31.5644C180.94 31.6186 180.97 31.6921 180.97 31.7687Z" fill="white"/>
</g>
<g opacity="0.6">
<path d="M212.757 54.6141C212.757 54.7285 212.723 54.8402 212.659 54.9353C212.596 55.0305 212.506 55.1046 212.401 55.1484C212.294 55.192 212.179 55.2036 212.067 55.1812C211.955 55.1589 211.852 55.1039 211.772 55.023C211.692 54.9421 211.636 54.8391 211.613 54.7269C211.592 54.6149 211.603 54.4985 211.647 54.3929C211.69 54.2872 211.764 54.1969 211.859 54.1333C211.955 54.0697 212.065 54.0359 212.179 54.0359C212.333 54.0359 212.479 54.0968 212.588 54.2053C212.696 54.3136 212.757 54.4608 212.757 54.6141Z" fill="white"/>
</g>
<path opacity="0.6" d="M207.357 59.2612C207.411 59.2828 207.455 59.3193 207.487 59.3665C207.519 59.4137 207.537 59.4691 207.537 59.5261C207.537 59.5831 207.521 59.6391 207.491 59.6868C207.459 59.7345 207.414 59.7721 207.363 59.7946C207.311 59.8172 207.252 59.8236 207.197 59.8135C207.14 59.8033 207.089 59.7766 207.048 59.737C207.007 59.6975 206.979 59.6467 206.966 59.591C206.954 59.5354 206.959 59.4773 206.98 59.4242C207.009 59.353 207.064 59.296 207.135 59.2655C207.206 59.235 207.286 59.2334 207.357 59.2612Z" fill="white"/>
<path d="M157.384 120.275L153.355 117.941L157.384 116.775V120.275Z" fill="#90C4E1"/>
<path opacity="0.6" d="M157.384 120.275L153.355 117.941L157.384 116.775V120.275Z" fill="black"/>
<path d="M137.192 128.46V132.177L113.953 118.699V114.982L137.192 128.46Z" fill="#90C4E1"/>
<path opacity="0.6" d="M137.192 128.46V132.177L113.953 118.699V114.982L137.192 128.46Z" fill="black"/>
<path d="M111.939 85.8284L135.18 99.3064V129.622L111.939 116.149V85.8284Z" fill="#90C4E1"/>
<path opacity="0.55" d="M111.939 85.8284L135.18 99.3064V129.622L111.939 116.149V85.8284Z" fill="black"/>
<path d="M135.179 99.3065L161.419 84.1252V114.446L135.179 129.622V99.3065Z" fill="#90C4E1"/>
<path opacity="0.45" d="M135.179 99.3065L161.419 84.1252V114.446L135.179 129.622V99.3065Z" fill="black"/>
<path d="M161.42 84.1254L138.173 70.6472L111.939 85.8285L135.18 99.3067L161.42 84.1254Z" fill="#90C4E1"/>
<path opacity="0.3" d="M161.42 84.1254L138.173 70.6472L111.939 85.8285L135.18 99.3067L161.42 84.1254Z" fill="black"/>
<path d="M137.192 100.473L159.403 87.6208V94.6176L137.192 107.47V100.473Z" fill="#90C4E1"/>
<path opacity="0.2" d="M137.192 100.473L159.403 87.6208V94.6176L137.192 107.47V100.473Z" fill="black"/>
<path opacity="0.2" d="M137.192 109.799L159.403 96.9517V113.279L137.192 126.126V109.799Z" fill="black"/>
<path d="M137.192 132.177L139.211 131.01V127.293L137.192 128.46V132.177Z" fill="#90C4E1"/>
<path opacity="0.55" d="M137.192 132.177L139.211 131.01V127.293L137.192 128.46V132.177Z" fill="black"/>
<path d="M157.386 120.275L159.4 119.108V115.607L157.386 116.774V120.275Z" fill="#90C4E1"/>
<path opacity="0.55" d="M157.386 120.275L159.4 119.108V115.607L157.386 116.774V120.275Z" fill="black"/>
<path d="M144.076 97.9607C144.076 98.2867 145.041 97.9922 146.227 97.3037L149.994 95.1274C151.18 94.4388 152.14 93.6187 152.14 93.298V92.7146L144.076 97.3825V97.9607Z" fill="#37474F"/>
<path opacity="0.2" d="M159.403 113.279L145.387 105.057L137.192 109.799V126.126L159.403 113.279Z" fill="black"/>
<path d="M48.9881 163.044L40.5578 158.166C40.113 157.874 39.7429 157.482 39.4776 157.021C39.2124 156.559 39.0595 156.043 39.0312 155.512V105.883C39.0595 105.35 39.2124 104.832 39.4776 104.37C39.7427 103.908 40.1128 103.515 40.5578 103.223L109.279 63.456C109.753 63.2149 110.277 63.0894 110.809 63.0894C111.34 63.0894 111.864 63.2149 112.338 63.456L120.768 68.3342C121.21 68.6223 121.579 69.0101 121.845 69.4663C122.111 69.9227 122.267 70.435 122.3 70.9625V120.591C122.267 121.118 122.111 121.631 121.845 122.087C121.579 122.543 121.21 122.931 120.768 123.219L52.0464 162.992C51.5767 163.24 51.0549 163.375 50.5235 163.384C49.992 163.393 49.4659 163.277 48.9881 163.044Z" fill="#455A64"/>
<path d="M122.322 70.9889V120.617C122.289 121.144 122.135 121.656 121.87 122.113C121.604 122.569 121.237 122.957 120.795 123.246L52.0735 163.017C51.2288 163.507 50.5469 163.106 50.5469 162.13V112.527C50.5751 111.996 50.728 111.478 50.9933 111.017C51.2585 110.556 51.6287 110.164 52.0735 109.873L120.795 70.1005C121.635 69.6117 122.322 70.0113 122.322 70.9889Z" fill="#263238"/>
<path d="M51.6949 163.208C51.256 163.364 50.79 163.43 50.3248 163.402C49.8597 163.375 49.4049 163.252 48.9881 163.044L40.5578 158.166C40.1137 157.874 39.7445 157.482 39.4792 157.021C39.2142 156.559 39.0608 156.043 39.0312 155.512V105.878C39.0487 105.345 39.2021 104.825 39.4771 104.369L50.9657 111.019C50.6901 111.475 50.5365 111.994 50.5198 112.527V162.155C50.5198 162.992 51.0234 163.402 51.6949 163.208Z" fill="#37474F"/>
<path d="M173.254 211.673L166.166 207.574C165.93 207.451 165.667 207.389 165.4 207.389C165.133 207.389 164.872 207.451 164.634 207.574L157.548 211.673C157.329 211.817 157.149 212.011 157.023 212.241C156.996 212.289 156.98 212.341 156.959 212.389C156.863 212.578 156.808 212.786 156.797 212.998V224.521C156.812 224.774 156.881 225.021 157.004 225.244C157.126 225.465 157.299 225.657 157.505 225.803L157.558 225.851L164.644 229.95C164.675 229.965 164.707 229.975 164.739 229.982C164.822 230.025 164.911 230.061 165.002 230.088C165.135 230.12 165.274 230.134 165.411 230.13C165.677 230.136 165.94 230.075 166.177 229.95L173.263 225.851C173.485 225.703 173.67 225.508 173.802 225.276C173.933 225.046 174.01 224.786 174.024 224.521V212.998C174.01 212.733 173.932 212.473 173.796 212.243C173.663 212.013 173.476 211.817 173.254 211.673Z" fill="#455A64"/>
<path d="M166.166 229.95L173.254 225.851C173.476 225.703 173.66 225.507 173.793 225.276C173.924 225.046 174.001 224.786 174.015 224.52V212.998C174.015 212.508 173.668 212.314 173.249 212.556L166.161 216.657C165.939 216.802 165.754 216.998 165.62 217.227C165.487 217.457 165.411 217.715 165.396 217.981V229.519C165.402 229.993 165.757 230.193 166.166 229.95Z" fill="#37474F"/>
<path d="M233.565 176.78L226.479 172.68C226.241 172.558 225.98 172.496 225.713 172.496C225.446 172.496 225.185 172.558 224.947 172.68L217.859 176.78C217.64 176.925 217.459 177.121 217.334 177.352C217.311 177.399 217.29 177.447 217.272 177.495C217.178 177.684 217.123 177.892 217.114 178.104V189.626C217.128 189.881 217.199 190.127 217.322 190.349C217.444 190.572 217.615 190.763 217.823 190.909C217.841 190.927 217.86 190.943 217.88 190.957L224.963 195.058C224.993 195.07 225.025 195.081 225.057 195.088C225.14 195.134 225.228 195.17 225.32 195.193C225.453 195.225 225.59 195.241 225.729 195.241C225.996 195.247 226.259 195.182 226.495 195.058L233.581 190.957C233.804 190.811 233.988 190.613 234.122 190.383C234.255 190.152 234.332 189.893 234.348 189.626V178.104C234.332 177.837 234.252 177.578 234.116 177.349C233.98 177.117 233.791 176.923 233.565 176.78Z" fill="#455A64"/>
<path d="M226.479 195.058L233.567 190.957C233.789 190.811 233.974 190.613 234.106 190.383C234.239 190.152 234.317 189.893 234.333 189.626V178.104C234.333 177.616 233.987 177.422 233.567 177.662L226.479 181.763C226.257 181.909 226.07 182.105 225.937 182.337C225.804 182.566 225.727 182.826 225.713 183.094V194.611C225.713 195.099 226.054 195.298 226.479 195.058Z" fill="#37474F"/>
<path d="M119.258 107.518L53.5793 145.513C52.6882 146.095 51.9466 146.88 51.4143 147.804C50.882 148.727 50.5741 149.763 50.5156 150.827V153.739C50.5702 154.808 50.876 155.85 51.4084 156.778C51.9409 157.707 52.6847 158.496 53.5793 159.08L162.339 222.003C163.288 222.484 164.337 222.736 165.402 222.736C166.467 222.736 167.516 222.484 168.465 222.003L234.14 184.002C235.032 183.421 235.775 182.638 236.307 181.713C236.84 180.79 237.146 179.753 237.203 178.688V175.776C237.144 174.71 236.837 173.675 236.305 172.751C235.772 171.828 235.03 171.044 234.14 170.462L125.365 107.518C124.419 107.038 123.372 106.788 122.312 106.788C121.251 106.788 120.205 107.038 119.258 107.518Z" fill="#455A64"/>
<path d="M237.203 175.754V178.667C237.144 179.73 236.838 180.767 236.307 181.69C235.775 182.613 235.034 183.398 234.143 183.981L168.465 221.977C167.521 222.476 166.467 222.729 165.402 222.707V212.699C166.467 212.719 167.521 212.468 168.465 211.967L234.143 173.973C235.718 173.052 235.823 171.612 234.453 170.629C235.26 171.228 235.925 171.997 236.399 172.884C236.874 173.77 237.149 174.75 237.203 175.754Z" fill="#263238"/>
<path d="M53.5846 149.056C51.9741 148.131 51.8954 146.654 53.3485 145.676C52.5233 146.269 51.8408 147.039 51.3506 147.931C50.8605 148.822 50.5754 149.812 50.5156 150.827V153.739C50.5702 154.808 50.876 155.85 51.4084 156.778C51.9409 157.707 52.6847 158.496 53.5793 159.08L162.339 222.003C163.281 222.502 164.335 222.753 165.402 222.734V212.699C164.337 212.72 163.285 212.469 162.344 211.969L53.5846 149.056Z" fill="#37474F"/>
<path d="M119.258 90.9273L53.5793 128.923C52.6882 129.505 51.9466 130.29 51.4143 131.213C50.882 132.137 50.5741 133.172 50.5156 134.237V140.445C50.5741 141.51 50.882 142.546 51.4143 143.469C51.9466 144.392 52.6882 145.177 53.5793 145.76L162.339 208.682C163.288 209.165 164.337 209.416 165.402 209.416C166.467 209.416 167.516 209.165 168.465 208.682L234.14 170.682C235.03 170.102 235.773 169.318 236.305 168.395C236.838 167.472 237.146 166.437 237.203 165.372V159.164C237.146 158.098 236.84 157.062 236.307 156.139C235.775 155.216 235.032 154.43 234.14 153.85L125.365 90.9273C124.419 90.4478 123.372 90.198 122.312 90.198C121.251 90.198 120.205 90.4478 119.258 90.9273Z" fill="#90C4E1"/>
<path opacity="0.8" d="M53.578 132.466L162.337 195.389C163.286 195.87 164.335 196.121 165.4 196.121C166.465 196.121 167.514 195.87 168.463 195.389L234.138 157.393C235.832 156.415 235.832 154.828 234.138 153.85L125.363 90.9273C124.415 90.4453 123.366 90.1941 122.302 90.1941C121.239 90.1941 120.19 90.4453 119.241 90.9273L53.5622 128.923C51.8888 129.9 51.8888 131.488 53.578 132.466Z" fill="white"/>
<path opacity="0.05" d="M64.8781 125.711L79.1628 134.022C80.8573 135 82.5622 134.758 84.9805 134.022C87.3989 133.286 95.42 130.09 95.42 130.09C95.42 130.09 96.721 135.268 102.24 142.327C104.338 145.014 108.288 150.055 114.935 153.65L153.912 130.694L122.321 112.417L125.19 110.787C127.325 109.489 126.879 108.38 125.19 107.402L107.8 97.3723L64.8677 122.384C63.1784 123.367 63.1889 124.733 64.8781 125.711Z" fill="black"/>
<path opacity="0.5" d="M237.203 159.164V165.388C237.144 166.453 236.838 167.488 236.307 168.411C235.775 169.336 235.034 170.12 234.143 170.702L168.465 208.698C167.521 209.199 166.467 209.45 165.402 209.428V196.119C166.467 196.141 167.521 195.891 168.465 195.394L234.143 157.393C235.718 156.474 235.823 155.038 234.453 154.049C235.258 154.648 235.923 155.416 236.397 156.299C236.872 157.185 237.148 158.163 237.203 159.164Z" fill="white"/>
<path opacity="0.6" d="M53.5846 132.471C51.9741 131.54 51.8954 130.063 53.3485 129.086C52.5233 129.679 51.8408 130.449 51.3506 131.34C50.8605 132.232 50.5754 133.221 50.5156 134.237V140.445C50.5741 141.51 50.882 142.546 51.4143 143.469C51.9466 144.392 52.6882 145.177 53.5793 145.76L162.339 208.682C163.281 209.182 164.335 209.434 165.402 209.412V196.119C164.337 196.142 163.285 195.893 162.344 195.392L53.5846 132.471Z" fill="white"/>
<path d="M127.464 104.285C127.464 102.445 124.714 99.3643 121.326 97.4037L107.686 89.5186C105.792 88.42 104.098 87.91 102.965 87.9889C100.032 87.9889 88.3076 93.6609 82.5476 96.9883C76.7876 100.316 64.2287 108.343 62.2721 111.744C61.6321 112.858 84.305 129.343 87.0591 128.76C93.2335 127.467 104.371 122.152 110.094 118.656C119.437 112.948 124.725 108.196 126.588 106.166C127.464 105.189 127.464 104.674 127.464 104.285Z" fill="#F0F0F0"/>
<path d="M94.5754 101.036C90.4205 103.428 90.1425 106.398 92.1832 109.915C93.542 112.259 95.6403 115.497 99.1341 117.032C101.232 117.957 102.213 118.867 103.73 120.738C103.761 120.775 103.782 120.812 103.808 120.849C105.859 119.797 107.874 118.72 109.731 117.695L94.5754 101.036Z" fill="#E0E0E0"/>
<path d="M68.1413 119.445L81.7807 127.33C85.1749 129.291 87.9185 129.391 87.9185 127.551C87.9185 125.711 85.1749 122.631 81.7807 120.67L68.1413 112.785C64.7525 110.824 62.0037 110.724 62.0037 112.564C62.0037 114.404 64.7525 117.484 68.1413 119.445Z" fill="#E0E0E0"/>
<path d="M138.1 120.738L147.611 126.116L142.019 131.251L134.219 125.874L138.1 120.738Z" fill="#B16668"/>
<path d="M117.747 114.577C122.856 112.427 125.091 113.09 128.035 114.446C131.512 116.054 140.52 121.805 140.52 121.805C140.52 121.805 137.629 126.61 134.89 126.93C128.285 123.161 117.747 114.577 117.747 114.577Z" fill="#37474F"/>
<path d="M105.167 119.129C101.873 121.358 99.1341 123.224 99.4646 126.399C99.7951 129.574 124.184 148.041 124.184 148.041L142.675 132.355C142.675 132.355 133.128 122.268 128.019 118.304C122.909 114.34 120.8 113.273 113.172 115.592C107.958 117.184 105.167 119.129 105.167 119.129Z" fill="#455A64"/>
<path d="M110.943 97.7611C110.026 96.1858 108.523 95.0398 106.763 94.5756C105.002 94.1111 103.13 94.3664 101.558 95.2853C99.986 96.204 98.8425 97.7109 98.3791 99.4745C97.9158 101.238 98.1705 103.114 99.0873 104.689C99.1505 104.795 99.2185 104.889 99.2868 104.989L98.012 108.974L94.8644 104.563C94.8191 104.192 94.6379 103.85 94.3561 103.605C94.0742 103.359 93.7113 103.227 93.3378 103.233C93.1489 103.24 92.9634 103.286 92.7926 103.367C92.6216 103.448 92.469 103.563 92.3439 103.706C92.2189 103.848 92.1238 104.014 92.0648 104.194C92.0056 104.374 91.9837 104.564 92.0002 104.752L93.9727 104.684C93.5805 105.023 93.3021 105.474 93.1752 105.977C92.8605 107.249 94.749 109.526 97.2041 111.434C97.2041 111.434 100.798 115.397 101.616 115.912C102.139 116.222 102.761 116.316 103.352 116.175L102.497 107.623C103.824 108.144 105.279 108.239 106.661 107.893C108.044 107.548 109.284 106.78 110.211 105.695C111.137 104.611 111.704 103.264 111.831 101.842C111.959 100.42 111.641 98.9937 110.922 97.7611H110.943Z" fill="#263238"/>
<path d="M99.7012 110.272C99.4651 110.698 98.5419 110.304 97.8178 110.093C97.0939 109.883 95.2632 110.093 95.431 112.065C95.5988 114.036 98.1904 115.329 99.5543 115.019C101.899 114.493 101.453 113.037 101.453 113.037L105.897 120.333C110.204 122.057 117.291 117.658 112.517 116.012L111.242 113.836C112.069 113.498 112.856 113.068 113.587 112.553C114.914 111.476 115.161 109.788 114.684 107.949C113.918 104.994 112.994 102.787 109.485 98.1449C105.64 93.0564 99.2553 96.7151 97.0834 100.878C94.9117 105.042 99.7012 110.272 99.7012 110.272Z" fill="#B16668"/>
<path d="M100.058 110.882C99.8748 110.992 98.5109 110.24 97.8185 110.093C96.8636 109.888 94.6709 104.253 94.6709 104.253C94.2455 103.902 93.9321 103.433 93.7689 102.905C93.6059 102.378 93.6002 101.814 93.7529 101.283C94.1043 99.6113 96.0034 98.2972 97.32 97.4139C99.6965 95.837 102.351 94.0182 103.264 91.1795C103.337 90.9588 103.453 90.696 103.683 90.6538C103.831 90.6538 103.974 90.7101 104.082 90.8116C104.747 91.3954 105.179 92.1999 105.299 93.0773C105.299 93.1613 105.346 93.2613 105.43 93.2718C105.514 93.2823 105.567 93.2139 105.609 93.1508C105.828 92.8074 105.981 92.4258 106.06 92.0259C106.17 91.474 107.214 92.7092 107.308 92.8879C107.587 93.4485 107.749 94.0594 107.787 94.6843C107.825 95.3092 107.737 95.9354 107.529 96.5256C107.109 97.7031 106.055 98.5336 105.089 99.2697C103.039 100.681 100.861 101.897 98.5843 102.902C97.8604 103.202 98.0963 103.953 98.7731 105.94C99.3817 107.701 100.662 110.508 100.058 110.882Z" fill="#263238"/>
<path d="M111.241 113.836C111.241 113.836 107.202 115.218 105.712 115.282C104.84 115.321 103.976 115.097 103.231 114.64C103.791 115.205 104.458 115.652 105.193 115.954C106.646 116.538 111.745 114.703 111.745 114.703L111.241 113.836Z" fill="#9A4A4D"/>
<path d="M105.78 105.594C105.863 105.858 105.855 106.142 105.757 106.401C105.66 106.66 105.478 106.879 105.241 107.022C105.005 107.165 104.727 107.224 104.453 107.19C104.179 107.156 103.924 107.031 103.729 106.834C104.162 106.918 104.611 106.837 104.988 106.608C105.365 106.377 105.647 106.016 105.78 105.594Z" fill="#263238"/>
<path d="M111.079 102.587C111.144 102.855 111.116 103.137 111.002 103.388C110.888 103.639 110.693 103.845 110.448 103.972C110.204 104.099 109.924 104.14 109.653 104.089C109.383 104.038 109.137 103.898 108.955 103.691C109.382 103.798 109.835 103.746 110.226 103.542C110.617 103.339 110.921 102.999 111.079 102.587Z" fill="#263238"/>
<path d="M103.452 103.817L102.371 105.315C102.172 105.164 102.039 104.942 102 104.695C101.961 104.448 102.018 104.196 102.161 103.99C102.232 103.891 102.323 103.808 102.428 103.745C102.532 103.683 102.648 103.642 102.769 103.626C102.89 103.609 103.013 103.618 103.13 103.651C103.247 103.684 103.357 103.74 103.452 103.817Z" fill="#263238"/>
<path d="M108.257 110.225L110.072 109.915C110.098 110.034 110.099 110.156 110.077 110.276C110.054 110.396 110.008 110.509 109.94 110.61C109.872 110.712 109.785 110.798 109.683 110.864C109.582 110.931 109.468 110.976 109.348 110.997C109.102 111.036 108.85 110.977 108.646 110.833C108.443 110.688 108.303 110.47 108.257 110.225Z" fill="#9A4A4D"/>
<path d="M110.103 100.831L108.257 100.594C108.266 100.473 108.301 100.356 108.357 100.248C108.414 100.141 108.491 100.046 108.586 99.97C108.68 99.8937 108.789 99.8376 108.905 99.8048C109.022 99.772 109.144 99.7635 109.264 99.7797C109.512 99.8137 109.737 99.9418 109.893 100.137C110.049 100.333 110.125 100.581 110.103 100.831Z" fill="#263238"/>
<path d="M106.689 104.111L109.191 107.917L110.834 106.019L106.689 104.111Z" fill="#9A4A4D"/>
<path opacity="0.1" d="M130.086 149.009C128.374 147.994 126.753 146.832 125.243 145.534C124.043 144.435 122.904 142.963 123.403 141.413L116.615 145.339C117.805 147.863 120.643 149.366 123.062 150.748C124.371 151.495 125.686 152.218 127.012 152.92L128.513 153.718C136.003 157.555 143.819 160.767 151.594 163.968C152.543 164.359 153.572 164.758 154.57 164.521L130.086 149.009Z" fill="black"/>
<path d="M96.4688 157.283V180.543L165.4 220.42V196.119C164.333 196.143 163.279 195.891 162.337 195.389L96.4688 157.283Z" fill="#90C4E1"/>
<path opacity="0.3" d="M96.4688 157.283V180.543L165.4 220.42V196.119C164.333 196.143 163.279 195.891 162.337 195.389L96.4688 157.283Z" fill="black"/>
<path d="M234.143 157.393C235.718 156.474 235.823 155.038 234.453 154.049C235.258 154.648 235.923 155.416 236.397 156.299C236.872 157.185 237.148 158.163 237.203 159.164V178.882L165.402 220.411V196.119C166.467 196.139 167.521 195.89 168.465 195.394L234.143 157.393Z" fill="#90C4E1"/>
<path opacity="0.45" d="M234.143 157.393C235.718 156.474 235.823 155.038 234.453 154.049C235.258 154.648 235.923 155.416 236.397 156.299C236.872 157.185 237.148 158.163 237.203 159.164V178.882L165.402 220.411V196.119C166.467 196.139 167.521 195.89 168.465 195.394L234.143 157.393Z" fill="black"/>
<path d="M234.138 153.85L168.269 115.744L146.415 128.387C137.555 127.093 121.067 137.933 117.243 145.266L96.4688 157.283L162.337 195.389C163.286 195.87 164.335 196.121 165.4 196.121C166.465 196.121 167.514 195.87 168.463 195.389L234.138 157.393C235.832 156.415 235.832 154.828 234.138 153.85Z" fill="#90C4E1"/>
<path opacity="0.2" d="M234.138 153.85L168.269 115.744L146.415 128.387C137.555 127.093 121.067 137.933 117.243 145.266L96.4688 157.283L162.337 195.389C163.286 195.87 164.335 196.121 165.4 196.121C166.465 196.121 167.514 195.87 168.463 195.389L234.138 157.393C235.832 156.415 235.832 154.828 234.138 153.85Z" fill="black"/>
<path opacity="0.1" d="M234.14 153.85L168.271 115.744L146.417 128.387C153.094 132.639 159.653 135.083 166.445 139.005C169.724 140.897 173.533 143.988 181.853 149.671C184.581 151.538 187.845 153.702 191.295 153.351C193.919 153.093 196.189 151.521 198.703 150.722C199.242 150.527 199.814 150.445 200.387 150.48C202.879 150.738 202.694 153.739 202.732 155.553C202.79 158.346 202.01 161.093 200.492 163.437C200.136 163.938 199.889 164.508 199.768 165.11C199.453 166.981 200.371 168.406 202.156 169.193C203.939 169.982 210.941 170.772 214.346 168.783L234.14 157.334C235.823 156.415 235.823 154.822 234.14 153.85Z" fill="black"/>
<path opacity="0.1" d="M175.142 176.36C173.743 175.505 172.358 174.619 170.988 173.704C170.463 173.342 168.045 171.764 167.437 171.224C169.215 172.011 170.966 172.8 172.719 173.652C174.639 174.566 176.58 175.433 178.557 176.212C181.217 177.263 185.629 179.23 187.923 176.422C189.286 174.751 188.918 172.316 189.37 170.203C189.821 168.09 193.492 161.146 188.888 160.667C188.316 160.635 187.743 160.717 187.203 160.91C184.691 161.688 182.408 163.259 179.796 163.537C176.344 163.884 172.861 162.003 170.353 159.858C167.37 157.382 164.168 155.188 160.785 153.297C160.511 153.141 160.532 153.257 160.307 153.03C161.77 153.59 163.185 154.27 164.536 155.065C165.585 155.669 166.556 156.337 167.588 156.935C169.519 158.097 171.512 159.149 173.558 160.09C175.585 161.061 177.821 161.503 180.063 161.378C182.687 161.141 185.084 159.869 187.528 158.896C188.463 158.448 189.494 158.243 190.529 158.301C192.166 158.512 193.535 160.567 193.446 162.155C193.448 162.205 193.448 162.253 193.446 162.303C193.137 164.984 192.685 167.643 192.433 170.33C192.285 171.128 192.372 171.951 192.685 172.701C192.94 173.089 193.274 173.419 193.665 173.67C194.054 173.919 194.493 174.087 194.952 174.156C195.859 174.361 196.797 174.393 197.679 174.682C197.796 174.708 197.903 174.771 197.983 174.862C198.12 175.056 197.983 175.323 197.843 175.512C196.989 176.547 195.896 177.356 194.657 177.867C193.441 178.424 192.161 178.818 190.932 179.345C189.987 179.816 188.996 180.19 187.974 180.459C187.32 180.571 186.655 180.621 185.992 180.607C184.842 180.607 182.602 180.607 179.14 178.713C177.782 177.942 176.454 177.158 175.142 176.36Z" fill="black"/>
<path opacity="0.2" d="M107.958 163.933V187.235L109.401 188.023L109.396 164.757L107.958 163.933Z" fill="black"/>
<path opacity="0.1" d="M107.958 163.933L126.997 152.893C131.606 147.29 148.835 133.696 158.346 134.758L179.77 122.362L181.265 123.24L159.951 135.546C150.419 136.019 136.68 144.856 128.522 153.697L109.396 164.736L107.958 163.933Z" fill="black"/>
<path d="M144.067 158.77C143.379 158.512 142.492 158.097 141.736 157.781C140.52 157.363 139.361 156.795 138.285 156.089C139.308 156.089 139.786 156.493 141.222 156.173C141.731 156.071 142.182 155.784 142.492 155.369C142.545 155.303 142.58 155.227 142.591 155.143C142.623 154.806 142.172 154.669 141.836 154.618C140.461 154.454 139.313 153.713 138.001 153.346C136.056 152.82 133.459 153.077 131.99 152.478C130.522 151.88 118.35 142.574 118.35 142.574C114.911 139.062 111.767 135.271 108.95 131.241C105.393 126.084 103.798 124.066 101.238 123.314C98.6151 125.127 98.7253 126.373 98.8827 128.618C99.04 130.863 100.866 133.685 102.072 135.672C103.788 138.495 105.367 140.314 108.341 144.183C109.911 146.197 111.711 148.021 113.702 149.618C116.577 151.942 127.951 157.74 127.951 157.74C127.951 157.74 135.174 163.938 140.278 163.612C141.711 163.518 142.712 163.243 143.777 162.203C144.774 161.225 145.388 159.274 144.067 158.77Z" fill="#B16668"/>
<path d="M100.619 122.72C97.9958 124.465 97.4031 127.819 98.725 131.446C100.047 135.073 107.218 143.988 107.218 143.988C107.218 143.988 113.162 142.569 114.909 138.038C114.909 138.038 109.044 129.564 107.213 127.109C105.088 124.26 102.282 121.942 100.619 122.72Z" fill="#37474F"/>
<path d="M145 124.638L140.12 127.65L141.642 128.786C139.66 130.831 136.312 134.5 135.505 134.952C134.12 135.725 132.241 134.899 130.374 135.683C129.119 136.208 128.097 136.944 126.76 137.26C126.429 137.344 125.994 137.533 126.072 137.864C126.1 137.96 126.154 138.046 126.23 138.111C126.573 138.455 127.025 138.669 127.51 138.716C129.009 138.868 129.43 138.395 130.463 138.279C129.478 139.109 128.397 139.815 127.242 140.382C126.513 140.792 125.701 141.307 125.05 141.649C123.8 142.311 124.73 143.647 125.91 144.325C127.039 144.998 128.342 145.32 129.654 145.25C133.485 145.024 137.56 141.244 139.359 139.373C140.049 138.652 140.81 138.003 141.631 137.438C144.113 135.746 149.29 132.098 150.36 130.452C151.772 128.281 147.743 125.995 145 124.638Z" fill="#B16668"/>
<path d="M135.503 134.952C135.763 134.809 136.053 134.734 136.348 134.734C136.643 134.734 136.934 134.809 137.192 134.952C138.3 135.624 139.206 136.583 139.816 137.728C140.198 138.579 139.816 138.942 139.816 138.942C140.563 138.637 141.203 138.116 141.653 137.444C141.653 136.875 141.468 136.322 141.126 135.867C140.485 134.894 139.613 134.096 138.588 133.543C138.177 133.367 137.724 133.313 137.283 133.386C136.63 133.837 136.035 134.363 135.503 134.952Z" fill="#37474F"/>
<path d="M138.961 134.205L138.017 135.036C137.948 135.095 137.892 135.168 137.852 135.249C137.812 135.33 137.789 135.419 137.786 135.509C137.78 135.6 137.795 135.69 137.827 135.775C137.859 135.86 137.907 135.938 137.969 136.003L139.06 137.186C139.188 137.322 139.364 137.405 139.551 137.416C139.738 137.428 139.923 137.368 140.068 137.249L140.975 136.487C141.044 136.429 141.103 136.357 141.144 136.276C141.187 136.195 141.212 136.107 141.217 136.016C141.224 135.926 141.213 135.834 141.185 135.748C141.155 135.662 141.108 135.582 141.048 135.514L139.942 134.263C139.82 134.126 139.647 134.043 139.462 134.032C139.279 134.021 139.1 134.084 138.961 134.205Z" fill="#263238"/>
<path d="M138.961 133.964L138.017 134.794C137.948 134.853 137.892 134.926 137.852 135.007C137.812 135.089 137.789 135.177 137.786 135.268C137.78 135.358 137.795 135.449 137.827 135.534C137.859 135.618 137.907 135.696 137.969 135.762L139.06 136.944C139.188 137.076 139.361 137.154 139.546 137.165C139.729 137.175 139.908 137.117 140.052 137.002L140.959 136.235C141.028 136.177 141.087 136.106 141.128 136.025C141.169 135.945 141.196 135.857 141.201 135.767C141.208 135.676 141.197 135.586 141.169 135.5C141.139 135.414 141.092 135.335 141.032 135.267L139.926 134.016C139.804 133.883 139.635 133.803 139.453 133.793C139.274 133.783 139.096 133.845 138.961 133.964Z" fill="#455A64"/>
<path d="M139.603 136.913C139.537 136.914 139.473 136.902 139.412 136.877C139.354 136.851 139.3 136.814 139.256 136.766L138.164 135.583C138.125 135.543 138.095 135.495 138.075 135.443C138.056 135.39 138.047 135.334 138.049 135.278C138.056 135.167 138.107 135.063 138.191 134.989L139.135 134.158C139.213 134.09 139.315 134.053 139.418 134.053C139.48 134.053 139.54 134.066 139.597 134.09C139.654 134.115 139.706 134.15 139.748 134.195L140.856 135.446C140.927 135.531 140.964 135.64 140.961 135.751C140.955 135.807 140.939 135.862 140.915 135.911C140.888 135.961 140.852 136.005 140.808 136.04L139.901 136.808C139.816 136.876 139.711 136.913 139.603 136.913Z" fill="#90C4E1"/>
<path d="M58.2355 177.637L54.2065 175.302L58.2355 174.135V177.637Z" fill="#90C4E1"/>
<path opacity="0.6" d="M58.2355 177.637L54.2065 175.302L58.2355 174.135V177.637Z" fill="black"/>
<path d="M38.0485 185.821V189.537L14.8037 176.059V172.343L38.0485 185.821Z" fill="#90C4E1"/>
<path opacity="0.6" d="M38.0485 185.821V189.537L14.8037 176.059V172.343L38.0485 185.821Z" fill="black"/>
<path d="M12.79 143.189L36.0295 156.668V186.982L12.79 173.51V143.189Z" fill="#90C4E1"/>
<path opacity="0.55" d="M12.79 143.189L36.0295 156.668V186.982L12.79 173.51V143.189Z" fill="black"/>
<path d="M36.0295 156.668L62.2697 141.486V171.807L36.0295 186.983V156.668Z" fill="#90C4E1"/>
<path opacity="0.45" d="M36.0295 156.668L62.2697 141.486V171.807L36.0295 186.983V156.668Z" fill="black"/>
<path d="M62.2697 141.486L39.0302 128.008L12.79 143.19L36.0295 156.668L62.2697 141.486Z" fill="#90C4E1"/>
<path opacity="0.3" d="M62.2697 141.486L39.0302 128.008L12.79 143.19L36.0295 156.668L62.2697 141.486Z" fill="black"/>
<path d="M38.0486 157.835L60.2546 144.987V151.983L38.0486 164.83V157.835Z" fill="#90C4E1"/>
<path opacity="0.2" d="M38.0486 157.835L60.2546 144.987V151.983L38.0486 164.83V157.835Z" fill="black"/>
<path opacity="0.2" d="M38.0486 167.161L60.2546 154.313V170.64L38.0486 183.487V167.161Z" fill="black"/>
<path d="M38.0486 189.537L40.0632 188.37V184.654L38.0486 185.821V189.537Z" fill="#90C4E1"/>
<path opacity="0.55" d="M38.0486 189.537L40.0632 188.37V184.654L38.0486 185.821V189.537Z" fill="black"/>
<path d="M58.2361 177.637L60.2558 176.469V172.968L58.2361 174.135V177.637Z" fill="#90C4E1"/>
<path opacity="0.55" d="M58.2361 177.637L60.2558 176.469V172.968L58.2361 174.135V177.637Z" fill="black"/>
<path d="M44.927 155.327C44.927 155.647 45.8922 155.353 47.0778 154.664L50.8443 152.489C52.0299 151.799 52.9899 150.985 52.9899 150.659V150.076L44.927 154.744V155.327Z" fill="#37474F"/>
<path opacity="0.2" d="M60.2546 170.64L46.2376 162.424L38.0486 167.161V183.487L60.2546 170.64Z" fill="black"/>
<path d="M29.8546 143.62C29.8564 143.477 29.8422 143.335 29.8127 143.195C29.4701 141.628 28.5478 140.249 27.2317 139.336H21.8336C20.5149 140.246 19.5919 141.626 19.2527 143.195C19.2205 143.334 19.2064 143.477 19.2107 143.62C19.2107 143.647 19.2107 143.694 19.2107 143.694C19.2578 144.44 19.772 145.182 20.7844 145.749C21.9517 146.343 23.2422 146.652 24.551 146.652C25.86 146.652 27.1504 146.343 28.3176 145.749C29.3039 145.182 29.818 144.44 29.8914 143.694C29.8495 143.694 29.8546 143.641 29.8546 143.62Z" fill="#263238"/>
<path d="M21.9699 139.252C20.5589 140.067 20.5589 141.392 21.9699 142.212C22.763 142.616 23.6401 142.827 24.5299 142.827C25.4197 142.827 26.297 142.616 27.0899 142.212C28.5064 141.392 28.5064 140.067 27.0899 139.252C26.297 138.848 25.4197 138.637 24.5299 138.637C23.6401 138.637 22.763 138.848 21.9699 139.252Z" fill="#37474F"/>
<path d="M25.2646 121.201H23.7958V140.156C23.7926 140.228 23.8109 140.298 23.8482 140.359C23.8857 140.42 23.9405 140.469 24.0055 140.498C24.1682 140.58 24.3479 140.623 24.5302 140.623C24.7124 140.623 24.892 140.58 25.0548 140.498C25.1211 140.47 25.1773 140.423 25.215 140.361C25.2527 140.3 25.2701 140.228 25.2646 140.156V121.201Z" fill="#455A64"/>
<path d="M35.0324 120.565L30.0856 107.949H18.9695L14.0278 120.565C13.3196 122.541 14.29 124.681 16.9393 126.21C21.1361 128.634 27.9244 128.634 32.1105 126.21C34.7702 124.681 35.7356 122.541 35.0324 120.565Z" fill="#90C4E1"/>
<path d="M20.5066 110.955C21.754 111.587 23.1323 111.917 24.5302 111.917C25.9281 111.917 27.3064 111.587 28.5538 110.955C30.778 109.667 30.778 107.586 28.5538 106.298C27.3064 105.666 25.9281 105.337 24.5302 105.337C23.1323 105.337 21.754 105.666 20.5066 106.298C18.2875 107.565 18.2875 109.667 20.5066 110.955Z" fill="#90C4E1"/>
<path opacity="0.6" d="M20.5066 110.955C21.754 111.587 23.1323 111.917 24.5302 111.917C25.9281 111.917 27.3064 111.587 28.5538 110.955C30.778 109.667 30.778 107.586 28.5538 106.298C27.3064 105.666 25.9281 105.337 24.5302 105.337C23.1323 105.337 21.754 105.666 20.5066 106.298C18.2875 107.565 18.2875 109.667 20.5066 110.955Z" fill="white"/>
<path d="M24.5303 111.108C23.318 111.135 22.1187 110.851 21.0471 110.283C20.2339 109.815 19.7827 109.231 19.7827 108.627C19.7827 108.022 20.2339 107.444 21.0471 106.971C22.1187 106.402 23.318 106.118 24.5303 106.146C25.7443 106.119 26.9452 106.403 28.0188 106.971C28.832 107.444 29.2778 108.022 29.2778 108.627C29.2778 109.231 28.832 109.815 28.0188 110.283C26.9452 110.851 25.7443 111.135 24.5303 111.108Z" fill="#90C4E1"/>
<path opacity="0.2" d="M141.468 90.7959L146.872 87.6683C146.986 87.5999 146.986 87.4948 146.872 87.4263L136.966 81.7019C136.902 81.6708 136.831 81.6545 136.76 81.6545C136.687 81.6545 136.618 81.6708 136.552 81.7019L131.16 84.8296C131.135 84.8397 131.116 84.8566 131.101 84.878C131.087 84.8996 131.08 84.9247 131.08 84.9505C131.08 84.9764 131.087 85.0015 131.101 85.023C131.116 85.0444 131.135 85.0613 131.16 85.0715L141.053 90.7959C141.117 90.8271 141.189 90.8433 141.261 90.8433C141.333 90.8433 141.404 90.8271 141.468 90.7959Z" fill="black"/>
<path d="M146.346 86.6382C146.42 86.6907 146.41 86.7696 146.346 86.8222L141.556 89.5925C141.503 89.621 141.444 89.6359 141.384 89.6359C141.323 89.6359 141.265 89.621 141.211 89.5925L132.056 84.299C131.967 84.2464 131.962 84.1675 132.056 84.1096C132.011 84.1435 131.974 84.1869 131.947 84.237C131.921 84.287 131.907 84.3423 131.905 84.3987V84.6302C131.907 84.6911 131.924 84.7506 131.955 84.8035C131.985 84.8566 132.026 84.9016 132.077 84.9349L141.163 90.2179C141.219 90.2438 141.279 90.2571 141.339 90.2571C141.4 90.2571 141.46 90.2438 141.515 90.2179L146.305 87.4476C146.355 87.4134 146.395 87.3682 146.426 87.3153C146.456 87.2624 146.474 87.2034 146.477 87.1428V86.9114C146.475 86.8594 146.463 86.8081 146.44 86.7611C146.419 86.7141 146.387 86.6722 146.346 86.6382Z" fill="#90C4E1"/>
<path d="M146.305 86.6221L137.151 81.3235C137.098 81.2975 137.037 81.2839 136.979 81.2839C136.918 81.2839 136.859 81.2975 136.804 81.3235L132.015 84.0989C131.921 84.1515 131.921 84.2409 132.015 84.2988L141.169 89.5923C141.222 89.6208 141.283 89.6358 141.343 89.6358C141.403 89.6358 141.462 89.6208 141.515 89.5923L146.305 86.822C146.326 86.8151 146.344 86.8017 146.358 86.7837C146.371 86.7657 146.378 86.7442 146.378 86.7221C146.378 86.7 146.371 86.6784 146.358 86.6604C146.344 86.6425 146.326 86.6291 146.305 86.6221ZM144.941 86.2648C145.025 86.312 145.025 86.3857 144.941 86.433L140.708 88.8826C140.662 88.907 140.611 88.9198 140.559 88.9198C140.506 88.9198 140.454 88.907 140.408 88.8826L133.284 84.7613C133.265 84.7565 133.249 84.7454 133.236 84.7297C133.224 84.7139 133.217 84.6946 133.217 84.6747C133.217 84.6547 133.224 84.6353 133.236 84.6195C133.249 84.6038 133.265 84.5928 133.284 84.5879L137.519 82.1383C137.556 82.1157 137.599 82.1036 137.643 82.1036C137.688 82.1036 137.732 82.1157 137.77 82.1383L144.941 86.2648Z" fill="#90C4E1"/>
<path opacity="0.8" d="M146.305 86.6221L137.151 81.3235C137.098 81.2975 137.037 81.2839 136.979 81.2839C136.918 81.2839 136.859 81.2975 136.804 81.3235L132.015 84.0989C131.921 84.1515 131.921 84.2409 132.015 84.2988L141.169 89.5923C141.222 89.6208 141.283 89.6358 141.343 89.6358C141.403 89.6358 141.462 89.6208 141.515 89.5923L146.305 86.822C146.326 86.8151 146.344 86.8017 146.358 86.7837C146.371 86.7657 146.378 86.7442 146.378 86.7221C146.378 86.7 146.371 86.6784 146.358 86.6604C146.344 86.6425 146.326 86.6291 146.305 86.6221ZM144.941 86.2648C145.025 86.312 145.025 86.3857 144.941 86.433L140.708 88.8826C140.662 88.907 140.611 88.9198 140.559 88.9198C140.506 88.9198 140.454 88.907 140.408 88.8826L133.284 84.7613C133.265 84.7565 133.249 84.7454 133.236 84.7297C133.224 84.7139 133.217 84.6946 133.217 84.6747C133.217 84.6547 133.224 84.6353 133.236 84.6195C133.249 84.6038 133.265 84.5928 133.284 84.5879L137.519 82.1383C137.556 82.1157 137.599 82.1036 137.643 82.1036C137.688 82.1036 137.732 82.1157 137.77 82.1383L144.941 86.2648Z" fill="white"/>
<path d="M131.994 84.1096C131.949 84.1435 131.912 84.1869 131.885 84.237C131.859 84.287 131.845 84.3423 131.843 84.3987V84.6302C131.845 84.6911 131.862 84.7506 131.893 84.8035C131.923 84.8566 131.964 84.9016 132.015 84.9349L141.164 90.2179C141.219 90.2455 141.281 90.2598 141.343 90.26V89.624C141.283 89.6244 141.222 89.6099 141.169 89.582L132.015 84.2885C131.926 84.2464 131.921 84.1675 131.994 84.1096Z" fill="#90C4E1"/>
<path opacity="0.6" d="M131.994 84.1096C131.949 84.1435 131.912 84.1869 131.885 84.237C131.859 84.287 131.845 84.3423 131.843 84.3987V84.6302C131.845 84.6911 131.862 84.7506 131.893 84.8035C131.923 84.8566 131.964 84.9016 132.015 84.9349L141.164 90.2179C141.219 90.2455 141.281 90.2598 141.343 90.26V89.624C141.283 89.6244 141.222 89.6099 141.169 89.582L132.015 84.2885C131.926 84.2464 131.921 84.1675 131.994 84.1096Z" fill="white"/>
<path d="M134.869 82.9848C134.883 82.9793 134.895 82.9698 134.902 82.9577C134.911 82.9454 134.915 82.9312 134.915 82.9164C134.915 82.9016 134.911 82.8874 134.902 82.8751C134.895 82.863 134.883 82.8535 134.869 82.848C134.833 82.83 134.792 82.8206 134.751 82.8206C134.71 82.8206 134.669 82.83 134.634 82.848C134.62 82.8535 134.607 82.863 134.6 82.8751C134.591 82.8874 134.588 82.9016 134.588 82.9164C134.588 82.9312 134.591 82.9454 134.6 82.9577C134.607 82.9698 134.62 82.9793 134.634 82.9848C134.669 83.0028 134.71 83.0122 134.751 83.0122C134.792 83.0122 134.833 83.0028 134.869 82.9848Z" fill="#455A64"/>
<path d="M143.455 88.1414C143.356 88.1412 143.258 88.1177 143.167 88.073C143.132 88.0589 143.1 88.034 143.078 88.0015C143.055 87.9691 143.043 87.9308 143.043 87.8916C143.043 87.8524 143.055 87.8141 143.078 87.7817C143.1 87.7493 143.132 87.7245 143.167 87.7103C143.258 87.6661 143.356 87.6433 143.455 87.6433C143.556 87.6433 143.654 87.6661 143.745 87.7103C143.78 87.7245 143.813 87.7493 143.834 87.7817C143.857 87.8141 143.868 87.8524 143.868 87.8916C143.868 87.9308 143.857 87.9691 143.834 88.0015C143.813 88.034 143.78 88.0589 143.745 88.073C143.654 88.1182 143.556 88.1417 143.455 88.1414ZM143.455 87.6893C143.364 87.6869 143.274 87.7087 143.194 87.7523C143.165 87.7623 143.139 87.781 143.121 87.8059C143.103 87.8311 143.094 87.861 143.094 87.8916C143.094 87.9225 143.103 87.9524 143.121 87.9773C143.139 88.0023 143.165 88.021 143.194 88.0309C143.276 88.0725 143.364 88.0942 143.455 88.0942C143.548 88.0942 143.636 88.0725 143.718 88.0309C143.747 88.021 143.772 88.0023 143.789 87.9773C143.809 87.9524 143.818 87.9225 143.818 87.8916C143.818 87.861 143.809 87.8311 143.789 87.8059C143.772 87.781 143.747 87.7623 143.718 87.7523C143.638 87.7087 143.548 87.6869 143.455 87.6893Z" fill="#455A64"/>
<path d="M134.753 83.4315L135.654 82.9058C135.708 82.8743 135.708 82.8269 135.654 82.7954C135.626 82.7797 135.594 82.7715 135.56 82.7715C135.528 82.7715 135.496 82.7797 135.466 82.7954L134.564 83.321C134.511 83.3526 134.506 83.4 134.564 83.4315C134.593 83.4457 134.625 83.4532 134.659 83.4532C134.691 83.4532 134.723 83.4457 134.753 83.4315Z" fill="#455A64"/>
<path d="M137.77 82.112C137.732 82.0893 137.688 82.0774 137.643 82.0774C137.599 82.0774 137.556 82.0893 137.517 82.112L133.284 84.5616C133.265 84.5664 133.249 84.5776 133.236 84.5933C133.224 84.609 133.217 84.6284 133.217 84.6483C133.217 84.6683 133.224 84.6877 133.236 84.7034C133.249 84.7191 133.265 84.7303 133.284 84.7351L140.408 88.8564C140.454 88.8808 140.506 88.8935 140.557 88.8935C140.611 88.8935 140.662 88.8808 140.708 88.8564L144.941 86.4068C145.025 86.3594 145.025 86.2858 144.941 86.2384L137.77 82.112Z" fill="#90C4E1"/>
<path opacity="0.85" d="M137.77 82.112C137.732 82.0893 137.688 82.0774 137.643 82.0774C137.599 82.0774 137.556 82.0893 137.517 82.112L133.284 84.5616C133.265 84.5664 133.249 84.5776 133.236 84.5933C133.224 84.609 133.217 84.6284 133.217 84.6483C133.217 84.6683 133.224 84.6877 133.236 84.7034C133.249 84.7191 133.265 84.7303 133.284 84.7351L140.408 88.8564C140.454 88.8808 140.506 88.8935 140.557 88.8935C140.611 88.8935 140.662 88.8808 140.708 88.8564L144.941 86.4068C145.025 86.3594 145.025 86.2858 144.941 86.2384L137.77 82.112Z" fill="#455A64"/>
<path d="M135.331 85.0664H135.293C135.293 85.0664 135.293 85.0664 135.293 85.0401L135.366 84.6932V84.6669L135.487 84.5986H135.53H135.571L136.563 85.1715C136.563 85.1715 136.563 85.1715 136.563 85.1977L136.437 85.2661C136.424 85.2731 136.41 85.2766 136.396 85.2766C136.38 85.2766 136.365 85.2731 136.353 85.2661L135.597 84.8299L135.551 85.0559H135.503L135.331 85.0664Z" fill="white"/>
<path d="M136.205 84.4987C136.205 84.4987 136.205 84.4987 136.248 84.4987C136.253 84.4958 136.26 84.4944 136.266 84.4944C136.273 84.4944 136.278 84.4958 136.285 84.4987L136.436 84.5827C136.438 84.5867 136.44 84.5913 136.44 84.5957C136.44 84.6004 136.438 84.605 136.436 84.6089L136.294 84.693H136.253H136.211L136.06 84.6038L136.205 84.4987ZM136.73 84.8088C136.744 84.8019 136.758 84.7983 136.772 84.7983C136.787 84.7983 136.801 84.8019 136.815 84.8088L136.966 84.8929L136.82 84.977H136.778H136.74L136.589 84.8929C136.589 84.8929 136.589 84.8929 136.589 84.8665L136.73 84.8088Z" fill="white"/>
<path d="M137.356 83.9414L137.418 83.9781L137.492 84.0202L137.565 84.0622L137.628 84.0991C137.679 84.1306 137.725 84.1696 137.764 84.2147C137.798 84.2448 137.821 84.2856 137.827 84.3303C137.83 84.3738 137.818 84.4165 137.791 84.4513C137.747 84.5051 137.693 84.5496 137.633 84.5827C137.564 84.6228 137.487 84.6529 137.407 84.672C137.338 84.6848 137.267 84.6848 137.197 84.672C137.128 84.6727 137.059 84.662 136.993 84.6404C136.925 84.6201 136.861 84.592 136.799 84.5564L136.662 84.4828L136.538 84.4039C136.486 84.3723 136.438 84.3353 136.396 84.2936C136.362 84.2606 136.34 84.2184 136.333 84.1726C136.33 84.1511 136.332 84.1292 136.339 84.1085C136.346 84.0877 136.355 84.0684 136.369 84.0517C136.41 83.9954 136.463 83.9503 136.527 83.9204C136.595 83.8794 136.669 83.8493 136.748 83.831C136.817 83.821 136.888 83.821 136.957 83.831C137.027 83.8347 137.094 83.847 137.162 83.8678C137.228 83.8869 137.293 83.9115 137.356 83.9414ZM136.998 84.4669C137.069 84.5026 137.146 84.5257 137.224 84.5353C137.3 84.5409 137.375 84.5223 137.439 84.4828C137.507 84.4407 137.539 84.3987 137.528 84.3567C137.507 84.3007 137.466 84.2542 137.412 84.2252L137.288 84.1516L137.156 84.078C137.085 84.0424 137.009 84.0193 136.931 84.0096C136.854 84.0043 136.78 84.0226 136.716 84.0622C136.643 84.1042 136.616 84.1463 136.627 84.1885C136.648 84.2428 136.689 84.2877 136.742 84.3146L136.867 84.3934L136.998 84.4669Z" fill="white"/>
<path d="M138.358 83.3842L138.42 83.4209L138.493 83.463L138.568 83.5052L138.63 83.5419C138.68 83.5734 138.726 83.6105 138.767 83.6523C138.799 83.6851 138.822 83.7273 138.829 83.7731C138.831 83.8166 138.819 83.8591 138.792 83.8941C138.747 83.9464 138.694 83.991 138.635 84.0255C138.564 84.0656 138.488 84.0957 138.41 84.115C138.34 84.1249 138.269 84.1249 138.2 84.115C138.131 84.1137 138.061 84.1014 137.995 84.0781C137.928 84.0572 137.864 84.0309 137.802 83.9992L137.665 83.9256L137.539 83.8469C137.489 83.8151 137.441 83.7783 137.398 83.7364C137.364 83.7036 137.343 83.6614 137.334 83.6154C137.332 83.593 137.334 83.5704 137.339 83.5486C137.347 83.5269 137.357 83.5068 137.371 83.4893C137.412 83.4348 137.466 83.3913 137.528 83.3632C137.597 83.3229 137.672 83.291 137.748 83.2686C137.818 83.2584 137.889 83.2584 137.958 83.2686C138.027 83.2722 138.097 83.2846 138.163 83.3053C138.23 83.3261 138.294 83.3525 138.358 83.3842ZM138.001 83.9099C138.072 83.9432 138.148 83.9662 138.227 83.9781C138.301 83.9813 138.378 83.9612 138.442 83.9204C138.515 83.8835 138.541 83.8415 138.531 83.7995C138.509 83.7435 138.468 83.697 138.415 83.668L138.289 83.5944L138.157 83.5208C138.088 83.4829 138.011 83.4597 137.933 83.4524C137.857 83.4471 137.782 83.4655 137.718 83.5052C137.643 83.5472 137.617 83.5893 137.627 83.626C137.651 83.6819 137.691 83.7284 137.743 83.7574L137.869 83.8363C137.914 83.8483 137.958 83.8622 138.001 83.8784V83.9099Z" fill="white"/>
<path d="M133.783 84.8134L133.741 84.7876H133.757L133.803 84.8134H133.762H133.783Z" fill="white"/>
<path d="M133.868 84.7666L133.788 84.7192H133.83L133.908 84.7666H133.868Z" fill="white"/>
<path d="M133.951 84.7193L133.835 84.6562H133.876L133.992 84.7247C133.985 84.7271 133.978 84.7279 133.971 84.727C133.963 84.7261 133.956 84.7234 133.951 84.7193Z" fill="white"/>
<path d="M134.035 84.672L133.835 84.5564H133.876L134.072 84.6668C134.065 84.6701 134.059 84.6722 134.052 84.6733C134.047 84.6742 134.04 84.6736 134.035 84.672Z" fill="white"/>
<path d="M134.282 84.5509L134.187 84.6035V84.4353H134.23L134.33 84.4932L134.282 84.5509ZM134.225 84.5142L134.15 84.4722V84.5509L134.225 84.5142Z" fill="white"/>
<path d="M134.365 84.4776C134.335 84.486 134.301 84.486 134.271 84.4776C134.239 84.4776 134.229 84.4407 134.229 84.4197C134.229 84.3987 134.229 84.3828 134.282 84.3618H134.325H134.365H134.309C134.282 84.3618 134.271 84.3618 134.271 84.4039C134.271 84.4461 134.271 84.4302 134.303 84.4407C134.325 84.4484 134.349 84.4484 134.371 84.4407C134.392 84.4454 134.413 84.4454 134.433 84.4407L134.387 84.4144H134.349L134.413 84.3828L134.481 84.4249C134.467 84.4475 134.447 84.4658 134.424 84.4776C134.405 84.4803 134.385 84.4803 134.365 84.4776Z" fill="white"/>
<path d="M135.651 83.5733L135.761 83.6364H135.788L135.898 83.5733L135.788 83.5103H135.761L135.651 83.5733Z" fill="white"/>
<path d="M135.725 83.4844H135.677H135.629C135.629 83.4844 135.629 83.5159 135.629 83.5316H135.667H135.699H135.661V83.4949H135.699H135.736H135.761L135.725 83.4844Z" fill="white"/>
<path d="M137.718 82.3327C137.7 82.3276 137.683 82.3276 137.665 82.3327L137.388 82.4904C137.382 82.4934 137.379 82.4973 137.377 82.5018C137.375 82.5064 137.373 82.5116 137.373 82.5167C137.373 82.5219 137.375 82.5271 137.377 82.5317C137.379 82.5362 137.382 82.5401 137.388 82.5431L137.492 82.6008H137.544H137.571L137.85 82.4378V82.3906L137.748 82.3327C137.74 82.3311 137.729 82.3311 137.718 82.3327ZM137.544 82.6167L137.439 82.5588V82.5167L137.718 82.3591H137.764L137.864 82.4168V82.4537L137.587 82.6167H137.544Z" fill="white"/>
<path d="M137.549 82.5903L137.455 82.5378V82.5062L137.708 82.3643L137.796 82.4168V82.4432L137.544 82.5903H137.549Z" fill="white"/>
<path d="M137.786 82.333C137.804 82.3261 137.825 82.3261 137.843 82.333C137.843 82.333 137.869 82.3646 137.843 82.3697L137.749 82.312L137.786 82.333Z" fill="white"/>
<path d="M136.57 86.0968L140.241 83.994C140.285 83.9733 140.335 83.9626 140.383 83.9626C140.433 83.9626 140.481 83.9733 140.525 83.994L141.459 84.5197C141.537 84.5617 141.537 84.6353 141.459 84.6827L137.786 86.7853C137.743 86.8088 137.695 86.8211 137.645 86.8211C137.596 86.8211 137.548 86.8088 137.503 86.7853L136.57 86.2598C136.492 86.2124 136.492 86.1388 136.57 86.0968Z" fill="#90C4E1"/>
<path d="M138.31 85.9334C138.333 85.955 138.351 85.9812 138.364 86.01C138.376 86.0391 138.383 86.0703 138.383 86.1016C138.383 86.1331 138.376 86.1643 138.364 86.1933C138.351 86.2222 138.333 86.2482 138.31 86.2699C138.195 86.3613 138.058 86.4226 137.912 86.4483C137.766 86.4739 137.617 86.4632 137.476 86.4171C137.178 86.3225 137.068 86.1069 137.229 85.9334L137.283 85.8862C137.251 86.007 137.35 86.1331 137.549 86.1964C137.667 86.2358 137.791 86.2454 137.914 86.2242C138.035 86.2031 138.15 86.152 138.248 86.0754C138.285 86.0375 138.308 85.9869 138.31 85.9334Z" fill="white"/>
<path d="M138.358 85.3397L139.302 84.814C139.325 84.8024 139.352 84.7964 139.379 84.7964C139.405 84.7964 139.43 84.8024 139.455 84.814C139.496 84.814 139.496 84.8773 139.455 84.9034L138.511 85.4291C138.486 85.4407 138.461 85.4468 138.435 85.4468C138.408 85.4468 138.381 85.4407 138.358 85.4291C138.31 85.4028 138.316 85.3661 138.358 85.3397Z" fill="#FAFAFA"/>
<path d="M138.646 85.4868L140.561 84.3777C140.584 84.3647 140.611 84.3579 140.637 84.3579C140.664 84.3579 140.689 84.3647 140.714 84.3777C140.724 84.3777 140.735 84.3821 140.742 84.39C140.751 84.3978 140.755 84.4085 140.755 84.4197C140.755 84.4308 140.751 84.4415 140.742 84.4495C140.735 84.4573 140.724 84.4618 140.714 84.4618L138.797 85.5709C138.774 85.5825 138.749 85.5885 138.723 85.5885C138.696 85.5885 138.669 85.5825 138.646 85.5709C138.604 85.5709 138.604 85.5342 138.646 85.4868Z" fill="#FAFAFA"/>
<path d="M138.94 85.6761L140.854 84.567C140.877 84.5541 140.904 84.5474 140.931 84.5474C140.957 84.5474 140.984 84.5541 141.007 84.567C141.048 84.567 141.043 84.63 141.007 84.651L139.092 85.7602C139.068 85.7717 139.043 85.7778 139.016 85.7778C138.989 85.7778 138.963 85.7717 138.94 85.7602C138.893 85.7391 138.897 85.7024 138.94 85.6761Z" fill="#FAFAFA"/>
<defs>
<filter id="filter0_d_345_34" x="9.6665" y="0.40979" width="252.889" height="253.366" filterUnits="userSpaceOnUse" color-interpolation-filters="sRGB">
<feFlood flood-opacity="0" result="BackgroundImageFix"/>
<feColorMatrix in="SourceAlpha" type="matrix" values="0 0 0 0 0 0 0 0 0 0 0 0 0 0 0 0 0 0 127 0" result="hardAlpha"/>
<feOffset/>
<feGaussianBlur stdDeviation="5"/>
<feComposite in2="hardAlpha" operator="out"/>
<feColorMatrix type="matrix" values="0 0 0 0 0.654167 0 0 0 0 0.654167 0 0 0 0 0.654167 0 0 0 0.25 0"/>
<feBlend mode="normal" in2="BackgroundImageFix" result="effect1_dropShadow_345_34"/>
<feBlend mode="normal" in="SourceGraphic" in2="effect1_dropShadow_345_34" result="shape"/>
</filter>
</defs>
</svg>
