<svg width="255" height="253" viewBox="0 0 255 253" fill="none" xmlns="http://www.w3.org/2000/svg">
<g filter="url(#filter0_d_345_24)">
<path d="M127.609 242.945C192.087 242.945 244.357 190.865 244.357 126.62C244.357 62.3756 192.087 10.295 127.609 10.295C63.131 10.295 10.8613 62.3756 10.8613 126.62C10.8613 190.865 63.131 242.945 127.609 242.945Z" fill="white"/>
</g>
<path d="M39.3066 225.475V226.61H216.801V153.269H204.871L184.377 166.617H164.831L142.914 180.89V186.635H133.899L108.956 202.878H92.3864L71.7456 216.322H57.0015L39.3066 225.475Z" fill="#90C4E1"/>
<path opacity="0.2" d="M39.3066 225.475V226.61H216.801V153.269H204.871L184.377 166.617H164.831L142.914 180.89V186.635H133.899L108.956 202.878H92.3864L71.7456 216.322H57.0015L39.3066 225.475Z" fill="black"/>
<path d="M51.2368 226.61H216.801V154.403L196.306 167.748H176.761L154.844 182.021V187.77H145.83L120.887 204.015H104.317L83.6809 217.459H68.9319L51.2368 226.61Z" fill="#90C4E1"/>
<path opacity="0.1" d="M51.2368 226.61H216.801V154.403L196.306 167.748H176.761L154.844 182.021V187.77H145.83L120.887 204.015H104.317L83.6809 217.459H68.9319L51.2368 226.61Z" fill="white"/>
<path d="M86.1862 91.1373C85.48 91.9565 84.6729 92.8713 83.9819 93.7709C83.2908 94.6706 82.5342 95.5852 81.8482 96.5151C80.4796 98.318 79.2473 100.22 78.1609 102.204L77.7927 102.933L77.6565 103.21C77.6162 103.285 77.5859 103.391 77.5456 103.481C77.3832 103.944 77.2535 104.417 77.1571 104.898C76.9453 105.944 76.7838 107.08 76.6528 108.23C76.4156 110.532 76.2593 112.94 76.1129 115.302L73.3438 115.548C72.8087 113.105 72.4713 110.622 72.3349 108.125C72.2634 106.825 72.2802 105.522 72.3854 104.225C72.4372 103.506 72.5502 102.793 72.7233 102.094C72.7787 101.898 72.8192 101.712 72.8948 101.506C72.9705 101.3 73.0411 101.074 73.0965 100.943L73.4749 100.018C73.9904 98.8114 74.5784 97.6366 75.2353 96.5C75.8659 95.3742 76.5669 94.3086 77.2529 93.2633C77.939 92.218 78.7207 91.2026 79.5127 90.2477C79.9062 89.7451 80.3098 89.2425 80.7183 88.7852C81.1268 88.3279 81.5355 87.8503 82.0096 87.3428L86.1862 91.1373Z" fill="#E4897B"/>
<path d="M87.0994 92.4039C86.595 93.3336 86.0249 94.2333 85.4751 95.0726C84.5268 96.5251 83.6087 97.7816 82.9532 98.646C82.3628 99.4251 81.9846 99.8824 81.9846 99.8824L74.5142 94.8112C74.5142 94.8112 79.054 86.0058 82.5496 85.443C86.1511 84.875 89.4448 88.2323 87.0994 92.4039Z" fill="#90C4E1"/>
<path opacity="0.3" d="M87.0994 92.4039C86.595 93.3336 86.0249 94.2333 85.4751 95.0726C84.5268 96.5251 83.6087 97.7816 82.9532 98.646C82.3628 99.4251 81.9846 99.8824 81.9846 99.8824L74.5142 94.8112C74.5142 94.8112 79.054 86.0058 82.5496 85.443C86.1511 84.875 89.4448 88.2323 87.0994 92.4039Z" fill="black"/>
<path d="M100.26 199.788H103.962L104.33 191.238H100.628L100.26 199.788Z" fill="#E4897B"/>
<path d="M64.2236 183.861L67.2298 186.022L74.322 180.579L71.3156 178.418L64.2236 183.861Z" fill="#E4897B"/>
<path d="M104.33 191.238L104.143 195.646H100.436L100.623 191.238H104.33Z" fill="#CE6F64"/>
<path d="M71.3166 178.418L74.323 180.579L70.6609 183.383L67.6597 181.222L71.3166 178.418Z" fill="#CE6F64"/>
<path d="M96.5011 117.549C96.5011 117.549 96.925 143.824 93.611 154.126C88.365 170.445 72.5162 183.664 72.5162 183.664L66.8467 179.588C66.8467 179.588 80.037 168.421 82.4836 154.68C84.6576 142.331 83.7345 127.635 83.7345 117.549H96.5011Z" fill="#90C4E1"/>
<path opacity="0.7" d="M96.5011 117.549C96.5011 117.549 96.925 143.824 93.611 154.126C88.365 170.445 72.5162 183.664 72.5162 183.664L66.8467 179.588C66.8467 179.588 80.037 168.421 82.4836 154.68C84.6576 142.331 83.7345 127.635 83.7345 117.549H96.5011Z" fill="white"/>
<path d="M76.2445 114.624L77.5813 117.016L72.9003 117.709C72.9003 117.709 72.421 115.699 73.5762 114.312L76.2445 114.624Z" fill="#E4897B"/>
<path d="M78.288 120.197L74.394 120.589L72.9009 117.71L77.582 117.016L78.288 120.197Z" fill="#E4897B"/>
<path d="M99.8768 71.9183C99.9222 72.2098 100.114 72.4209 100.311 72.4209C100.507 72.4209 100.618 72.1244 100.573 71.8329C100.528 71.5413 100.336 71.3303 100.139 71.3303C99.9424 71.3303 99.8315 71.6218 99.8768 71.9183Z" fill="#263238"/>
<path d="M100.088 72.4309C100.581 73.2741 101.189 74.0454 101.894 74.7228C101.716 74.9007 101.502 75.038 101.266 75.1249C101.03 75.2117 100.778 75.246 100.527 75.2254L100.088 72.4309Z" fill="#DE5753"/>
<path d="M98.5443 70.4508C98.5217 70.4515 98.4994 70.4478 98.4782 70.4398C98.4571 70.4318 98.4379 70.4197 98.4215 70.4044C98.4051 70.389 98.3919 70.3705 98.3826 70.3501C98.3734 70.3295 98.3684 70.3075 98.3677 70.2849C98.3677 70.2606 98.3725 70.2364 98.3821 70.2141C98.3916 70.1915 98.4056 70.1713 98.4233 70.1544C98.617 69.9564 98.8553 69.8075 99.1186 69.7202C99.3819 69.6326 99.6622 69.6092 99.9364 69.6518C99.9592 69.6559 99.9809 69.6646 100 69.6774C100.019 69.6901 100.036 69.7065 100.049 69.7258C100.061 69.745 100.07 69.7667 100.074 69.7894C100.078 69.812 100.078 69.8352 100.073 69.8578C100.068 69.88 100.06 69.901 100.047 69.92C100.035 69.9388 100.019 69.9549 100 69.9676C99.9813 69.9802 99.9602 69.9889 99.9381 69.9933C99.9159 69.9977 99.8931 69.9979 99.871 69.9935C99.6528 69.9638 99.4305 69.9862 99.2227 70.0588C99.015 70.1313 98.8274 70.2519 98.6755 70.4107C98.6577 70.4263 98.6368 70.4378 98.6142 70.4449C98.5915 70.4519 98.5677 70.4538 98.5443 70.4508Z" fill="#263238"/>
<path d="M90.0204 75.1602C90.5551 77.8591 91.0846 82.8097 89.188 84.609C89.188 84.609 89.9295 87.3532 94.9637 87.3532C100.512 87.3532 97.6118 84.609 97.6118 84.609C94.5853 83.8902 94.666 81.6587 95.1956 79.583L90.0204 75.1602Z" fill="#E4897B"/>
<path d="M87.1299 86.4383C87.73 85.5035 86.7212 83.2519 86.7212 83.2519C86.7212 83.2519 95.6445 81.0153 99.2863 84.448C100.043 85.1566 99.2055 86.2021 99.2055 86.2021L87.1299 86.4383Z" fill="#90C4E1"/>
<path d="M68.814 187.791C68.3449 187.791 67.659 186.877 67.4673 186.55C67.4578 186.536 67.4526 186.518 67.4526 186.502C67.4526 186.484 67.4578 186.468 67.4673 186.454C67.4774 186.441 67.4906 186.431 67.5056 186.425C67.5205 186.418 67.5369 186.417 67.553 186.418C67.6034 186.418 68.819 186.679 69.1015 187.157C69.1338 187.207 69.1545 187.264 69.1623 187.322C69.1702 187.383 69.165 187.441 69.147 187.498C69.0764 187.715 68.9452 187.775 68.8493 187.786L68.814 187.791ZM67.7296 186.64C68.0474 187.102 68.572 187.646 68.8342 187.615C68.8595 187.615 68.9351 187.615 68.9855 187.443C68.9958 187.411 68.9983 187.376 68.9932 187.342C68.9878 187.308 68.975 187.276 68.9554 187.248C68.6162 186.925 68.1904 186.706 67.7296 186.619V186.64Z" fill="#90C4E1"/>
<path d="M68.1429 186.644C67.9301 186.649 67.7178 186.624 67.5123 186.569C67.4998 186.56 67.4897 186.55 67.4826 186.537C67.4754 186.523 67.4717 186.509 67.4717 186.495C67.4717 186.479 67.4754 186.465 67.4826 186.45C67.4897 186.438 67.4998 186.427 67.5123 186.418C67.5476 186.388 68.38 185.726 68.9297 185.781C68.9969 185.788 69.0618 185.807 69.1208 185.841C69.1796 185.873 69.2313 185.918 69.2728 185.971C69.3192 186.019 69.3471 186.081 69.3518 186.147C69.3562 186.214 69.3373 186.28 69.2979 186.333C69.1165 186.553 68.6019 186.644 68.1429 186.644ZM67.7444 186.443C68.2135 186.514 68.9853 186.443 69.1315 186.232C69.1434 186.207 69.1473 186.179 69.1429 186.15C69.1384 186.124 69.1256 186.097 69.1063 186.077C69.08 186.042 69.0466 186.013 69.0083 185.992C68.9702 185.973 68.9279 185.96 68.8844 185.957C68.4636 185.999 68.0661 186.17 67.7444 186.443Z" fill="#90C4E1"/>
<path d="M105.45 199.978C105.069 199.974 104.689 199.939 104.314 199.873C104.297 199.87 104.281 199.863 104.268 199.848C104.255 199.836 104.247 199.82 104.244 199.802C104.241 199.784 104.244 199.767 104.252 199.751C104.26 199.735 104.273 199.72 104.289 199.712C104.345 199.681 105.636 198.943 106.257 199.115C106.314 199.127 106.368 199.152 106.416 199.186C106.464 199.221 106.504 199.264 106.534 199.316C106.574 199.371 106.595 199.438 106.595 199.506C106.595 199.575 106.574 199.641 106.534 199.697C106.388 199.914 105.929 199.978 105.45 199.978ZM104.597 199.742C105.288 199.843 106.226 199.832 106.398 199.596C106.423 199.534 106.423 199.463 106.398 199.401C106.379 199.369 106.353 199.342 106.323 199.321C106.292 199.3 106.258 199.287 106.221 199.28C105.828 199.179 105.051 199.511 104.597 199.742Z" fill="#90C4E1"/>
<path d="M104.345 199.854H104.294C104.282 199.845 104.272 199.832 104.265 199.818C104.259 199.804 104.257 199.788 104.259 199.772C104.301 199.246 104.507 198.747 104.849 198.346C104.919 198.287 104.999 198.245 105.086 198.218C105.173 198.193 105.264 198.184 105.354 198.195C105.429 198.186 105.505 198.207 105.565 198.252C105.625 198.298 105.665 198.365 105.676 198.44C105.747 198.857 104.859 199.656 104.415 199.857L104.345 199.854ZM105.253 198.346C105.141 198.348 105.032 198.385 104.945 198.456C104.665 198.776 104.489 199.173 104.441 199.596C104.9 199.321 105.5 198.692 105.449 198.445C105.449 198.445 105.449 198.36 105.278 198.346H105.253Z" fill="#90C4E1"/>
<path d="M67.6591 185.992L64.7789 182.977C64.727 182.923 64.6591 182.89 64.5858 182.881C64.5126 182.872 64.4384 182.888 64.3753 182.925L61.495 184.675C61.434 184.71 61.3807 184.758 61.3383 184.815C61.2959 184.872 61.2652 184.937 61.2477 185.005C61.2304 185.074 61.2269 185.145 61.2372 185.216C61.2477 185.285 61.2718 185.353 61.3083 185.413C61.3329 185.452 61.3616 185.488 61.3941 185.518C62.4029 186.523 62.9679 186.992 64.234 188.308C65.0159 189.118 67.1395 191.963 68.2139 193.084C69.2884 194.204 70.5442 193.284 70.2013 192.73C68.688 190.247 67.9516 187.786 67.9113 186.559C67.9011 186.346 67.8113 186.143 67.6591 185.992Z" fill="#263238"/>
<path d="M103.936 199.351H99.9005C99.8275 199.349 99.7563 199.374 99.6993 199.42C99.6423 199.466 99.6029 199.53 99.5879 199.601L98.8514 202.867C98.8197 203.008 98.8443 203.151 98.9199 203.272C98.9956 203.393 99.1159 203.48 99.255 203.512C99.2984 203.517 99.3425 203.517 99.3861 203.512C100.849 203.512 102.957 203.4 104.793 203.4C106.937 203.4 108.788 203.517 111.305 203.517C112.819 203.517 113.247 201.983 112.612 201.848C109.711 201.214 107.346 201.145 104.839 199.607C104.567 199.44 104.255 199.351 103.936 199.351Z" fill="#263238"/>
<path opacity="0.3" d="M85.4752 95.0729C84.5268 96.5252 83.6089 97.7817 82.9531 98.6463C83.0287 96.9174 83.387 94.1229 84.7338 91.9919C85.223 92.4745 85.4196 93.7208 85.4752 95.0729Z" fill="black"/>
<path d="M105.859 89.0869C106.061 89.4036 106.429 89.8861 106.767 90.3335C107.105 90.7807 107.494 91.2381 107.877 91.6905C108.649 92.59 109.436 93.4847 110.258 94.3441C111.841 96.0519 113.577 97.6129 115.444 99.0081C115.877 99.3239 116.326 99.6175 116.79 99.8878L117.098 100.064C117.134 100.064 117.148 100.109 117.214 100.129L117.294 100.164L117.404 100.199C117.488 100.225 117.572 100.245 117.658 100.26C118.663 100.4 119.682 100.386 120.684 100.219C123.048 99.8469 125.383 99.3162 127.675 98.6313L128.871 101.144C126.623 102.592 124.188 103.727 121.632 104.517C120.187 104.983 118.672 105.195 117.153 105.145C116.925 105.134 116.697 105.11 116.472 105.074L116.125 105.009L115.75 104.919C115.488 104.848 115.234 104.759 114.984 104.652L114.827 104.587L114.702 104.527L114.449 104.406C113.799 104.089 113.168 103.742 112.553 103.366C110.282 101.892 108.178 100.178 106.278 98.2542C105.345 97.3144 104.437 96.3595 103.584 95.3443C103.151 94.8417 102.732 94.3391 102.313 93.7762C101.856 93.1936 101.436 92.5827 101.057 91.9467L105.859 89.0869Z" fill="#E4897B"/>
<path d="M127.08 99.2997L129.541 96.3796L131.217 100.642C131.217 100.642 129.092 101.647 127.438 101.069L127.08 99.2997Z" fill="#E4897B"/>
<path d="M133.152 95.7463L133.838 99.1539L131.217 100.642L129.546 96.3796L133.152 95.7463Z" fill="#E4897B"/>
<path d="M89.9285 72.8282C90.7153 76.4066 90.9978 78.5425 93.1213 80.1107C96.3143 82.4729 100.531 80.1107 100.829 76.3764C101.096 73.009 99.7596 67.7218 95.9864 66.8272C95.1542 66.6278 94.2844 66.6439 93.4602 66.8743C92.636 67.1046 91.8845 67.5415 91.2778 68.143C90.6709 68.7447 90.2289 69.4912 89.9934 70.3113C89.7581 71.1313 89.7374 71.9977 89.9335 72.8282H89.9285Z" fill="#E4897B"/>
<path d="M88.4105 65.8371C85.258 65.9225 84.8796 69.0134 86.4433 69.923C86.4433 69.923 84.6274 70.7925 85.5606 72.8683C86.983 76.0195 89.7069 79.4823 92.4912 79.2914C95.9465 79.0552 96.9301 75.3058 96.809 71.6068C98.63 69.8928 97.5304 69.0586 99.3312 68.0131C102.519 66.1637 104.133 60.8614 98.8267 60.9418C93.3891 61.0272 96.456 65.6209 88.4105 65.8371Z" fill="#263238"/>
<path d="M86.837 69.4707C86.837 69.4707 85.6213 70.0991 83.75 69.0134C84.4006 70.6017 86.3981 71.255 86.837 69.4707Z" fill="#263238"/>
<path d="M94.9122 72.4964C95.01 73.4022 95.4054 74.2502 96.0371 74.9089C96.8744 75.7683 97.6967 75.1852 97.8025 74.0996C97.8984 73.1246 97.5755 71.5012 96.5718 71.0488C95.5679 70.5965 94.8063 71.4007 94.9122 72.4964Z" fill="#E4897B"/>
<path d="M74.9278 182.472L72.6024 183.856L66.4082 179.402L68.4712 177.83L74.9278 182.472Z" fill="#90C4E1"/>
<path d="M92.7997 122.062C92.0986 126.796 94.5753 139.979 95.4328 144.296C96.3306 136.225 96.4971 126.65 96.5122 121.423C94.6963 120.197 93.1225 119.881 92.7997 122.062Z" fill="#90C4E1"/>
<path opacity="0.4" d="M92.7997 122.062C92.0986 126.796 94.5753 139.979 95.4328 144.296C96.3306 136.225 96.4971 126.65 96.5122 121.423C94.6963 120.197 93.1225 119.881 92.7997 122.062Z" fill="white"/>
<path d="M103.528 117.549C103.528 117.549 109.112 141.12 109.505 152.379C109.944 165.007 105.52 194.792 105.52 194.792H99.2455C99.2455 194.792 98.4738 164.777 98.1912 153.272C97.8886 140.733 90.5039 117.549 90.5039 117.549H103.528Z" fill="#90C4E1"/>
<path opacity="0.7" d="M103.528 117.549C103.528 117.549 109.112 141.12 109.505 152.379C109.944 165.007 105.52 194.792 105.52 194.792H99.2455C99.2455 194.792 98.4738 164.777 98.1912 153.272C97.8886 140.733 90.5039 117.549 90.5039 117.549H103.528Z" fill="white"/>
<path d="M106.732 192.315C106.762 192.315 106.379 194.908 106.379 194.908H98.7419L98.5352 192.59L106.732 192.315Z" fill="#90C4E1"/>
<path d="M105.132 97.6711C105.132 98.9275 105.101 100.31 105.031 101.832C104.849 105.974 104.395 111.135 103.517 117.548H83.709C83.5728 114.533 85.4846 99.7265 82.5488 85.4431C84.7496 85.022 86.9754 84.7433 89.2122 84.6087C92.0179 84.4478 94.8303 84.4478 97.636 84.6087C99.5587 84.8002 101.464 85.1362 103.336 85.6139C103.336 85.6139 105.137 87.6896 105.132 97.6711Z" fill="#90C4E1"/>
<path opacity="0.3" d="M105.132 97.6711C105.132 98.9275 105.101 100.31 105.031 101.832C104.849 105.974 104.395 111.135 103.517 117.548H83.709C83.5728 114.533 85.4846 99.7265 82.5488 85.4431C84.7496 85.022 86.9754 84.7433 89.2122 84.6087C92.0179 84.4478 94.8303 84.4478 97.636 84.6087C99.5587 84.8002 101.464 85.1362 103.336 85.6139C103.336 85.6139 105.137 87.6896 105.132 97.6711Z" fill="black"/>
<path opacity="0.3" d="M105.132 97.6711C105.132 98.9276 105.101 100.31 105.031 101.833C102.705 99.5709 102.549 94.9521 102.549 94.9521L105.132 97.6711Z" fill="black"/>
<path d="M98.0295 89.9414C98.4683 93.4594 106.478 100.868 106.478 100.868L113.692 95.1734C111.879 92.4993 109.758 90.0465 107.371 87.8657C102.156 83.3524 97.4998 85.7347 98.0295 89.9414Z" fill="#90C4E1"/>
<path opacity="0.3" d="M98.0295 89.9414C98.4683 93.4594 106.478 100.868 106.478 100.868L113.692 95.1734C111.879 92.4993 109.758 90.0465 107.371 87.8657C102.156 83.3524 97.4998 85.7347 98.0295 89.9414Z" fill="black"/>
<path d="M182.544 163.411L178.837 163.772L174.978 154.977L178.685 154.615L182.544 163.411Z" fill="#E4897B"/>
<path d="M207.22 152.354L203.992 154.423L198.141 147.644L201.369 145.573L207.22 152.354Z" fill="#E4897B"/>
<path d="M174.983 154.982L176.971 159.514H180.84L178.691 154.62L174.983 154.982Z" fill="#CE6F64"/>
<path d="M201.374 145.573L198.141 147.644L201.162 151.137L204.392 149.066L201.374 145.573Z" fill="#CE6F64"/>
<path d="M150.752 69.5113C150.671 70.8782 150.5 72.1246 150.303 73.4214C150.106 74.718 149.828 75.9745 149.516 77.2461C148.907 79.8361 147.962 82.3363 146.706 84.6843C146.376 85.2935 146.007 85.881 145.602 86.4434C145.208 87.0014 144.79 87.5139 144.371 88.0116C143.533 89.0168 142.667 89.9465 141.783 90.8662C140.002 92.6907 138.187 94.4347 136.234 96.0982L134.833 94.7513C136.382 92.7962 137.97 90.8613 139.478 88.9011C140.986 86.941 142.551 84.991 143.513 83.0309C144.497 80.8934 145.239 78.653 145.724 76.3513C145.991 75.1854 146.192 73.9943 146.383 72.8334C146.576 71.6722 146.716 70.4159 146.823 69.3152L150.752 69.5113Z" fill="#E4897B"/>
<path d="M149.208 44.5926C146.504 44.5926 143.438 47.4827 143.563 51.629C143.69 55.7753 144.572 61.932 138.141 67.6314C140.451 72.6574 151.317 77.3667 158.571 73.8233C165.446 70.466 162.606 51.8551 157.708 46.9801C154.963 44.2509 151.76 43.3361 149.208 44.5926Z" fill="#263238"/>
<path d="M153.696 69.9834C153.495 71.1996 152.48 73.5016 151.678 75.2102C151.083 76.4466 150.6 77.3765 150.6 77.3765L149.894 77.0648L144.048 74.4714C144.492 71.3303 145.212 67.9378 148.687 66.3949C150.857 65.44 154.054 67.8121 153.696 69.9834Z" fill="#90C4E1"/>
<path opacity="0.6" d="M153.696 69.9834C153.495 71.1996 152.48 73.5016 151.678 75.2102C151.083 76.4466 150.6 77.3765 150.6 77.3765L149.894 77.0648L144.048 74.4714C144.492 71.3303 145.212 67.9378 148.687 66.3949C150.857 65.44 154.054 67.8121 153.696 69.9834Z" fill="white"/>
<path d="M151.664 75.2106C151.069 76.4468 150.584 77.3767 150.584 77.3767L149.878 77.065C149.975 75.8236 150.222 73.8686 150.887 72.989C151.303 73.6658 151.566 74.4233 151.664 75.2106Z" fill="#90C4E1"/>
<path opacity="0.5" d="M151.664 75.2455C151.069 76.482 150.584 77.4118 150.584 77.4118L149.878 77.1002C149.975 75.8588 150.222 73.9036 150.887 73.0242C151.303 73.701 151.566 74.4584 151.664 75.2455Z" fill="white"/>
<path d="M171.433 83.6038L156.553 88.278C146.263 67.9934 147.725 66.9178 147.725 66.9178C147.725 66.9178 150.101 65.5658 152.573 64.44L153.698 63.9374C155.894 63.0667 158.148 62.3545 160.446 61.8064C160.785 61.7161 161.123 61.6356 161.455 61.5552C163.285 61.1442 165.139 60.8403 167.003 60.6455C167.226 63.4549 167.447 65.8322 167.69 67.8978C168.003 70.5917 168.34 72.7478 168.698 74.6125C169.369 77.6771 170.283 80.6838 171.433 83.6038Z" fill="#90C4E1"/>
<path opacity="0.6" d="M171.433 83.6038L156.553 88.278C146.263 67.9934 147.725 66.9178 147.725 66.9178C147.725 66.9178 150.101 65.5658 152.573 64.44L153.698 63.9374C155.894 63.0667 158.148 62.3545 160.446 61.8064C160.785 61.7161 161.123 61.6356 161.455 61.5552C163.285 61.1442 165.139 60.8403 167.003 60.6455C167.226 63.4549 167.447 65.8322 167.69 67.8978C168.003 70.5917 168.34 72.7478 168.698 74.6125C169.369 77.6771 170.283 80.6838 171.433 83.6038Z" fill="white"/>
<path d="M156.551 88.2776C156.551 88.2776 156.047 118.634 160.027 129.601C163.861 140.115 175.295 158.188 175.295 158.188L181.924 158.017C181.924 158.017 171.397 135.134 169.666 126.082C166.806 111.07 167.437 84.8701 167.437 84.8701L156.551 88.2776Z" fill="#90C4E1"/>
<path opacity="0.4" d="M156.551 88.2776C156.551 88.2776 156.047 118.634 160.027 129.601C163.861 140.115 175.295 158.188 175.295 158.188L181.924 158.017C181.924 158.017 171.397 135.134 169.666 126.082C166.806 111.07 167.437 84.8701 167.437 84.8701L156.551 88.2776Z" fill="black"/>
<path opacity="0.3" d="M162.505 90.8861L164.285 85.8602L167.439 84.855C167.439 84.855 167.152 96.7814 167.841 109.15C164.982 103.687 162.505 93.6353 162.505 90.8861Z" fill="black"/>
<path d="M159.831 87.3126C159.831 87.3126 170.173 110.879 176.855 124.293C182.252 135.124 199.049 149.664 199.049 149.664L203.65 146.483C203.65 146.483 191.014 129.264 187.287 121.916C175.358 98.4049 178.299 88.7149 171.438 83.6035L159.831 87.3126Z" fill="#90C4E1"/>
<path opacity="0.4" d="M159.831 87.3126C159.831 87.3126 170.173 110.879 176.855 124.293C182.252 135.124 199.049 149.664 199.049 149.664L203.65 146.483C203.65 146.483 191.014 129.264 187.287 121.916C175.358 98.4049 178.299 88.7149 171.438 83.6035L159.831 87.3126Z" fill="black"/>
<path d="M135.73 94.394L132.361 95.0174L134.747 98.2338C134.747 98.2338 136.507 97.0127 136.876 95.4646L135.73 94.394Z" fill="#E4897B"/>
<path d="M130.152 97.5605L132.366 99.6211L134.742 98.234L132.361 95.0173L130.152 97.5605Z" fill="#E4897B"/>
<path d="M202.802 153.409L206.308 150.896C206.368 150.851 206.441 150.832 206.514 150.839C206.587 150.844 206.655 150.878 206.707 150.931L209.097 153.409C209.206 153.529 209.263 153.687 209.254 153.849C209.245 154.012 209.174 154.163 209.053 154.274L208.997 154.318C207.757 155.167 207.115 155.518 205.577 156.62C204.629 157.298 202.631 158.937 201.319 159.871C200.009 160.807 199.014 159.566 199.474 159.063C201.541 156.79 202.09 155.243 202.418 153.961C202.479 153.739 202.614 153.544 202.802 153.409Z" fill="#263238"/>
<path d="M178.348 162.631H182.888C182.968 162.633 183.047 162.662 183.113 162.711C183.177 162.761 183.223 162.83 183.247 162.907L184.255 166.496C184.275 166.567 184.282 166.641 184.273 166.716C184.266 166.789 184.243 166.86 184.205 166.926C184.17 166.991 184.122 167.048 184.063 167.094C184.004 167.14 183.938 167.174 183.867 167.194C183.812 167.203 183.754 167.203 183.699 167.194H173.203C171.538 167.194 171.185 165.515 171.882 165.365C174.969 164.681 176.75 163.747 177.701 162.852C177.881 162.699 178.113 162.621 178.348 162.631Z" fill="#263238"/>
<path d="M161.464 61.5649V61.8313C161.464 61.9871 161.359 65.5857 157.665 68.4253L157.293 68.7117L156.838 68.6112C154.881 68.1891 153.58 67.38 152.96 66.2089C152.673 65.6653 152.541 65.0529 152.582 64.4397L153.707 63.9371C155.903 63.0663 158.157 62.3542 160.455 61.8061C160.788 61.7258 161.127 61.6402 161.464 61.5649Z" fill="white"/>
<path d="M157.38 54.4534C157.642 56.7502 158.475 60.8514 160.451 61.8163C160.451 61.8163 160.401 65.053 157.047 67.6313C152.603 66.6663 153.703 63.9473 153.703 63.9473C155.942 62.6054 155.313 60.8363 154.354 59.2882L157.38 54.4534Z" fill="#E4897B"/>
<path d="M156.149 56.4236L154.359 59.2832C154.588 59.6425 154.782 60.021 154.944 60.4142C155.826 59.9869 156.962 58.7204 156.75 57.7252C156.63 57.259 156.427 56.8182 156.149 56.4236Z" fill="#CE6F64"/>
<path d="M156.331 49.3321C157.601 52.9154 158.213 54.4032 157.208 56.9412C155.694 60.7559 151.005 61.5249 148.684 58.3987C146.6 55.5792 144.875 50.2014 147.711 47.3418C148.682 46.3661 150.001 45.8148 151.381 45.8091C152.76 45.8034 154.085 46.3439 155.065 47.3116C155.641 47.8763 156.074 48.5686 156.331 49.3321Z" fill="#E4897B"/>
<path d="M151.568 45.1558C150.347 46.4774 152.855 52.006 156.678 52.8554C160.501 53.7047 157.414 47.6938 157.414 47.6938L151.568 45.1558Z" fill="#263238"/>
<path d="M151.967 46.7036C152.11 48.2114 146.03 50.488 145.511 51.6038C145.763 49.7895 145.85 47.6635 148.144 46.1557C150.44 44.6479 152.331 45.236 152.331 45.236L151.967 46.7036Z" fill="#263238"/>
<path d="M151.518 46.7639C151.518 46.7639 150.846 48.4978 148.29 50.6188C150.306 50.045 152.033 48.7397 153.131 46.9598L151.518 46.7639Z" fill="#263238"/>
<path d="M158.505 52.2421C158.615 52.9685 158.435 53.709 158 54.3027C157.421 55.0868 156.532 54.7149 156.195 53.8605C155.886 53.0866 155.817 51.7496 156.639 51.2721C156.781 51.1905 156.938 51.1376 157.1 51.1167C157.264 51.0957 157.428 51.1071 157.587 51.1501C157.746 51.193 157.893 51.2667 158.024 51.3671C158.154 51.4674 158.262 51.5923 158.343 51.7345C158.434 51.8899 158.489 52.0632 158.505 52.2421Z" fill="#E4897B"/>
<path d="M171.362 82.6638L172.456 83.7796C172.542 83.8651 172.456 84.0107 172.28 84.061L156.687 88.9764C156.637 88.9992 156.58 89.0045 156.525 88.9919C156.47 88.9791 156.422 88.9491 156.386 88.9059L155.83 87.6244C155.796 87.534 155.887 87.4234 156.033 87.3731L171.084 82.6286C171.13 82.6095 171.178 82.6027 171.228 82.6089C171.276 82.615 171.323 82.634 171.362 82.6638Z" fill="#263238"/>
<path d="M150.992 52.7144C151.114 52.9959 151.058 53.2923 150.871 53.3678C150.686 53.4431 150.438 53.2824 150.317 52.9959C150.196 52.7093 150.251 52.4178 150.438 52.3425C150.625 52.2671 150.871 52.428 150.992 52.7144Z" fill="#263238"/>
<path d="M147.771 54.0716C147.892 54.3581 147.837 54.6495 147.65 54.73C147.463 54.8104 147.215 54.6445 147.096 54.3581C146.975 54.0716 147.03 53.78 147.215 53.6995C147.402 53.6193 147.65 53.7901 147.771 54.0716Z" fill="#263238"/>
<path d="M147.301 53.6843L146.534 53.7749C146.534 53.7749 147.115 54.1619 147.301 53.6843Z" fill="#263238"/>
<path d="M148.905 54.1316C148.927 54.8883 148.845 55.6442 148.659 56.3782C148.848 56.4199 149.044 56.4197 149.235 56.3782C149.426 56.3364 149.604 56.2542 149.759 56.137L148.905 54.1316Z" fill="#DE5753"/>
<path d="M151.568 56.7451C151.548 56.7437 151.529 56.7361 151.514 56.723C151.5 56.71 151.489 56.6924 151.486 56.673C151.481 56.6537 151.484 56.6334 151.493 56.6157C151.5 56.5977 151.514 56.5832 151.532 56.5741C151.891 56.4315 152.21 56.2072 152.464 55.9192C152.719 55.6311 152.903 55.2873 153.001 54.9157C153.003 54.9044 153.006 54.8935 153.012 54.8836C153.017 54.8736 153.024 54.8649 153.033 54.858C153.042 54.8509 153.053 54.8458 153.063 54.8427C153.074 54.8397 153.085 54.8388 153.097 54.8403C153.108 54.842 153.12 54.8463 153.131 54.8527C153.14 54.8589 153.149 54.8673 153.156 54.877C153.163 54.887 153.169 54.8982 153.172 54.9099C153.174 54.9218 153.174 54.9339 153.172 54.9458C153.074 55.3487 152.88 55.7222 152.605 56.0346C152.331 56.3468 151.987 56.5889 151.598 56.74L151.568 56.7451Z" fill="#263238"/>
<path d="M151.452 51.2821C151.422 51.2872 151.391 51.2872 151.361 51.2821C151.165 51.1652 150.946 51.0947 150.718 51.0764C150.491 51.0581 150.261 51.0924 150.049 51.1766C150.008 51.1979 149.958 51.202 149.914 51.1879C149.869 51.1739 149.83 51.1426 149.809 51.1011C149.785 51.0583 149.782 51.0087 149.796 50.9629C149.81 50.9169 149.841 50.8782 149.883 50.8549C150.149 50.7402 150.438 50.6908 150.725 50.7109C151.013 50.7312 151.291 50.8201 151.537 50.9706C151.578 50.9945 151.609 51.034 151.621 51.0801C151.634 51.1263 151.627 51.1753 151.603 51.2167C151.586 51.2385 151.562 51.2556 151.536 51.267C151.509 51.2783 151.48 51.2835 151.452 51.2821Z" fill="#263238"/>
<path d="M145.608 53.2271H145.572C145.549 53.223 145.528 53.2143 145.508 53.2015C145.488 53.1889 145.472 53.1726 145.458 53.1534C145.446 53.1342 145.437 53.1128 145.431 53.09C145.426 53.0673 145.426 53.0438 145.431 53.0211C145.479 52.7355 145.597 52.4658 145.773 52.2349C145.948 52.0038 146.176 51.8184 146.44 51.6943C146.485 51.6774 146.535 51.6785 146.579 51.6973C146.622 51.716 146.658 51.7509 146.677 51.7948C146.695 51.8389 146.695 51.8884 146.677 51.9326C146.659 51.9768 146.625 52.0122 146.581 52.031C146.372 52.1322 146.191 52.282 146.053 52.4672C145.914 52.6526 145.822 52.8684 145.784 53.0966C145.775 53.1355 145.752 53.1699 145.72 53.1937C145.688 53.2177 145.647 53.2294 145.608 53.2271Z" fill="#263238"/>
<path d="M169.289 64.2036C169.889 64.651 170.394 65.0682 170.918 65.5205C171.444 65.9728 171.927 66.4252 172.431 66.8924C173.415 67.8374 174.354 68.8275 175.256 69.8629C176.165 70.9034 177.006 71.9995 177.778 73.1447C177.98 73.4262 178.156 73.7327 178.343 74.0243C178.53 74.3157 178.716 74.6123 178.883 74.9188C179.049 75.2254 179.226 75.5118 179.388 75.8587L179.655 76.4115L179.873 76.9795C180.334 78.4054 180.553 79.899 180.518 81.3972C180.486 82.7913 180.336 84.1801 180.069 85.5487C179.801 86.8803 179.464 88.1971 179.06 89.4939C178.653 90.7836 178.176 92.0502 177.632 93.2886L175.81 92.615C176.124 91.4088 176.422 90.1423 176.643 88.8908C176.891 87.6517 177.071 86.4 177.183 85.1416C177.306 83.9226 177.334 82.6959 177.268 81.4727C177.231 80.8925 177.16 80.3151 177.053 79.7438C176.948 79.2149 176.793 78.6967 176.593 78.1958L176.441 77.849L176.27 77.5274C176.135 77.2961 175.948 77.0248 175.766 76.7735C175.584 76.5222 175.433 76.2709 175.261 76.0144C175.09 75.7582 174.919 75.5118 174.721 75.2657C173.991 74.2605 173.158 73.3509 172.331 72.421C171.504 71.4913 170.595 70.6116 169.672 69.7624C169.214 69.3301 168.749 68.9079 168.274 68.4957C167.8 68.0837 167.307 67.6715 166.893 67.3197L169.289 64.2036Z" fill="#E4897B"/>
<path d="M176.395 91.4138L173.63 93.4242L177.161 95.2838C177.161 95.2838 178.216 93.4242 177.872 91.8713L176.395 91.4138Z" fill="#E4897B"/>
<path d="M172.753 96.6809L175.65 97.5754L177.183 95.2937L173.632 93.4341L172.753 96.6809Z" fill="#E4897B"/>
<path d="M201.475 154.982H201.415C201.328 154.972 201.244 154.938 201.172 154.885C201.101 154.831 201.046 154.76 201.012 154.68C200.984 154.632 200.969 154.579 200.969 154.524C200.969 154.469 200.984 154.416 201.012 154.368C201.258 153.947 202.646 153.865 202.802 153.865C202.819 153.865 202.835 153.871 202.85 153.879C202.864 153.888 202.875 153.901 202.884 153.917C202.892 153.931 202.898 153.949 202.898 153.966C202.898 153.984 202.892 154.002 202.884 154.016C202.55 154.384 201.95 154.982 201.475 154.982ZM202.586 154.062C202.03 154.101 201.294 154.233 201.167 154.453C201.153 154.473 201.144 154.497 201.144 154.522C201.144 154.545 201.153 154.57 201.167 154.59C201.19 154.645 201.226 154.693 201.27 154.73C201.317 154.766 201.372 154.79 201.431 154.801C201.698 154.826 202.115 154.554 202.586 154.062Z" fill="#90C4E1"/>
<path d="M202.707 154.052C202.242 154.052 201.329 153.796 201.158 153.423C201.128 153.357 201.122 153.284 201.14 153.215C201.158 153.144 201.201 153.084 201.259 153.041C201.311 152.995 201.372 152.961 201.438 152.938C201.504 152.917 201.573 152.91 201.643 152.915C202.197 152.972 202.848 153.865 202.873 153.92C202.88 153.934 202.885 153.95 202.885 153.966C202.885 153.982 202.88 153.998 202.873 154.011C202.867 154.025 202.857 154.037 202.844 154.048C202.832 154.057 202.817 154.064 202.803 154.066L202.707 154.052ZM201.587 153.096C201.55 153.096 201.513 153.103 201.477 153.116C201.443 153.13 201.411 153.151 201.384 153.178C201.299 153.252 201.309 153.308 201.324 153.348C201.436 153.593 202.151 153.851 202.621 153.851C202.388 153.563 201.955 153.112 201.612 153.077L201.587 153.096Z" fill="#90C4E1"/>
<path d="M176.326 163.381C176.016 163.402 175.705 163.329 175.438 163.17C175.37 163.118 175.313 163.051 175.274 162.976C175.233 162.9 175.21 162.816 175.206 162.731C175.199 162.683 175.206 162.635 175.226 162.591C175.247 162.548 175.279 162.511 175.322 162.486C175.73 162.209 177.285 162.907 177.591 163.054C177.609 163.061 177.623 163.074 177.632 163.09C177.641 163.106 177.645 163.125 177.643 163.143C177.641 163.162 177.632 163.18 177.62 163.196C177.607 163.21 177.589 163.219 177.572 163.225C177.163 163.319 176.745 163.37 176.326 163.381ZM175.598 162.596C175.538 162.592 175.475 162.607 175.422 162.637C175.41 162.647 175.401 162.66 175.395 162.674C175.388 162.69 175.386 162.706 175.388 162.722C175.388 162.781 175.404 162.839 175.433 162.891C175.459 162.944 175.5 162.988 175.549 163.024C175.811 163.225 176.442 163.249 177.258 163.104C176.736 162.848 176.176 162.676 175.598 162.596Z" fill="#90C4E1"/>
<path d="M177.55 163.225H177.514C177.01 163.013 175.967 162.184 176.028 161.756C176.028 161.662 176.103 161.546 176.335 161.516C177.244 161.409 177.627 163.024 177.641 163.118C177.645 163.136 177.643 163.152 177.637 163.168C177.632 163.184 177.623 163.198 177.611 163.209C177.593 163.221 177.571 163.226 177.55 163.225ZM176.42 161.692H176.359C176.265 161.692 176.208 161.731 176.204 161.777C176.174 162.022 176.889 162.681 177.409 162.967C177.293 162.571 176.98 161.692 176.42 161.692Z" fill="#90C4E1"/>
<path d="M150.525 52.3223L149.759 52.4127C149.759 52.4127 150.333 52.7996 150.525 52.3223Z" fill="#263238"/>
<path d="M174.363 158.54L182.544 158.334L182.075 155.826L173.137 156.249L174.363 158.54Z" fill="#90C4E1"/>
<path opacity="0.5" d="M174.363 158.54L182.544 158.334L182.075 155.826L173.137 156.249L174.363 158.54Z" fill="white"/>
<path d="M199.281 151.182L204.689 147.347L203.463 144.995L197.522 149.473L199.281 151.182Z" fill="#90C4E1"/>
<path opacity="0.5" d="M199.281 151.182L204.689 147.347L203.463 144.995L197.522 149.473L199.281 151.182Z" fill="white"/>
<path d="M169.873 84.9808L170.276 84.8501C170.358 84.825 170.408 84.7646 170.383 84.7194L169.647 83.0558C169.647 83.0055 169.545 82.9855 169.465 83.0105L169.06 83.1412C168.98 83.1665 168.93 83.2267 168.955 83.2719L169.686 84.9355C169.709 84.9627 169.738 84.9818 169.772 84.99C169.805 84.9982 169.841 84.995 169.873 84.9808Z" fill="#90C4E1"/>
<path d="M157.87 88.7803L158.273 88.6545C158.353 88.6245 158.4 88.5641 158.378 88.5188L157.642 86.8553C157.642 86.805 157.537 86.785 157.457 86.8102L157.052 86.9407C156.972 86.9407 156.926 87.0262 156.947 87.0714L157.683 88.735C157.703 88.7803 157.813 88.7803 157.87 88.7803Z" fill="#90C4E1"/>
<path d="M163.867 86.8704L164.269 86.7448C164.285 86.7444 164.302 86.7404 164.318 86.7331C164.332 86.7256 164.344 86.7151 164.355 86.702C164.366 86.689 164.373 86.6739 164.376 86.6578C164.38 86.6418 164.38 86.6251 164.375 86.6091L163.638 84.9454C163.638 84.9003 163.533 84.88 163.453 84.9053L163.054 85.0308C162.974 85.056 162.922 85.1164 162.943 85.1667L163.679 86.8302C163.703 86.8558 163.733 86.8736 163.767 86.8807C163.799 86.8879 163.835 86.8844 163.867 86.8704Z" fill="#90C4E1"/>
<path opacity="0.4" d="M169.873 84.9808L170.276 84.8501C170.358 84.825 170.408 84.7646 170.383 84.7194L169.647 83.0558C169.647 83.0055 169.545 82.9855 169.465 83.0105L169.06 83.1412C168.98 83.1665 168.93 83.2267 168.955 83.2719L169.686 84.9355C169.709 84.9627 169.738 84.9818 169.772 84.99C169.805 84.9982 169.841 84.995 169.873 84.9808Z" fill="black"/>
<path opacity="0.4" d="M157.87 88.7803L158.273 88.6545C158.353 88.6245 158.4 88.5641 158.378 88.5188L157.642 86.8553C157.642 86.805 157.537 86.785 157.457 86.8102L157.052 86.9407C156.972 86.9407 156.926 87.0262 156.947 87.0714L157.683 88.735C157.703 88.7803 157.813 88.7803 157.87 88.7803Z" fill="black"/>
<path opacity="0.4" d="M163.867 86.8704L164.269 86.7448C164.285 86.7444 164.302 86.7404 164.318 86.7331C164.332 86.7256 164.344 86.7151 164.355 86.702C164.366 86.689 164.373 86.6739 164.376 86.6578C164.38 86.6418 164.38 86.6251 164.375 86.6091L163.638 84.9454C163.638 84.9003 163.533 84.88 163.453 84.9053L163.054 85.0308C162.974 85.056 162.922 85.1164 162.943 85.1667L163.679 86.8302C163.703 86.8558 163.733 86.8736 163.767 86.8807C163.799 86.8879 163.835 86.8844 163.867 86.8704Z" fill="black"/>
<path d="M168.743 74.6221C167.316 72.6119 165.948 67.9328 166.301 66.1787L167.715 67.9076C168.027 70.6016 168.365 72.7576 168.743 74.6221Z" fill="#90C4E1"/>
<path opacity="0.5" d="M168.743 74.6221C167.316 72.6119 165.948 67.9328 166.301 66.1787L167.715 67.9076C168.027 70.6016 168.365 72.7576 168.743 74.6221Z" fill="white"/>
<path d="M167.028 60.6352C168.961 60.5498 172.759 65.2791 172.759 65.2791L168.814 70.8075C168.814 70.8075 164.385 67.2895 164.043 64.8419C163.751 62.8013 164.567 60.7657 167.028 60.6352Z" fill="#90C4E1"/>
<path opacity="0.6" d="M167.028 60.6352C168.961 60.5498 172.759 65.2791 172.759 65.2791L168.814 70.8075C168.814 70.8075 164.385 67.2895 164.043 64.8419C163.751 62.8013 164.567 60.7657 167.028 60.6352Z" fill="white"/>
<defs>
<filter id="filter0_d_345_24" x="0.861328" y="0.295044" width="253.496" height="252.65" filterUnits="userSpaceOnUse" color-interpolation-filters="sRGB">
<feFlood flood-opacity="0" result="BackgroundImageFix"/>
<feColorMatrix in="SourceAlpha" type="matrix" values="0 0 0 0 0 0 0 0 0 0 0 0 0 0 0 0 0 0 127 0" result="hardAlpha"/>
<feOffset/>
<feGaussianBlur stdDeviation="5"/>
<feComposite in2="hardAlpha" operator="out"/>
<feColorMatrix type="matrix" values="0 0 0 0 0.654167 0 0 0 0 0.654167 0 0 0 0 0.654167 0 0 0 0.25 0"/>
<feBlend mode="normal" in2="BackgroundImageFix" result="effect1_dropShadow_345_24"/>
<feBlend mode="normal" in="SourceGraphic" in2="effect1_dropShadow_345_24" result="shape"/>
</filter>
</defs>
</svg>
