<svg width="338" height="254" viewBox="0 0 338 254" fill="none" xmlns="http://www.w3.org/2000/svg">
<g filter="url(#filter0_d_345_31)">
<path d="M168.609 243.776C233.087 243.776 285.357 191.535 285.357 127.093C285.357 62.6506 233.087 10.4098 168.609 10.4098C104.131 10.4098 51.8613 62.6506 51.8613 127.093C51.8613 191.535 104.131 243.776 168.609 243.776Z" fill="white"/>
</g>
<path d="M329.419 112.554C328.653 111.601 327.129 111.426 325.218 110.456C323.306 109.487 321.021 110.834 321.021 110.834L321.782 111.398C320.653 111.398 316.627 112.926 316.627 112.926C316.627 112.926 316.818 111.708 316.982 110.575L318.725 111.967L319.29 110.445L321.01 110.823L322.341 109.132C323.033 108.718 323.831 108.522 324.637 108.568C326.159 108.568 326.926 108.376 327.879 108.376C328.911 108.472 329.933 108.661 330.931 108.94C330.478 108.267 329.904 107.684 329.239 107.22C328.296 106.541 327.15 106.205 325.99 106.268H322.177C321.6 106.298 321.026 106.362 320.457 106.459L326.756 104.159L328.286 103.968L325.63 102.621L326.756 102.429H319.871C319.871 102.429 319.306 101.093 319.871 100.738C320.434 100.382 319.871 100.174 321.208 99.6101C322.065 99.306 322.896 98.9289 323.689 98.4826C324.648 97.9188 325.792 97.1466 325.792 97.1466L320.828 97.5242L319.137 97.9076L318.753 96.1882L317.422 96.752L317.609 93.127L315.126 95.2242L314.563 95.9908L314.178 94.463L309.79 94.2715L312.65 95.7991L308.453 94.463H307.326L310 96.1543C310 96.1543 306.18 95.5907 305.036 95.7766L308.471 97.1127L306.558 97.8737L307.895 99.4015L308.46 100.738L306.36 99.6101L307.314 102.468L305.87 100.884L305.401 100.371L303.744 99.7341L302.92 99.4184L302.159 100.754L300.252 99.9877L300.817 101.115L299.288 101.307L297.766 101.69C299.113 101.511 300.478 101.851 301.583 102.643C303.275 103.949 304.699 105.569 305.779 107.412C305.925 107.808 306.114 108.187 306.344 108.54L301.758 105.682V106.634L299.09 105.682V106.634C298.639 106.637 298.188 106.702 297.753 106.826C297.19 107.018 296.226 108.162 296.226 108.162L295.272 109.853L296.643 109.165L297.562 108.709L301.758 109.092C302.045 109.29 302.373 109.42 302.717 109.47C303.432 109.684 304.132 109.94 304.815 110.237C304.815 110.237 299.277 110.8 298.707 110.8C298.136 110.8 297.753 111.184 297.179 111.567C296.603 111.95 295.65 113.856 295.65 113.856L298.707 112.728L300.997 112.345L300.432 113.298L303.106 112.537L305.018 112.153C304.81 112.571 304.679 113.024 304.635 113.489V115.034C303.681 115.136 302.728 115.209 302.728 115.209L307.501 116.161C307.501 116.161 304.827 116.725 304.065 116.922C302.489 117.205 300.888 117.333 299.288 117.306C297.19 117.306 296.619 118.433 296.619 118.433L298.527 118.242L296.429 119.578C296.37 120.944 296.111 122.295 295.661 123.586C295.199 124.873 295.135 126.27 295.475 127.594L297.381 123.969V125.3C297.381 125.3 298.91 123.011 299.48 122.633C300.049 122.255 303.681 120.344 303.298 121.297C302.915 122.25 303.106 122.425 303.106 123.203C303.189 123.926 303.38 124.633 303.671 125.3L304.432 124.539L305.56 128.164L305.943 126.472L306.704 124.753L307.269 126.85L307.46 124.945C307.583 124.263 307.843 123.613 308.223 123.033C308.786 122.272 310.897 119.409 310.897 119.409L311.46 121.32L311.798 120.869L312.419 123.8L312.035 125.491L310.506 123.011C310.403 124.791 310.403 126.575 310.506 128.355C310.699 130.261 310.506 130.075 310.891 131.219C311.137 132.086 311.267 132.983 311.274 133.886L311.838 131.98L312.221 131.219L312.413 137.324L314.105 134.652L315.058 132.172L315.442 135.03L316.395 132.555C316.395 132.555 316.778 134.461 316.96 133.886C317.14 133.31 317.343 135.013 317.151 131.027C316.96 127.042 317.343 126.258 316.768 125.114C316.192 123.969 315.64 122.441 315.64 122.441L314.347 123.811V120.835L315.476 121.523L316.429 117.898L317.557 119.42L318.516 120.187V119.059C318.516 119.059 319.645 120.581 320.038 121.156C320.543 122.147 320.988 123.165 321.375 124.206L321.76 122.876L323.452 125.164L324.411 126.856L325.539 124.759V126.478C325.539 126.478 327.446 122.47 327.23 121.134C326.819 119.069 325.748 117.194 324.179 115.789C322.545 114.318 320.491 115.367 319.937 115.699L321.315 114.837H323.006L321.878 113.145H323.006C323.006 113.145 325.104 113.331 325.865 113.331C326.628 113.331 328.161 115.62 328.161 115.62L327.885 113.331L330.558 115.243C330.348 114.284 329.963 113.372 329.419 112.554ZM308.611 112.745L309.948 114.081L309.182 114.273C309.182 114.273 307.082 114.651 306.13 114.837C305.786 114.904 305.245 114.972 304.692 115.034C304.984 114.47 305.995 112.582 307.275 111.787C308.804 110.829 309.756 110.259 309.756 110.259L310.321 112.165L311.28 113.123L308.611 112.745Z" fill="#263238"/>
<path d="M315.064 113.518H312.938V214.557H315.064V113.518Z" fill="#263238"/>
<path d="M39.8065 112.554C39.045 111.601 37.5164 111.426 35.61 110.456C33.7033 109.487 31.4078 110.834 31.4078 110.834L32.1747 111.398C31.0467 111.398 27.0193 112.926 27.0193 112.926C27.0193 112.926 27.2111 111.708 27.3747 110.575L29.1176 111.967L29.6817 110.445L31.3739 110.823L32.7107 109.132C33.4003 108.719 34.1981 108.523 35.0007 108.568C36.5293 108.568 37.2965 108.376 38.2497 108.376C39.2817 108.472 40.3029 108.661 41.3012 108.94C40.8483 108.267 40.2745 107.684 39.609 107.22C38.667 106.541 37.5202 106.204 36.36 106.268H32.5414C31.9742 106.299 31.4092 106.363 30.8493 106.459L37.1498 104.171L38.6727 103.979L35.9934 102.62L37.1216 102.429H30.2628C30.2628 102.429 29.6986 101.093 30.2628 100.738C30.8267 100.382 30.2628 100.174 31.5996 99.6101C32.4576 99.306 33.2879 98.9287 34.0814 98.4826C35.0346 97.9188 36.1796 97.1466 36.1796 97.1466L31.2215 97.5242L29.5295 97.9076L29.1459 96.1882L27.8091 96.7518L28.0009 93.127L25.5191 95.224L24.9549 95.9908L24.5713 94.463L20.1831 94.2713L23.0428 95.7991L18.8463 94.463H17.6561L20.324 96.1543C20.324 96.1543 16.5111 95.5905 15.3661 95.7766L18.8012 97.1127L16.889 97.8737L18.2201 99.3901L18.7842 100.726L16.6803 99.5987L17.6392 102.457L16.1951 100.873L15.727 100.36L14.063 99.7229L13.2452 99.407L12.4838 100.743L10.5716 99.9765L11.1356 101.104L9.60696 101.296L8.08408 101.679C9.44156 101.486 10.8213 101.823 11.9366 102.62C13.6309 103.926 15.0577 105.545 16.1388 107.39C16.284 107.785 16.4732 108.164 16.7029 108.517L12.1227 105.659V106.612L9.44904 105.659V106.612C8.99881 106.615 8.55089 106.679 8.11794 106.803C7.55381 106.995 6.58935 108.139 6.58935 108.139L5.63612 109.831L7.00679 109.143L7.92616 108.686L12.1227 109.07C12.4073 109.267 12.7335 109.396 13.0759 109.447C13.7919 109.661 14.4943 109.917 15.1798 110.214C15.1798 110.214 9.64083 110.778 9.07117 110.778C8.50151 110.778 8.11794 111.161 7.54258 111.544C6.96722 111.928 6.01969 113.895 6.01969 113.895L9.07688 112.768L11.3669 112.384L10.8028 113.337L13.4764 112.576L15.3886 112.193C15.1791 112.611 15.049 113.064 15.005 113.529V115.073C14.0518 115.175 13.0928 115.248 13.0928 115.248L17.8704 116.201C17.8704 116.201 15.1968 116.765 14.4296 116.962C12.8554 117.245 11.2571 117.373 9.65776 117.345C7.55951 117.345 6.98415 118.473 6.98415 118.473L8.89632 118.281L6.79807 119.617C6.74032 120.984 6.48187 122.334 6.03092 123.625C5.56945 124.913 5.50262 126.308 5.83913 127.634L7.7513 124.009V125.339C7.7513 125.339 9.27989 123.05 9.84955 122.673C10.4192 122.295 14.0518 120.384 13.6682 121.337C13.2846 122.289 13.4764 122.464 13.4764 123.242C13.5593 123.965 13.7493 124.672 14.0405 125.339L14.802 124.578L15.9301 128.203L16.3136 126.512L17.092 124.764L17.6561 126.861L17.8479 124.956C17.9684 124.273 18.2276 123.623 18.6094 123.045C19.1733 122.284 21.283 119.42 21.283 119.42L21.8469 121.331L22.1854 120.88L22.8002 123.811L22.4223 125.503L20.8937 123.022C20.7905 124.802 20.7905 126.586 20.8937 128.366C21.0855 130.272 20.8937 130.086 21.2773 131.23C21.5213 132.098 21.6484 132.995 21.6551 133.897L22.2193 131.991L22.6029 131.23L22.7889 137.336L24.4812 134.663L25.4344 132.183L25.818 135.041L26.7712 132.566C26.7712 132.566 27.1548 134.472 27.3351 133.897C27.5157 133.322 27.7132 135.024 27.5269 131.039C27.3408 127.053 27.8091 126.298 27.2111 125.17C26.6133 124.043 26.083 122.498 26.083 122.498L24.7462 123.834V120.857L25.8743 121.545L26.8275 117.92L27.9558 119.442L28.9372 120.187V119.059C28.9372 119.059 30.0653 120.581 30.4658 121.156C30.9686 122.147 31.4149 123.165 31.8026 124.206L32.1861 122.876L33.8782 125.164L34.8371 126.856L35.9652 124.759V126.478C35.9652 126.478 37.8717 122.47 37.6574 121.134C37.2427 119.07 36.1725 117.196 34.6059 115.789C32.9701 114.318 30.9169 115.367 30.3642 115.699L31.7405 114.837H33.4326L32.3045 113.145H33.4326C33.4326 113.145 35.531 113.331 36.2925 113.331C37.0539 113.331 38.5825 115.62 38.5825 115.62L38.2046 113.331L40.8782 115.243C40.6898 114.288 40.3264 113.376 39.8065 112.554ZM19.0042 112.768L20.3353 114.104L19.5738 114.295C19.5738 114.295 17.4756 114.673 16.5223 114.859C16.1783 114.927 15.6368 114.994 15.0839 115.057C15.3773 114.493 16.3869 112.604 17.6674 111.809C19.1903 110.851 20.1492 110.282 20.1492 110.282L20.7133 112.187L21.6666 113.145L19.0042 112.768Z" fill="#263238"/>
<path d="M25.457 113.518H23.3306V214.557H25.457V113.518Z" fill="#263238"/>
<path d="M247.981 132.499C247.293 131.642 245.923 131.473 244.208 130.616C242.493 129.759 240.435 130.96 240.435 130.96L241.123 131.473C240.096 131.473 236.492 132.843 236.492 132.843C236.492 132.843 236.667 131.749 236.813 130.734L238.381 131.986L238.895 130.616L240.435 130.96L241.636 129.415C242.256 129.043 242.973 128.864 243.695 128.902C245.065 128.902 245.753 128.733 246.611 128.733C247.537 128.822 248.455 128.994 249.352 129.246C248.938 128.639 248.414 128.115 247.807 127.701C246.963 127.089 245.937 126.786 244.896 126.845H241.467C240.948 126.872 240.433 126.931 239.921 127.019L245.561 124.962L246.931 124.787L244.536 123.592L245.561 123.417H239.408C239.408 123.417 238.895 122.222 239.408 121.878C239.921 121.534 239.408 121.365 240.609 120.846C241.39 120.573 242.146 120.229 242.866 119.82C243.723 119.307 244.75 118.62 244.75 118.62L240.294 118.963L238.748 119.307L238.41 117.763L237.208 118.276L237.378 115.023L235.15 116.906L234.636 117.594L234.292 116.224L230.343 116.049L232.916 117.424L229.141 116.224H228.115L230.512 117.763C230.512 117.763 227.09 117.25 226.056 117.424L229.141 118.62L227.45 119.307L228.612 120.66L229.125 121.861L227.241 120.829L228.099 123.4L226.801 121.98L226.384 121.517L224.888 120.953L224.156 120.672L223.468 121.872L221.776 121.185L222.295 122.216L220.919 122.385L219.548 122.729C220.757 122.572 221.981 122.88 222.971 123.592C224.494 124.763 225.776 126.218 226.744 127.876C226.876 128.237 227.047 128.581 227.257 128.902L223.14 126.332V127.188L220.716 126.332V127.188C220.309 127.191 219.905 127.248 219.514 127.357C218.989 127.674 218.525 128.08 218.144 128.558L217.286 130.103L218.522 129.483L219.345 129.071L223.113 129.415C223.368 129.594 223.66 129.712 223.97 129.759C224.612 129.949 225.243 130.176 225.86 130.441C225.86 130.441 220.885 130.96 220.372 130.96C219.858 130.96 219.514 131.298 219.001 131.642C218.488 131.986 217.63 133.7 217.63 133.7L220.372 132.674L222.43 132.33L221.917 133.187L224.314 132.499L226.006 132.155C225.817 132.53 225.701 132.938 225.662 133.356V134.754C224.81 134.844 223.97 134.912 223.97 134.912L228.257 135.769C228.257 135.769 225.86 136.282 225.172 136.451C223.757 136.706 222.322 136.821 220.885 136.795C219.001 136.795 218.488 137.821 218.488 137.821L220.179 137.651L218.29 138.852C218.238 140.078 218.008 141.289 217.607 142.449C217.19 143.603 217.13 144.856 217.433 146.045L219.124 142.793V143.994C219.124 143.994 220.5 141.936 221.013 141.592C221.527 141.248 224.781 139.534 224.443 140.391C224.104 141.248 224.268 141.423 224.268 142.083C224.347 142.734 224.519 143.37 224.781 143.971L225.469 143.283L226.496 146.542L226.84 144.997L227.528 143.452L228.041 145.341L228.211 143.65C228.327 143.046 228.56 142.471 228.899 141.958C229.412 141.271 231.296 138.7 231.296 138.7L231.815 140.391L232.114 139.991L232.679 142.624L232.335 144.163L230.965 141.936C230.87 143.534 230.87 145.136 230.965 146.733C231.134 148.425 230.965 148.278 231.301 149.304C231.524 150.083 231.64 150.889 231.645 151.7L232.159 150.009L232.505 149.327L232.679 154.812L234.219 152.411L235.077 150.183L235.421 152.754L236.278 150.527C236.278 150.527 236.622 152.218 236.791 151.723C236.961 151.226 237.135 152.754 236.961 149.157C236.784 145.561 237.135 144.873 236.622 143.841C236.109 142.81 235.59 141.446 235.59 141.446L234.394 142.646V139.969L235.421 140.589L236.278 137.33L237.305 138.7L238.162 139.388V138.362C238.162 138.362 239.194 139.732 239.533 140.245C239.984 141.135 240.385 142.05 240.734 142.984L241.078 141.789L242.618 143.841L243.475 145.386L244.507 143.498V145.042C244.507 145.042 246.199 141.446 246.047 140.245C245.677 138.391 244.716 136.707 243.306 135.447C241.834 134.122 239.994 135.07 239.492 135.363L240.734 134.59H242.279L241.247 133.046H242.279C242.279 133.046 244.163 133.221 244.851 133.221C245.539 133.221 246.905 135.278 246.905 135.278L246.566 133.221L248.963 134.912C248.785 134.054 248.454 133.237 247.981 132.499ZM229.294 132.674L230.49 133.869L229.808 134.044C229.808 134.044 227.924 134.387 227.066 134.557C226.756 134.619 226.272 134.681 225.774 134.731C226.04 134.207 226.942 132.533 228.093 131.817C229.464 130.96 230.321 130.441 230.321 130.441L230.834 132.132L231.692 132.989L229.294 132.674Z" fill="#263238"/>
<path d="M235.092 133.367H233.182V214.562H235.092V133.367Z" fill="#263238"/>
<path d="M240.385 59.907C240.385 68.5548 235.027 76.9661 229.874 83.5435C226.571 87.7654 220.618 95.4676 214.541 95.4676C209.046 95.4676 203.745 88.393 200.776 84.5867C195.158 77.3899 189.106 67.8456 189.106 58.3748C189.106 44.8205 201.339 35.3496 214.541 35.3496C227.745 35.3496 240.385 46.3527 240.385 59.907Z" fill="white" stroke="#263238" stroke-width="0.3" stroke-miterlimit="10"/>
<path d="M233.282 59.907C233.282 68.5548 229.407 76.9661 225.68 83.5435C223.291 87.7654 218.985 95.4676 214.598 95.4676C210.625 95.4676 206.793 88.393 204.64 84.5867C200.564 77.3899 196.208 67.8456 196.208 58.3748C196.208 44.8205 205.048 35.3496 214.598 35.3496C224.147 35.3496 233.282 46.3527 233.282 59.907Z" fill="#90C4E1" stroke="#263238" stroke-width="0.3" stroke-miterlimit="10"/>
<path d="M223.585 59.907C223.585 68.5548 221.742 76.9661 219.965 83.5435C218.825 87.7654 216.77 95.4676 214.681 95.4676C212.781 95.4676 210.954 88.393 209.927 84.5867C207.995 77.3899 205.906 67.8456 205.906 58.3748C205.906 44.8205 210.123 35.3496 214.681 35.3496C219.24 35.3496 223.585 46.3527 223.585 59.907Z" fill="white" stroke="#263238" stroke-width="0.3" stroke-miterlimit="10"/>
<path d="M222.134 91.7427H207.365L209.436 100.888H220.528L222.134 91.7427Z" fill="white" stroke="#263238" stroke-width="0.3" stroke-miterlimit="10"/>
<path d="M220.145 105.329H209.804V115.232H220.145V105.329Z" fill="#263238" stroke="#263238" stroke-miterlimit="10"/>
<path d="M209.438 100.888L209.806 105.33" stroke="#263238" stroke-width="0.3" stroke-miterlimit="10"/>
<path d="M220.529 100.888L220.146 105.33" stroke="#263238" stroke-width="0.3" stroke-miterlimit="10"/>
<path d="M211.092 100.814V105.117" stroke="#263238" stroke-width="0.3" stroke-miterlimit="10"/>
<path d="M218.634 101.026V105.118" stroke="#263238" stroke-width="0.3" stroke-miterlimit="10"/>
<path d="M280.877 127.932H258.693V139.027H280.877V127.932Z" fill="white" stroke="#263238" stroke-miterlimit="10"/>
<path d="M292.463 130.526H247.119V142.325H292.463V130.526Z" fill="white" stroke="#263238" stroke-miterlimit="10"/>
<path d="M295.288 140.391H244.286V147.049H295.288V140.391Z" fill="white" stroke="#263238" stroke-miterlimit="10"/>
<path d="M240.914 153.137V214.586H260.977V174.149C260.977 169.689 264.925 166.07 269.787 166.07C274.65 166.07 278.598 169.689 278.598 174.149V214.563H298.662V153.116L240.914 153.137Z" fill="white" stroke="#263238" stroke-miterlimit="10"/>
<path d="M298.662 144.879H240.914V151.536H298.662V144.879Z" fill="white" stroke="#263238" stroke-miterlimit="10"/>
<path d="M299.694 153.656H239.368L236.684 150.775H302.378L299.694 153.656Z" fill="white" stroke="#263238" stroke-miterlimit="10"/>
<path d="M241.725 157.117H297.579" stroke="#263238" stroke-miterlimit="10"/>
<path d="M255.278 214.563V159.107" stroke="#263238" stroke-miterlimit="10"/>
<path d="M284.023 161.982V159.107" stroke="#263238" stroke-miterlimit="10"/>
<path d="M284.023 214.562V164.18" stroke="#263238" stroke-miterlimit="10"/>
<path d="M261.511 177.26H255.218V178.754H261.511V177.26Z" fill="white" stroke="#263238" stroke-miterlimit="10"/>
<path d="M284.098 177.26H277.803V178.754H284.098V177.26Z" fill="white" stroke="#263238" stroke-miterlimit="10"/>
<path d="M285.018 135.955C285.068 136.473 284.963 136.994 284.711 137.45C284.46 137.906 284.078 138.276 283.613 138.512C283.15 138.747 282.624 138.836 282.107 138.768C281.592 138.7 281.107 138.477 280.72 138.129C280.334 137.782 280.059 137.325 279.936 136.819C279.813 136.314 279.845 135.783 280.029 135.296C280.214 134.809 280.54 134.389 280.968 134.091C281.394 133.793 281.902 133.631 282.423 133.626C283.075 133.593 283.715 133.819 284.201 134.255C284.688 134.691 284.98 135.303 285.018 135.955Z" fill="white" stroke="#263238" stroke-miterlimit="10"/>
<path d="M293.575 164.12C293.62 164.638 293.506 165.156 293.249 165.609C292.994 166.063 292.607 166.427 292.139 166.656C291.672 166.886 291.148 166.968 290.632 166.895C290.117 166.82 289.636 166.592 289.253 166.239C288.87 165.889 288.602 165.429 288.485 164.923C288.367 164.415 288.404 163.884 288.593 163.4C288.782 162.915 289.114 162.5 289.543 162.206C289.975 161.912 290.483 161.757 291.003 161.757C291.657 161.731 292.294 161.964 292.777 162.408C293.258 162.849 293.545 163.466 293.575 164.12Z" fill="white" stroke="#263238" stroke-miterlimit="10"/>
<path d="M250.863 164.12C250.908 164.638 250.795 165.156 250.539 165.609C250.282 166.063 249.895 166.427 249.428 166.656C248.961 166.886 248.436 166.968 247.92 166.895C247.405 166.82 246.926 166.592 246.543 166.239C246.159 165.889 245.89 165.429 245.773 164.923C245.655 164.415 245.694 163.884 245.883 163.4C246.072 162.915 246.404 162.5 246.833 162.206C247.263 161.912 247.771 161.757 248.291 161.757C248.945 161.731 249.583 161.964 250.065 162.408C250.548 162.849 250.835 163.466 250.863 164.12Z" fill="white" stroke="#263238" stroke-miterlimit="10"/>
<path d="M260.041 135.955C260.087 136.473 259.975 136.993 259.718 137.446C259.463 137.9 259.077 138.266 258.61 138.496C258.143 138.726 257.617 138.81 257.102 138.736C256.587 138.663 256.105 138.435 255.722 138.083C255.337 137.732 255.07 137.273 254.952 136.766C254.833 136.259 254.872 135.728 255.061 135.243C255.25 134.759 255.58 134.342 256.009 134.048C256.44 133.755 256.948 133.598 257.469 133.598C258.121 133.572 258.759 133.805 259.241 134.247C259.722 134.688 260.011 135.302 260.041 135.955Z" fill="white" stroke="#263238" stroke-miterlimit="10"/>
<path d="M279.851 133.361H260.041V138.08H279.851V133.361Z" fill="white" stroke="#263238" stroke-miterlimit="10"/>
<path d="M274.159 125.807C274.159 126.72 272.202 127.459 269.789 127.459C267.374 127.459 265.417 126.72 265.417 125.807C265.417 124.894 267.374 124.156 269.789 124.156C272.202 124.156 274.159 124.894 274.159 125.807Z" fill="white" stroke="#263238" stroke-miterlimit="10"/>
<path d="M262.105 127.933L265.196 125.807H274.238L278.355 127.933H262.105Z" fill="white" stroke="#263238" stroke-miterlimit="10"/>
<path d="M255.923 190H239.712V191.652H255.923V190Z" fill="white" stroke="#263238" stroke-miterlimit="10"/>
<path d="M255.923 177.022H239.712V178.674H255.923V177.022Z" fill="white" stroke="#263238" stroke-miterlimit="10"/>
<path d="M299.666 190H283.455V191.652H299.666V190Z" fill="white" stroke="#263238" stroke-miterlimit="10"/>
<path d="M299.666 177.022H283.455V178.674H299.666V177.022Z" fill="white" stroke="#263238" stroke-miterlimit="10"/>
<path d="M243.57 189.295V178.911" stroke="#263238" stroke-miterlimit="10"/>
<path d="M243.57 176.549V168.759" stroke="#263238" stroke-miterlimit="10"/>
<path d="M243.57 211.242V192.125" stroke="#263238" stroke-miterlimit="10"/>
<path d="M296.06 189.295V178.911" stroke="#263238" stroke-miterlimit="10"/>
<path d="M296.06 176.549V168.759" stroke="#263238" stroke-miterlimit="10"/>
<path d="M296.06 211.242V192.125" stroke="#263238" stroke-miterlimit="10"/>
<path d="M286.285 189.295V178.911" stroke="#263238" stroke-miterlimit="10"/>
<path d="M286.285 176.549V168.759" stroke="#263238" stroke-miterlimit="10"/>
<path d="M286.285 205.874V192.125" stroke="#263238" stroke-miterlimit="10"/>
<path d="M286.285 211.242V208.067" stroke="#263238" stroke-miterlimit="10"/>
<path d="M253.35 189.295V178.911" stroke="#263238" stroke-miterlimit="10"/>
<path d="M253.35 176.549V168.759" stroke="#263238" stroke-miterlimit="10"/>
<path d="M253.35 211.242V192.125" stroke="#263238" stroke-miterlimit="10"/>
<path d="M253.345 168.759H243.57V169.699H253.345V168.759Z" fill="white" stroke="#263238" stroke-miterlimit="10"/>
<path d="M296.067 168.759H286.291V169.699H296.067V168.759Z" fill="white" stroke="#263238" stroke-miterlimit="10"/>
<path d="M107.482 144.135H61.1509V162.953H107.482V144.135Z" fill="white" stroke="#263238" stroke-miterlimit="10"/>
<path d="M57.6582 156.109H22.1172V167.13H57.6582V156.109Z" fill="white" stroke="#263238" stroke-miterlimit="10"/>
<path d="M146.515 156.109H110.974V167.13H146.515V156.109Z" fill="white" stroke="#263238" stroke-miterlimit="10"/>
<path d="M57.6582 159.44H22.1172V170.462H57.6582V159.44Z" fill="white" stroke="#263238" stroke-miterlimit="10"/>
<path d="M146.515 159.44H110.974V170.462H146.515V159.44Z" fill="white" stroke="#263238" stroke-miterlimit="10"/>
<path d="M147.941 158.567H21.0859V159.518H147.941V158.567Z" fill="white" stroke="#263238" stroke-miterlimit="10"/>
<path d="M20.1484 171.465L21.4852 176.488V214.231H32.9411V195.391H46.9578V214.231H67.7376V171.595H101.259V214.231H122.964V195.391H135.492V214.231H146.835V175.535L148.104 171.465H20.1484Z" fill="white" stroke="#263238" stroke-miterlimit="10"/>
<path d="M28.7856 177.441V214.242H32.9428V195.391H46.9594V214.242H50.654V177.441H28.7856Z" fill="white" stroke="#263238" stroke-miterlimit="10"/>
<path d="M22.8579 176.087H56.1822" stroke="#263238" stroke-miterlimit="10"/>
<path d="M25.2421 171.415H23.8149V175.946H25.2421V171.415Z" fill="white" stroke="#263238" stroke-miterlimit="10"/>
<path d="M29.5242 171.415H28.0972V175.946H29.5242V171.415Z" fill="white" stroke="#263238" stroke-miterlimit="10"/>
<path d="M33.7992 171.415H32.3721V175.946H33.7992V171.415Z" fill="white" stroke="#263238" stroke-miterlimit="10"/>
<path d="M38.0813 171.415H36.6543V175.946H38.0813V171.415Z" fill="white" stroke="#263238" stroke-miterlimit="10"/>
<path d="M42.3572 171.415H40.9302V175.946H42.3572V171.415Z" fill="white" stroke="#263238" stroke-miterlimit="10"/>
<path d="M46.6323 171.415H45.2051V175.946H46.6323V171.415Z" fill="white" stroke="#263238" stroke-miterlimit="10"/>
<path d="M50.9128 171.415H49.4858V175.946H50.9128V171.415Z" fill="white" stroke="#263238" stroke-miterlimit="10"/>
<path d="M55.1879 171.415H53.7607V175.946H55.1879V171.415Z" fill="white" stroke="#263238" stroke-miterlimit="10"/>
<path d="M31.7183 194.392V214.326H35.379V204.562H35.8697V203.108C35.8697 200.238 37.6916 196.67 39.9421 196.67C42.1928 196.67 44.0147 200.238 44.0147 203.108V204.562H44.4997V214.326H48.1661V194.392C48.1661 189.854 44.4828 181.065 39.9421 181.065C35.3959 181.065 31.7183 189.854 31.7183 194.392Z" fill="white" stroke="#263238" stroke-miterlimit="10"/>
<path d="M117.957 177.441V214.242H122.965V195.391H135.493V214.242H139.831V177.441H117.957Z" fill="white" stroke="#263238" stroke-miterlimit="10"/>
<path d="M112.034 176.087H145.353" stroke="#263238" stroke-miterlimit="10"/>
<path d="M114.414 171.415H112.987V175.946H114.414V171.415Z" fill="white" stroke="#263238" stroke-miterlimit="10"/>
<path d="M118.695 171.415H117.268V175.946H118.695V171.415Z" fill="white" stroke="#263238" stroke-miterlimit="10"/>
<path d="M122.97 171.415H121.543V175.946H122.97V171.415Z" fill="white" stroke="#263238" stroke-miterlimit="10"/>
<path d="M127.253 171.415H125.826V175.946H127.253V171.415Z" fill="white" stroke="#263238" stroke-miterlimit="10"/>
<path d="M131.527 171.415H130.1V175.946H131.527V171.415Z" fill="white" stroke="#263238" stroke-miterlimit="10"/>
<path d="M135.809 171.415H134.382V175.946H135.809V171.415Z" fill="white" stroke="#263238" stroke-miterlimit="10"/>
<path d="M140.085 171.415H138.658V175.946H140.085V171.415Z" fill="white" stroke="#263238" stroke-miterlimit="10"/>
<path d="M144.365 171.415H142.938V175.946H144.365V171.415Z" fill="white" stroke="#263238" stroke-miterlimit="10"/>
<path d="M60.1406 162.777V214.326H70.8577V191.995H72.2847V188.67C72.2847 182.114 77.6038 173.944 84.1637 173.944C90.7235 173.944 96.0483 182.114 96.0483 188.67V191.995H97.4753V214.326H108.192V162.777H60.1406Z" fill="white" stroke="#263238" stroke-miterlimit="10"/>
<path d="M120.878 194.392V214.326H124.544V204.562H125.029V203.108C125.029 200.238 126.851 196.67 129.102 196.67C131.352 196.67 133.174 200.238 133.174 203.108V204.562H133.659V214.326H137.326V194.392C137.326 189.854 133.642 181.065 129.102 181.065C124.573 181.065 120.878 189.854 120.878 194.392Z" fill="white" stroke="#263238" stroke-miterlimit="10"/>
<path d="M64.8007 139.061C64.3494 136.609 62.4993 132.167 60.2882 132.167C58.0771 132.167 56.2103 136.609 55.7759 139.061H64.8007Z" fill="white" stroke="#263238" stroke-miterlimit="10"/>
<path d="M64.5242 203.08H56.0239L56.8757 139.49H63.6783L64.5242 203.08Z" fill="white" stroke="#263238" stroke-miterlimit="10"/>
<path d="M62.4416 203.08H58.1099L58.5441 139.49H62.0075L62.4416 203.08Z" fill="white" stroke="#263238" stroke-miterlimit="10"/>
<path d="M55.9097 203.079C55.9097 203.079 55.2217 208.819 52.4634 212.263H68.0876C65.3293 208.819 64.6413 203.079 64.6413 203.079H55.9097Z" fill="white" stroke="#263238" stroke-miterlimit="10"/>
<path d="M68.3197 212.263H52.2329V214.557H68.3197V212.263Z" fill="white" stroke="#263238" stroke-miterlimit="10"/>
<path d="M56.0073 175.84H64.547" stroke="#263238" stroke-miterlimit="10"/>
<path d="M56.0073 181.268H64.547" stroke="#263238" stroke-miterlimit="10"/>
<path d="M56.0073 186.698H64.547" stroke="#263238" stroke-miterlimit="10"/>
<path d="M56.0073 192.125H64.547" stroke="#263238" stroke-miterlimit="10"/>
<path d="M56.0073 197.555H64.547" stroke="#263238" stroke-miterlimit="10"/>
<path d="M65.0315 138.379H55.5215V140.256H65.0315V138.379Z" fill="white" stroke="#263238" stroke-miterlimit="10"/>
<path d="M60.93 141.536H59.3901V145.381H60.93V141.536Z" fill="white" stroke="#263238" stroke-miterlimit="10"/>
<path d="M63.3841 141.536H62.7129V145.381H63.3841V141.536Z" fill="white" stroke="#263238" stroke-miterlimit="10"/>
<path d="M57.9012 141.536H57.23V145.381H57.9012V141.536Z" fill="white" stroke="#263238" stroke-miterlimit="10"/>
<path d="M60.2197 132.178V127.442" stroke="#263238" stroke-miterlimit="10"/>
<path d="M61.0209 131.371C61.0209 131.213 60.9739 131.058 60.8858 130.927C60.798 130.795 60.6728 130.692 60.5265 130.632C60.3802 130.571 60.219 130.555 60.0636 130.586C59.9084 130.617 59.7656 130.693 59.6535 130.805C59.5415 130.917 59.4652 131.06 59.4344 131.215C59.4034 131.37 59.4193 131.531 59.4799 131.678C59.5405 131.824 59.6431 131.949 59.7749 132.037C59.9066 132.125 60.0615 132.172 60.2199 132.172C60.3253 132.172 60.4299 132.152 60.5274 132.112C60.6249 132.072 60.7135 132.014 60.788 131.939C60.8625 131.864 60.9215 131.776 60.9614 131.679C61.0015 131.581 61.0216 131.477 61.0209 131.371Z" fill="white" stroke="#263238" stroke-miterlimit="10"/>
<path d="M60.6651 129.776C60.6651 129.658 60.6181 129.545 60.5345 129.461C60.4509 129.378 60.3377 129.331 60.2195 129.331C60.1014 129.331 59.988 129.378 59.9044 129.461C59.8208 129.545 59.7739 129.658 59.7739 129.776C59.7739 129.894 59.8208 130.008 59.9044 130.091C59.988 130.175 60.1014 130.222 60.2195 130.222C60.3377 130.222 60.4509 130.175 60.5345 130.091C60.6181 130.008 60.6651 129.894 60.6651 129.776Z" fill="white" stroke="#263238" stroke-miterlimit="10"/>
<path d="M56.3667 137.24H64.1733" stroke="#263238" stroke-miterlimit="10"/>
<path d="M56.6201 136.096H63.9191" stroke="#263238" stroke-miterlimit="10"/>
<path d="M57.0776 135.059H63.4626" stroke="#263238" stroke-miterlimit="10"/>
<path d="M57.7651 134.027H62.7739" stroke="#263238" stroke-miterlimit="10"/>
<path d="M58.2847 133.226H62.2557" stroke="#263238" stroke-miterlimit="10"/>
<path d="M113.05 139.061C112.605 136.609 110.749 132.167 108.538 132.167C106.327 132.167 104.46 136.609 104.025 139.061H113.05Z" fill="white" stroke="#263238" stroke-miterlimit="10"/>
<path d="M112.779 203.08H104.278L105.13 139.49H111.933L112.779 203.08Z" fill="white" stroke="#263238" stroke-miterlimit="10"/>
<path d="M110.691 203.08H106.365L106.799 139.49H110.262L110.691 203.08Z" fill="white" stroke="#263238" stroke-miterlimit="10"/>
<path d="M104.166 203.079C104.166 203.079 103.472 208.819 100.714 212.263H116.366C113.608 208.819 112.92 203.079 112.92 203.079H104.166Z" fill="white" stroke="#263238" stroke-miterlimit="10"/>
<path d="M116.575 212.263H100.488V214.557H116.575V212.263Z" fill="white" stroke="#263238" stroke-miterlimit="10"/>
<path d="M104.261 175.84H112.801" stroke="#263238" stroke-miterlimit="10"/>
<path d="M104.261 181.268H112.801" stroke="#263238" stroke-miterlimit="10"/>
<path d="M104.261 186.698H112.801" stroke="#263238" stroke-miterlimit="10"/>
<path d="M104.261 192.125H112.801" stroke="#263238" stroke-miterlimit="10"/>
<path d="M104.261 197.555H112.801" stroke="#263238" stroke-miterlimit="10"/>
<path d="M113.285 138.379H103.775V140.256H113.285V138.379Z" fill="white" stroke="#263238" stroke-miterlimit="10"/>
<path d="M109.186 141.536H107.646V145.381H109.186V141.536Z" fill="white" stroke="#263238" stroke-miterlimit="10"/>
<path d="M111.639 141.536H110.968V145.381H111.639V141.536Z" fill="white" stroke="#263238" stroke-miterlimit="10"/>
<path d="M106.157 141.536H105.485V145.381H106.157V141.536Z" fill="white" stroke="#263238" stroke-miterlimit="10"/>
<path d="M108.474 132.178V127.442" stroke="#263238" stroke-miterlimit="10"/>
<path d="M108.475 132.178C108.917 132.178 109.276 131.819 109.276 131.377C109.276 130.935 108.917 130.577 108.475 130.577C108.032 130.577 107.674 130.935 107.674 131.377C107.674 131.819 108.032 132.178 108.475 132.178Z" fill="white" stroke="#263238" stroke-miterlimit="10"/>
<path d="M108.919 129.776C108.919 129.688 108.893 129.602 108.844 129.529C108.795 129.455 108.725 129.398 108.644 129.365C108.563 129.331 108.473 129.322 108.386 129.339C108.3 129.357 108.221 129.399 108.158 129.461C108.096 129.524 108.054 129.603 108.036 129.689C108.019 129.776 108.028 129.865 108.062 129.947C108.096 130.028 108.153 130.098 108.226 130.146C108.299 130.195 108.385 130.221 108.473 130.221C108.592 130.221 108.705 130.175 108.789 130.091C108.872 130.008 108.919 129.894 108.919 129.776Z" fill="white" stroke="#263238" stroke-miterlimit="10"/>
<path d="M104.623 137.24H112.429" stroke="#263238" stroke-miterlimit="10"/>
<path d="M104.876 136.096H112.175" stroke="#263238" stroke-miterlimit="10"/>
<path d="M105.332 135.059H111.717" stroke="#263238" stroke-miterlimit="10"/>
<path d="M106.021 134.027H111.03" stroke="#263238" stroke-miterlimit="10"/>
<path d="M106.539 133.226H110.509" stroke="#263238" stroke-miterlimit="10"/>
<path d="M67.5024 171.099H100.821" stroke="#263238" stroke-miterlimit="10"/>
<path d="M69.8826 163.258H68.4556V170.855H69.8826V163.258Z" fill="white" stroke="#263238" stroke-miterlimit="10"/>
<path d="M74.1633 163.258H72.7363V170.855H74.1633V163.258Z" fill="white" stroke="#263238" stroke-miterlimit="10"/>
<path d="M78.4394 163.258H77.0122V170.855H78.4394V163.258Z" fill="white" stroke="#263238" stroke-miterlimit="10"/>
<path d="M82.7195 163.258H81.2925V170.855H82.7195V163.258Z" fill="white" stroke="#263238" stroke-miterlimit="10"/>
<path d="M86.9955 163.258H85.5684V170.855H86.9955V163.258Z" fill="white" stroke="#263238" stroke-miterlimit="10"/>
<path d="M91.2766 163.258H89.8496V170.855H91.2766V163.258Z" fill="white" stroke="#263238" stroke-miterlimit="10"/>
<path d="M95.5525 163.258H94.1255V170.855H95.5525V163.258Z" fill="white" stroke="#263238" stroke-miterlimit="10"/>
<path d="M99.8337 163.258H98.4067V170.855H99.8337V163.258Z" fill="white" stroke="#263238" stroke-miterlimit="10"/>
<path d="M20.5342 162.276L21.4874 164.023H146.623L148.05 162.276H20.5342Z" fill="white" stroke="#263238" stroke-miterlimit="10"/>
<path d="M114.222 148.955H54.585V150.702H114.222V148.955Z" fill="white" stroke="#263238" stroke-miterlimit="10"/>
<path d="M148.105 171.465H102.834V169.712H148.579L148.105 171.465Z" fill="white" stroke="#263238" stroke-miterlimit="10"/>
<path d="M20.1492 171.465H66.3677V169.712H19.6699L20.1492 171.465Z" fill="white" stroke="#263238" stroke-miterlimit="10"/>
<path d="M122.559 191.529H135.458" stroke="#263238" stroke-miterlimit="10"/>
<path d="M123.84 186.364V190.919" stroke="#263238" stroke-miterlimit="10"/>
<path d="M125.577 183.952V190.92" stroke="#263238" stroke-miterlimit="10"/>
<path d="M127.313 182.374V190.92" stroke="#263238" stroke-miterlimit="10"/>
<path d="M129.046 182.187V190.92" stroke="#263238" stroke-miterlimit="10"/>
<path d="M130.782 182.374V190.92" stroke="#263238" stroke-miterlimit="10"/>
<path d="M132.52 183.952V190.92" stroke="#263238" stroke-miterlimit="10"/>
<path d="M134.251 186.364V190.919" stroke="#263238" stroke-miterlimit="10"/>
<path d="M126.35 183.58H131.652" stroke="#263238" stroke-miterlimit="10"/>
<path d="M124.584 185.254H133.507" stroke="#263238" stroke-miterlimit="10"/>
<path d="M123.376 187.39H134.251" stroke="#263238" stroke-miterlimit="10"/>
<path d="M122.819 189.526H134.906" stroke="#263238" stroke-miterlimit="10"/>
<path d="M33.3042 191.529H46.204" stroke="#263238" stroke-miterlimit="10"/>
<path d="M34.5889 186.364V190.919" stroke="#263238" stroke-miterlimit="10"/>
<path d="M36.3267 183.952V190.92" stroke="#263238" stroke-miterlimit="10"/>
<path d="M38.0581 182.374V190.92" stroke="#263238" stroke-miterlimit="10"/>
<path d="M39.7959 182.187V190.92" stroke="#263238" stroke-miterlimit="10"/>
<path d="M41.5322 182.374V190.92" stroke="#263238" stroke-miterlimit="10"/>
<path d="M43.2642 183.952V190.92" stroke="#263238" stroke-miterlimit="10"/>
<path d="M45.0015 186.364V190.919" stroke="#263238" stroke-miterlimit="10"/>
<path d="M37.0986 183.58H42.4008" stroke="#263238" stroke-miterlimit="10"/>
<path d="M35.334 185.254H44.2574" stroke="#263238" stroke-miterlimit="10"/>
<path d="M34.1265 187.39H45.0015" stroke="#263238" stroke-miterlimit="10"/>
<path d="M33.5679 189.526H45.6499" stroke="#263238" stroke-miterlimit="10"/>
<path d="M179.33 164.164C179.448 163.696 179.508 163.215 179.51 162.732C179.51 159.429 174.723 155.505 173.347 155.505C172.088 155.505 167.181 159.451 167.181 162.732C167.179 163.215 167.24 163.696 167.361 164.164H179.33Z" fill="white" stroke="#263238" stroke-miterlimit="10"/>
<path d="M173.347 155.505V151.819" stroke="#263238" stroke-miterlimit="10"/>
<path d="M179.33 164.164H167.554V170.636H179.33V164.164Z" fill="white" stroke="#263238" stroke-miterlimit="10"/>
<path d="M173.735 165.821L173.031 165.477L172.286 165.828C171.999 165.963 171.757 166.179 171.586 166.446C171.414 166.715 171.324 167.025 171.322 167.344V170.754H174.707V167.326C174.701 167.011 174.609 166.701 174.437 166.435C174.265 166.17 174.022 165.956 173.735 165.821Z" fill="white" stroke="#263238" stroke-miterlimit="10"/>
<path d="M177.549 165.821L177.125 165.477L176.68 165.828C176.485 166.026 176.334 166.264 176.236 166.525C176.14 166.786 176.099 167.066 176.116 167.344V170.754H178.13V167.326C178.145 167.048 178.1 166.772 178 166.512C177.901 166.252 177.745 166.017 177.549 165.821Z" fill="white" stroke="#263238" stroke-miterlimit="10"/>
<path d="M169.708 165.821L169.302 165.477L168.88 165.828C168.687 166.028 168.537 166.266 168.441 166.526C168.343 166.788 168.3 167.066 168.316 167.344V170.754H170.227V167.326C170.247 167.054 170.209 166.781 170.12 166.521C170.031 166.263 169.892 166.026 169.708 165.821Z" fill="white" stroke="#263238" stroke-miterlimit="10"/>
<path d="M212.08 159.141C213.532 156.68 214.299 153.875 214.302 151.018C214.302 141.536 205.92 132.414 195.575 132.414C185.231 132.414 176.849 141.541 176.849 151.018C176.85 153.877 177.62 156.682 179.077 159.141H212.08Z" fill="white" stroke="#263238" stroke-miterlimit="10"/>
<path d="M223.864 164.164C223.983 163.696 224.044 163.215 224.044 162.732C224.044 159.429 219.254 155.505 217.878 155.505C216.625 155.505 211.713 159.451 211.713 162.732C211.715 163.215 211.775 163.696 211.893 164.164H223.864Z" fill="white" stroke="#263238" stroke-miterlimit="10"/>
<path d="M217.878 155.505V151.819" stroke="#263238" stroke-miterlimit="10"/>
<path d="M223.869 164.164H212.091V170.636H223.869V164.164Z" fill="white" stroke="#263238" stroke-miterlimit="10"/>
<path d="M218.272 165.821L217.561 165.477L216.817 165.828C216.53 165.965 216.29 166.179 216.12 166.448C215.949 166.717 215.86 167.027 215.858 167.344V170.754H219.215V167.326C219.213 167.013 219.124 166.706 218.956 166.441C218.79 166.175 218.553 165.96 218.272 165.821Z" fill="white" stroke="#263238" stroke-miterlimit="10"/>
<path d="M222.085 165.821L221.662 165.477L221.217 165.828C221.021 166.026 220.867 166.263 220.771 166.525C220.673 166.786 220.634 167.066 220.653 167.344V170.754H222.66V167.326C222.675 167.05 222.63 166.772 222.532 166.514C222.432 166.254 222.281 166.019 222.085 165.821Z" fill="white" stroke="#263238" stroke-miterlimit="10"/>
<path d="M214.24 165.821L213.839 165.477L213.417 165.828C213.224 166.028 213.075 166.266 212.977 166.526C212.88 166.788 212.838 167.066 212.852 167.344V170.754H214.764V167.326C214.784 167.054 214.746 166.779 214.656 166.521C214.566 166.263 214.424 166.024 214.24 165.821Z" fill="white" stroke="#263238" stroke-miterlimit="10"/>
<path d="M195.334 126.704L187.347 134.686C187.347 134.686 192.479 133.119 195.762 133.119C199.045 133.119 203.749 134.545 203.749 134.545L195.334 126.704Z" fill="white" stroke="#263238" stroke-miterlimit="10"/>
<path d="M195.334 126.703V117.295" stroke="#263238" stroke-miterlimit="10"/>
<path d="M193.495 117.498C193.637 117.836 193.871 118.129 194.168 118.343C194.466 118.558 194.817 118.686 195.184 118.714C195.55 118.742 195.917 118.669 196.243 118.502C196.571 118.335 196.846 118.081 197.038 117.768" stroke="#263238" stroke-miterlimit="10"/>
<path d="M195.475 126.704C195.867 126.704 196.184 126.386 196.184 125.993C196.184 125.601 195.867 125.283 195.475 125.283C195.081 125.283 194.764 125.601 194.764 125.993C194.764 126.386 195.081 126.704 195.475 126.704Z" stroke="#263238" stroke-miterlimit="10"/>
<path d="M196.19 123.71C196.199 123.611 196.186 123.511 196.154 123.417C196.124 123.323 196.072 123.237 196.004 123.163C195.938 123.09 195.856 123.031 195.765 122.991C195.674 122.951 195.576 122.931 195.477 122.931C195.377 122.931 195.279 122.951 195.188 122.991C195.097 123.031 195.015 123.09 194.947 123.163C194.881 123.237 194.83 123.323 194.798 123.417C194.765 123.511 194.755 123.611 194.762 123.71C194.778 123.888 194.86 124.054 194.992 124.175C195.125 124.296 195.297 124.363 195.477 124.363C195.655 124.363 195.828 124.296 195.96 124.175C196.092 124.054 196.174 123.888 196.19 123.71Z" stroke="#263238" stroke-miterlimit="10"/>
<path d="M235.121 166.464H230.936V170.738H235.121V166.464Z" fill="white" stroke="#263238" stroke-miterlimit="10"/>
<path d="M233.396 166.373V159.734" stroke="#263238" stroke-miterlimit="10"/>
<path d="M234.394 161.464H232.758" stroke="#263238" stroke-miterlimit="10"/>
<path d="M231.038 163.42V166.375" stroke="#263238" stroke-miterlimit="10"/>
<path d="M231.8 164.193H230.435" stroke="#263238" stroke-miterlimit="10"/>
<path d="M230.936 166.464L227.756 170.647H230.936V166.464Z" fill="#263238" stroke="#263238" stroke-miterlimit="10"/>
<path d="M156.373 170.738H160.558V166.464H156.373V170.738Z" fill="white" stroke="#263238" stroke-miterlimit="10"/>
<path d="M158.1 166.373V159.734" stroke="#263238" stroke-miterlimit="10"/>
<path d="M157.096 161.464H158.736" stroke="#263238" stroke-miterlimit="10"/>
<path d="M160.453 163.42V166.375" stroke="#263238" stroke-miterlimit="10"/>
<path d="M159.691 164.193H161.055" stroke="#263238" stroke-miterlimit="10"/>
<path d="M160.552 166.464L163.739 170.647H160.552V166.464Z" fill="#263238" stroke="#263238" stroke-miterlimit="10"/>
<path d="M179.214 170.873H156.104V202.955H179.214V170.873Z" fill="white" stroke="#263238" stroke-miterlimit="10"/>
<path d="M235.42 170.873H212.312V202.955H235.42V170.873Z" fill="white" stroke="#263238" stroke-miterlimit="10"/>
<path d="M157.057 173.584H177.188" stroke="#263238" stroke-miterlimit="10"/>
<path d="M213.727 173.584H233.858" stroke="#263238" stroke-miterlimit="10"/>
<path d="M250.482 162.529C250.523 162.361 250.546 162.189 250.55 162.016C250.55 160.833 248.828 159.429 248.338 159.429C247.847 159.429 246.133 160.833 246.133 162.016C246.133 162.189 246.154 162.361 246.193 162.529H250.482Z" fill="white" stroke="#263238" stroke-miterlimit="10"/>
<path d="M245.247 162.563H251.411" stroke="#263238" stroke-miterlimit="10" stroke-linecap="round"/>
<path d="M248.336 159.429V158.104" stroke="#263238" stroke-miterlimit="10"/>
<path d="M250.48 162.529H246.261V166.042H250.48V162.529Z" fill="white" stroke="#263238" stroke-miterlimit="10"/>
<path d="M248.479 163.122L248.225 162.998L247.96 163.122C247.853 163.17 247.764 163.251 247.703 163.352C247.641 163.452 247.61 163.568 247.616 163.685V166.097H248.817V163.68C248.821 163.564 248.79 163.45 248.732 163.35C248.671 163.251 248.584 163.172 248.479 163.122Z" fill="white" stroke="#263238" stroke-miterlimit="10"/>
<path d="M249.842 163.122L249.69 162.998L249.532 163.122C249.459 163.195 249.402 163.283 249.366 163.381C249.33 163.479 249.314 163.582 249.323 163.685V166.097H250.045V163.68C250.054 163.577 250.04 163.475 250.004 163.379C249.97 163.283 249.913 163.194 249.842 163.122Z" fill="white" stroke="#263238" stroke-miterlimit="10"/>
<path d="M247.035 163.122L246.887 162.998L246.741 163.122C246.669 163.195 246.614 163.284 246.58 163.382C246.546 163.479 246.534 163.582 246.543 163.685V166.097H247.225V163.68C247.234 163.578 247.222 163.477 247.188 163.381C247.156 163.284 247.103 163.195 247.035 163.122Z" fill="white" stroke="#263238" stroke-miterlimit="10"/>
<path d="M250.475 166.576H246.199L245.279 202.645H251.395L250.475 166.576Z" fill="white" stroke="#263238" stroke-miterlimit="10"/>
<path d="M250.836 166.313H245.844C245.623 166.313 245.443 166.491 245.443 166.712V167.068C245.443 167.289 245.623 167.467 245.844 167.467H250.836C251.057 167.467 251.236 167.289 251.236 167.068V166.712C251.236 166.491 251.057 166.313 250.836 166.313Z" fill="white" stroke="#263238" stroke-miterlimit="10"/>
<path d="M250.836 179.622H245.844C245.623 179.622 245.443 179.802 245.443 180.022V180.377C245.443 180.598 245.623 180.778 245.844 180.778H250.836C251.057 180.778 251.236 180.598 251.236 180.377V180.022C251.236 179.802 251.057 179.622 250.836 179.622Z" fill="white" stroke="#263238" stroke-miterlimit="10"/>
<path d="M251.738 191.568H245.122C244.798 191.568 244.536 191.83 244.536 192.154V192.667C244.536 192.991 244.798 193.253 245.122 193.253H251.738C252.063 193.253 252.325 192.991 252.325 192.667V192.154C252.325 191.83 252.063 191.568 251.738 191.568Z" fill="white" stroke="#263238" stroke-miterlimit="10"/>
<path d="M268.095 146.666C268.154 146.43 268.185 146.187 268.186 145.944C268.186 144.298 265.794 142.336 265.106 142.336C264.418 142.336 262.021 144.298 262.021 145.944C262.021 146.188 262.053 146.43 262.117 146.666H268.095Z" fill="white" stroke="#263238" stroke-miterlimit="10"/>
<path d="M265.128 142.336V140.493" stroke="#263238" stroke-miterlimit="10"/>
<path d="M268.119 146.666H262.235V151.564H268.119V146.666Z" fill="white" stroke="#263238" stroke-miterlimit="10"/>
<path d="M265.32 147.494L264.971 147.319L264.599 147.494C264.454 147.562 264.333 147.668 264.249 147.802C264.164 147.936 264.119 148.091 264.119 148.25V151.632H265.811V148.25C265.812 148.089 265.766 147.932 265.679 147.798C265.591 147.664 265.467 147.558 265.32 147.494Z" fill="white" stroke="#263238" stroke-miterlimit="10"/>
<path d="M267.228 147.494L267.019 147.319L266.793 147.494C266.695 147.592 266.618 147.711 266.568 147.841C266.518 147.971 266.497 148.11 266.506 148.25V151.632H267.533V148.25C267.54 148.109 267.517 147.969 267.463 147.838C267.411 147.708 267.329 147.59 267.228 147.494Z" fill="white" stroke="#263238" stroke-miterlimit="10"/>
<path d="M263.308 147.494L263.11 147.319L262.896 147.494C262.802 147.595 262.731 147.714 262.684 147.844C262.638 147.974 262.617 148.112 262.626 148.25V151.632H263.584V148.25C263.593 148.111 263.574 147.973 263.527 147.842C263.479 147.712 263.404 147.594 263.308 147.494Z" fill="white" stroke="#263238" stroke-miterlimit="10"/>
<path d="M268.112 152.314H262.139L260.859 202.645H269.393L268.112 152.314Z" fill="white" stroke="#263238" stroke-miterlimit="10"/>
<path d="M268.773 152.174H261.49C261.269 152.174 261.091 152.354 261.091 152.574V152.929C261.091 153.15 261.269 153.33 261.49 153.33H268.773C268.994 153.33 269.174 153.15 269.174 152.929V152.574C269.174 152.354 268.994 152.174 268.773 152.174Z" fill="white" stroke="#263238" stroke-miterlimit="10"/>
<path d="M268.604 146.277H261.649C261.428 146.277 261.248 146.456 261.248 146.677V147.032C261.248 147.253 261.428 147.432 261.649 147.432H268.604C268.825 147.432 269.003 147.253 269.003 147.032V146.677C269.003 146.456 268.825 146.277 268.604 146.277Z" fill="white" stroke="#263238" stroke-miterlimit="10"/>
<path d="M268.627 170.517H261.638C261.335 170.517 261.091 170.763 261.091 171.064V171.589C261.091 171.89 261.335 172.136 261.638 172.136H268.627C268.928 172.136 269.174 171.89 269.174 171.589V171.064C269.174 170.763 268.928 170.517 268.627 170.517Z" fill="white" stroke="#263238" stroke-miterlimit="10"/>
<path d="M270.11 186.922H260.414C260.091 186.922 259.827 187.186 259.827 187.508V188.021C259.827 188.345 260.091 188.607 260.414 188.607H270.11C270.434 188.607 270.696 188.345 270.696 188.021V187.508C270.696 187.186 270.434 186.922 270.11 186.922Z" fill="white" stroke="#263238" stroke-miterlimit="10"/>
<path d="M139.588 162.529C139.546 162.361 139.523 162.189 139.521 162.016C139.521 160.833 141.241 159.429 141.732 159.429C142.222 159.429 143.937 160.833 143.937 162.016C143.936 162.189 143.915 162.361 143.875 162.529H139.588Z" fill="white" stroke="#263238" stroke-miterlimit="10"/>
<path d="M138.645 162.417H144.725" stroke="#263238" stroke-miterlimit="10" stroke-linecap="round"/>
<path d="M141.731 159.429V158.104" stroke="#263238" stroke-miterlimit="10"/>
<path d="M139.586 166.035H143.806V162.524H139.586V166.035Z" fill="white" stroke="#263238" stroke-miterlimit="10"/>
<path d="M141.589 163.122L141.843 162.998L142.108 163.122C142.214 163.172 142.302 163.252 142.363 163.352C142.424 163.452 142.455 163.568 142.452 163.685V166.097H141.251V163.68C141.247 163.564 141.277 163.45 141.337 163.35C141.397 163.251 141.485 163.172 141.589 163.122Z" fill="white" stroke="#263238" stroke-miterlimit="10"/>
<path d="M140.225 163.122L140.378 162.998L140.536 163.122C140.609 163.195 140.665 163.283 140.701 163.381C140.738 163.479 140.752 163.582 140.744 163.685V166.097H140.022V163.68C140.014 163.577 140.028 163.475 140.063 163.379C140.098 163.283 140.153 163.194 140.225 163.122Z" fill="white" stroke="#263238" stroke-miterlimit="10"/>
<path d="M143.035 163.122L143.176 162.998L143.328 163.122C143.4 163.195 143.454 163.284 143.488 163.382C143.522 163.479 143.535 163.582 143.525 163.685V166.097H142.843V163.68C142.834 163.578 142.847 163.477 142.88 163.381C142.913 163.284 142.966 163.195 143.035 163.122Z" fill="white" stroke="#263238" stroke-miterlimit="10"/>
<path d="M139.593 166.576H143.868L144.788 202.645H138.673L139.593 166.576Z" fill="white" stroke="#263238" stroke-miterlimit="10"/>
<path d="M139.232 167.474H144.224C144.445 167.474 144.624 167.294 144.624 167.073V166.719C144.624 166.496 144.445 166.318 144.224 166.318H139.232C139.011 166.318 138.832 166.496 138.832 166.719V167.073C138.832 167.294 139.011 167.474 139.232 167.474Z" fill="white" stroke="#263238" stroke-miterlimit="10"/>
<path d="M139.232 180.783H144.224C144.445 180.783 144.624 180.603 144.624 180.382V180.028C144.624 179.807 144.445 179.627 144.224 179.627H139.232C139.011 179.627 138.832 179.807 138.832 180.028V180.382C138.832 180.603 139.011 180.783 139.232 180.783Z" fill="white" stroke="#263238" stroke-miterlimit="10"/>
<path d="M138.329 193.248H144.946C145.27 193.248 145.532 192.986 145.532 192.662V192.149C145.532 191.824 145.27 191.562 144.946 191.562H138.329C138.005 191.562 137.743 191.824 137.743 192.149V192.662C137.743 192.986 138.005 193.248 138.329 193.248Z" fill="white" stroke="#263238" stroke-miterlimit="10"/>
<path d="M121.949 146.666C121.89 146.43 121.86 146.187 121.859 145.944C121.859 144.298 124.251 142.336 124.939 142.336C125.627 142.336 128.024 144.298 128.024 145.944C128.024 146.188 127.991 146.43 127.928 146.666H121.949Z" fill="white" stroke="#263238" stroke-miterlimit="10"/>
<path d="M124.938 142.336V140.493" stroke="#263238" stroke-miterlimit="10"/>
<path d="M121.95 151.559H127.833V146.66H121.95V151.559Z" fill="white" stroke="#263238" stroke-miterlimit="10"/>
<path d="M124.748 147.494L125.098 147.319L125.47 147.494C125.614 147.562 125.735 147.668 125.82 147.802C125.904 147.936 125.95 148.091 125.95 148.25V151.632H124.257V148.25C124.256 148.089 124.302 147.932 124.389 147.798C124.476 147.664 124.601 147.558 124.748 147.494Z" fill="white" stroke="#263238" stroke-miterlimit="10"/>
<path d="M122.84 147.494L123.049 147.319L123.275 147.494C123.374 147.592 123.451 147.711 123.5 147.841C123.55 147.971 123.571 148.11 123.563 148.25V151.632H122.57V148.25C122.558 148.112 122.576 147.973 122.623 147.843C122.67 147.712 122.744 147.593 122.84 147.494Z" fill="white" stroke="#263238" stroke-miterlimit="10"/>
<path d="M126.761 147.494L126.958 147.319L127.173 147.494C127.267 147.595 127.339 147.714 127.385 147.844C127.432 147.974 127.452 148.112 127.444 148.25V151.632H126.518V148.25C126.504 148.114 126.519 147.976 126.56 147.846C126.602 147.716 126.67 147.596 126.761 147.494Z" fill="white" stroke="#263238" stroke-miterlimit="10"/>
<path d="M121.956 152.314H127.929L129.204 202.645H120.675L121.956 152.314Z" fill="white" stroke="#263238" stroke-miterlimit="10"/>
<path d="M121.296 153.335H128.577C128.799 153.335 128.978 153.155 128.978 152.934V152.58C128.978 152.359 128.799 152.179 128.577 152.179H121.296C121.074 152.179 120.895 152.359 120.895 152.58V152.934C120.895 153.155 121.074 153.335 121.296 153.335Z" fill="white" stroke="#263238" stroke-miterlimit="10"/>
<path d="M121.33 147.438H128.55C128.771 147.438 128.95 147.259 128.95 147.038V146.683C128.95 146.461 128.771 146.282 128.55 146.282H121.33C121.109 146.282 120.929 146.461 120.929 146.683V147.038C120.929 147.259 121.109 147.438 121.33 147.438Z" fill="white" stroke="#263238" stroke-miterlimit="10"/>
<path d="M121.442 172.136H128.431C128.733 172.136 128.978 171.89 128.978 171.589V171.064C128.978 170.763 128.733 170.517 128.431 170.517H121.442C121.14 170.517 120.895 170.763 120.895 171.064V171.589C120.895 171.89 121.14 172.136 121.442 172.136Z" fill="white" stroke="#263238" stroke-miterlimit="10"/>
<path d="M119.957 188.607H129.653C129.977 188.607 130.24 188.345 130.24 188.021V187.508C130.24 187.186 129.977 186.922 129.653 186.922H119.957C119.633 186.922 119.371 187.186 119.371 187.508V188.021C119.371 188.345 119.633 188.607 119.957 188.607Z" fill="white" stroke="#263238" stroke-miterlimit="10"/>
<path d="M212.249 159.141H179.077V202.949H212.249V159.141Z" fill="white" stroke="#263238" stroke-miterlimit="10"/>
<path d="M174.225 191.691L172.63 190.914L170.937 191.703C170.286 192.006 169.735 192.489 169.35 193.093C168.965 193.698 168.76 194.402 168.76 195.118V202.819H176.341V195.108C176.348 194.397 176.152 193.698 175.778 193.095C175.403 192.489 174.865 192.003 174.225 191.691Z" fill="white" stroke="#263238" stroke-miterlimit="10"/>
<path d="M174.225 177.17L172.63 176.397L170.937 177.181C170.286 177.484 169.735 177.967 169.35 178.572C168.965 179.176 168.76 179.88 168.76 180.598V188.31H176.341V180.564C176.341 179.857 176.143 179.164 175.77 178.563C175.396 177.965 174.861 177.48 174.225 177.17Z" fill="white" stroke="#263238" stroke-miterlimit="10"/>
<path d="M161.641 191.691L160.554 190.914L159.426 191.703C158.522 192.323 157.948 193.654 157.948 195.118V202.819H163.103V195.108C163.092 193.659 162.527 192.339 161.641 191.691Z" fill="white" stroke="#263238" stroke-miterlimit="10"/>
<path d="M161.641 177.17L160.554 176.397L159.426 177.181C158.522 177.801 157.948 179.132 157.948 180.598V188.31H163.103V180.564C163.135 179.924 163.019 179.285 162.766 178.697C162.513 178.109 162.128 177.587 161.641 177.17Z" fill="white" stroke="#263238" stroke-miterlimit="10"/>
<path d="M216.552 191.691L218.154 190.914L219.846 191.703C220.496 192.008 221.045 192.491 221.43 193.095C221.813 193.7 222.018 194.402 222.018 195.118V202.819H214.42V195.108C214.416 194.395 214.614 193.695 214.99 193.091C215.368 192.485 215.91 192.001 216.552 191.691Z" fill="white" stroke="#263238" stroke-miterlimit="10"/>
<path d="M216.552 177.17L218.155 176.397L219.846 177.181C220.497 177.486 221.046 177.968 221.431 178.574C221.814 179.178 222.019 179.88 222.019 180.598V188.31H214.42V180.564C214.422 179.855 214.622 179.16 215 178.56C215.376 177.961 215.914 177.479 216.552 177.17Z" fill="white" stroke="#263238" stroke-miterlimit="10"/>
<path d="M229.137 191.691L230.225 190.914L231.353 191.703C232.257 192.323 232.831 193.654 232.831 195.118V202.819H227.681V195.108C227.692 193.659 228.252 192.339 229.137 191.691Z" fill="white" stroke="#263238" stroke-miterlimit="10"/>
<path d="M229.137 177.17L230.225 176.397L231.353 177.181C232.257 177.801 232.831 179.132 232.831 180.598V188.31H227.681V180.564C227.692 179.121 228.252 177.801 229.137 177.17Z" fill="white" stroke="#263238" stroke-miterlimit="10"/>
<path d="M165.112 189.888V173.431" stroke="#263238" stroke-miterlimit="10"/>
<path d="M165.112 201.303V193.021" stroke="#263238" stroke-miterlimit="10"/>
<path d="M225.808 201.303V173.431" stroke="#263238" stroke-miterlimit="10"/>
<path d="M185.773 175.467V172.475H205.318V179.887" stroke="#263238" stroke-miterlimit="10"/>
<path d="M185.773 180.885V178.286" stroke="#263238" stroke-miterlimit="10"/>
<path d="M180.21 166.339H210.884" stroke="#263238" stroke-miterlimit="10"/>
<path d="M199.411 176.47L195.621 174.639L191.645 176.47C190.103 177.192 188.8 178.337 187.886 179.771C186.973 181.205 186.488 182.871 186.488 184.572V202.837H204.466V184.504C204.459 182.826 203.983 181.184 203.09 179.764C202.195 178.344 200.922 177.202 199.411 176.47Z" fill="white" stroke="#263238" stroke-miterlimit="10"/>
<path d="M271.825 202.668H118.932V214.563H271.825V202.668Z" fill="white" stroke="#263238" stroke-miterlimit="10"/>
<path d="M0.171387 214.562H337.724" stroke="#263238" stroke-miterlimit="10"/>
<defs>
<filter id="filter0_d_345_31" x="41.8613" y="0.40979" width="253.496" height="253.366" filterUnits="userSpaceOnUse" color-interpolation-filters="sRGB">
<feFlood flood-opacity="0" result="BackgroundImageFix"/>
<feColorMatrix in="SourceAlpha" type="matrix" values="0 0 0 0 0 0 0 0 0 0 0 0 0 0 0 0 0 0 127 0" result="hardAlpha"/>
<feOffset/>
<feGaussianBlur stdDeviation="5"/>
<feComposite in2="hardAlpha" operator="out"/>
<feColorMatrix type="matrix" values="0 0 0 0 0.654167 0 0 0 0 0.654167 0 0 0 0 0.654167 0 0 0 0.25 0"/>
<feBlend mode="normal" in2="BackgroundImageFix" result="effect1_dropShadow_345_31"/>
<feBlend mode="normal" in="SourceGraphic" in2="effect1_dropShadow_345_31" result="shape"/>
</filter>
</defs>
</svg>
