<svg width="254" height="254" viewBox="0 0 254 254" fill="none" xmlns="http://www.w3.org/2000/svg">
<g filter="url(#filter0_d_345_28)">
<path d="M127.111 243.776C191.421 243.776 243.555 191.535 243.555 127.093C243.555 62.6506 191.421 10.4098 127.111 10.4098C62.8005 10.4098 10.6665 62.6506 10.6665 127.093C10.6665 191.535 62.8005 243.776 127.111 243.776Z" fill="white"/>
</g>
<path d="M69.7066 101.775C69.3262 101.751 68.9692 101.581 68.7086 101.303C68.4478 101.024 68.3027 100.656 68.3027 100.274C68.3027 99.8915 68.4478 99.5236 68.7086 99.2446C68.9692 98.9658 69.3262 98.7966 69.7066 98.7716C73.3785 98.7716 76.4725 93.5036 76.4725 87.2644C76.4974 86.883 76.6661 86.5255 76.9445 86.2641C77.2229 86.0028 77.59 85.8574 77.9714 85.8574C78.3527 85.8574 78.7198 86.0028 78.9982 86.2641C79.2766 86.5255 79.4453 86.883 79.4702 87.2644C79.4702 95.4012 75.195 101.775 69.7066 101.775Z" fill="#90C4E1"/>
<path d="M92.3614 101.775C91.9808 101.751 91.624 101.581 91.3632 101.303C91.1026 101.024 90.9575 100.656 90.9575 100.274C90.9575 99.8915 91.1026 99.5236 91.3632 99.2446C91.624 98.9658 91.9808 98.7966 92.3614 98.7716C96.0333 98.7716 99.1271 93.5036 99.1271 87.2644C99.1522 86.883 99.3209 86.5255 99.5993 86.2641C99.8775 86.0028 100.245 85.8574 100.626 85.8574C101.007 85.8574 101.375 86.0028 101.653 86.2641C101.931 86.5255 102.1 86.883 102.125 87.2644C102.157 95.4012 97.837 101.775 92.3614 101.775Z" fill="#90C4E1"/>
<path d="M114.994 101.776C114.613 101.751 114.256 101.582 113.997 101.303C113.735 101.024 113.59 100.656 113.59 100.274C113.59 99.8916 113.735 99.5237 113.997 99.2447C114.256 98.9658 114.613 98.7967 114.994 98.7718C118.66 98.7718 121.76 93.5038 121.76 87.2643C121.76 86.8669 121.918 86.4857 122.197 86.2046C122.478 85.9236 122.859 85.7656 123.255 85.7656C123.652 85.7656 124.032 85.9236 124.313 86.2046C124.594 86.4857 124.752 86.8669 124.752 87.2643C124.77 95.4013 120.489 101.776 114.994 101.776Z" fill="#90C4E1"/>
<path d="M137.667 101.776C137.461 101.789 137.257 101.76 137.063 101.691C136.869 101.622 136.691 101.513 136.542 101.372C136.393 101.231 136.272 101.061 136.19 100.872C136.108 100.683 136.067 100.48 136.067 100.274C136.067 100.068 136.108 99.864 136.19 99.6751C136.272 99.4861 136.393 99.316 136.542 99.1751C136.691 99.0344 136.869 98.9259 137.063 98.8566C137.257 98.7871 137.461 98.7582 137.667 98.7718C141.331 98.7718 144.432 93.5038 144.432 87.2643C144.432 86.8669 144.59 86.4857 144.871 86.2046C145.152 85.9236 145.532 85.7656 145.929 85.7656C146.325 85.7656 146.706 85.9236 146.986 86.2046C147.266 86.4857 147.424 86.8669 147.424 87.2643C147.424 95.4013 143.136 101.776 137.667 101.776Z" fill="#90C4E1"/>
<path d="M160.313 101.775C159.932 101.751 159.577 101.581 159.315 101.303C159.054 101.024 158.91 100.656 158.91 100.274C158.91 99.8915 159.054 99.5236 159.315 99.2446C159.577 98.9658 159.932 98.7966 160.313 98.7716C163.986 98.7716 167.079 93.5036 167.079 87.2644C167.104 86.883 167.273 86.5255 167.552 86.2641C167.829 86.0028 168.197 85.8574 168.578 85.8574C168.96 85.8574 169.326 86.0028 169.605 86.2641C169.883 86.5255 170.051 86.883 170.076 87.2644C170.076 95.4012 165.788 101.775 160.313 101.775Z" fill="#90C4E1"/>
<path d="M182.967 101.775C182.587 101.751 182.229 101.581 181.968 101.303C181.708 101.024 181.562 100.656 181.562 100.274C181.562 99.8915 181.708 99.5236 181.968 99.2446C182.229 98.9658 182.587 98.7966 182.967 98.7716C186.631 98.7716 189.731 93.5036 189.731 87.2644C189.756 86.883 189.925 86.5255 190.204 86.2641C190.482 86.0028 190.85 85.8574 191.23 85.8574C191.612 85.8574 191.98 86.0028 192.258 86.2641C192.537 86.5255 192.706 86.883 192.73 87.2644C192.73 95.4012 188.443 101.775 182.967 101.775Z" fill="#90C4E1"/>
<g opacity="0.3">
<path d="M69.7066 101.775C69.3262 101.751 68.9692 101.581 68.7086 101.303C68.4478 101.024 68.3027 100.656 68.3027 100.274C68.3027 99.8915 68.4478 99.5236 68.7086 99.2446C68.9692 98.9658 69.3262 98.7966 69.7066 98.7716C73.3785 98.7716 76.4725 93.5036 76.4725 87.2644C76.4974 86.883 76.6661 86.5255 76.9445 86.2641C77.2229 86.0028 77.59 85.8574 77.9714 85.8574C78.3527 85.8574 78.7198 86.0028 78.9982 86.2641C79.2766 86.5255 79.4453 86.883 79.4702 87.2644C79.4702 95.4012 75.195 101.775 69.7066 101.775Z" fill="black"/>
<path d="M92.3595 101.775C91.9789 101.751 91.6221 101.581 91.3614 101.303C91.1006 101.024 90.9556 100.656 90.9556 100.274C90.9556 99.8915 91.1006 99.5236 91.3614 99.2446C91.6221 98.9658 91.9789 98.7966 92.3595 98.7716C96.0313 98.7716 99.1254 93.5036 99.1254 87.2644C99.1502 86.883 99.3189 86.5255 99.5973 86.2641C99.8756 86.0028 100.243 85.8574 100.624 85.8574C101.006 85.8574 101.373 86.0028 101.651 86.2641C101.929 86.5255 102.098 86.883 102.123 87.2644C102.155 95.4012 97.835 101.775 92.3595 101.775Z" fill="black"/>
<path d="M114.994 101.776C114.613 101.751 114.256 101.582 113.995 101.303C113.734 101.024 113.589 100.656 113.589 100.274C113.589 99.8916 113.734 99.5237 113.995 99.2447C114.256 98.9658 114.613 98.7967 114.994 98.7718C118.66 98.7718 121.76 93.5038 121.76 87.2643C121.76 86.8669 121.916 86.4857 122.197 86.2046C122.478 85.9236 122.859 85.7656 123.255 85.7656C123.652 85.7656 124.032 85.9236 124.313 86.2046C124.592 86.4857 124.75 86.8669 124.75 87.2643C124.77 95.4013 120.489 101.776 114.994 101.776Z" fill="black"/>
<path d="M137.667 101.776C137.461 101.789 137.257 101.76 137.063 101.691C136.869 101.622 136.691 101.513 136.542 101.372C136.393 101.231 136.272 101.061 136.19 100.872C136.108 100.683 136.067 100.48 136.067 100.274C136.067 100.068 136.108 99.864 136.19 99.6751C136.272 99.4861 136.393 99.316 136.542 99.1751C136.691 99.0344 136.869 98.9259 137.063 98.8566C137.257 98.7871 137.461 98.7582 137.667 98.7718C141.331 98.7718 144.432 93.5038 144.432 87.2643C144.432 86.8669 144.59 86.4857 144.871 86.2046C145.152 85.9236 145.532 85.7656 145.929 85.7656C146.325 85.7656 146.706 85.9236 146.986 86.2046C147.266 86.4857 147.424 86.8669 147.424 87.2643C147.424 95.4013 143.136 101.776 137.667 101.776Z" fill="black"/>
<path d="M160.313 101.775C159.932 101.751 159.577 101.581 159.315 101.303C159.054 101.024 158.91 100.656 158.91 100.274C158.91 99.8915 159.054 99.5236 159.315 99.2446C159.577 98.9658 159.932 98.7966 160.313 98.7716C163.986 98.7716 167.079 93.5036 167.079 87.2644C167.104 86.883 167.273 86.5255 167.552 86.2641C167.829 86.0028 168.197 85.8574 168.578 85.8574C168.96 85.8574 169.326 86.0028 169.605 86.2641C169.883 86.5255 170.051 86.883 170.076 87.2644C170.076 95.4012 165.788 101.775 160.313 101.775Z" fill="black"/>
<path d="M182.967 101.775C182.587 101.751 182.229 101.581 181.968 101.303C181.708 101.024 181.562 100.656 181.562 100.274C181.562 99.8915 181.708 99.5236 181.968 99.2446C182.229 98.9658 182.587 98.7966 182.967 98.7716C186.631 98.7716 189.731 93.5036 189.731 87.2644C189.756 86.883 189.925 86.5255 190.204 86.2641C190.482 86.0028 190.85 85.8574 191.23 85.8574C191.612 85.8574 191.98 86.0028 192.258 86.2641C192.537 86.5255 192.706 86.883 192.73 87.2644C192.73 95.4012 188.443 101.775 182.967 101.775Z" fill="black"/>
</g>
<path d="M55.5142 88.8018H201.344C203.299 88.8412 205.173 89.594 206.613 90.9192C208.055 92.2444 208.963 94.0508 209.17 95.9996L217.244 187.228C217.342 188.144 217.246 189.07 216.96 189.945C216.675 190.82 216.208 191.625 215.587 192.305C214.969 192.986 214.213 193.526 213.371 193.893C212.526 194.258 211.616 194.44 210.697 194.427H64.8605C62.906 194.384 61.0336 193.631 59.5936 192.305C58.1535 190.982 57.2441 189.177 57.0354 187.228L48.9666 95.9996C48.8674 95.084 48.9634 94.1577 49.2486 93.2821C49.5337 92.4067 50.0015 91.6019 50.6205 90.9212C51.2397 90.2405 51.9963 89.6997 52.8399 89.3343C53.6836 88.9687 54.5952 88.7874 55.5142 88.8018Z" fill="#90C4E1"/>
<path opacity="0.4" d="M55.5142 88.8018H201.344C203.299 88.8412 205.173 89.594 206.613 90.9192C208.055 92.2444 208.963 94.0508 209.17 95.9996L217.244 187.228C217.342 188.144 217.246 189.07 216.96 189.945C216.675 190.82 216.208 191.625 215.587 192.305C214.969 192.986 214.213 193.526 213.371 193.893C212.526 194.258 211.616 194.44 210.697 194.427H64.8605C62.906 194.384 61.0336 193.631 59.5936 192.305C58.1535 190.982 57.2441 189.177 57.0354 187.228L48.9666 95.9996C48.8674 95.084 48.9634 94.1577 49.2486 93.2821C49.5337 92.4067 50.0015 91.6019 50.6205 90.9212C51.2397 90.2405 51.9963 89.6997 52.8399 89.3343C53.6836 88.9687 54.5952 88.7874 55.5142 88.8018Z" fill="#FAFAFA"/>
<path d="M200.131 88.8019H54.2946C52.3657 88.8249 50.5174 89.5809 49.1233 90.9169C47.7291 92.253 46.8932 94.0697 46.7842 95.9997L42.676 187.228C42.6271 188.158 42.7681 189.088 43.0902 189.961C43.4123 190.834 43.9089 191.632 44.5496 192.305C45.1901 192.979 45.9613 193.515 46.8159 193.88C47.6703 194.244 48.5901 194.431 49.5188 194.427H195.369C197.298 194.404 199.145 193.647 200.54 192.311C201.934 190.975 202.77 189.159 202.878 187.228L206.994 95.9997C207.042 95.0689 206.899 94.1379 206.576 93.2642C206.252 92.3904 205.753 91.5921 205.111 90.9182C204.469 90.2443 203.696 89.709 202.839 89.345C201.982 88.9811 201.061 88.7964 200.131 88.8019Z" fill="#90C4E1"/>
<path opacity="0.2" d="M200.131 88.8019H54.2946C52.3657 88.8249 50.5174 89.5809 49.1233 90.9169C47.7291 92.253 46.8932 94.0697 46.7842 95.9997L42.676 187.228C42.6271 188.158 42.7681 189.088 43.0902 189.961C43.4123 190.834 43.9089 191.632 44.5496 192.305C45.1901 192.979 45.9613 193.515 46.8159 193.88C47.6703 194.244 48.5901 194.431 49.5188 194.427H195.369C197.298 194.404 199.145 193.647 200.54 192.311C201.934 190.975 202.77 189.159 202.878 187.228L206.994 95.9997C207.042 95.0689 206.899 94.1379 206.576 93.2642C206.252 92.3904 205.753 91.5921 205.111 90.9182C204.469 90.2443 203.696 89.709 202.839 89.345C201.982 88.9811 201.061 88.7964 200.131 88.8019Z" fill="#FAFAFA"/>
<path d="M56.9722 170.319L60.368 94.9767C60.4087 94.2376 60.7285 93.5418 61.2627 93.0305C61.7967 92.5192 62.505 92.2306 63.2437 92.2237H190.875C191.232 92.2214 191.584 92.2921 191.911 92.4312C192.238 92.5704 192.535 92.775 192.78 93.0328C193.026 93.2906 193.218 93.5961 193.34 93.9303C193.465 94.2645 193.52 94.6206 193.5 94.9767L190.1 170.319C190.059 171.057 189.739 171.753 189.204 172.264C188.67 172.776 187.961 173.064 187.223 173.071H59.5976C59.2417 173.073 58.8892 173.004 58.5617 172.863C58.2341 172.724 57.9383 172.519 57.6924 172.263C57.4467 172.004 57.256 171.7 57.132 171.365C57.0083 171.03 56.9539 170.674 56.9722 170.319Z" fill="#90C4E1"/>
<path opacity="0.1" d="M56.9722 170.319L60.368 94.9767C60.4087 94.2376 60.7285 93.5418 61.2627 93.0305C61.7967 92.5192 62.505 92.2306 63.2437 92.2237H190.875C191.232 92.2214 191.584 92.2921 191.911 92.4312C192.238 92.5704 192.535 92.775 192.78 93.0328C193.026 93.2906 193.218 93.5961 193.34 93.9303C193.465 94.2645 193.52 94.6206 193.5 94.9767L190.1 170.319C190.059 171.057 189.739 171.753 189.204 172.264C188.67 172.776 187.961 173.064 187.223 173.071H59.5976C59.2417 173.073 58.8892 173.004 58.5617 172.863C58.2341 172.724 57.9383 172.519 57.6924 172.263C57.4467 172.004 57.256 171.7 57.132 171.365C57.0083 171.03 56.9539 170.674 56.9722 170.319Z" fill="#FAFAFA"/>
<path opacity="0.1" d="M53.3699 176.467L56.9326 97.3501C56.9735 96.5741 57.3086 95.843 57.8693 95.3062C58.43 94.7695 59.1742 94.4674 59.9497 94.462H193.982C194.355 94.4588 194.725 94.5324 195.068 94.6779C195.413 94.8236 195.724 95.0385 195.982 95.3091C196.24 95.5797 196.439 95.9003 196.569 96.2515C196.698 96.6024 196.755 96.9763 196.736 97.3501L193.166 176.467C193.125 177.243 192.791 177.974 192.233 178.512C191.673 179.05 190.93 179.353 190.156 179.362H56.1109C55.7377 179.365 55.368 179.29 55.0245 179.144C54.681 178.996 54.3713 178.781 54.1145 178.51C53.8574 178.239 53.6588 177.917 53.5308 177.566C53.4028 177.215 53.3481 176.841 53.3699 176.467Z" fill="black"/>
<path d="M50.0583 182.848L53.7751 100.322C53.8248 99.5151 54.1763 98.7566 54.7591 98.1976C55.342 97.6386 56.1137 97.3199 56.9203 97.3053H196.736C197.125 97.3021 197.513 97.379 197.872 97.5313C198.231 97.6835 198.555 97.9079 198.825 98.1905C199.093 98.4732 199.303 98.8081 199.438 99.1747C199.573 99.5413 199.632 99.9318 199.611 100.322L195.875 182.848C195.826 183.655 195.474 184.414 194.891 184.973C194.309 185.532 193.538 185.851 192.731 185.866H52.934C52.5438 185.869 52.1568 185.793 51.7969 185.641C51.4373 185.49 51.1125 185.265 50.843 184.982C50.5733 184.699 50.3646 184.364 50.2296 183.997C50.0945 183.63 50.0362 183.24 50.0583 182.848Z" fill="#FAFAFA"/>
<path d="M182.948 102.252C182.684 102.252 182.425 102.199 182.183 102.095C181.941 101.991 181.724 101.838 181.543 101.646C181.363 101.455 181.223 101.228 181.134 100.98C181.043 100.733 181.006 100.469 181.022 100.206C181.045 99.6902 181.266 99.203 181.637 98.8444C182.009 98.4856 182.503 98.2825 183.019 98.2766C183.282 98.2761 183.541 98.3295 183.783 98.4337C184.025 98.5378 184.242 98.6904 184.423 98.8821C184.603 99.0736 184.741 99.3004 184.832 99.548C184.921 99.7956 184.96 100.059 184.944 100.322C184.919 100.838 184.699 101.325 184.327 101.684C183.957 102.043 183.463 102.246 182.948 102.252Z" fill="#90C4E1"/>
<path d="M160.295 102.252C160.032 102.252 159.771 102.199 159.531 102.095C159.289 101.991 159.07 101.838 158.891 101.646C158.709 101.455 158.571 101.228 158.482 100.98C158.391 100.733 158.354 100.469 158.37 100.206C158.393 99.6902 158.613 99.203 158.985 98.8444C159.356 98.4856 159.849 98.2825 160.364 98.2766C160.628 98.2761 160.889 98.3295 161.131 98.4337C161.371 98.5378 161.589 98.6904 161.769 98.8821C161.95 99.0736 162.089 99.3004 162.18 99.548C162.268 99.7956 162.308 100.059 162.292 100.322C162.268 100.839 162.048 101.327 161.676 101.686C161.305 102.045 160.811 102.247 160.295 102.252Z" fill="#90C4E1"/>
<path d="M137.643 102.252C137.379 102.252 137.118 102.199 136.876 102.095C136.636 101.991 136.418 101.838 136.238 101.646C136.057 101.455 135.918 101.228 135.827 100.98C135.739 100.733 135.699 100.469 135.715 100.206C135.742 99.6907 135.963 99.2044 136.334 98.8461C136.704 98.4877 137.198 98.2841 137.712 98.2766C137.975 98.2761 138.236 98.3295 138.476 98.4337C138.718 98.5378 138.937 98.6904 139.116 98.8821C139.298 99.0736 139.436 99.3004 139.525 99.548C139.616 99.7956 139.653 100.059 139.639 100.322C139.616 100.839 139.395 101.327 139.024 101.686C138.652 102.045 138.158 102.247 137.643 102.252Z" fill="#90C4E1"/>
<path d="M114.994 102.252C114.73 102.252 114.471 102.199 114.229 102.095C113.987 101.991 113.77 101.838 113.59 101.646C113.409 101.455 113.27 101.228 113.18 100.98C113.091 100.733 113.053 100.469 113.068 100.206C113.096 99.6902 113.318 99.2039 113.69 98.8456C114.062 98.4874 114.556 98.2839 115.072 98.2766C115.335 98.2761 115.594 98.3295 115.836 98.4337C116.078 98.5378 116.295 98.6904 116.476 98.8821C116.656 99.0736 116.794 99.3004 116.885 99.548C116.974 99.7956 117.013 100.059 116.997 100.322C116.974 100.84 116.754 101.329 116.38 101.688C116.007 102.047 115.511 102.249 114.994 102.252Z" fill="#90C4E1"/>
<path d="M92.3413 102.252C92.0783 102.252 91.8181 102.199 91.5767 102.095C91.3352 101.991 91.1175 101.838 90.937 101.646C90.7566 101.455 90.6174 101.228 90.5276 100.98C90.438 100.733 90.3998 100.469 90.4156 100.206C90.4401 99.6902 90.6604 99.203 91.0314 98.8444C91.4026 98.4856 91.8963 98.2825 92.4118 98.2766C92.6748 98.2761 92.9351 98.3295 93.1765 98.4337C93.4181 98.5378 93.6357 98.6904 93.8161 98.8821C93.9966 99.0736 94.1359 99.3004 94.2255 99.548C94.3153 99.7956 94.3534 100.059 94.3377 100.322C94.3132 100.838 94.0927 101.325 93.7217 101.684C93.3507 102.043 92.8568 102.246 92.3413 102.252Z" fill="#90C4E1"/>
<path d="M69.6889 102.252C69.426 102.252 69.1659 102.199 68.9243 102.095C68.6829 101.991 68.4651 101.838 68.2847 101.646C68.1044 101.455 67.965 101.228 67.8753 100.98C67.7857 100.733 67.7474 100.469 67.7632 100.206C67.7878 99.6902 68.0081 99.203 68.3793 98.8444C68.7503 98.4856 69.244 98.2825 69.7595 98.2766C70.0225 98.2761 70.2827 98.3295 70.5243 98.4337C70.7657 98.5378 70.9833 98.6904 71.1638 98.8821C71.3442 99.0736 71.4836 99.3004 71.5734 99.548C71.663 99.7956 71.7012 100.059 71.6854 100.322C71.6623 100.839 71.4425 101.327 71.0712 101.686C70.6996 102.045 70.205 102.247 69.6889 102.252Z" fill="#90C4E1"/>
<g opacity="0.1">
<path d="M182.948 102.252C182.685 102.252 182.425 102.199 182.184 102.095C181.942 101.991 181.725 101.838 181.544 101.646C181.364 101.455 181.224 101.228 181.135 100.98C181.044 100.733 181.007 100.469 181.023 100.206C181.046 99.6902 181.266 99.203 181.638 98.8444C182.009 98.4856 182.504 98.2825 183.019 98.2766C183.282 98.2761 183.542 98.3295 183.784 98.4337C184.025 98.5378 184.242 98.6904 184.424 98.8821C184.603 99.0736 184.742 99.3004 184.832 99.548C184.921 99.7956 184.96 100.059 184.944 100.322C184.92 100.838 184.699 101.325 184.328 101.684C183.958 102.043 183.464 102.246 182.948 102.252Z" fill="#FAFAFA"/>
<path d="M160.295 102.252C160.032 102.252 159.771 102.199 159.531 102.095C159.289 101.991 159.07 101.838 158.891 101.646C158.709 101.455 158.571 101.228 158.482 100.98C158.391 100.733 158.354 100.469 158.37 100.206C158.393 99.6902 158.613 99.203 158.985 98.8444C159.356 98.4856 159.849 98.2825 160.364 98.2766C160.628 98.2761 160.889 98.3295 161.131 98.4337C161.371 98.5378 161.589 98.6904 161.769 98.8821C161.95 99.0736 162.089 99.3004 162.18 99.548C162.268 99.7956 162.308 100.059 162.292 100.322C162.268 100.839 162.048 101.327 161.676 101.686C161.305 102.045 160.811 102.247 160.295 102.252Z" fill="#FAFAFA"/>
<path d="M137.643 102.252C137.38 102.252 137.119 102.199 136.877 102.095C136.637 101.991 136.418 101.838 136.239 101.646C136.057 101.455 135.919 101.228 135.828 100.98C135.739 100.733 135.7 100.469 135.716 100.206C135.743 99.6907 135.963 99.2044 136.335 98.8461C136.704 98.4877 137.199 98.2841 137.712 98.2766C137.975 98.2761 138.237 98.3295 138.477 98.4337C138.719 98.5378 138.937 98.6904 139.117 98.8821C139.298 99.0736 139.437 99.3004 139.526 99.548C139.616 99.7956 139.654 100.059 139.639 100.322C139.616 100.839 139.396 101.327 139.024 101.686C138.653 102.045 138.159 102.247 137.643 102.252Z" fill="#FAFAFA"/>
<path d="M114.996 102.252C114.733 102.252 114.473 102.199 114.231 102.095C113.99 101.991 113.772 101.838 113.591 101.646C113.411 101.455 113.271 101.228 113.182 100.98C113.092 100.733 113.054 100.469 113.07 100.206C113.097 99.6902 113.32 99.2039 113.691 98.8456C114.063 98.4874 114.557 98.2839 115.072 98.2766C115.335 98.2761 115.595 98.3295 115.837 98.4337C116.079 98.5378 116.297 98.6904 116.477 98.8821C116.656 99.0736 116.797 99.3004 116.886 99.548C116.976 99.7956 117.014 100.059 116.998 100.322C116.975 100.84 116.754 101.329 116.383 101.688C116.009 102.047 115.513 102.249 114.996 102.252Z" fill="#FAFAFA"/>
<path d="M92.3418 102.252C92.0788 102.252 91.8186 102.199 91.5771 102.095C91.3357 101.991 91.1179 101.838 90.9375 101.646C90.7571 101.455 90.6179 101.228 90.5281 100.98C90.4385 100.733 90.4003 100.469 90.4161 100.206C90.4406 99.6902 90.6609 99.203 91.0319 98.8444C91.4031 98.4856 91.8968 98.2825 92.4123 98.2766C92.6753 98.2761 92.9355 98.3295 93.177 98.4337C93.4186 98.5378 93.6362 98.6904 93.8166 98.8821C93.9971 99.0736 94.1364 99.3004 94.226 99.548C94.3158 99.7956 94.3539 100.059 94.3382 100.322C94.3137 100.838 94.0932 101.325 93.7222 101.684C93.3512 102.043 92.8573 102.246 92.3418 102.252Z" fill="#FAFAFA"/>
<path d="M69.6889 102.252C69.426 102.252 69.1659 102.199 68.9243 102.095C68.6829 101.991 68.4651 101.838 68.2847 101.646C68.1044 101.455 67.965 101.228 67.8753 100.98C67.7857 100.733 67.7474 100.469 67.7632 100.206C67.7878 99.6902 68.0081 99.203 68.3793 98.8444C68.7503 98.4856 69.244 98.2825 69.7595 98.2766C70.0225 98.2761 70.2827 98.3295 70.5243 98.4337C70.7657 98.5378 70.9833 98.6904 71.1638 98.8821C71.3442 99.0736 71.4836 99.3004 71.5734 99.548C71.663 99.7956 71.7012 100.059 71.6854 100.322C71.6623 100.839 71.4425 101.327 71.0712 101.686C70.6996 102.045 70.205 102.247 69.6889 102.252Z" fill="#FAFAFA"/>
</g>
<path d="M75.3497 109.443H63.9557C63.7905 109.444 63.6268 109.411 63.475 109.346C63.3232 109.281 63.1865 109.185 63.0737 109.064C62.9609 108.943 62.8743 108.8 62.8195 108.643C62.7648 108.487 62.7429 108.322 62.7553 108.156C62.768 107.819 62.9074 107.499 63.1454 107.261C63.3834 107.022 63.7027 106.883 64.0391 106.87H75.433C75.5982 106.869 75.7619 106.902 75.9138 106.967C76.0656 107.032 76.2021 107.128 76.315 107.249C76.4279 107.37 76.5145 107.513 76.5692 107.669C76.624 107.826 76.6458 107.991 76.6334 108.156C76.6208 108.494 76.4814 108.813 76.2434 109.052C76.0053 109.291 75.686 109.43 75.3497 109.443Z" fill="#90C4E1"/>
<path d="M98.0032 109.443H86.609C86.4439 109.444 86.2803 109.411 86.1285 109.346C85.9767 109.281 85.84 109.185 85.7273 109.064C85.6144 108.943 85.5278 108.8 85.473 108.643C85.4181 108.487 85.3962 108.322 85.4087 108.156C85.4218 107.814 85.5657 107.489 85.8105 107.25C86.0554 107.011 86.3825 106.875 86.7246 106.87H98.1121C98.2777 106.869 98.4416 106.902 98.5937 106.967C98.7457 107.032 98.8828 107.128 98.9962 107.249C99.1095 107.37 99.1966 107.513 99.2522 107.669C99.3077 107.825 99.3304 107.991 99.3191 108.156C99.3059 108.499 99.1621 108.823 98.9171 109.063C98.6723 109.302 98.3452 109.438 98.0032 109.443Z" fill="#90C4E1"/>
<path d="M120.656 109.443H109.262C109.097 109.444 108.933 109.411 108.78 109.346C108.628 109.281 108.491 109.185 108.378 109.064C108.265 108.943 108.178 108.8 108.122 108.644C108.066 108.488 108.044 108.322 108.055 108.156C108.068 107.814 108.212 107.489 108.457 107.25C108.702 107.011 109.029 106.875 109.371 106.87H120.772C120.937 106.869 121.101 106.902 121.252 106.967C121.405 107.032 121.54 107.128 121.654 107.249C121.766 107.37 121.853 107.513 121.908 107.669C121.963 107.826 121.984 107.991 121.972 108.156C121.961 108.5 121.817 108.825 121.572 109.065C121.326 109.304 120.999 109.44 120.656 109.443Z" fill="#90C4E1"/>
<path d="M143.303 109.443H131.909C131.744 109.444 131.58 109.411 131.427 109.346C131.276 109.281 131.139 109.185 131.027 109.064C130.914 108.943 130.826 108.8 130.773 108.643C130.718 108.487 130.695 108.322 130.707 108.156C130.722 107.819 130.86 107.499 131.098 107.261C131.337 107.022 131.655 106.883 131.993 106.87H143.386C143.552 106.869 143.715 106.902 143.866 106.967C144.018 107.032 144.154 107.128 144.268 107.249C144.38 107.37 144.467 107.513 144.522 107.669C144.578 107.826 144.599 107.991 144.586 108.156C144.574 108.494 144.434 108.813 144.195 109.052C143.959 109.291 143.639 109.43 143.303 109.443Z" fill="#90C4E1"/>
<path d="M165.956 109.443H154.562C154.397 109.444 154.233 109.411 154.08 109.346C153.929 109.281 153.792 109.185 153.68 109.064C153.566 108.943 153.481 108.8 153.426 108.643C153.371 108.487 153.349 108.322 153.362 108.156C153.374 107.814 153.518 107.489 153.764 107.25C154.007 107.011 154.334 106.875 154.677 106.87H166.071C166.236 106.869 166.4 106.902 166.551 106.967C166.704 107.032 166.841 107.128 166.953 107.249C167.065 107.37 167.152 107.513 167.207 107.669C167.262 107.826 167.284 107.991 167.271 108.156C167.259 108.499 167.115 108.823 166.869 109.063C166.624 109.302 166.297 109.438 165.956 109.443Z" fill="#90C4E1"/>
<path d="M188.61 109.443H177.216C177.051 109.444 176.887 109.411 176.736 109.346C176.583 109.281 176.446 109.185 176.334 109.064C176.221 108.943 176.135 108.8 176.08 108.643C176.025 108.487 176.004 108.322 176.016 108.156C176.029 107.814 176.173 107.489 176.418 107.25C176.661 107.011 176.99 106.875 177.332 106.87H188.718C188.885 106.869 189.049 106.902 189.2 106.967C189.353 107.032 189.49 107.128 189.604 107.249C189.716 107.37 189.803 107.513 189.86 107.669C189.915 107.825 189.938 107.991 189.925 108.156C189.913 108.499 189.769 108.823 189.524 109.063C189.28 109.302 188.951 109.438 188.61 109.443Z" fill="#90C4E1"/>
<g opacity="0.3">
<path d="M75.3497 109.443H63.9557C63.7905 109.444 63.6268 109.411 63.475 109.346C63.3232 109.281 63.1865 109.185 63.0737 109.064C62.9609 108.943 62.8743 108.8 62.8195 108.643C62.7648 108.487 62.7429 108.322 62.7553 108.156C62.768 107.819 62.9074 107.499 63.1454 107.261C63.3834 107.022 63.7027 106.883 64.0391 106.87H75.433C75.5982 106.869 75.7619 106.902 75.9138 106.967C76.0656 107.032 76.2021 107.128 76.315 107.249C76.4279 107.37 76.5145 107.513 76.5692 107.669C76.624 107.826 76.6458 107.991 76.6334 108.156C76.6208 108.494 76.4814 108.813 76.2434 109.052C76.0053 109.291 75.686 109.43 75.3497 109.443Z" fill="black"/>
<path d="M98.0026 109.443H86.6087C86.4434 109.444 86.2798 109.411 86.128 109.346C85.9762 109.281 85.8395 109.185 85.7267 109.064C85.6139 108.943 85.5273 108.8 85.4725 108.643C85.4178 108.487 85.3957 108.322 85.4082 108.156C85.4213 107.814 85.5651 107.489 85.8101 107.25C86.0549 107.011 86.3822 106.875 86.7243 106.87H98.1118C98.2771 106.869 98.4411 106.902 98.5932 106.967C98.7454 107.032 98.8823 107.128 98.9957 107.249C99.109 107.37 99.1963 107.513 99.2517 107.669C99.3074 107.825 99.3301 107.991 99.3186 108.156C99.3054 108.499 99.1616 108.823 98.9168 109.063C98.6718 109.302 98.3447 109.438 98.0026 109.443Z" fill="black"/>
<path d="M120.656 109.443H109.262C109.097 109.444 108.933 109.411 108.78 109.346C108.628 109.281 108.491 109.185 108.378 109.064C108.265 108.943 108.178 108.8 108.122 108.644C108.066 108.488 108.044 108.322 108.055 108.156C108.068 107.814 108.212 107.489 108.457 107.25C108.702 107.011 109.029 106.875 109.371 106.87H120.772C120.937 106.869 121.101 106.902 121.252 106.967C121.405 107.032 121.54 107.128 121.654 107.249C121.766 107.37 121.853 107.513 121.908 107.669C121.963 107.826 121.984 107.991 121.972 108.156C121.961 108.5 121.817 108.825 121.572 109.065C121.326 109.304 120.999 109.44 120.656 109.443Z" fill="black"/>
<path d="M143.303 109.443H131.91C131.744 109.444 131.581 109.411 131.428 109.346C131.277 109.281 131.14 109.185 131.028 109.064C130.914 108.943 130.827 108.8 130.774 108.643C130.719 108.487 130.695 108.322 130.708 108.156C130.722 107.819 130.861 107.499 131.099 107.261C131.337 107.022 131.655 106.883 131.993 106.87H143.387C143.552 106.869 143.716 106.902 143.867 106.967C144.018 107.032 144.155 107.128 144.269 107.249C144.381 107.37 144.468 107.513 144.523 107.669C144.578 107.826 144.599 107.991 144.587 108.156C144.575 108.494 144.434 108.813 144.196 109.052C143.959 109.291 143.639 109.43 143.303 109.443Z" fill="black"/>
<path d="M165.956 109.443H154.562C154.397 109.444 154.233 109.411 154.08 109.346C153.929 109.281 153.792 109.185 153.68 109.064C153.566 108.943 153.481 108.8 153.426 108.643C153.371 108.487 153.349 108.322 153.362 108.156C153.374 107.814 153.518 107.489 153.764 107.25C154.007 107.011 154.334 106.875 154.677 106.87H166.071C166.236 106.869 166.4 106.902 166.551 106.967C166.704 107.032 166.841 107.128 166.953 107.249C167.065 107.37 167.152 107.513 167.207 107.669C167.262 107.826 167.284 107.991 167.271 108.156C167.259 108.499 167.115 108.823 166.869 109.063C166.624 109.302 166.297 109.438 165.956 109.443Z" fill="black"/>
<path d="M188.608 109.443H177.214C177.049 109.444 176.885 109.411 176.734 109.346C176.581 109.281 176.444 109.185 176.332 109.064C176.219 108.943 176.133 108.8 176.078 108.643C176.023 108.487 176.002 108.322 176.014 108.156C176.027 107.814 176.171 107.489 176.416 107.25C176.661 107.011 176.988 106.875 177.33 106.87H188.716C188.884 106.869 189.047 106.902 189.198 106.967C189.351 107.032 189.488 107.128 189.602 107.249C189.714 107.37 189.801 107.513 189.858 107.669C189.913 107.825 189.936 107.991 189.924 108.156C189.911 108.499 189.767 108.823 189.522 109.063C189.278 109.302 188.949 109.438 188.608 109.443Z" fill="black"/>
</g>
<path d="M75.9794 133.738H61.1383C60.8128 133.739 60.4903 133.674 60.191 133.546C59.8914 133.418 59.621 133.231 59.3963 132.995C59.1718 132.759 58.9974 132.479 58.8841 132.174C58.7709 131.868 58.7209 131.542 58.7375 131.216L59.3794 116.345C59.4184 115.669 59.7115 115.033 60.2 114.565C60.6884 114.097 61.3357 113.832 62.0112 113.824H76.8523C77.1778 113.822 77.5001 113.887 77.7997 114.015C78.0992 114.143 78.3695 114.33 78.5942 114.567C78.8189 114.802 78.9933 115.082 79.1065 115.388C79.2198 115.693 79.2697 116.019 79.253 116.345L78.6112 131.216C78.5707 131.892 78.277 132.527 77.789 132.995C77.301 133.462 76.6546 133.728 75.9794 133.738Z" fill="#90C4E1"/>
<path d="M98.6324 133.738H83.7913C83.4656 133.74 83.1428 133.675 82.8429 133.548C82.543 133.421 82.2722 133.233 82.0473 132.997C81.8225 132.761 81.6482 132.481 81.5353 132.175C81.4224 131.868 81.3732 131.542 81.3906 131.216L82.0326 116.345C82.0715 115.669 82.3647 115.033 82.853 114.565C83.3416 114.097 83.9889 113.832 84.6644 113.824H99.5247C99.8505 113.822 100.173 113.887 100.473 114.015C100.773 114.143 101.044 114.33 101.269 114.566C101.494 114.802 101.669 115.081 101.783 115.387C101.897 115.693 101.948 116.019 101.932 116.345L101.258 131.216C101.22 131.892 100.929 132.528 100.441 132.996C99.954 133.464 99.3074 133.729 98.6324 133.738Z" fill="#90C4E1"/>
<path d="M121.278 133.738H106.444C106.118 133.739 105.795 133.674 105.495 133.546C105.196 133.419 104.925 133.231 104.7 132.995C104.475 132.759 104.3 132.48 104.185 132.174C104.071 131.868 104.021 131.542 104.036 131.216L104.678 116.345C104.717 115.669 105.011 115.033 105.499 114.565C105.987 114.097 106.635 113.832 107.31 113.824H122.146C122.471 113.821 122.793 113.886 123.093 114.013C123.394 114.141 123.664 114.328 123.89 114.564C124.114 114.801 124.288 115.081 124.402 115.387C124.514 115.693 124.563 116.019 124.546 116.345L123.904 131.216C123.865 131.891 123.573 132.527 123.086 132.994C122.599 133.462 121.954 133.728 121.278 133.738Z" fill="#90C4E1"/>
<path d="M143.931 133.738H129.117C128.789 133.74 128.468 133.675 128.167 133.548C127.867 133.421 127.595 133.233 127.371 132.997C127.145 132.761 126.969 132.481 126.855 132.175C126.743 131.869 126.692 131.543 126.709 131.216L127.351 116.345C127.389 115.669 127.68 115.033 128.167 114.565C128.654 114.097 129.301 113.832 129.977 113.824H144.818C145.143 113.822 145.465 113.887 145.765 114.015C146.064 114.143 146.334 114.33 146.56 114.567C146.784 114.802 146.958 115.082 147.072 115.388C147.184 115.693 147.234 116.019 147.218 116.345L146.576 131.216C146.537 131.894 146.242 132.532 145.751 133.001C145.261 133.469 144.61 133.732 143.931 133.738Z" fill="#90C4E1"/>
<path d="M166.585 133.738H151.744C151.417 133.739 151.095 133.674 150.797 133.546C150.496 133.418 150.226 133.231 150.002 132.995C149.776 132.759 149.602 132.479 149.49 132.174C149.376 131.868 149.326 131.542 149.342 131.216L149.984 116.345C150.023 115.669 150.317 115.033 150.805 114.565C151.294 114.097 151.941 113.832 152.617 113.824H167.451C167.778 113.821 168.1 113.886 168.4 114.013C168.701 114.141 168.973 114.328 169.197 114.564C169.422 114.8 169.597 115.08 169.71 115.386C169.824 115.692 169.876 116.019 169.858 116.345L169.216 131.216C169.175 131.892 168.882 132.527 168.395 132.995C167.906 133.462 167.259 133.728 166.585 133.738Z" fill="#90C4E1"/>
<path d="M189.23 133.738H174.396C174.071 133.74 173.747 133.675 173.447 133.548C173.148 133.421 172.876 133.233 172.652 132.997C172.427 132.761 172.252 132.481 172.14 132.175C172.026 131.868 171.979 131.542 171.996 131.216L172.638 116.345C172.677 115.669 172.969 115.033 173.458 114.565C173.947 114.097 174.594 113.832 175.269 113.824H190.105C190.43 113.822 190.752 113.887 191.052 114.015C191.353 114.143 191.623 114.33 191.849 114.566C192.073 114.802 192.249 115.081 192.362 115.387C192.476 115.693 192.526 116.019 192.512 116.345L191.836 131.216C191.801 131.889 191.511 132.522 191.027 132.989C190.544 133.457 189.902 133.724 189.23 133.738Z" fill="#90C4E1"/>
<g opacity="0.8">
<path d="M75.9794 133.738H61.1383C60.8128 133.739 60.4903 133.674 60.191 133.546C59.8914 133.419 59.621 133.231 59.3963 132.995C59.1718 132.759 58.9974 132.48 58.8841 132.174C58.7709 131.868 58.7209 131.542 58.7375 131.217L59.3794 116.345C59.4184 115.669 59.7115 115.033 60.2 114.565C60.6884 114.097 61.3357 113.832 62.0112 113.824H76.8523C77.1778 113.823 77.5001 113.888 77.7997 114.015C78.0992 114.143 78.3695 114.331 78.5942 114.567C78.8189 114.803 78.9933 115.082 79.1065 115.388C79.2198 115.694 79.2697 116.019 79.253 116.345L78.6112 131.217C78.5707 131.892 78.277 132.527 77.789 132.995C77.301 133.462 76.6546 133.728 75.9794 133.738Z" fill="#FAFAFA"/>
<path d="M98.6324 133.738H83.7913C83.4656 133.74 83.1428 133.675 82.8429 133.548C82.543 133.421 82.2722 133.233 82.0473 132.997C81.8225 132.761 81.6482 132.481 81.5353 132.175C81.4224 131.868 81.3732 131.542 81.3906 131.216L82.0326 116.345C82.0715 115.669 82.3647 115.033 82.853 114.565C83.3416 114.097 83.9889 113.832 84.6644 113.824H99.5247C99.8505 113.822 100.173 113.887 100.473 114.015C100.773 114.143 101.044 114.33 101.269 114.566C101.494 114.802 101.669 115.081 101.783 115.387C101.897 115.693 101.948 116.019 101.932 116.345L101.258 131.216C101.22 131.892 100.929 132.528 100.441 132.996C99.954 133.464 99.3074 133.729 98.6324 133.738Z" fill="#FAFAFA"/>
<path d="M121.28 133.738H106.445C106.119 133.739 105.796 133.674 105.496 133.546C105.197 133.419 104.926 133.231 104.701 132.995C104.475 132.759 104.301 132.48 104.186 132.174C104.072 131.868 104.022 131.542 104.037 131.216L104.679 116.345C104.718 115.669 105.011 115.033 105.5 114.565C105.988 114.097 106.635 113.832 107.311 113.824H122.146C122.471 113.821 122.795 113.886 123.095 114.013C123.394 114.141 123.666 114.328 123.89 114.564C124.115 114.801 124.29 115.081 124.402 115.387C124.515 115.693 124.563 116.019 124.547 116.345L123.904 131.216C123.867 131.891 123.573 132.527 123.086 132.994C122.599 133.462 121.954 133.728 121.28 133.738Z" fill="#FAFAFA"/>
<path d="M143.933 133.738H129.117C128.791 133.74 128.468 133.675 128.167 133.548C127.867 133.421 127.597 133.233 127.371 132.997C127.145 132.761 126.971 132.481 126.857 132.175C126.743 131.869 126.693 131.543 126.709 131.216L127.351 116.345C127.389 115.669 127.68 115.033 128.169 114.565C128.656 114.097 129.301 113.832 129.977 113.824H144.818C145.143 113.822 145.467 113.887 145.765 114.015C146.066 114.143 146.336 114.33 146.56 114.567C146.784 114.802 146.958 115.082 147.072 115.388C147.186 115.693 147.236 116.019 147.22 116.345L146.578 131.216C146.539 131.894 146.244 132.532 145.751 133.001C145.261 133.469 144.61 133.732 143.933 133.738Z" fill="#FAFAFA"/>
<path d="M166.585 133.738H151.744C151.419 133.739 151.097 133.674 150.796 133.546C150.498 133.418 150.227 133.231 150.002 132.995C149.778 132.759 149.603 132.479 149.49 132.174C149.376 131.868 149.326 131.542 149.344 131.216L149.986 116.345C150.025 115.669 150.318 115.033 150.805 114.565C151.294 114.097 151.941 113.832 152.617 113.824H167.452C167.778 113.821 168.101 113.886 168.402 114.013C168.702 114.141 168.972 114.328 169.198 114.564C169.424 114.8 169.598 115.08 169.712 115.386C169.826 115.692 169.875 116.019 169.859 116.345L169.218 131.216C169.177 131.892 168.883 132.527 168.395 132.995C167.907 133.462 167.26 133.728 166.585 133.738Z" fill="#FAFAFA"/>
<path d="M189.232 133.738H174.397C174.071 133.74 173.75 133.675 173.449 133.548C173.149 133.421 172.878 133.233 172.653 132.997C172.429 132.761 172.254 132.481 172.141 132.175C172.029 131.868 171.979 131.542 171.997 131.216L172.638 116.345C172.678 115.669 172.971 115.033 173.46 114.565C173.947 114.097 174.594 113.832 175.271 113.824H190.105C190.43 113.822 190.754 113.887 191.053 114.015C191.353 114.143 191.623 114.33 191.849 114.566C192.075 114.802 192.249 115.081 192.363 115.387C192.477 115.693 192.528 116.019 192.512 116.345L191.838 131.216C191.801 131.889 191.511 132.522 191.03 132.989C190.546 133.457 189.904 133.724 189.232 133.738Z" fill="#FAFAFA"/>
</g>
<path d="M74.9387 156.81H60.0977C59.7722 156.812 59.4498 156.746 59.1503 156.618C58.8509 156.492 58.5805 156.303 58.3558 156.068C58.1311 155.831 57.9569 155.551 57.8434 155.246C57.7302 154.94 57.6804 154.614 57.6969 154.288L58.3389 139.417C58.3793 138.742 58.6729 138.107 59.1609 137.639C59.6491 137.172 60.2955 136.906 60.9707 136.896H75.8374C76.1629 136.895 76.4852 136.96 76.7848 137.087C77.0843 137.215 77.3545 137.403 77.5793 137.639C77.804 137.875 77.9784 138.154 78.0916 138.46C78.2049 138.766 78.2548 139.092 78.2381 139.417L77.5963 154.288C77.5554 154.968 77.2582 155.608 76.7647 156.076C76.2712 156.543 75.6184 156.807 74.9387 156.81Z" fill="#90C4E1"/>
<path d="M97.5911 156.811H82.75C82.4245 156.812 82.1022 156.746 81.8027 156.618C81.5033 156.492 81.2329 156.303 81.0082 156.068C80.7835 155.831 80.6091 155.551 80.4958 155.246C80.3826 154.94 80.3326 154.614 80.3493 154.288L80.9911 139.417C81.0301 138.741 81.3234 138.105 81.8117 137.637C82.3001 137.17 82.9474 136.905 83.6231 136.896H98.4578C98.7863 136.894 99.1118 136.959 99.4142 137.088C99.7166 137.217 99.9893 137.406 100.216 137.645C100.442 137.884 100.617 138.167 100.73 138.476C100.842 138.785 100.891 139.114 100.871 139.443L100.229 154.288C100.192 154.967 99.8981 155.605 99.4082 156.073C98.918 156.542 98.2683 156.805 97.5911 156.811Z" fill="#90C4E1"/>
<path d="M120.238 156.811H105.404C105.078 156.812 104.756 156.748 104.456 156.62C104.156 156.493 103.885 156.306 103.66 156.069C103.435 155.833 103.261 155.553 103.148 155.246C103.035 154.942 102.986 154.614 103.003 154.288L103.645 139.417C103.684 138.741 103.977 138.105 104.466 137.637C104.954 137.17 105.602 136.905 106.277 136.896H121.111C121.438 136.894 121.76 136.958 122.06 137.086C122.361 137.213 122.631 137.401 122.855 137.637C123.081 137.873 123.255 138.153 123.367 138.459C123.481 138.765 123.531 139.091 123.513 139.417L122.871 154.288C122.832 154.965 122.539 155.601 122.05 156.069C121.561 156.536 120.914 156.802 120.238 156.811Z" fill="#90C4E1"/>
<path d="M142.892 156.811H128.057C127.732 156.812 127.41 156.746 127.109 156.618C126.809 156.492 126.539 156.303 126.313 156.068C126.089 155.833 125.913 155.553 125.799 155.246C125.685 154.94 125.636 154.614 125.65 154.288L126.292 139.417C126.329 138.742 126.622 138.106 127.109 137.638C127.596 137.17 128.244 136.905 128.917 136.896H143.758C144.089 136.89 144.418 136.953 144.722 137.08C145.028 137.207 145.303 137.397 145.532 137.636C145.76 137.875 145.936 138.159 146.05 138.47C146.164 138.781 146.212 139.113 146.192 139.443L145.55 154.315C145.504 154.99 145.205 155.624 144.711 156.087C144.219 156.55 143.568 156.809 142.892 156.811Z" fill="#90C4E1"/>
<path d="M165.545 156.81H150.704C150.379 156.812 150.055 156.746 149.756 156.618C149.456 156.492 149.186 156.303 148.962 156.068C148.736 155.831 148.562 155.551 148.45 155.246C148.336 154.94 148.286 154.614 148.302 154.288L148.944 139.417C148.98 138.736 149.271 138.094 149.76 137.621C150.251 137.147 150.903 136.879 151.582 136.87H166.423C166.748 136.869 167.072 136.934 167.371 137.062C167.671 137.19 167.941 137.377 168.165 137.613C168.391 137.849 168.565 138.129 168.677 138.434C168.791 138.74 168.841 139.066 168.825 139.392L168.183 154.263C168.148 154.944 167.856 155.587 167.367 156.06C166.876 156.533 166.226 156.802 165.545 156.81Z" fill="#90C4E1"/>
<path d="M188.174 156.81H173.358C173.033 156.812 172.709 156.748 172.409 156.62C172.11 156.493 171.838 156.305 171.614 156.069C171.388 155.832 171.214 155.553 171.102 155.246C170.988 154.94 170.94 154.614 170.958 154.288L171.6 139.417C171.639 138.741 171.931 138.105 172.42 137.637C172.908 137.169 173.556 136.904 174.231 136.896H189.067C189.392 136.895 189.714 136.96 190.014 137.087C190.315 137.215 190.585 137.403 190.811 137.639C191.035 137.874 191.211 138.154 191.324 138.46C191.438 138.765 191.488 139.091 191.474 139.417L190.798 154.288C190.761 154.965 190.469 155.601 189.982 156.068C189.495 156.536 188.848 156.802 188.174 156.81Z" fill="#90C4E1"/>
<g opacity="0.8">
<path d="M74.9393 156.81H60.0982C59.7727 156.812 59.4504 156.746 59.1508 156.618C58.8514 156.491 58.581 156.303 58.3563 156.067C58.1316 155.831 57.9572 155.553 57.844 155.246C57.7307 154.94 57.6808 154.614 57.6975 154.29L58.3394 139.417C58.3798 138.742 58.6735 138.107 59.1615 137.639C59.6497 137.172 60.2961 136.906 60.9713 136.896H75.8379C76.1634 136.895 76.4858 136.96 76.7853 137.088C77.0847 137.215 77.3551 137.403 77.5798 137.639C77.8045 137.875 77.9789 138.154 78.0921 138.46C78.2054 138.766 78.2553 139.092 78.2386 139.417L77.5969 154.29C77.556 154.968 77.2587 155.608 76.7652 156.076C76.2717 156.545 75.6189 156.807 74.9393 156.81Z" fill="#FAFAFA"/>
<path d="M97.5921 156.811H82.751C82.4255 156.812 82.1032 156.746 81.8037 156.618C81.5041 156.492 81.2339 156.303 81.0092 156.068C80.7845 155.831 80.6101 155.551 80.4968 155.246C80.3836 154.94 80.3336 154.614 80.3503 154.288L80.9921 139.417C81.031 138.741 81.3244 138.105 81.8127 137.637C82.3011 137.17 82.9484 136.905 83.6241 136.896H98.4586C98.7873 136.894 99.1128 136.959 99.4152 137.088C99.7176 137.217 99.9903 137.406 100.217 137.645C100.443 137.884 100.618 138.167 100.731 138.476C100.843 138.785 100.892 139.114 100.872 139.443L100.23 154.288C100.193 154.967 99.8991 155.605 99.4092 156.073C98.919 156.542 98.2693 156.805 97.5921 156.811Z" fill="#FAFAFA"/>
<path d="M120.238 156.811H105.404C105.078 156.812 104.756 156.748 104.456 156.62C104.156 156.493 103.885 156.306 103.66 156.069C103.435 155.833 103.261 155.553 103.148 155.246C103.035 154.942 102.986 154.614 103.003 154.288L103.645 139.417C103.684 138.741 103.977 138.105 104.466 137.637C104.954 137.17 105.602 136.905 106.277 136.896H121.111C121.438 136.894 121.76 136.958 122.06 137.086C122.361 137.213 122.631 137.401 122.855 137.637C123.081 137.873 123.255 138.153 123.367 138.459C123.481 138.765 123.531 139.091 123.513 139.417L122.871 154.288C122.832 154.965 122.539 155.601 122.05 156.069C121.561 156.536 120.914 156.802 120.238 156.811Z" fill="#FAFAFA"/>
<path d="M142.892 156.81H128.057C127.732 156.812 127.41 156.746 127.109 156.618C126.809 156.492 126.539 156.303 126.313 156.068C126.089 155.832 125.913 155.553 125.799 155.246C125.685 154.94 125.636 154.616 125.65 154.29L126.292 139.417C126.329 138.742 126.622 138.106 127.109 137.638C127.596 137.17 128.244 136.905 128.917 136.896H143.758C144.089 136.89 144.418 136.953 144.722 137.08C145.028 137.207 145.303 137.397 145.532 137.636C145.76 137.875 145.936 138.159 146.05 138.47C146.164 138.781 146.212 139.113 146.192 139.443L145.55 154.315C145.504 154.99 145.205 155.624 144.711 156.087C144.219 156.55 143.568 156.809 142.892 156.81Z" fill="#FAFAFA"/>
<path d="M165.545 156.81H150.704C150.378 156.812 150.057 156.746 149.756 156.618C149.458 156.492 149.187 156.303 148.962 156.068C148.738 155.831 148.563 155.551 148.45 155.246C148.336 154.94 148.286 154.614 148.304 154.288L148.946 139.417C148.979 138.736 149.271 138.094 149.762 137.621C150.252 137.147 150.903 136.879 151.584 136.87H166.425C166.75 136.869 167.072 136.934 167.372 137.062C167.671 137.19 167.941 137.377 168.167 137.613C168.391 137.849 168.565 138.129 168.679 138.434C168.793 138.74 168.842 139.066 168.825 139.392L168.183 154.263C168.149 154.944 167.858 155.587 167.367 156.06C166.876 156.533 166.226 156.802 165.545 156.81Z" fill="#FAFAFA"/>
<path d="M188.172 156.811H173.358C173.031 156.812 172.709 156.748 172.409 156.62C172.108 156.493 171.838 156.306 171.612 156.07C171.388 155.833 171.214 155.553 171.1 155.248C170.988 154.942 170.938 154.616 170.956 154.29L171.598 139.418C171.637 138.742 171.93 138.106 172.419 137.638C172.906 137.17 173.555 136.905 174.231 136.896H189.065C189.39 136.895 189.714 136.96 190.012 137.088C190.313 137.215 190.583 137.403 190.809 137.639C191.034 137.875 191.209 138.154 191.322 138.46C191.436 138.766 191.488 139.092 191.472 139.418L190.798 154.29C190.761 154.965 190.469 155.601 189.982 156.068C189.495 156.536 188.848 156.802 188.172 156.811Z" fill="#FAFAFA"/>
</g>
<path d="M73.912 179.876H59.0579C58.7323 179.878 58.4094 179.814 58.1095 179.688C57.8096 179.559 57.5388 179.372 57.3139 179.135C57.0891 178.9 56.9148 178.619 56.8019 178.314C56.689 178.008 56.6398 177.682 56.6572 177.356L57.2992 162.49C57.3381 161.815 57.6313 161.179 58.1198 160.71C58.6082 160.242 59.2555 159.978 59.931 159.969H74.7721C75.0978 159.966 75.4206 160.031 75.7205 160.158C76.0204 160.286 76.2912 160.473 76.5161 160.71C76.741 160.945 76.9152 161.225 77.0283 161.531C77.1411 161.838 77.1904 162.164 77.1728 162.49L76.531 177.356C76.4937 178.029 76.2027 178.665 75.7168 179.132C75.2307 179.6 74.5858 179.866 73.912 179.876Z" fill="#90C4E1"/>
<path d="M96.5519 179.877H81.7108C81.3851 179.878 81.0623 179.814 80.7623 179.688C80.4624 179.559 80.1917 179.372 79.9668 179.135C79.7419 178.9 79.5677 178.619 79.4548 178.314C79.3417 178.008 79.2926 177.682 79.3101 177.356L79.952 162.49C79.9894 161.813 80.2822 161.177 80.7709 160.708C81.2596 160.24 81.9078 159.976 82.5838 159.969H97.4185C97.7447 159.966 98.0683 160.03 98.3689 160.156C98.6697 160.284 98.9412 160.471 99.1668 160.707C99.3922 160.944 99.5671 161.223 99.6804 161.53C99.7938 161.838 99.8432 162.164 99.8256 162.49L99.1837 177.356C99.1478 178.033 98.8555 178.67 98.3664 179.139C97.8774 179.608 97.2285 179.871 96.5519 179.877Z" fill="#90C4E1"/>
<path d="M119.198 179.876H104.363C104.037 179.878 103.715 179.814 103.415 179.688C103.115 179.559 102.844 179.372 102.619 179.135C102.394 178.9 102.22 178.619 102.107 178.314C101.994 178.008 101.945 177.682 101.962 177.356L102.604 162.49C102.642 161.813 102.935 161.177 103.423 160.708C103.912 160.24 104.56 159.976 105.236 159.969H120.128C120.455 159.967 120.778 160.031 121.077 160.158C121.378 160.286 121.65 160.473 121.875 160.71C122.099 160.945 122.275 161.225 122.389 161.531C122.503 161.838 122.553 162.164 122.537 162.49L121.861 177.356C121.824 178.036 121.527 178.679 121.031 179.148C120.535 179.616 119.879 179.878 119.198 179.876Z" fill="#90C4E1"/>
<path d="M141.853 179.876H127.017C126.692 179.878 126.368 179.814 126.068 179.688C125.767 179.559 125.497 179.372 125.271 179.135C125.045 178.9 124.871 178.621 124.757 178.314C124.644 178.008 124.594 177.682 124.61 177.356L125.252 162.49C125.287 161.815 125.579 161.177 126.068 160.708C126.555 160.24 127.202 159.976 127.877 159.969H142.718C143.044 159.966 143.367 160.031 143.668 160.158C143.966 160.286 144.238 160.473 144.462 160.71C144.688 160.945 144.862 161.225 144.974 161.531C145.088 161.838 145.136 162.164 145.118 162.49L144.477 177.356C144.439 178.031 144.148 178.667 143.661 179.135C143.173 179.602 142.526 179.868 141.853 179.876Z" fill="#90C4E1"/>
<path d="M164.505 179.876H149.657C149.332 179.878 149.01 179.814 148.709 179.688C148.409 179.559 148.139 179.372 147.913 179.135C147.689 178.9 147.515 178.619 147.401 178.314C147.289 178.008 147.239 177.682 147.257 177.356L147.899 162.49C147.938 161.815 148.231 161.179 148.72 160.71C149.207 160.242 149.854 159.978 150.532 159.969H165.372C165.698 159.966 166.02 160.031 166.32 160.158C166.62 160.286 166.891 160.473 167.117 160.71C167.341 160.945 167.515 161.225 167.628 161.531C167.74 161.838 167.79 162.164 167.772 162.49L167.131 177.356C167.092 178.029 166.8 178.665 166.313 179.134C165.826 179.6 165.18 179.866 164.505 179.876Z" fill="#90C4E1"/>
<path d="M187.159 179.876H172.318C171.991 179.878 171.669 179.814 171.369 179.688C171.069 179.559 170.798 179.372 170.574 179.135C170.349 178.9 170.174 178.619 170.061 178.314C169.949 178.008 169.899 177.682 169.917 177.356L170.558 162.49C170.596 161.813 170.889 161.177 171.378 160.708C171.867 160.24 172.514 159.976 173.191 159.969H188.025C188.35 159.967 188.674 160.031 188.974 160.158C189.275 160.286 189.545 160.473 189.771 160.71C189.997 160.945 190.171 161.225 190.285 161.531C190.398 161.838 190.448 162.164 190.432 162.49L189.758 177.356C189.723 178.027 189.435 178.66 188.953 179.128C188.471 179.595 187.829 179.862 187.159 179.876Z" fill="#90C4E1"/>
<g opacity="0.8">
<path d="M73.912 179.876H59.0579C58.7323 179.878 58.4094 179.814 58.1095 179.688C57.8096 179.559 57.5388 179.372 57.3139 179.135C57.0891 178.9 56.9148 178.621 56.8019 178.314C56.689 178.008 56.6398 177.682 56.6572 177.356L57.2992 162.49C57.3381 161.815 57.6313 161.179 58.1198 160.71C58.6082 160.242 59.2555 159.978 59.931 159.969H74.7721C75.0978 159.967 75.4206 160.031 75.7205 160.158C76.0204 160.286 76.2912 160.473 76.5161 160.71C76.741 160.945 76.9152 161.225 77.0283 161.531C77.1411 161.838 77.1904 162.164 77.1728 162.49L76.531 177.356C76.4937 178.029 76.2027 178.665 75.7168 179.132C75.2307 179.6 74.5858 179.866 73.912 179.876Z" fill="#FAFAFA"/>
<path d="M96.5519 179.877H81.7108C81.3851 179.878 81.0623 179.814 80.7623 179.688C80.4624 179.559 80.1917 179.372 79.9668 179.135C79.7419 178.9 79.5677 178.619 79.4548 178.314C79.3417 178.008 79.2926 177.682 79.3101 177.356L79.952 162.49C79.9894 161.813 80.2822 161.177 80.7709 160.708C81.2596 160.24 81.9078 159.976 82.5838 159.969H97.4185C97.7447 159.966 98.0683 160.03 98.3689 160.156C98.6697 160.284 98.9412 160.471 99.1668 160.707C99.3922 160.944 99.5671 161.223 99.6804 161.53C99.7938 161.838 99.8432 162.164 99.8256 162.49L99.1837 177.356C99.1478 178.033 98.8555 178.67 98.3664 179.139C97.8774 179.608 97.2285 179.871 96.5519 179.877Z" fill="#FAFAFA"/>
<path d="M119.199 179.876H104.364C104.038 179.878 103.715 179.814 103.415 179.688C103.115 179.559 102.845 179.372 102.62 179.135C102.395 178.9 102.221 178.619 102.108 178.314C101.995 178.008 101.945 177.682 101.963 177.356L102.605 162.49C102.642 161.813 102.935 161.177 103.424 160.708C103.912 160.24 104.561 159.976 105.237 159.969H120.128C120.455 159.967 120.779 160.031 121.078 160.158C121.378 160.286 121.65 160.473 121.876 160.71C122.1 160.945 122.276 161.225 122.39 161.531C122.503 161.838 122.553 162.164 122.537 162.49L121.862 177.356C121.824 178.036 121.527 178.679 121.031 179.148C120.535 179.616 119.879 179.878 119.199 179.876Z" fill="#FAFAFA"/>
<path d="M141.853 179.876H127.017C126.692 179.878 126.368 179.814 126.068 179.688C125.767 179.559 125.497 179.372 125.271 179.135C125.045 178.9 124.871 178.621 124.757 178.314C124.644 178.008 124.594 177.682 124.61 177.356L125.252 162.49C125.287 161.815 125.579 161.177 126.068 160.708C126.555 160.24 127.202 159.976 127.877 159.969H142.718C143.044 159.966 143.367 160.031 143.668 160.158C143.966 160.286 144.238 160.473 144.462 160.71C144.688 160.945 144.862 161.225 144.974 161.531C145.088 161.838 145.136 162.164 145.118 162.49L144.477 177.356C144.439 178.031 144.148 178.667 143.661 179.135C143.173 179.602 142.526 179.868 141.853 179.876Z" fill="#FAFAFA"/>
<path d="M164.505 179.876H149.657C149.332 179.878 149.008 179.814 148.708 179.688C148.409 179.559 148.137 179.372 147.913 179.135C147.687 178.9 147.513 178.619 147.401 178.314C147.287 178.008 147.239 177.682 147.257 177.356L147.899 162.49C147.938 161.815 148.229 161.179 148.718 160.71C149.207 160.242 149.854 159.978 150.53 159.969H165.371C165.696 159.966 166.02 160.031 166.32 160.158C166.619 160.286 166.891 160.473 167.115 160.71C167.341 160.945 167.515 161.225 167.627 161.531C167.741 161.838 167.789 162.164 167.773 162.49L167.129 177.356C167.092 178.029 166.798 178.665 166.311 179.134C165.824 179.6 165.179 179.866 164.505 179.876Z" fill="#FAFAFA"/>
<path d="M187.158 179.876H172.317C171.991 179.878 171.668 179.814 171.369 179.688C171.069 179.559 170.798 179.372 170.573 179.135C170.349 178.9 170.174 178.619 170.061 178.314C169.947 178.008 169.899 177.682 169.917 177.356L170.558 162.49C170.596 161.813 170.887 161.177 171.376 160.708C171.865 160.24 172.514 159.976 173.19 159.969H188.025C188.35 159.967 188.674 160.031 188.974 160.158C189.275 160.286 189.545 160.473 189.771 160.71C189.997 160.945 190.171 161.225 190.285 161.531C190.398 161.838 190.448 162.164 190.432 162.49L189.758 177.356C189.723 178.027 189.435 178.66 188.951 179.128C188.47 179.595 187.83 179.862 187.158 179.876Z" fill="#FAFAFA"/>
</g>
<path d="M69.7067 101.776C64.2377 101.776 59.9497 95.4012 59.9497 87.2644C59.9497 79.1276 64.2377 72.7595 69.7067 72.7595C75.1758 72.7595 79.4702 79.134 79.4702 87.2644C79.4454 87.6458 79.2766 88.0033 78.9982 88.2645C78.7198 88.5258 78.3527 88.6712 77.9714 88.6712C77.5901 88.6712 77.223 88.5258 76.9446 88.2645C76.6662 88.0033 76.4974 87.6458 76.4725 87.2644C76.4725 81.0314 73.3785 75.7569 69.7067 75.7569C66.035 75.7569 62.941 81.0314 62.941 87.2644C62.941 93.4972 66.0414 98.7716 69.7067 98.7716C69.9118 98.7583 70.1175 98.7871 70.3109 98.8564C70.5045 98.9259 70.6818 99.0344 70.8317 99.1751C70.9817 99.3159 71.1013 99.486 71.1831 99.675C71.2647 99.864 71.307 100.068 71.307 100.274C71.307 100.48 71.2647 100.683 71.1831 100.872C71.1013 101.061 70.9817 101.231 70.8317 101.372C70.6818 101.513 70.5045 101.621 70.3109 101.691C70.1175 101.76 69.9118 101.789 69.7067 101.776Z" fill="#90C4E1"/>
<path d="M92.3612 101.776C86.892 101.776 82.604 95.4012 82.604 87.2644C82.604 79.1276 86.892 72.7595 92.3612 72.7595C97.8303 72.7595 102.157 79.134 102.157 87.2644C102.132 87.6458 101.963 88.0033 101.685 88.2645C101.406 88.5258 101.039 88.6712 100.658 88.6712C100.277 88.6712 99.9094 88.5258 99.631 88.2645C99.3528 88.0033 99.1839 87.6458 99.159 87.2644C99.159 81.0314 96.065 75.7569 92.3933 75.7569C88.7215 75.7569 85.6275 81.0314 85.6275 87.2644C85.6275 93.4972 88.7279 98.7716 92.3933 98.7716C92.7738 98.7968 93.1308 98.9658 93.3914 99.2448C93.6522 99.5236 93.7973 99.8914 93.7973 100.274C93.7973 100.656 93.6522 101.024 93.3914 101.303C93.1308 101.581 92.7738 101.751 92.3933 101.776H92.3612Z" fill="#90C4E1"/>
<path d="M114.994 101.776C109.519 101.776 105.231 95.4012 105.231 87.2644C105.231 79.1276 109.519 72.7595 114.994 72.7595C120.469 72.7595 124.752 79.134 124.752 87.2644C124.752 87.6618 124.594 88.043 124.313 88.3241C124.034 88.6051 123.653 88.7631 123.255 88.7631C122.859 88.7631 122.478 88.6051 122.199 88.3241C121.918 88.043 121.76 87.6618 121.76 87.2644C121.76 81.0314 118.66 75.7569 114.994 75.7569C111.329 75.7569 108.229 81.0314 108.229 87.2644C108.229 93.4972 111.329 98.7716 114.994 98.7716C115.374 98.7968 115.732 98.9658 115.993 99.2448C116.252 99.5236 116.398 99.8914 116.398 100.274C116.398 100.656 116.252 101.024 115.993 101.303C115.732 101.581 115.374 101.751 114.994 101.776Z" fill="#90C4E1"/>
<path d="M137.666 101.776C132.19 101.776 127.902 95.4012 127.902 87.2644C127.902 79.1276 132.19 72.7595 137.666 72.7595C143.141 72.7595 147.424 79.134 147.424 87.2644C147.424 87.6618 147.266 88.043 146.985 88.3241C146.704 88.6051 146.324 88.7631 145.927 88.7631C145.531 88.7631 145.15 88.6051 144.869 88.3241C144.59 88.043 144.432 87.6618 144.432 87.2644C144.432 81.0314 141.332 75.7569 137.666 75.7569C134.002 75.7569 130.901 81.0314 130.901 87.2644C130.901 93.4972 133.995 98.7716 137.666 98.7716C138.046 98.7968 138.404 98.9658 138.665 99.2448C138.925 99.5236 139.07 99.8914 139.07 100.274C139.07 100.656 138.925 101.024 138.665 101.303C138.404 101.581 138.046 101.751 137.666 101.776Z" fill="#90C4E1"/>
<path d="M160.315 101.776C154.845 101.776 150.557 95.4012 150.557 87.2644C150.557 79.1276 154.845 72.7595 160.315 72.7595C165.783 72.7595 170.078 79.134 170.078 87.2644C170.054 87.6458 169.885 88.0033 169.606 88.2645C169.328 88.5258 168.96 88.6712 168.58 88.6712C168.198 88.6712 167.831 88.5258 167.552 88.2645C167.275 88.0033 167.106 87.6458 167.081 87.2644C167.081 81.0314 163.986 75.7569 160.315 75.7569C156.642 75.7569 153.549 81.0314 153.549 87.2644C153.549 93.4972 156.649 98.7716 160.315 98.7716C160.519 98.7583 160.726 98.7871 160.919 98.8564C161.113 98.9259 161.289 99.0344 161.44 99.1751C161.59 99.3159 161.709 99.486 161.79 99.675C161.872 99.864 161.915 100.068 161.915 100.274C161.915 100.48 161.872 100.683 161.79 100.872C161.709 101.061 161.59 101.231 161.44 101.372C161.289 101.513 161.113 101.621 160.919 101.691C160.726 101.76 160.519 101.789 160.315 101.776Z" fill="#90C4E1"/>
<path d="M182.967 101.776C177.498 101.776 173.21 95.4012 173.21 87.2644C173.21 79.1276 177.498 72.7595 182.967 72.7595C188.435 72.7595 192.73 79.134 192.73 87.2644C192.706 87.6458 192.537 88.0033 192.258 88.2645C191.98 88.5258 191.612 88.6712 191.232 88.6712C190.85 88.6712 190.483 88.5258 190.204 88.2645C189.927 88.0033 189.758 87.6458 189.733 87.2644C189.733 81.0314 186.633 75.7569 182.967 75.7569C179.301 75.7569 176.201 81.0314 176.201 87.2644C176.201 93.4972 179.301 98.7716 182.967 98.7716C183.347 98.7968 183.705 98.9658 183.964 99.2448C184.226 99.5236 184.371 99.8914 184.371 100.274C184.371 100.656 184.226 101.024 183.964 101.303C183.705 101.581 183.347 101.751 182.967 101.776Z" fill="#90C4E1"/>
<g opacity="0.3">
<path d="M69.7067 101.776C64.2377 101.776 59.9497 95.4012 59.9497 87.2644C59.9497 79.1276 64.2377 72.7595 69.7067 72.7595C75.1758 72.7595 79.4702 79.134 79.4702 87.2644C79.4454 87.6458 79.2766 88.0033 78.9982 88.2645C78.7198 88.5258 78.3527 88.6712 77.9714 88.6712C77.5901 88.6712 77.223 88.5258 76.9446 88.2645C76.6662 88.0033 76.4974 87.6458 76.4725 87.2644C76.4725 81.0314 73.3785 75.7569 69.7067 75.7569C66.035 75.7569 62.941 81.0314 62.941 87.2644C62.941 93.4972 66.0414 98.7716 69.7067 98.7716C69.9118 98.7583 70.1175 98.7871 70.3109 98.8564C70.5045 98.9259 70.6818 99.0344 70.8317 99.1751C70.9817 99.3159 71.1013 99.486 71.1831 99.675C71.2647 99.864 71.307 100.068 71.307 100.274C71.307 100.48 71.2647 100.683 71.1831 100.872C71.1013 101.061 70.9817 101.231 70.8317 101.372C70.6818 101.513 70.5045 101.621 70.3109 101.691C70.1175 101.76 69.9118 101.789 69.7067 101.776Z" fill="black"/>
<path d="M92.3595 101.776C86.8905 101.776 82.6025 95.4012 82.6025 87.2644C82.6025 79.1276 86.8905 72.7595 92.3595 72.7595C97.8287 72.7595 102.155 79.134 102.155 87.2644C102.13 87.6458 101.961 88.0033 101.683 88.2645C101.405 88.5258 101.038 88.6712 100.656 88.6712C100.275 88.6712 99.9078 88.5258 99.6296 88.2645C99.3512 88.0033 99.1825 87.6458 99.1574 87.2644C99.1574 81.0314 96.0633 75.7569 92.3917 75.7569C88.7199 75.7569 85.6258 81.0314 85.6258 87.2644C85.6258 93.4972 88.7263 98.7716 92.3917 98.7716C92.7723 98.7968 93.1291 98.9658 93.3897 99.2448C93.6505 99.5236 93.7956 99.8914 93.7956 100.274C93.7956 100.656 93.6505 101.024 93.3897 101.303C93.1291 101.581 92.7723 101.751 92.3917 101.776H92.3595Z" fill="black"/>
<path d="M114.994 101.776C109.519 101.776 105.231 95.4012 105.231 87.2644C105.231 79.1276 109.519 72.7595 114.994 72.7595C120.469 72.7595 124.752 79.134 124.752 87.2644C124.752 87.6618 124.594 88.043 124.313 88.3241C124.034 88.6051 123.653 88.7631 123.255 88.7631C122.859 88.7631 122.478 88.6051 122.199 88.3241C121.918 88.043 121.76 87.6618 121.76 87.2644C121.76 81.0314 118.66 75.7569 114.994 75.7569C111.329 75.7569 108.229 81.0314 108.229 87.2644C108.229 93.4972 111.329 98.7716 114.994 98.7716C115.374 98.7968 115.732 98.9658 115.993 99.2448C116.252 99.5236 116.398 99.8914 116.398 100.274C116.398 100.656 116.252 101.024 115.993 101.303C115.732 101.581 115.374 101.751 114.994 101.776Z" fill="black"/>
<path d="M137.666 101.776C132.19 101.776 127.902 95.4012 127.902 87.2644C127.902 79.1276 132.19 72.7595 137.666 72.7595C143.141 72.7595 147.424 79.134 147.424 87.2644C147.424 87.6618 147.266 88.043 146.985 88.3241C146.704 88.6051 146.324 88.7631 145.927 88.7631C145.531 88.7631 145.15 88.6051 144.869 88.3241C144.59 88.043 144.432 87.6618 144.432 87.2644C144.432 81.0314 141.332 75.7569 137.666 75.7569C134.002 75.7569 130.901 81.0314 130.901 87.2644C130.901 93.4972 133.995 98.7716 137.666 98.7716C138.046 98.7968 138.404 98.9658 138.665 99.2448C138.925 99.5236 139.07 99.8914 139.07 100.274C139.07 100.656 138.925 101.024 138.665 101.303C138.404 101.581 138.046 101.751 137.666 101.776Z" fill="black"/>
<path d="M160.313 101.776C154.845 101.776 150.557 95.4012 150.557 87.2644C150.557 79.1276 154.845 72.7595 160.313 72.7595C165.783 72.7595 170.077 79.134 170.077 87.2644C170.052 87.6458 169.883 88.0033 169.606 88.2645C169.326 88.5258 168.96 88.6712 168.578 88.6712C168.198 88.6712 167.83 88.5258 167.552 88.2645C167.273 88.0033 167.104 87.6458 167.079 87.2644C167.079 81.0314 163.986 75.7569 160.313 75.7569C156.642 75.7569 153.549 81.0314 153.549 87.2644C153.549 93.4972 156.649 98.7716 160.313 98.7716C160.519 98.7583 160.724 98.7871 160.918 98.8564C161.111 98.9259 161.289 99.0344 161.438 99.1751C161.59 99.3159 161.709 99.486 161.79 99.675C161.872 99.864 161.913 100.068 161.913 100.274C161.913 100.48 161.872 100.683 161.79 100.872C161.709 101.061 161.59 101.231 161.438 101.372C161.289 101.513 161.111 101.621 160.918 101.691C160.724 101.76 160.519 101.789 160.313 101.776Z" fill="black"/>
<path d="M182.967 101.776C177.497 101.776 173.209 95.4012 173.209 87.2644C173.209 79.1276 177.497 72.7595 182.967 72.7595C188.436 72.7595 192.731 79.134 192.731 87.2644C192.706 87.6458 192.537 88.0033 192.258 88.2645C191.979 88.5258 191.613 88.6712 191.23 88.6712C190.85 88.6712 190.482 88.5258 190.205 88.2645C189.925 88.0033 189.757 87.6458 189.732 87.2644C189.732 81.0314 186.631 75.7569 182.967 75.7569C179.301 75.7569 176.201 81.0314 176.201 87.2644C176.201 93.4972 179.301 98.7716 182.967 98.7716C183.348 98.7968 183.703 98.9658 183.965 99.2448C184.226 99.5236 184.37 99.8914 184.37 100.274C184.37 100.656 184.226 101.024 183.965 101.303C183.703 101.581 183.348 101.751 182.967 101.776Z" fill="black"/>
</g>
<path d="M139.181 134.568C133.943 133.525 128.064 134.741 125.965 140.273C124.276 144.724 126.439 149.548 131.101 150.725C135.207 151.76 142.295 150.494 143.758 145.747C145.433 140.318 138.622 138.555 134.804 138.234C133.655 138.137 133.661 139.939 134.804 140.035C136.542 140.183 138.533 140.279 140.073 141.238C143.284 143.251 141.961 146.48 139.227 148.024C136.493 149.568 132.301 149.953 129.598 148.243C126.645 146.358 126.548 142.216 128.313 139.514C130.631 135.944 134.86 135.545 138.674 136.298C139.804 136.523 140.286 134.786 139.149 134.561L139.181 134.568Z" fill="#90C4E1"/>
<path opacity="0.1" d="M139.181 134.568C133.943 133.525 128.064 134.741 125.965 140.273C124.276 144.724 126.439 149.548 131.101 150.725C135.207 151.76 142.295 150.494 143.758 145.747C145.433 140.318 138.622 138.555 134.804 138.234C133.655 138.137 133.661 139.939 134.804 140.035C136.542 140.183 138.533 140.279 140.073 141.238C143.284 143.251 141.961 146.48 139.227 148.024C136.493 149.568 132.301 149.953 129.598 148.243C126.645 146.358 126.548 142.216 128.313 139.514C130.631 135.944 134.86 135.545 138.674 136.298C139.804 136.523 140.286 134.786 139.149 134.561L139.181 134.568Z" fill="#FAFAFA"/>
<path d="M81.3902 113.849C86.3997 120.503 91.9846 126.702 98.08 132.374C98.9273 133.165 100.205 131.892 99.3639 131.088C93.3726 125.528 87.8804 119.452 82.9501 112.929C82.2633 112.016 80.7035 112.929 81.403 113.836L81.3902 113.849Z" fill="#90C4E1"/>
<path d="M83.2457 131.621C87.0329 124.874 93.664 119.117 99.9355 114.711C100.873 114.068 99.9805 112.485 99.0304 113.154C92.5085 117.747 85.6528 123.678 81.6987 130.708C81.5902 130.913 81.5646 131.152 81.6276 131.375C81.6905 131.598 81.8368 131.788 82.0363 131.906C82.2356 132.024 82.4727 132.06 82.698 132.007C82.9232 131.954 83.1195 131.816 83.2457 131.621Z" fill="#90C4E1"/>
<g opacity="0.2">
<path d="M81.3902 113.849C86.3997 120.503 91.9846 126.702 98.08 132.374C98.9273 133.165 100.205 131.892 99.3639 131.088C93.3726 125.528 87.8804 119.452 82.9501 112.929C82.2633 112.016 80.7035 112.929 81.403 113.836L81.3902 113.849Z" fill="black"/>
<path d="M83.2467 131.622C87.0339 124.874 93.6649 119.117 99.9365 114.711C100.874 114.068 99.9813 112.486 99.0313 113.155C92.5095 117.747 85.6538 123.678 81.6997 130.708C81.5911 130.913 81.5656 131.152 81.6286 131.375C81.6915 131.598 81.8378 131.789 82.0373 131.906C82.2366 132.024 82.4736 132.06 82.699 132.007C82.9242 131.954 83.1205 131.816 83.2467 131.622Z" fill="black"/>
</g>
<path d="M152.784 119.606H164.498C164.724 119.587 164.932 119.484 165.085 119.318C165.237 119.152 165.321 118.934 165.321 118.709C165.321 118.483 165.237 118.266 165.085 118.099C164.932 117.933 164.724 117.83 164.498 117.811H152.784C152.56 117.83 152.35 117.933 152.197 118.099C152.046 118.266 151.961 118.483 151.961 118.709C151.961 118.934 152.046 119.152 152.197 119.318C152.35 119.484 152.56 119.587 152.784 119.606Z" fill="#90C4E1"/>
<path d="M152.649 122.944H159.442C159.68 122.944 159.907 122.849 160.076 122.68C160.245 122.512 160.339 122.283 160.339 122.044C160.339 121.805 160.245 121.576 160.076 121.407C159.907 121.238 159.68 121.143 159.442 121.143H152.649C152.411 121.143 152.183 121.238 152.014 121.407C151.845 121.576 151.751 121.805 151.751 122.044C151.751 122.283 151.845 122.512 152.014 122.68C152.183 122.849 152.411 122.944 152.649 122.944Z" fill="#90C4E1"/>
<g opacity="0.1">
<path d="M152.784 119.606H164.498C164.724 119.587 164.932 119.484 165.085 119.318C165.237 119.152 165.321 118.934 165.321 118.709C165.321 118.483 165.237 118.266 165.085 118.099C164.932 117.933 164.724 117.83 164.498 117.811H152.784C152.56 117.83 152.35 117.933 152.197 118.099C152.046 118.266 151.961 118.483 151.961 118.709C151.961 118.934 152.046 119.152 152.197 119.318C152.35 119.484 152.56 119.587 152.784 119.606Z" fill="#FAFAFA"/>
<path d="M152.649 122.944H159.442C159.68 122.944 159.907 122.849 160.076 122.68C160.245 122.512 160.339 122.283 160.339 122.044C160.339 121.805 160.245 121.576 160.076 121.407C159.907 121.238 159.68 121.143 159.442 121.143H152.649C152.411 121.143 152.183 121.238 152.014 121.407C151.845 121.576 151.751 121.805 151.751 122.044C151.751 122.283 151.845 122.512 152.014 122.68C152.183 122.849 152.411 122.944 152.649 122.944Z" fill="#FAFAFA"/>
</g>
<path d="M82.6164 165.687H92.6625C92.9007 165.687 93.1293 165.593 93.2979 165.424C93.4664 165.254 93.5611 165.025 93.5611 164.786C93.5611 164.547 93.4664 164.319 93.2979 164.15C93.1293 163.981 92.9007 163.886 92.6625 163.886H82.6164C82.378 163.886 82.1496 163.981 81.9811 164.15C81.8125 164.319 81.7178 164.547 81.7178 164.786C81.7178 165.025 81.8125 165.254 81.9811 165.424C82.1496 165.593 82.378 165.687 82.6164 165.687Z" fill="#90C4E1"/>
<path d="M82.2566 169.553H95.2873C95.5257 169.553 95.7543 169.459 95.9229 169.289C96.0914 169.12 96.186 168.89 96.186 168.652C96.186 168.413 96.0914 168.185 95.9229 168.016C95.7543 167.846 95.5257 167.752 95.2873 167.752H82.2566C82.0182 167.752 81.7895 167.846 81.621 168.016C81.4525 168.185 81.3579 168.413 81.3579 168.652C81.3579 168.89 81.4525 169.12 81.621 169.289C81.7895 169.459 82.0182 169.553 82.2566 169.553Z" fill="#90C4E1"/>
<path d="M82.2566 173.534H88.7719C89.0103 173.534 89.239 173.44 89.4075 173.271C89.576 173.102 89.6706 172.872 89.6706 172.633C89.6706 172.394 89.576 172.166 89.4075 171.997C89.239 171.828 89.0103 171.733 88.7719 171.733H82.2566C82.0182 171.733 81.7895 171.828 81.621 171.997C81.4525 172.166 81.3579 172.394 81.3579 172.633C81.3579 172.872 81.4525 173.102 81.621 173.271C81.7895 173.44 82.0182 173.534 82.2566 173.534Z" fill="#90C4E1"/>
<g opacity="0.1">
<path d="M82.6169 165.687H92.663C92.9012 165.687 93.1298 165.593 93.2984 165.424C93.4669 165.254 93.5616 165.025 93.5616 164.786C93.5616 164.547 93.4669 164.319 93.2984 164.15C93.1298 163.981 92.9012 163.886 92.663 163.886H82.6169C82.3785 163.886 82.1501 163.981 81.9816 164.15C81.813 164.319 81.7183 164.547 81.7183 164.786C81.7183 165.025 81.813 165.254 81.9816 165.424C82.1501 165.593 82.3785 165.687 82.6169 165.687Z" fill="#FAFAFA"/>
<path d="M82.2566 169.553H95.2873C95.5257 169.553 95.7543 169.459 95.9229 169.289C96.0914 169.12 96.186 168.89 96.186 168.652C96.186 168.413 96.0914 168.185 95.9229 168.016C95.7543 167.846 95.5257 167.752 95.2873 167.752H82.2566C82.0182 167.752 81.7895 167.846 81.621 168.016C81.4525 168.185 81.3579 168.413 81.3579 168.652C81.3579 168.89 81.4525 169.12 81.621 169.289C81.7895 169.459 82.0182 169.553 82.2566 169.553Z" fill="#FAFAFA"/>
<path d="M82.2566 173.534H88.7719C89.0103 173.534 89.239 173.44 89.4075 173.271C89.576 173.102 89.6706 172.872 89.6706 172.633C89.6706 172.394 89.576 172.166 89.4075 171.997C89.239 171.828 89.0103 171.733 88.7719 171.733H82.2566C82.0182 171.733 81.7895 171.828 81.621 171.997C81.4525 172.166 81.3579 172.394 81.3579 172.633C81.3579 172.872 81.4525 173.102 81.621 173.271C81.7895 173.44 82.0182 173.534 82.2566 173.534Z" fill="#FAFAFA"/>
</g>
<defs>
<filter id="filter0_d_345_28" x="0.666504" y="0.40979" width="252.889" height="253.366" filterUnits="userSpaceOnUse" color-interpolation-filters="sRGB">
<feFlood flood-opacity="0" result="BackgroundImageFix"/>
<feColorMatrix in="SourceAlpha" type="matrix" values="0 0 0 0 0 0 0 0 0 0 0 0 0 0 0 0 0 0 127 0" result="hardAlpha"/>
<feOffset/>
<feGaussianBlur stdDeviation="5"/>
<feComposite in2="hardAlpha" operator="out"/>
<feColorMatrix type="matrix" values="0 0 0 0 0.654167 0 0 0 0 0.654167 0 0 0 0 0.654167 0 0 0 0.25 0"/>
<feBlend mode="normal" in2="BackgroundImageFix" result="effect1_dropShadow_345_28"/>
<feBlend mode="normal" in="SourceGraphic" in2="effect1_dropShadow_345_28" result="shape"/>
</filter>
</defs>
</svg>
