<svg width="255" height="254" viewBox="0 0 255 254" fill="none" xmlns="http://www.w3.org/2000/svg">
<g filter="url(#filter0_d_345_33)">
<path d="M127.609 243.776C192.087 243.776 244.357 191.535 244.357 127.093C244.357 62.6506 192.087 10.4098 127.609 10.4098C63.131 10.4098 10.8613 62.6506 10.8613 127.093C10.8613 191.535 63.131 243.776 127.609 243.776Z" fill="white"/>
</g>
<path d="M186.136 80.3851C186.842 82.7496 190.485 87.1759 190.772 90.3972C191.059 93.6187 184.851 98.7709 184.851 98.7709C184.851 98.7709 180.21 83.2637 183.115 81.4539C186.02 79.644 186.136 80.3851 186.136 80.3851Z" fill="#263238"/>
<path d="M173.384 97.1377C172.287 98.0553 171.206 98.8265 170.082 99.618C168.957 100.41 167.797 101.13 166.617 101.806C165.431 102.507 164.21 103.144 162.959 103.717C162.323 104.004 161.694 104.286 161.038 104.533C160.715 104.664 160.387 104.791 160.054 104.902L159.045 105.254C158.182 105.495 157.28 105.56 156.391 105.446C155.65 105.359 154.913 105.218 154.192 105.022C152.848 104.65 151.53 104.182 150.252 103.621C147.773 102.538 145.379 101.266 143.094 99.8147L144.039 98.0603C145.23 98.5645 146.449 99.0686 147.661 99.5072C148.871 99.9458 150.092 100.41 151.311 100.788C152.502 101.177 153.716 101.494 154.944 101.735C155.509 101.846 156.079 101.915 156.653 101.942C157.083 101.975 157.512 101.931 157.926 101.811C159.075 101.371 160.2 100.866 161.294 100.299C161.854 100.006 162.408 99.7089 162.954 99.3862C163.499 99.0635 164.054 98.751 164.594 98.4182C165.677 97.7477 166.738 97.0369 167.786 96.306C168.836 95.5749 169.88 94.7936 170.812 94.0525L173.384 97.1377Z" fill="#E58A7B"/>
<path d="M176.047 91.7685C174.798 90.7905 169.622 93.9919 168.053 95.3278L169.198 102.25C169.198 102.25 176.639 99.134 177.083 97.0066C177.552 94.7834 176.981 92.5147 176.047 91.7685Z" fill="#90C4E1"/>
<path opacity="0.2" d="M176.047 91.7685C174.798 90.7905 169.622 93.9919 168.053 95.3278L169.198 102.25C169.198 102.25 176.639 99.134 177.083 97.0066C177.552 94.7834 176.981 92.5147 176.047 91.7685Z" fill="black"/>
<path d="M193.456 112.715L177.748 115.776C169.633 93.8105 171.397 93.0896 171.397 93.0896C172.54 92.4627 173.718 91.907 174.928 91.4259L175.141 91.3452C176.149 90.9771 176.351 90.9217 177.693 90.5284C180.003 89.979 182.156 89.5201 184.824 89.1421L185.329 89.0716C185.833 89.011 186.293 88.9606 186.756 88.9153C187.07 88.8799 187.382 88.8597 187.68 88.8396L188.689 88.7842C190.414 88.6985 191.649 88.7236 191.649 88.7236C191.171 102.441 191.947 106.379 193.456 112.715Z" fill="#90C4E1"/>
<path opacity="0.2" d="M193.456 112.715L177.748 115.776C169.633 93.8105 171.397 93.0896 171.397 93.0896C172.54 92.4627 173.718 91.907 174.928 91.4259L175.141 91.3452C176.149 90.9771 176.351 90.9217 177.693 90.5284C180.003 89.979 182.156 89.5201 184.824 89.1421L185.329 89.0716C185.833 89.011 186.293 88.9606 186.756 88.9153C187.07 88.8799 187.382 88.8597 187.68 88.8396L188.689 88.7842C190.414 88.6985 191.649 88.7236 191.649 88.7236C191.171 102.441 191.947 106.379 193.456 112.715Z" fill="black"/>
<path d="M181.154 81.9633C180.145 83.6319 183.801 84.4033 185.965 82.6942C187.695 81.323 187.287 78.1569 185.804 77.421C184.321 76.6849 181.154 81.9633 181.154 81.9633Z" fill="#90C4E1"/>
<path opacity="0.4" d="M181.154 81.9633C180.145 83.6319 183.801 84.4033 185.965 82.6942C187.695 81.323 187.287 78.1569 185.804 77.421C184.321 76.6849 181.154 81.9633 181.154 81.9633Z" fill="black"/>
<path d="M196.442 203.632L192.512 203.924L191.075 194.885L195.004 194.593L196.442 203.632Z" fill="#E58A7B"/>
<path d="M224.235 190.998L220.902 193.095L214.964 186.058L218.297 183.956L224.235 190.998Z" fill="#E58A7B"/>
<path d="M191.075 194.885L191.872 199.907L195.745 199.257L195.009 194.598L191.075 194.885Z" fill="#CF6F64"/>
<path d="M218.303 183.959L214.964 186.058L217.426 188.971L220.836 186.959L218.303 183.959Z" fill="#CF6F64"/>
<path d="M177.99 115.775C177.99 115.775 177.935 146.941 180.482 158.677C183.136 170.887 190.94 198.665 190.94 198.665L196.599 197.935C196.599 197.935 192.175 169.874 190.289 157.74C188.236 144.516 189.496 113.537 189.496 113.537L177.99 115.775Z" fill="#90C4E1"/>
<path opacity="0.7" d="M177.99 115.775C177.99 115.775 177.935 146.941 180.482 158.677C183.136 170.887 190.94 198.665 190.94 198.665L196.599 197.935C196.599 197.935 192.175 169.874 190.289 157.74C188.236 144.516 189.496 113.537 189.496 113.537L177.99 115.775Z" fill="black"/>
<path opacity="0.5" d="M189.143 127.351L186.37 124.588C186.475 136.561 187.147 142.475 189.451 148.918C189.088 142.107 189.057 134.051 189.143 127.351Z" fill="black"/>
<path d="M181.896 114.969C181.896 114.969 190.353 140.725 194.551 155.562C198.98 171.215 215.957 188.527 215.957 188.527L220.83 185.714C220.83 185.714 209.229 169.281 204.962 154.675C196.285 125.027 199.851 118.745 193.451 112.716L181.896 114.969Z" fill="#90C4E1"/>
<path opacity="0.7" d="M181.896 114.969C181.896 114.969 190.353 140.725 194.551 155.562C198.98 171.215 215.957 188.527 215.957 188.527L220.83 185.714C220.83 185.714 209.229 169.281 204.962 154.675C196.285 125.027 199.851 118.745 193.451 112.716L181.896 114.969Z" fill="black"/>
<path d="M175.245 72.8687C177.496 73.6197 179.539 79.2005 179.625 81.3986C179.71 83.5965 173.108 86.6264 173.108 86.6264C173.108 86.6264 170.197 79.5686 171.008 75.0313C171.361 73.0602 175.245 72.8687 175.245 72.8687Z" fill="#263238"/>
<path d="M144.371 98.2469L141.702 95.343L140.829 98.983C140.829 98.983 142.727 100.657 144.26 100.082L144.371 98.2469Z" fill="#E58A7B"/>
<path d="M138.998 94.511L137.132 95.9931L140.831 98.9827L141.702 95.3427L138.998 94.511Z" fill="#E58A7B"/>
<path d="M219.858 192.345L222.975 189.204C223.028 189.149 223.1 189.117 223.176 189.111C223.251 189.106 223.328 189.127 223.388 189.174L226.228 191.279C226.299 191.335 226.356 191.404 226.397 191.484C226.44 191.563 226.463 191.65 226.468 191.739C226.474 191.828 226.46 191.917 226.427 192.001C226.395 192.085 226.347 192.159 226.283 192.224C225.174 193.296 224.588 193.761 223.217 195.141C222.374 195.993 221.23 197.32 220.064 198.494C218.899 199.67 217.674 198.574 218.047 197.99C219.747 195.334 219.444 194.34 219.56 192.99C219.578 192.745 219.683 192.516 219.858 192.345Z" fill="#263238"/>
<path d="M192.25 203.359H196.679C196.757 203.359 196.832 203.386 196.891 203.436C196.952 203.486 196.993 203.555 197.007 203.632L197.702 207.13C197.718 207.216 197.715 207.305 197.691 207.389C197.67 207.474 197.629 207.553 197.572 207.619C197.517 207.686 197.445 207.74 197.365 207.777C197.287 207.813 197.199 207.832 197.112 207.831C195.563 207.806 194.818 207.715 192.87 207.715C191.676 207.715 189.204 207.836 187.55 207.836C185.894 207.836 185.717 206.202 186.398 206.056C189.425 205.392 190.61 204.478 191.605 203.601C191.785 203.448 192.013 203.361 192.25 203.359Z" fill="#263238"/>
<g style="mix-blend-mode:multiply" opacity="0.27">
<path d="M192.159 96.6738L189.738 98.1157L192.533 108.617C191.922 105.436 192.194 101.942 192.159 96.6738Z" fill="#90C4E1"/>
</g>
<path d="M178.398 80.2792C180.118 81.7159 182.616 83.8082 185.557 81.363C188.079 79.2558 189.843 73.7253 185.32 73.5237C182.954 73.4179 178.398 80.2792 178.398 80.2792Z" fill="#263238"/>
<path d="M182.555 81.2625C182.555 83.6419 182.924 87.9321 184.824 89.1522C184.824 89.1522 184.653 91.6022 180.386 92.4291C175.7 93.3415 177.692 90.5385 177.692 90.5385C180.134 89.4294 179.71 87.5439 178.903 85.85L182.555 81.2625Z" fill="#E58A7B"/>
<path d="M181.067 83.1328L178.908 85.8502C179.097 86.2428 179.252 86.6509 179.373 87.0701C180.322 86.7373 181.455 85.4064 181.361 84.3629C181.339 83.9384 181.24 83.5213 181.067 83.1328Z" fill="#CF6F64"/>
<path d="M182.782 75.7975C183.286 79.6744 183.594 81.3026 182.04 83.6469C179.705 87.1759 174.832 86.949 173.173 83.304C171.659 80.0221 171.094 74.2296 174.545 71.9863C175.304 71.4843 176.178 71.1847 177.085 71.1161C177.992 71.0473 178.903 71.2119 179.728 71.5939C180.554 71.976 181.268 72.5628 181.803 73.2985C182.338 74.0344 182.675 74.8946 182.782 75.7975Z" fill="#E58A7B"/>
<path d="M176.044 69.0067C173.42 70.867 178.682 71.4164 178.687 74.1137C178.687 75.2278 180.518 78.7618 183.12 78.5601L185.642 74.0834C188.296 69.7982 182.026 64.7569 176.044 69.0067Z" fill="#263238"/>
<path d="M176.044 69.007C171.427 68.7649 169.415 72.435 169.944 75.732C173.165 74.9297 176.495 74.6657 179.801 74.9507C186.127 75.5959 176.044 69.007 176.044 69.007Z" fill="#263238"/>
<path d="M184.043 79.1399C184.107 79.8924 183.868 80.6395 183.382 81.217C182.731 81.9782 181.869 81.5295 181.566 80.6272C181.309 79.8104 181.339 78.4341 182.216 78.0005C182.41 77.9109 182.624 77.871 182.836 77.8844C183.05 77.8975 183.257 77.9638 183.437 78.0769C183.619 78.1899 183.769 78.3463 183.876 78.5319C183.981 78.7175 184.038 78.9265 184.043 79.1399Z" fill="#E58A7B"/>
<path d="M177.178 78.0008C177.238 78.3133 177.122 78.5956 176.921 78.6359C176.719 78.6763 176.502 78.4544 176.441 78.1318C176.381 77.8092 176.497 77.532 176.7 77.4915C176.901 77.4513 177.117 77.6882 177.178 78.0008Z" fill="#263238"/>
<path d="M173.652 78.6863C173.713 78.9987 173.597 79.2861 173.395 79.3265C173.194 79.3668 172.977 79.145 172.916 78.8224C172.855 78.4996 172.971 78.2224 173.173 78.1871C173.376 78.1518 173.592 78.3686 173.652 78.6863Z" fill="#263238"/>
<path d="M173.269 78.1923L172.478 78.1267C172.478 78.1267 172.977 78.6358 173.269 78.1923Z" fill="#263238"/>
<path d="M174.691 79.0439C174.55 79.8076 174.306 80.5487 173.966 81.247C174.146 81.3313 174.344 81.3749 174.543 81.3749C174.743 81.3749 174.939 81.3313 175.121 81.247L174.691 79.0439Z" fill="#DF5753"/>
<path d="M176.438 82.2556C176.415 82.2558 176.395 82.2483 176.377 82.2346C176.361 82.2207 176.35 82.2013 176.347 82.1799C176.343 82.1679 176.345 82.1556 176.347 82.1439C176.349 82.1321 176.354 82.1209 176.361 82.1109C176.368 82.1011 176.377 82.0928 176.388 82.0864C176.398 82.0801 176.409 82.0758 176.422 82.0741C176.812 82.0062 177.179 81.8476 177.496 81.6112C177.814 81.3747 178.072 81.067 178.247 80.7129C178.252 80.7017 178.259 80.6913 178.268 80.6828C178.277 80.674 178.286 80.6673 178.299 80.6626C178.309 80.6578 178.322 80.6555 178.332 80.6555C178.345 80.6555 178.357 80.6578 178.368 80.6625C178.381 80.6671 178.389 80.6739 178.398 80.6824C178.407 80.6911 178.414 80.7013 178.42 80.7125C178.423 80.7237 178.427 80.7359 178.427 80.748C178.427 80.7601 178.423 80.7722 178.42 80.7834C178.234 81.1684 177.96 81.5029 177.618 81.7593C177.277 82.0155 176.878 82.1858 176.457 82.2556H176.438Z" fill="#263238"/>
<path d="M177.99 76.6597C177.944 76.6603 177.899 76.644 177.864 76.6143C177.694 76.4531 177.489 76.3343 177.265 76.2676C177.04 76.2012 176.803 76.1885 176.573 76.2311C176.522 76.2438 176.468 76.2357 176.424 76.2088C176.379 76.1819 176.345 76.1383 176.333 76.0875C176.32 76.0366 176.329 75.9828 176.356 75.9379C176.383 75.893 176.425 75.8608 176.477 75.8479C176.768 75.7907 177.069 75.8034 177.354 75.885C177.637 75.9664 177.899 76.1144 178.117 76.3168C178.151 76.3517 178.17 76.3989 178.17 76.4479C178.17 76.4969 178.151 76.5441 178.117 76.579C178.103 76.6006 178.083 76.6189 178.062 76.6328C178.04 76.6469 178.015 76.656 177.99 76.6597Z" fill="#263238"/>
<path d="M171.7 77.3604C171.677 77.3656 171.654 77.3656 171.631 77.3604C171.608 77.3512 171.586 77.3373 171.568 77.3196C171.551 77.302 171.536 77.2812 171.527 77.2582C171.519 77.2352 171.513 77.2104 171.513 77.1857C171.513 77.1607 171.519 77.1362 171.529 77.1133C171.636 76.8378 171.809 76.5917 172.03 76.3961C172.253 76.2005 172.518 76.0609 172.805 75.9893C172.83 75.9841 172.855 75.9841 172.878 75.9889C172.903 75.9939 172.927 76.0039 172.946 76.018C172.968 76.0322 172.984 76.0504 172.998 76.0714C173.01 76.0924 173.019 76.1159 173.023 76.1405C173.028 76.1644 173.028 76.189 173.023 76.213C173.018 76.2369 173.009 76.2597 172.994 76.28C172.982 76.3001 172.964 76.3174 172.943 76.3308C172.923 76.344 172.9 76.353 172.877 76.3571C172.649 76.419 172.44 76.5328 172.265 76.6894C172.091 76.846 171.953 77.0412 171.868 77.2596C171.85 77.2897 171.827 77.315 171.798 77.3326C171.768 77.3505 171.734 77.3601 171.7 77.3604Z" fill="#263238"/>
<path d="M218.686 194.174C218.601 194.172 218.515 194.149 218.44 194.106C218.364 194.064 218.299 194.005 218.253 193.932C218.218 193.889 218.193 193.837 218.184 193.784C218.173 193.729 218.178 193.672 218.198 193.62C218.374 193.146 219.766 192.843 219.923 192.808C219.941 192.804 219.959 192.806 219.977 192.813C219.993 192.82 220.007 192.833 220.018 192.849C220.028 192.863 220.034 192.881 220.034 192.899C220.034 192.916 220.028 192.934 220.018 192.948C219.745 193.397 219.21 194.149 218.711 194.174H218.686ZM219.741 193.039C219.191 193.18 218.465 193.433 218.374 193.684C218.365 193.707 218.364 193.734 218.369 193.757C218.374 193.782 218.387 193.804 218.405 193.821C218.435 193.873 218.48 193.916 218.533 193.944C218.586 193.975 218.645 193.989 218.706 193.987C218.973 193.973 219.353 193.624 219.741 193.039Z" fill="#90C4E1"/>
<path d="M219.515 193.039C219.011 193.039 218.38 192.913 218.193 192.642C218.152 192.58 218.132 192.505 218.139 192.432C218.144 192.357 218.177 192.288 218.228 192.232C218.273 192.177 218.328 192.131 218.392 192.097C218.455 192.065 218.524 192.045 218.595 192.042H218.636C219.201 192.042 219.979 192.802 220.009 192.833C220.021 192.845 220.03 192.859 220.034 192.875C220.039 192.891 220.039 192.908 220.034 192.924C220.028 192.94 220.021 192.954 220.009 192.965C219.998 192.977 219.984 192.984 219.968 192.989C219.82 193.025 219.667 193.041 219.515 193.039ZM218.636 192.229H218.606C218.562 192.229 218.517 192.241 218.476 192.263C218.437 192.282 218.401 192.313 218.374 192.348C218.303 192.444 218.324 192.5 218.349 192.535C218.501 192.767 219.273 192.899 219.747 192.843C219.444 192.535 219.059 192.321 218.636 192.229Z" fill="#90C4E1"/>
<path d="M190.802 204.05C190.463 204.081 190.123 203.995 189.84 203.808C189.772 203.756 189.718 203.687 189.685 203.609C189.652 203.53 189.638 203.445 189.647 203.359C189.647 203.309 189.66 203.259 189.685 203.215C189.71 203.17 189.745 203.133 189.788 203.108C190.253 202.835 191.877 203.642 192.059 203.733C192.075 203.742 192.089 203.755 192.098 203.772C192.107 203.79 192.11 203.81 192.109 203.828C192.107 203.847 192.098 203.865 192.085 203.879C192.073 203.894 192.057 203.904 192.039 203.91C191.631 203.993 191.217 204.041 190.802 204.05ZM190.055 203.233C189.997 203.229 189.938 203.242 189.884 203.268C189.868 203.277 189.854 203.291 189.845 203.309C189.836 203.325 189.833 203.345 189.834 203.364C189.829 203.421 189.838 203.478 189.859 203.532C189.882 203.584 189.916 203.63 189.961 203.667C190.212 203.883 190.863 203.918 191.72 203.778C191.2 203.505 190.638 203.322 190.055 203.233Z" fill="#90C4E1"/>
<path d="M192.018 203.899H191.982C191.478 203.682 190.505 202.825 190.576 202.386C190.576 202.285 190.667 202.155 190.918 202.13H190.995C191.872 202.13 192.098 203.733 192.109 203.803C192.111 203.82 192.109 203.837 192.104 203.853C192.096 203.869 192.087 203.883 192.073 203.893C192.055 203.901 192.038 203.902 192.018 203.899ZM191.009 202.306H190.954C190.792 202.306 190.783 202.381 190.783 202.401C190.742 202.668 191.408 203.339 191.913 203.637C191.811 203.243 191.555 202.315 190.99 202.315L191.009 202.306Z" fill="#90C4E1"/>
<path d="M176.794 77.5066L176.003 77.436C176.003 77.436 176.502 77.9503 176.794 77.5066Z" fill="#263238"/>
<path d="M180.259 95.7817C171.822 97.662 174.429 92.5602 174.934 91.436L175.146 91.3553C176.155 90.9874 176.356 90.9318 177.698 90.5387C180.038 89.907 182.423 89.4436 184.83 89.1522L185.334 89.0816C185.838 89.0161 186.298 88.9657 186.762 88.9254C187.075 88.8901 187.387 88.87 187.685 88.8497L188.694 88.7893C188.865 89.5758 189.284 93.7803 180.259 95.7817Z" fill="#E58A7B"/>
<path d="M193.506 111.748L194.49 113.018C194.565 113.114 194.46 113.25 194.278 113.285L177.803 116.492C177.662 116.522 177.53 116.492 177.505 116.386L177.086 115.009C177.086 114.914 177.168 114.808 177.318 114.777L193.228 111.682C193.276 111.668 193.328 111.667 193.376 111.678C193.424 111.69 193.469 111.714 193.506 111.748Z" fill="#26395A"/>
<path d="M191.715 113.941L192.145 113.86C192.23 113.86 192.285 113.789 192.271 113.734L191.715 111.949C191.715 111.894 191.615 111.869 191.53 111.884L191.105 111.964C191.02 111.964 190.965 112.04 190.979 112.09L191.533 113.88C191.549 113.931 191.635 113.961 191.715 113.941Z" fill="#90C4E1"/>
<path d="M182.067 119.889L178.782 118.669L179.286 121.79C179.286 121.79 181.667 122.647 182.883 121.548L182.067 119.889Z" fill="#E58A7B"/>
<path d="M175.656 119.496L174.873 121.543L179.286 121.79L178.782 118.669L175.656 119.496Z" fill="#E58A7B"/>
<path d="M179.03 116.411L179.459 116.33C179.539 116.33 179.6 116.26 179.58 116.204L179.024 114.42C179.024 114.364 178.928 114.339 178.842 114.354L178.415 114.435C178.329 114.435 178.274 114.51 178.294 114.561L178.848 116.35C178.864 116.401 178.944 116.431 179.03 116.411Z" fill="#90C4E1"/>
<path d="M185.375 115.171L185.799 115.09C185.885 115.09 185.94 115.019 185.926 114.964L185.37 113.179C185.37 113.124 185.27 113.099 185.184 113.114L184.76 113.194C184.675 113.194 184.619 113.27 184.634 113.32L185.188 115.11C185.209 115.139 185.238 115.161 185.272 115.172C185.306 115.183 185.341 115.182 185.375 115.171Z" fill="#90C4E1"/>
<path d="M183.58 87.1509C183.938 87.0148 184.385 88.2751 184.275 88.4365C184.018 88.8044 179.307 90.0901 179.095 89.3691C179.081 88.9783 179.142 88.5885 179.272 88.2197C179.407 87.9776 180.452 88.4214 183.58 87.1509Z" fill="#90C4E1"/>
<path d="M182.781 87.181C182.963 86.7625 183.484 86.092 183.936 86.4752C184.391 86.8584 184.583 87.6851 184.286 87.8212C183.988 87.9573 182.469 87.8818 182.781 87.181Z" fill="#90C4E1"/>
<path d="M183.745 87.3979C184.059 87.0652 184.754 86.6064 185.072 87.1207C185.391 87.6349 185.275 88.4768 184.952 88.502C184.628 88.5272 183.216 87.9475 183.745 87.3979Z" fill="#90C4E1"/>
<path d="M183.917 87.3221C183.892 87.0542 183.945 86.7845 184.068 86.5456C184.193 86.3069 184.384 86.1091 184.619 85.9761C185.193 85.603 185.753 85.3611 185.975 84.9678C186.072 85.3365 186.089 85.721 186.031 86.0972C185.915 86.6366 184.123 87.0499 184.245 87.5188L183.917 87.3221Z" fill="#90C4E1"/>
<path d="M183.842 87.2969C183.675 87.0855 183.573 86.83 183.548 86.5617C183.523 86.2933 183.576 86.0234 183.701 85.7845C183.972 85.1594 184.316 84.6552 184.297 84.2117C184.576 84.4696 184.801 84.7817 184.956 85.1291C185.149 85.6332 183.872 86.9592 184.231 87.2919L183.842 87.2969Z" fill="#90C4E1"/>
<path d="M218.923 185.78C218.912 185.78 218.903 185.776 218.895 185.771C218.886 185.766 218.879 185.759 218.873 185.75C218.757 185.588 207.225 169.143 202.999 154.694C200.24 145.427 198.121 135.981 196.654 126.423C195.78 121.039 195.251 117.787 193.517 115.12C193.504 115.108 193.497 115.092 193.497 115.075C193.497 115.058 193.504 115.042 193.517 115.029C193.527 115.019 193.543 115.013 193.559 115.013C193.574 115.013 193.59 115.019 193.602 115.029C195.356 117.722 195.887 120.983 196.759 126.383C198.233 135.927 200.356 145.359 203.115 154.614C207.337 169.042 218.857 185.468 218.973 185.634C218.984 185.646 218.989 185.661 218.989 185.677C218.989 185.693 218.984 185.707 218.973 185.719C218.973 185.734 218.968 185.748 218.959 185.759C218.95 185.769 218.937 185.776 218.923 185.78Z" fill="#90C4E1"/>
<path opacity="0.4" d="M218.923 185.78C218.912 185.78 218.903 185.776 218.895 185.771C218.886 185.766 218.879 185.759 218.873 185.75C218.757 185.588 207.225 169.143 202.999 154.694C200.24 145.427 198.121 135.981 196.654 126.423C195.78 121.039 195.251 117.787 193.517 115.12C193.504 115.108 193.497 115.092 193.497 115.075C193.497 115.058 193.504 115.042 193.517 115.029C193.527 115.019 193.543 115.013 193.559 115.013C193.574 115.013 193.59 115.019 193.602 115.029C195.356 117.722 195.887 120.983 196.759 126.383C198.233 135.927 200.356 145.359 203.115 154.614C207.337 169.042 218.857 185.468 218.973 185.634C218.984 185.646 218.989 185.661 218.989 185.677C218.989 185.693 218.984 185.707 218.973 185.719C218.973 185.734 218.968 185.748 218.959 185.759C218.95 185.769 218.937 185.776 218.923 185.78Z" fill="black"/>
<path d="M197.613 197.915L189.904 198.913L189.399 196.766L197.426 195.067L197.613 197.915Z" fill="#90C4E1"/>
<path d="M221.239 185.543L215.555 188.825L213.639 187.187L219.857 182.981L221.239 185.543Z" fill="#90C4E1"/>
<path d="M194.561 94.0625C194.832 95.4639 194.989 96.7849 195.141 98.151C195.292 99.5172 195.347 100.868 195.388 102.235C195.428 103.611 195.397 104.99 195.298 106.363C195.242 107.054 195.182 107.745 195.085 108.44C195.044 108.783 195 109.131 194.934 109.479L194.747 110.548C194.54 111.419 194.162 112.24 193.633 112.962C193.198 113.57 192.72 114.145 192.2 114.682C191.227 115.681 190.182 116.608 189.073 117.454C186.927 119.105 184.658 120.587 182.282 121.886L181.204 120.212C182.213 119.411 183.222 118.584 184.231 117.742C185.239 116.9 186.198 116.048 187.12 115.161C188.033 114.307 188.893 113.399 189.699 112.443C190.068 112.001 190.405 111.533 190.708 111.042C190.945 110.684 191.116 110.286 191.212 109.867C191.376 108.643 191.471 107.411 191.499 106.177C191.499 105.547 191.499 104.917 191.499 104.286C191.499 103.656 191.474 103.016 191.444 102.381C191.383 101.11 191.268 99.86 191.13 98.5695C190.995 97.2789 190.818 96.0034 190.626 94.8086L194.561 94.0625Z" fill="#E58A7B"/>
<path d="M193.95 89.7772C196.103 91.5216 195.59 96.7041 195.59 96.7041L188.325 99.0937C188.325 99.0937 188.658 93.1197 189.022 90.972C189.446 88.416 191.825 88.0581 193.95 89.7772Z" fill="#90C4E1"/>
<path opacity="0.2" d="M193.95 89.7772C196.103 91.5216 195.59 96.7041 195.59 96.7041L188.325 99.0937C188.325 99.0937 188.658 93.1197 189.022 90.972C189.446 88.416 191.825 88.0581 193.95 89.7772Z" fill="black"/>
<path d="M97.9953 111.405C97.7135 110.182 97.0253 109.092 96.0432 108.311C95.0611 107.53 93.843 107.104 92.5878 107.104H52.2347C50.7631 107.104 49.3518 107.689 48.3112 108.729C47.2707 109.769 46.686 111.179 46.686 112.65V202.296C46.686 203.767 47.2707 205.176 48.3112 206.216C49.3518 207.257 50.7631 207.841 52.2347 207.841H180.356C181.828 207.841 183.24 207.257 184.281 206.216C185.32 205.176 185.904 203.767 185.904 202.296V126.993C185.904 125.522 185.32 124.112 184.281 123.072C183.24 122.032 181.828 121.447 180.356 121.447H110.621C107.69 121.448 104.846 120.455 102.552 118.631C100.259 116.807 98.6527 114.259 97.9953 111.405Z" fill="#90C4E1"/>
<path opacity="0.6" d="M97.9953 111.405C97.7135 110.182 97.0253 109.092 96.0432 108.311C95.0611 107.53 93.843 107.104 92.5878 107.104H52.2347C50.7631 107.104 49.3518 107.689 48.3112 108.729C47.2707 109.769 46.686 111.179 46.686 112.65V202.296C46.686 203.767 47.2707 205.176 48.3112 206.216C49.3518 207.257 50.7631 207.841 52.2347 207.841H180.356C181.828 207.841 183.24 207.257 184.281 206.216C185.32 205.176 185.904 203.767 185.904 202.296V126.993C185.904 125.522 185.32 124.112 184.281 123.072C183.24 122.032 181.828 121.447 180.356 121.447H110.621C107.69 121.448 104.846 120.455 102.552 118.631C100.259 116.807 98.6527 114.259 97.9953 111.405Z" fill="black"/>
<path opacity="0.22" d="M83.751 83.4856L87.3475 95.1261C87.8067 96.6077 88.8353 97.8465 90.2076 98.5705C91.5799 99.2946 93.1837 99.4446 94.6666 98.9879L106.309 95.3933L83.751 83.4856Z" fill="#90C4E1"/>
<path d="M83.751 83.4856L42.1366 96.3361C41.4021 96.5616 40.7191 96.9298 40.127 97.4193C39.5348 97.9089 39.045 98.5105 38.6857 99.1894C38.3264 99.8683 38.1045 100.611 38.0328 101.376C37.9611 102.141 38.041 102.912 38.2677 103.646L62.0258 180.518C62.2525 181.252 62.6217 181.932 63.1123 182.523C63.6029 183.115 64.2051 183.605 64.885 183.963C65.5646 184.321 66.3082 184.544 67.0736 184.615C67.8388 184.686 68.6105 184.606 69.3449 184.378L122.606 167.934C123.34 167.707 124.023 167.339 124.614 166.849C125.206 166.359 125.695 165.759 126.055 165.078C126.413 164.399 126.634 163.656 126.705 162.892C126.777 162.128 126.696 161.357 126.47 160.623L106.293 95.3933L83.751 83.4856Z" fill="#90C4E1"/>
<path opacity="0.8" d="M83.751 83.4856L42.1366 96.3361C41.4021 96.5616 40.7191 96.9298 40.127 97.4193C39.5348 97.9089 39.045 98.5105 38.6857 99.1894C38.3264 99.8683 38.1045 100.611 38.0328 101.376C37.9611 102.141 38.041 102.912 38.2677 103.646L62.0258 180.518C62.2525 181.252 62.6217 181.932 63.1123 182.523C63.6029 183.115 64.2051 183.605 64.885 183.963C65.5646 184.321 66.3082 184.544 67.0736 184.615C67.8388 184.686 68.6105 184.606 69.3449 184.378L122.606 167.934C123.34 167.707 124.023 167.339 124.614 166.849C125.206 166.359 125.695 165.759 126.055 165.078C126.413 164.399 126.634 163.656 126.705 162.892C126.777 162.128 126.696 161.357 126.47 160.623L106.293 95.3933L83.751 83.4856Z" fill="white"/>
<g opacity="0.28">
<path d="M106.142 164.576L71.5185 175.264C70.8712 175.462 70.1712 175.398 69.572 175.081C68.9727 174.766 68.5227 174.226 68.3205 173.581C68.1234 172.932 68.1906 172.234 68.5071 171.636C68.8237 171.039 69.3641 170.59 70.0104 170.389L104.634 159.697C105.282 159.497 105.982 159.565 106.582 159.88C107.181 160.197 107.63 160.739 107.832 161.385C108.029 162.032 107.962 162.73 107.645 163.329C107.328 163.927 106.788 164.375 106.142 164.576Z" fill="#90C4E1"/>
</g>
<g opacity="0.28">
<path d="M68.8808 101.852L50.5705 107.503C49.9229 107.7 49.2237 107.634 48.6248 107.319C48.0259 107.003 47.5757 106.465 47.3725 105.819C47.1752 105.171 47.2422 104.472 47.5586 103.873C47.8751 103.275 48.4156 102.825 49.0622 102.623L67.3725 96.9715C68.0201 96.7714 68.7206 96.8363 69.3202 97.152C69.9198 97.4678 70.3696 98.0085 70.5705 98.6553C70.7678 99.3032 70.701 100.003 70.3844 100.601C70.0679 101.2 69.5275 101.65 68.8808 101.852Z" fill="#90C4E1"/>
</g>
<g opacity="0.28">
<path d="M83.8218 107.846L53.5569 117.187C52.9106 117.381 52.214 117.313 51.6182 116.997C51.0223 116.68 50.5753 116.142 50.3741 115.499C50.1753 114.852 50.2409 114.153 50.5568 113.555C50.8726 112.957 51.4127 112.508 52.0588 112.307L82.3237 102.966C82.9713 102.767 83.671 102.832 84.2703 103.148C84.8697 103.464 85.3196 104.003 85.5217 104.649C85.7172 105.299 85.6483 105.999 85.3299 106.597C85.0116 107.196 84.4696 107.645 83.8218 107.846Z" fill="#90C4E1"/>
</g>
<g opacity="0.28">
<path d="M100.719 113.235L56.5527 126.847C55.9059 127.045 55.2066 126.979 54.6083 126.664C54.0098 126.348 53.5608 125.809 53.3597 125.163C53.1622 124.516 53.2285 123.817 53.544 123.218C53.8595 122.62 54.3989 122.17 55.0444 121.967L99.2113 108.355C99.8581 108.158 100.557 108.224 101.155 108.539C101.753 108.855 102.202 109.394 102.404 110.039C102.603 110.686 102.537 111.385 102.222 111.984C101.906 112.583 101.366 113.033 100.719 113.235Z" fill="#90C4E1"/>
</g>
<g opacity="0.28">
<path d="M103.71 122.914L78.0353 130.844C77.3879 131.041 76.6887 130.974 76.0905 130.658C75.4922 130.342 75.0435 129.801 74.8425 129.155C74.6452 128.509 74.7115 127.811 75.027 127.213C75.3426 126.615 75.8818 126.166 76.5272 125.964L102.202 118.034C102.85 117.838 103.549 117.906 104.148 118.222C104.747 118.538 105.197 119.078 105.4 119.723C105.597 120.37 105.53 121.069 105.213 121.667C104.897 122.265 104.356 122.713 103.71 122.914Z" fill="#90C4E1"/>
</g>
<g opacity="0.28">
<path d="M66.2625 134.479L59.5488 136.551C58.9012 136.75 58.2014 136.684 57.6022 136.369C57.0028 136.053 56.5529 135.513 56.3508 134.867C56.1522 134.22 56.2183 133.52 56.5351 132.92C56.8518 132.321 57.3931 131.872 58.0407 131.671L64.7543 129.599C65.4018 129.402 66.1011 129.468 66.7001 129.783C67.299 130.099 67.7491 130.638 67.9523 131.283C68.1483 131.931 68.0808 132.63 67.7644 133.228C67.448 133.826 66.9085 134.276 66.2625 134.479Z" fill="#90C4E1"/>
</g>
<g opacity="0.28">
<path d="M106.706 132.599L62.5397 146.235C61.8921 146.432 61.1931 146.365 60.5947 146.049C59.9965 145.733 59.5479 145.193 59.3467 144.547C59.1479 143.9 59.2137 143.201 59.5295 142.603C59.8452 142.005 60.3854 141.556 61.0314 141.355L105.198 127.719C105.845 127.521 106.544 127.588 107.142 127.903C107.74 128.219 108.189 128.757 108.391 129.402C108.59 130.05 108.524 130.749 108.209 131.348C107.893 131.947 107.353 132.397 106.706 132.599Z" fill="#90C4E1"/>
</g>
<g opacity="0.28">
<path d="M92.6533 147.541L65.5307 155.915C64.8839 156.112 64.1854 156.046 63.5872 155.731C62.989 155.416 62.54 154.876 62.3377 154.231C62.1402 153.584 62.2066 152.886 62.522 152.288C62.8375 151.689 63.3769 151.238 64.0225 151.035L91.145 142.661C91.7931 142.464 92.493 142.531 93.0921 142.848C93.6912 143.164 94.1407 143.704 94.343 144.35C94.5416 144.997 94.4751 145.697 94.1583 146.295C93.8414 146.893 93.3003 147.342 92.6533 147.541Z" fill="#90C4E1"/>
</g>
<g opacity="0.28">
<path d="M109.698 142.283L102.459 144.516C101.811 144.714 101.111 144.647 100.512 144.33C99.9135 144.014 99.4638 143.474 99.2615 142.828C99.0644 142.18 99.1314 141.482 99.4481 140.884C99.7647 140.286 100.305 139.837 100.951 139.636L108.19 137.403C108.837 137.204 109.536 137.27 110.134 137.586C110.733 137.901 111.182 138.441 111.383 139.087C111.581 139.734 111.516 140.434 111.2 141.032C110.885 141.631 110.344 142.081 109.698 142.283Z" fill="#90C4E1"/>
</g>
<g opacity="0.28">
<path d="M112.689 151.972L68.5321 165.584C67.8838 165.784 67.1833 165.716 66.5839 165.401C65.9847 165.084 65.5351 164.542 65.3341 163.895C65.1355 163.249 65.2018 162.549 65.5187 161.95C65.8355 161.353 66.3768 160.904 67.0238 160.705L111.185 147.067C111.834 146.872 112.533 146.939 113.131 147.255C113.73 147.572 114.18 148.111 114.383 148.756C114.485 149.079 114.52 149.418 114.49 149.755C114.46 150.091 114.363 150.418 114.206 150.717C114.049 151.016 113.833 151.281 113.573 151.497C113.312 151.712 113.012 151.874 112.689 151.972Z" fill="#90C4E1"/>
</g>
<path d="M113.637 54.5785L126.842 83.9898C127.186 84.7576 127.211 85.6297 126.912 86.4157C126.612 87.2017 126.015 87.8376 125.249 88.1843L69.2288 113.316C68.4607 113.659 67.5875 113.685 66.8008 113.386C66.0138 113.088 65.3779 112.489 65.0319 111.722L51.8212 82.3111C51.4755 81.543 51.4492 80.669 51.7482 79.8814C52.0471 79.0939 52.6467 78.4572 53.4152 78.1116L109.436 52.9804C110.205 52.6378 111.079 52.6138 111.866 52.9132C112.654 53.2127 113.29 53.8112 113.637 54.5785Z" fill="#90C4E1"/>
<path opacity="0.3" d="M113.637 54.5785L126.842 83.9898C127.186 84.7576 127.211 85.6297 126.912 86.4157C126.612 87.2017 126.015 87.8376 125.249 88.1843L69.2288 113.316C68.4607 113.659 67.5875 113.685 66.8008 113.386C66.0138 113.088 65.3779 112.489 65.0319 111.722L51.8212 82.3111C51.4755 81.543 51.4492 80.669 51.7482 79.8814C52.0471 79.0939 52.6467 78.4572 53.4152 78.1116L109.436 52.9804C110.205 52.6378 111.079 52.6138 111.866 52.9132C112.654 53.2127 113.29 53.8112 113.637 54.5785Z" fill="black"/>
<path d="M104.808 53.1252L103.018 53.9278L103.224 54.3877L105.015 53.5852L104.808 53.1252Z" fill="#90C4E1"/>
<path d="M100.511 55.0496L94.9282 57.5525L95.1348 58.0124L100.717 55.5095L100.511 55.0496Z" fill="#90C4E1"/>
<path d="M51.7717 85.2754L51.3115 85.4819L52.8405 88.8851L53.3007 88.6786L51.7717 85.2754Z" fill="#90C4E1"/>
<path opacity="0.6" d="M111.761 52.8747L97.3146 81.1567C95.974 83.7781 93.7786 85.8639 91.0915 87.0692C88.4042 88.2747 85.3856 88.5275 82.535 87.7861L51.791 79.7754C52.1063 79.0382 52.6854 78.445 53.4151 78.1117L109.436 52.9805C110.169 52.6525 111 52.6148 111.761 52.8747Z" fill="#90C4E1"/>
<path d="M131.619 89.0715L88.149 91.7536C87.3811 91.7992 86.6297 91.9957 85.9377 92.3321C85.2458 92.6682 84.6271 93.1374 84.1168 93.713C83.6067 94.2884 83.2149 94.9589 82.9643 95.6858C82.7137 96.4128 82.6089 97.182 82.656 97.9494L87.6145 178.248C87.6606 179.016 87.8581 179.768 88.1953 180.459C88.5327 181.15 89.0033 181.77 89.5801 182.28C90.1569 182.789 90.8287 183.179 91.557 183.429C92.2851 183.678 93.0554 183.781 93.8238 183.733L149.461 180.3C150.228 180.254 150.978 180.056 151.67 179.72C152.36 179.383 152.978 178.914 153.486 178.339C153.996 177.764 154.386 177.092 154.634 176.365C154.883 175.64 154.987 174.871 154.939 174.105L150.752 105.96L131.619 89.0715Z" fill="#90C4E1"/>
<path opacity="0.8" d="M131.619 89.0715L88.149 91.7536C87.3811 91.7992 86.6297 91.9957 85.9377 92.3321C85.2458 92.6682 84.6271 93.1374 84.1168 93.713C83.6067 94.2884 83.2149 94.9589 82.9643 95.6858C82.7137 96.4128 82.6089 97.182 82.656 97.9494L87.6145 178.248C87.6606 179.016 87.8581 179.768 88.1953 180.459C88.5327 181.15 89.0033 181.77 89.5801 182.28C90.1569 182.789 90.8287 183.179 91.557 183.429C92.2851 183.678 93.0554 183.781 93.8238 183.733L149.461 180.3C150.228 180.254 150.978 180.056 151.67 179.72C152.36 179.383 152.978 178.914 153.486 178.339C153.996 177.764 154.386 177.092 154.634 176.365C154.883 175.64 154.987 174.871 154.939 174.105L150.752 105.96L131.619 89.0715Z" fill="white"/>
<g opacity="0.22">
<path d="M134.248 173.146L98.0761 175.38C97.4002 175.419 96.7366 175.188 96.2301 174.739C95.7235 174.292 95.4151 173.661 95.3724 172.986C95.3337 172.311 95.5631 171.646 96.0107 171.14C96.4584 170.633 97.0883 170.323 97.7633 170.278L133.935 168.049C134.61 168.01 135.275 168.238 135.783 168.685C136.289 169.134 136.599 169.763 136.644 170.438C136.683 171.115 136.453 171.78 136.006 172.288C135.557 172.795 134.924 173.103 134.248 173.146Z" fill="#90C4E1"/>
</g>
<g opacity="0.22">
<path d="M112.841 103.414L93.7084 104.584C93.033 104.623 92.3696 104.393 91.8623 103.946C91.3553 103.498 91.0451 102.869 90.9998 102.194C90.961 101.518 91.1911 100.855 91.6399 100.348C92.0887 99.8406 92.7199 99.5311 93.3957 99.4871L112.528 98.3075C113.203 98.2674 113.867 98.4963 114.374 98.9442C114.881 99.392 115.189 100.022 115.232 100.697C115.275 101.374 115.046 102.04 114.599 102.55C114.15 103.059 113.518 103.37 112.841 103.414Z" fill="#90C4E1"/>
</g>
<g opacity="0.22">
<path d="M125.946 112.761L94.3333 114.707C93.6573 114.749 92.9922 114.52 92.4844 114.072C91.9766 113.624 91.6674 112.993 91.6246 112.318C91.5845 111.641 91.8143 110.977 92.2632 110.47C92.7122 109.962 93.3441 109.653 94.0205 109.61L125.627 107.664C126.304 107.623 126.969 107.851 127.477 108.299C127.985 108.747 128.293 109.378 128.336 110.054C128.377 110.729 128.147 111.393 127.699 111.9C127.25 112.408 126.621 112.717 125.946 112.761Z" fill="#90C4E1"/>
</g>
<g opacity="0.22">
<path d="M141.093 121.982L94.9592 124.825C94.2812 124.867 93.6144 124.638 93.105 124.189C92.5954 123.74 92.2845 123.108 92.2403 122.43C92.2002 121.755 92.4294 121.092 92.8775 120.586C93.3256 120.08 93.9563 119.771 94.6313 119.728L140.77 116.88C141.446 116.841 142.109 117.071 142.617 117.52C143.123 117.969 143.431 118.599 143.474 119.275C143.513 119.948 143.287 120.611 142.841 121.118C142.394 121.625 141.767 121.935 141.093 121.982Z" fill="#90C4E1"/>
</g>
<g opacity="0.22">
<path d="M141.718 132.095L114.898 133.748C114.223 133.788 113.559 133.559 113.051 133.112C112.544 132.664 112.234 132.034 112.19 131.359C112.148 130.683 112.377 130.018 112.825 129.511C113.273 129.003 113.905 128.694 114.581 128.651L141.401 126.998C142.077 126.956 142.741 127.185 143.249 127.633C143.757 128.081 144.066 128.712 144.109 129.388C144.15 130.063 143.92 130.727 143.472 131.234C143.025 131.741 142.394 132.051 141.718 132.095Z" fill="#90C4E1"/>
</g>
<g opacity="0.22">
<path d="M102.596 134.504L95.5792 134.938C94.904 134.978 94.2404 134.749 93.7336 134.301C93.2269 133.853 92.9184 133.223 92.8756 132.548C92.8355 131.873 93.0644 131.209 93.5125 130.702C93.9604 130.195 94.591 129.885 95.2665 129.841L102.283 129.408C102.959 129.369 103.623 129.599 104.131 130.047C104.638 130.496 104.947 131.127 104.992 131.802C105.03 132.477 104.8 133.141 104.351 133.647C103.902 134.153 103.271 134.461 102.596 134.504Z" fill="#90C4E1"/>
</g>
<g opacity="0.22">
<path d="M142.344 142.208L96.2046 145.051C95.5289 145.091 94.8648 144.862 94.3572 144.415C93.8497 143.967 93.5401 143.337 93.4959 142.661C93.4572 141.986 93.6873 141.322 94.1361 140.815C94.5849 140.308 95.2161 139.998 95.892 139.954L142.025 137.111C142.702 137.071 143.367 137.3 143.875 137.749C144.383 138.198 144.692 138.83 144.734 139.506C144.775 140.18 144.545 140.844 144.098 141.35C143.649 141.857 143.018 142.165 142.344 142.208Z" fill="#90C4E1"/>
</g>
<g opacity="0.22">
<path d="M125.163 153.419L96.8301 155.168C96.1539 155.207 95.4897 154.977 94.9823 154.529C94.475 154.081 94.1656 153.449 94.1214 152.774C94.0827 152.099 94.313 151.436 94.762 150.929C95.2108 150.423 95.8419 150.115 96.5173 150.072L124.85 148.323C125.527 148.284 126.19 148.514 126.696 148.963C127.202 149.412 127.511 150.042 127.553 150.717C127.596 151.393 127.366 152.056 126.919 152.564C126.47 153.07 125.839 153.378 125.163 153.419Z" fill="#90C4E1"/>
</g>
<g opacity="0.22">
<path d="M142.964 152.325L135.398 152.79C134.723 152.829 134.059 152.601 133.553 152.152C133.045 151.705 132.737 151.074 132.694 150.4C132.653 149.724 132.881 149.059 133.33 148.552C133.778 148.044 134.409 147.735 135.086 147.693L142.652 147.229C143.328 147.187 143.993 147.416 144.501 147.864C145.009 148.312 145.317 148.943 145.36 149.618C145.399 150.294 145.169 150.958 144.72 151.465C144.271 151.972 143.64 152.282 142.964 152.325Z" fill="#90C4E1"/>
</g>
<g opacity="0.22">
<path d="M143.59 162.438L97.4554 165.281C96.7795 165.322 96.1154 165.092 95.608 164.645C95.1003 164.198 94.7907 163.568 94.7467 162.892C94.7066 162.217 94.9354 161.553 95.3835 161.045C95.8315 160.539 96.4621 160.229 97.1376 160.185L143.276 157.341C143.952 157.302 144.615 157.53 145.123 157.979C145.629 158.426 145.937 159.057 145.98 159.732C146.021 160.407 145.793 161.072 145.345 161.579C144.896 162.087 144.265 162.395 143.59 162.438Z" fill="#90C4E1"/>
</g>
<path opacity="0.22" d="M131.619 89.0715L132.371 101.231C132.418 101.998 132.616 102.748 132.952 103.438C133.289 104.129 133.76 104.746 134.336 105.255C134.911 105.764 135.581 106.154 136.309 106.404C137.034 106.654 137.804 106.759 138.571 106.711L150.753 105.96L131.619 89.0715Z" fill="#90C4E1"/>
<path opacity="0.5" d="M117.385 119.406C117.378 118.823 117.253 118.247 117.019 117.714C116.786 117.18 116.447 116.698 116.023 116.297C115.601 115.896 115.102 115.584 114.556 115.38C114.01 115.175 113.428 115.081 112.845 115.105H72.4418C69.38 115.105 66.3888 117.591 65.8138 120.651L49.8691 202.296C49.2739 205.356 51.2715 207.841 54.3333 207.841H182.455C185.517 207.841 188.483 205.361 189.082 202.296L202.233 134.993C202.828 131.928 200.83 129.448 197.77 129.448H128.054C122.001 129.448 117.592 125.284 117.385 119.406Z" fill="#90C4E1"/>
<defs>
<filter id="filter0_d_345_33" x="0.861328" y="0.40979" width="253.496" height="253.366" filterUnits="userSpaceOnUse" color-interpolation-filters="sRGB">
<feFlood flood-opacity="0" result="BackgroundImageFix"/>
<feColorMatrix in="SourceAlpha" type="matrix" values="0 0 0 0 0 0 0 0 0 0 0 0 0 0 0 0 0 0 127 0" result="hardAlpha"/>
<feOffset/>
<feGaussianBlur stdDeviation="5"/>
<feComposite in2="hardAlpha" operator="out"/>
<feColorMatrix type="matrix" values="0 0 0 0 0.654167 0 0 0 0 0.654167 0 0 0 0 0.654167 0 0 0 0.25 0"/>
<feBlend mode="normal" in2="BackgroundImageFix" result="effect1_dropShadow_345_33"/>
<feBlend mode="normal" in="SourceGraphic" in2="effect1_dropShadow_345_33" result="shape"/>
</filter>
</defs>
</svg>
