<svg width="255" height="254" viewBox="0 0 255 254" fill="none" xmlns="http://www.w3.org/2000/svg">
<g filter="url(#filter0_d_345_32)">
<path d="M127.609 243.776C192.087 243.776 244.357 191.535 244.357 127.093C244.357 62.6506 192.087 10.4098 127.609 10.4098C63.131 10.4098 10.8613 62.6506 10.8613 127.093C10.8613 191.535 63.131 243.776 127.609 243.776Z" fill="white"/>
</g>
<path d="M103.848 142.802L101.014 140.381L106.371 133.581L109.211 136.003L103.848 142.802Z" fill="#7F3E3B"/>
<path d="M102.072 139.235L105.218 141.827C105.275 141.872 105.313 141.937 105.326 142.008C105.339 142.079 105.326 142.153 105.289 142.215L103.619 145.154C103.575 145.224 103.517 145.285 103.449 145.331C103.38 145.378 103.303 145.409 103.221 145.424C103.139 145.438 103.056 145.435 102.975 145.415C102.895 145.395 102.82 145.358 102.754 145.306C101.643 144.348 100.061 142.956 98.638 141.78C96.9738 140.405 97.0855 140.605 95.1097 139C93.9335 138.024 94.6451 136.608 95.2333 136.914C97.9147 138.295 98.1735 138.459 101.161 138.912C101.489 138.933 101.804 139.045 102.072 139.235Z" fill="#263238"/>
<path opacity="0.2" d="M106.37 133.587L103.612 137.09L106.447 139.511L109.211 136.003L106.37 133.587Z" fill="black"/>
<path d="M104.524 132.629L103.283 134.939L108.335 139.2L110.075 137.483L104.524 132.629Z" fill="#263238"/>
<path d="M106.5 181.804L89.094 179.166C87.595 178.936 86.1628 178.387 84.8943 177.557C83.6258 176.727 82.5506 175.635 81.7416 174.352C80.9324 173.07 80.4083 171.63 80.2048 170.128C80.0011 168.627 80.1228 167.098 80.5614 165.648C81.0065 164.198 81.7583 162.86 82.7661 161.725C83.7739 160.591 85.0141 159.688 86.4022 159.073C87.7904 158.46 89.2944 158.152 90.8119 158.172C92.3296 158.191 93.8254 158.535 95.198 159.182L111.117 166.699C112.067 167.148 112.825 167.925 113.25 168.887C113.676 169.849 113.741 170.93 113.433 171.937L111.346 178.777C111.034 179.778 110.374 180.633 109.485 181.189C108.596 181.745 107.537 181.962 106.5 181.804Z" fill="#90C4E1"/>
<path opacity="0.4" d="M106.5 181.804L89.094 179.166C87.595 178.936 86.1628 178.387 84.8943 177.557C83.6258 176.727 82.5506 175.635 81.7416 174.352C80.9324 173.07 80.4083 171.63 80.2048 170.128C80.0011 168.627 80.1228 167.098 80.5614 165.648C81.0065 164.198 81.7583 162.86 82.7661 161.725C83.7739 160.591 85.0141 159.688 86.4022 159.073C87.7904 158.46 89.2944 158.152 90.8119 158.172C92.3296 158.191 93.8254 158.535 95.198 159.182L111.117 166.699C112.067 167.148 112.825 167.925 113.25 168.887C113.676 169.849 113.741 170.93 113.433 171.937L111.346 178.777C111.034 179.778 110.374 180.633 109.485 181.189C108.596 181.745 107.537 181.962 106.5 181.804Z" fill="black"/>
<path d="M101.042 135.05C104.265 135.75 108.969 136.226 109.863 134.616C115.091 125.112 122.8 109.931 124.482 106.534C124.741 106.028 124.424 105.57 123.588 105.211L112.174 100.292C109.787 99.4165 106.882 100.186 104.694 101.027C91.2689 106.222 66.4356 116.895 60.7197 121.186C66.7883 126.734 90.0811 132.664 101.042 135.05Z" fill="#90C4E1"/>
<path opacity="0.2" d="M101.042 135.05C104.265 135.75 108.969 136.226 109.863 134.616C115.091 125.112 122.8 109.931 124.482 106.534C124.741 106.028 124.424 105.57 123.588 105.211L112.174 100.292C109.787 99.4165 106.882 100.186 104.694 101.027C91.2689 106.222 66.4356 116.895 60.7197 121.186C66.7883 126.734 90.0811 132.664 101.042 135.05Z" fill="black"/>
<path d="M199.213 149.879C200.472 149.908 201.842 149.585 200.725 148.41C194.026 141.392 183.182 130.261 180.771 127.792C180.423 127.427 179.983 127.165 179.496 127.034L173.026 125.306C171.798 125.042 171.816 125.947 172.044 126.799C173.463 132.053 176.962 142.48 179.277 146.106C185.134 148.968 194.944 149.773 199.213 149.879Z" fill="#90C4E1"/>
<path opacity="0.2" d="M199.213 149.879C200.472 149.908 201.842 149.585 200.725 148.41C194.026 141.392 183.182 130.261 180.771 127.792C180.423 127.427 179.983 127.165 179.496 127.034L173.026 125.306C171.798 125.042 171.816 125.947 172.044 126.799C173.463 132.053 176.962 142.48 179.277 146.106C185.134 148.968 194.944 149.773 199.213 149.879Z" fill="black"/>
<path d="M91.7824 103.778C89.9653 103.378 88.1659 103.008 86.4429 102.679L86.5546 102.091C88.2834 102.42 90.0829 102.79 91.906 103.19L91.7824 103.778Z" fill="#90C4E1"/>
<path d="M82.1538 101.903C75.8209 100.765 69.4052 100.152 62.9714 100.069C60.3853 100.058 57.8008 100.205 55.2327 100.51L55.1621 99.922C57.7543 99.6207 60.3619 99.4736 62.9714 99.4812C69.4385 99.5659 75.8874 100.181 82.2536 101.321L82.1538 101.903Z" fill="#90C4E1"/>
<path d="M42.0262 106.234C69.8059 89.1899 144.936 123.484 185.382 132.435C204.163 136.596 192.669 151.865 183.664 153.864C174.661 155.861 64.3722 163.266 28.107 146.811C-8.15823 130.354 29.0185 114.227 42.0262 106.234Z" fill="#90C4E1"/>
<path d="M181.349 154.228C186.118 153.877 190.681 152.14 194.478 149.232C198.274 146.324 201.137 142.372 202.718 137.86C205.787 129.297 207.963 123.167 207.963 123.167C205.561 121.79 202.859 121.022 200.092 120.927C197.324 120.833 194.576 121.416 192.086 122.626L171.274 132.747L181.349 154.228Z" fill="#90C4E1"/>
<path opacity="0.2" d="M180.343 142.209C181.737 145.682 185.76 149.808 188.729 152.53C191.883 151.26 194.729 149.337 197.085 146.887L180.343 142.209Z" fill="black"/>
<path opacity="0.2" d="M192.262 144.954C188.531 145.303 184.783 145.434 181.036 145.348C177.284 145.283 173.534 144.977 169.793 144.595C166.053 144.213 162.332 143.62 158.621 142.985C143.772 140.323 129.252 136.02 114.934 131.107C111.353 129.884 107.777 128.621 104.173 127.345C102.355 126.722 100.579 126.082 98.6507 125.494C97.645 125.235 96.6513 124.906 95.6222 124.718L94.0756 124.436C93.5628 124.332 93.0444 124.258 92.5231 124.213C88.3182 123.737 84.0611 124.056 79.974 125.153C77.9576 125.723 75.9911 126.457 74.0935 127.345C72.2067 128.236 70.3918 129.271 68.6657 130.443L67.3779 131.348L66.1372 132.3L64.961 133.27C64.62 133.558 64.273 133.858 63.9144 134.128C62.5148 135.256 61.0447 136.344 59.551 137.396C56.5472 139.491 53.4317 141.421 50.2185 143.179C47.077 144.926 43.801 146.42 40.4217 147.646C38.8498 148.219 37.233 148.662 35.5878 148.968C35.1292 149.05 34.6763 149.115 34.2412 149.15C39.1592 150.688 44.1747 151.896 49.2543 152.765C50.9183 151.919 52.5355 151.002 54.1291 150.073C57.5271 148.062 60.8096 145.862 63.9614 143.485C65.5433 142.309 67.0899 141.057 68.6071 139.752C68.9834 139.429 69.3598 139.088 69.7302 138.759L70.7299 137.872L71.7178 137.055L72.7469 136.273C74.1352 135.261 75.5977 134.356 77.122 133.564C78.6342 132.787 80.2077 132.137 81.8265 131.618C85.0771 130.622 88.4863 130.245 91.8762 130.507C92.3024 130.526 92.7268 130.573 93.1464 130.649L94.4167 130.825C95.2635 130.966 96.0986 131.207 96.9393 131.413C98.6683 131.871 100.468 132.447 102.291 132.999C105.913 134.134 109.559 135.286 113.217 136.396C127.848 140.84 142.754 144.695 157.984 146.87C161.795 147.387 165.629 147.834 169.452 148.122C173.274 148.41 177.144 148.551 181.008 148.48C184.876 148.432 188.738 148.153 192.574 147.646C194.087 147.438 195.592 147.189 197.085 146.899C198.007 145.964 198.848 144.953 199.602 143.878C197.18 144.348 194.727 144.707 192.262 144.954Z" fill="white"/>
<path opacity="0.2" d="M126.383 154.228C126.383 154.228 98.8029 154.081 72.5933 151.584C72.0053 151.525 70.3175 148.545 68.524 147.804C68.3299 149.873 68.6944 151.19 67.6537 151.078C52.4936 149.438 34.1346 145.683 26.9722 141.886C23.3263 128.85 15.2874 124.93 15.2874 124.93C10.2655 131.636 11.3005 139.194 28.107 146.805C64.3723 163.261 174.661 155.856 183.666 153.857L126.383 154.228Z" fill="black"/>
<path d="M72.5979 143.144C71.755 143.147 70.9335 143.41 70.2446 143.895C69.5557 144.381 69.0326 145.066 68.7459 145.858C68.4592 146.651 68.4228 147.512 68.6415 148.326C68.8604 149.139 69.3238 149.866 69.9694 150.408C88.099 164.994 121.971 188.246 130.363 193.976C131.639 194.842 133.077 195.441 134.591 195.74L155.172 199.73C157.637 200.206 158.612 198.825 157.578 196.85C151.179 184.654 136.442 159.887 127.887 151.484C108.775 144.842 85.8526 143.379 72.5979 143.144Z" fill="#90C4E1"/>
<path opacity="0.2" d="M127.769 189.081L72.3575 146.041C70.5464 144.636 67.9059 146.405 68.6528 148.568C68.9084 149.294 69.3652 149.932 69.97 150.408C88.0997 164.994 121.971 188.245 130.363 193.976C131.641 194.842 133.077 195.441 134.59 195.74L155.174 199.73C156.407 199.971 157.266 199.73 157.69 199.207L139.196 194.641C135.041 193.604 131.149 191.71 127.769 189.081Z" fill="black"/>
<path d="M178.714 139.094C178.42 139.134 178.145 139.264 177.928 139.467C177.711 139.67 177.563 139.935 177.504 140.226C177.445 140.517 177.479 140.819 177.6 141.09C177.721 141.361 177.923 141.588 178.178 141.739C185.2 145.853 198.107 152.165 201.306 153.716C201.793 153.95 202.32 154.081 202.859 154.105L210.186 154.429C211.063 154.47 211.332 153.941 210.869 153.312C208.033 149.42 201.664 141.61 198.278 139.141C191.316 137.825 183.313 138.495 178.714 139.094Z" fill="#90C4E1"/>
<path opacity="0.2" d="M200.16 152.154L178.778 140.105C178.626 140.021 178.452 139.987 178.279 140.008C178.108 140.029 177.946 140.104 177.819 140.222C177.693 140.34 177.605 140.495 177.571 140.665C177.537 140.835 177.559 141.011 177.632 141.169C177.751 141.415 177.942 141.619 178.179 141.756C185.2 145.871 198.108 152.182 201.306 153.734C201.792 153.967 202.32 154.099 202.858 154.122L210.186 154.445C210.341 154.477 210.503 154.464 210.653 154.411C210.801 154.358 210.933 154.263 211.032 154.14L204.393 153.488C202.905 153.344 201.463 152.89 200.16 152.154Z" fill="black"/>
<path d="M43.4372 105.441C42.955 105.688 42.4847 105.952 42.0259 106.234C40.2618 107.304 38.1213 108.515 35.7573 109.855C36.8569 113.017 40.3265 116.708 44.731 120.022L52.8756 113.781C48.7944 111.206 45.3249 108.227 43.4372 105.441Z" fill="white"/>
<path d="M55.7805 115.473L48.5181 122.59C50.3686 123.754 52.287 124.806 54.2633 125.741C54.8718 126.023 55.5318 126.179 56.2027 126.196C56.8736 126.214 57.541 126.094 58.1637 125.844C58.7863 125.594 59.3512 125.219 59.8233 124.743C60.2953 124.266 60.6646 123.697 60.9083 123.073C61.3559 121.92 61.3521 120.642 60.8974 119.492C60.4429 118.343 59.571 117.407 58.4561 116.872C57.5681 116.431 56.6685 115.961 55.7805 115.473Z" fill="white"/>
<path d="M214.155 137.066C227.992 140.005 263.674 145.882 245.428 124.007C266.538 145.524 244.103 148.774 224.844 149.867C223.053 149.971 221.26 149.668 219.6 148.981C217.941 148.294 216.46 147.24 215.266 145.9C213.858 144.32 212.585 142.626 211.46 140.833C211.207 140.412 211.081 139.925 211.1 139.433C211.12 138.941 211.282 138.465 211.569 138.065C211.854 137.664 212.252 137.356 212.711 137.178C213.171 137.001 213.672 136.962 214.155 137.066Z" fill="#90C4E1"/>
<path opacity="0.2" d="M214.155 137.066C227.992 140.005 263.674 145.882 245.428 124.007C266.538 145.524 244.103 148.774 224.844 149.867C223.053 149.971 221.26 149.668 219.6 148.981C217.941 148.294 216.46 147.24 215.266 145.9C213.858 144.32 212.585 142.626 211.46 140.833C211.207 140.412 211.081 139.925 211.1 139.433C211.12 138.941 211.282 138.465 211.569 138.065C211.854 137.664 212.252 137.356 212.711 137.178C213.171 137.001 213.672 136.962 214.155 137.066Z" fill="white"/>
<path d="M115.779 150.819L109.84 157.126L106.965 154.146L112.904 147.845L115.779 150.819Z" fill="#7F3E3B"/>
<path d="M107.983 153.417L111.453 155.539C111.514 155.574 111.561 155.63 111.583 155.697C111.604 155.765 111.6 155.838 111.57 155.904L110.182 158.954C110.148 159.03 110.096 159.1 110.032 159.157C109.968 159.212 109.893 159.253 109.811 159.278C109.73 159.301 109.644 159.308 109.56 159.296C109.475 159.283 109.395 159.253 109.324 159.207C108.083 158.419 107.748 158.084 106.172 157.119C104.331 155.997 103.037 155.809 100.844 154.552C99.515 153.793 100.05 152.318 100.685 152.517C102.714 153.105 105.784 153.463 107.036 153.182C107.37 153.136 107.71 153.219 107.983 153.417Z" fill="#263238"/>
<path opacity="0.2" d="M115.779 150.825L112.716 154.076L109.84 151.096L112.898 147.845L115.779 150.825Z" fill="black"/>
<path d="M110.882 146.964L109.571 149.215L114.745 153.54L116.574 151.883L110.882 146.964Z" fill="white"/>
<defs>
<filter id="filter0_d_345_32" x="0.861328" y="0.40979" width="253.496" height="253.366" filterUnits="userSpaceOnUse" color-interpolation-filters="sRGB">
<feFlood flood-opacity="0" result="BackgroundImageFix"/>
<feColorMatrix in="SourceAlpha" type="matrix" values="0 0 0 0 0 0 0 0 0 0 0 0 0 0 0 0 0 0 127 0" result="hardAlpha"/>
<feOffset/>
<feGaussianBlur stdDeviation="5"/>
<feComposite in2="hardAlpha" operator="out"/>
<feColorMatrix type="matrix" values="0 0 0 0 0.654167 0 0 0 0 0.654167 0 0 0 0 0.654167 0 0 0 0.25 0"/>
<feBlend mode="normal" in2="BackgroundImageFix" result="effect1_dropShadow_345_32"/>
<feBlend mode="normal" in="SourceGraphic" in2="effect1_dropShadow_345_32" result="shape"/>
</filter>
</defs>
</svg>
