<svg width="270" height="268" viewBox="0 0 270 268" fill="none" xmlns="http://www.w3.org/2000/svg">
<g filter="url(#filter0_d_345_27)">
<path d="M127.609 243.776C192.087 243.776 244.357 191.535 244.357 127.093C244.357 62.6506 192.087 10.4098 127.609 10.4098C63.131 10.4098 10.8613 62.6506 10.8613 127.093C10.8613 191.535 63.131 243.776 127.609 243.776Z" fill="white"/>
</g>
<path d="M264.523 266.763C264.523 266.84 209.765 266.904 142.226 266.904C74.6875 266.904 19.9194 266.84 19.9194 266.763C19.9194 266.687 74.6657 266.623 142.226 266.623C209.787 266.623 264.523 266.681 264.523 266.763Z" fill="#263238"/>
<path d="M201.057 60.4475L265.737 77.775C266.92 78.0921 267.931 78.8662 268.542 79.927C269.155 80.9876 269.321 82.2482 269.004 83.4312L245.681 170.394C245.364 171.579 244.59 172.587 243.528 173.198C242.467 173.811 241.205 173.976 240.022 173.659L175.342 156.333L201.057 60.4475Z" fill="#90C4E1"/>
<path d="M224.146 135.875C222.877 135.875 221.613 135.709 220.387 135.381C218.449 134.869 216.635 133.967 215.057 132.73C213.48 131.493 212.172 129.947 211.213 128.187C209.215 124.572 208.701 120.322 209.783 116.335C212.006 107.963 220.365 102.893 228.417 105.026C230.354 105.535 232.168 106.433 233.746 107.667C235.325 108.9 236.635 110.442 237.598 112.198C239.569 115.824 240.079 120.067 239.02 124.056C237.961 128.045 235.416 131.477 231.905 133.649C229.573 135.091 226.889 135.862 224.146 135.875ZM224.69 105.623C218.41 105.623 212.587 110.021 210.838 116.612C209.831 120.33 210.307 124.293 212.168 127.666C213.052 129.297 214.262 130.729 215.72 131.876C217.178 133.022 218.857 133.859 220.651 134.334C222.444 134.809 224.317 134.912 226.151 134.637C227.987 134.363 229.746 133.716 231.322 132.737C234.61 130.73 236.99 127.523 237.956 123.795C238.968 120.08 238.5 116.117 236.646 112.741C235.758 111.113 234.548 109.682 233.09 108.536C231.63 107.39 229.955 106.552 228.162 106.074C227.033 105.775 225.873 105.624 224.706 105.623H224.69Z" fill="white"/>
<path d="M210.346 115.504L210.068 116.554L238.423 124.063L238.701 123.013L210.346 115.504Z" fill="white"/>
<path d="M227.379 105.327L219.611 134.606L220.661 134.884L228.429 105.606L227.379 105.327Z" fill="white"/>
<path d="M220.371 135.148L219.827 134.198C223.88 131.993 226.7 129.789 228.698 127.264C231.163 124.042 232.406 120.05 232.202 115.999C231.876 112.226 229.693 108.805 227.77 105.786L228.682 105.2C230.677 108.327 232.94 111.867 233.283 115.906C233.537 120.234 232.22 124.508 229.573 127.943C226.82 131.412 223 133.72 220.371 135.148Z" fill="white"/>
<path d="M219.692 135.056C217.556 132.004 215.487 128.595 214.851 124.42C214.255 120.122 215.232 115.753 217.599 112.117C219.893 108.789 224 106.628 227.297 104.891L227.801 105.852C224.613 107.535 220.636 109.625 218.49 112.736C216.294 116.15 215.385 120.234 215.927 124.257C216.53 128.215 218.524 131.489 220.583 134.437L219.692 135.056Z" fill="white"/>
<path d="M233.696 115.103C226.892 115.098 220.265 112.941 214.763 108.941L215.405 108.067C221.916 112.796 230.01 114.816 237.981 113.702L238.134 114.788C236.664 114.999 235.181 115.104 233.696 115.103Z" fill="white"/>
<path d="M233.231 132.243C226.042 126.988 217.786 124.566 210.566 125.592L210.409 124.506C217.905 123.421 226.461 125.929 233.876 131.353L233.231 132.243Z" fill="white"/>
<path d="M180.334 155.768C180.265 155.768 185.854 134.415 192.829 108.126C199.803 81.838 205.514 60.5281 205.589 60.5498C205.666 60.5716 200.076 81.8977 193.094 108.197C186.115 134.496 180.411 155.79 180.334 155.768Z" fill="#263238"/>
<path d="M234.184 158.147C234.184 158.221 225.873 156.089 215.667 153.385C205.459 150.681 197.196 148.428 197.224 148.352C197.251 148.276 205.53 150.409 215.742 153.112C225.955 155.816 234.206 158.07 234.184 158.147Z" fill="white"/>
<path d="M228.693 160.443C228.693 160.519 222.517 158.955 214.943 156.946C207.372 154.938 201.244 153.255 201.265 153.178C201.287 153.102 207.441 154.666 215.015 156.675C222.586 158.683 228.714 160.366 228.693 160.443Z" fill="white"/>
<path d="M226.579 79.677L225.607 83.3472L225.135 83.2224L225.57 81.5934L223.706 81.0886L223.271 82.7173L222.798 82.5924L223.777 78.9224L224.244 79.0472L223.825 80.6217L225.711 81.1265L226.13 79.5468L226.579 79.677Z" fill="white"/>
<path d="M229.096 83.7814L228.976 84.2375L226.591 83.6078L227.564 79.9375L229.883 80.551L229.764 81.0071L227.912 80.5184L227.613 81.6423L229.242 82.0822L229.122 82.5273L227.493 82.093L227.178 83.2766L229.096 83.7814Z" fill="white"/>
<path d="M232.072 84.08L230.327 83.6131L229.725 84.4383L229.236 84.308L231.701 81.0505L232.163 81.1699L232.707 85.2365L232.213 85.1061L232.072 84.08ZM232.022 83.6131L231.789 81.6259L230.605 83.2547L232.022 83.6131Z" fill="white"/>
<path d="M234.147 81.6804L234.614 81.8053L233.762 85.0193L235.542 85.4918L235.423 85.9478L233.175 85.3505L234.147 81.6804Z" fill="white"/>
<path d="M237.163 82.967L236.038 82.6684L236.158 82.2124L238.874 82.9344L238.754 83.3905L237.63 83.0919L236.776 86.3061L236.309 86.1812L237.163 82.967Z" fill="white"/>
<path d="M242.212 83.8141L241.235 87.4897L240.768 87.3648L241.203 85.736L239.317 85.2365L238.882 86.8653L238.41 86.7404L239.383 83.0703L239.856 83.1897L239.437 84.7696L241.323 85.2691L241.74 83.6945L242.212 83.8141Z" fill="white"/>
<path d="M217.817 85.9967C217.514 87.153 216.54 87.6687 215.302 87.3376L214.508 87.1259L214.156 88.4561L212.869 88.1141L214.216 83.0322L216.296 83.5752C217.535 83.9117 218.127 84.8347 217.817 85.9967ZM216.519 85.6545C216.556 85.5517 216.569 85.442 216.556 85.3335C216.546 85.2248 216.508 85.1204 216.451 85.028C216.392 84.9353 216.314 84.8573 216.221 84.7994C216.129 84.7415 216.025 84.7053 215.917 84.6936L215.205 84.5035L214.808 85.9967L215.524 86.1812C215.624 86.2247 215.731 86.2454 215.84 86.2415C215.949 86.2375 216.054 86.209 216.15 86.1584C216.245 86.1078 216.328 86.0361 216.392 85.9488C216.457 85.8617 216.499 85.761 216.519 85.6545Z" fill="white"/>
<path d="M220.676 89.1295L218.752 88.6191L218.132 89.5094L216.824 89.1619L220.18 84.6123L221.446 84.9488L222.109 90.5626L220.772 90.2097L220.676 89.1295ZM220.583 87.9674L220.43 86.1867L219.408 87.658L220.583 87.9674Z" fill="white"/>
<path d="M222.283 90.1175L222.984 89.1728C223.338 89.6036 223.816 89.9162 224.353 90.0687C224.896 90.2098 225.14 90.1013 225.206 89.8515C225.418 89.0479 222.675 88.9501 223.174 87.0608C223.419 86.1542 224.262 85.5895 225.631 85.975C226.213 86.1159 226.746 86.4211 227.162 86.8545L226.483 87.7666C226.169 87.4361 225.773 87.193 225.336 87.0608C224.793 86.9197 224.549 87.0608 224.477 87.3269C224.272 88.1033 227.01 88.2064 226.509 90.0796C226.276 90.9644 225.424 91.5453 224.06 91.1653C223.374 91.008 222.754 90.642 222.283 90.1175Z" fill="white"/>
<path d="M226.488 91.236L227.194 90.2858C227.547 90.718 228.024 91.0308 228.563 91.1817C229.106 91.3228 229.345 91.2143 229.409 90.9645C229.621 90.1609 226.883 90.0633 227.383 88.1739C227.623 87.2672 228.47 86.7027 229.833 87.0609C230.414 87.2075 230.946 87.512 231.364 87.9404L230.685 88.9015C230.372 88.5602 229.972 88.309 229.529 88.1739C228.987 88.0327 228.741 88.1739 228.677 88.4399C228.47 89.2162 231.202 89.3194 230.709 91.1925C230.47 92.0776 229.621 92.6585 228.258 92.2783C227.575 92.1209 226.957 91.7569 226.488 91.236Z" fill="white"/>
<path d="M235.842 90.7743C235.532 91.9255 234.566 92.4412 233.322 92.11L232.534 91.9037L232.181 93.2339L230.892 92.8919L232.24 87.8047L234.32 88.3475C235.558 88.6842 236.15 89.6125 235.842 90.7743ZM234.571 90.4269C234.607 90.3245 234.621 90.2149 234.608 90.1066C234.596 89.9983 234.56 89.8943 234.501 89.8022C234.444 89.7101 234.366 89.6324 234.273 89.5751C234.181 89.5177 234.075 89.4823 233.967 89.4714L233.25 89.2813L232.86 90.769L233.571 90.959C233.671 91.0025 233.78 91.0228 233.888 91.0187C233.997 91.0144 234.102 90.9856 234.198 90.9345C234.295 90.8833 234.378 90.811 234.443 90.7232C234.507 90.6354 234.551 90.534 234.571 90.4269Z" fill="white"/>
<path d="M236.123 91.5672C236.277 91.078 236.571 90.6446 236.968 90.3209C237.366 89.997 237.851 89.7973 238.36 89.7462C238.872 89.6951 239.385 89.795 239.84 90.0334C240.294 90.2719 240.669 90.6383 240.916 91.0874C241.162 91.5365 241.273 92.0483 241.232 92.5594C241.191 93.0705 241 93.5583 240.685 93.9621C240.369 94.366 239.941 94.6681 239.455 94.8311C238.968 94.9941 238.444 95.0108 237.949 94.879C237.606 94.791 237.284 94.6335 237.004 94.4165C236.724 94.1996 236.491 93.9276 236.32 93.6174C236.148 93.3071 236.043 92.9652 236.009 92.6125C235.976 92.26 236.015 91.9042 236.123 91.5672ZM239.877 92.5607C239.899 92.3173 239.849 92.0731 239.736 91.8565C239.624 91.6398 239.451 91.4597 239.239 91.3374C239.029 91.215 238.786 91.1553 238.542 91.1651C238.298 91.1751 238.063 91.2542 237.861 91.3935C237.66 91.5326 237.503 91.7259 237.409 91.9511C237.314 92.1761 237.284 92.4235 237.325 92.6643C237.366 92.9052 237.475 93.1295 237.637 93.3112C237.801 93.4927 238.013 93.6242 238.248 93.6899C238.43 93.7316 238.621 93.7346 238.804 93.6986C238.988 93.6626 239.162 93.5885 239.316 93.4811C239.469 93.3737 239.599 93.2353 239.695 93.075C239.792 92.9146 239.854 92.7356 239.877 92.5498V92.5607Z" fill="white"/>
<path d="M243.528 94.7919L242.827 94.6073L242.469 95.9593L241.182 95.6172L242.535 90.53L244.61 91.0728C245.854 91.3986 246.44 92.3271 246.135 93.489C246.068 93.8185 245.909 94.1223 245.674 94.3644C245.44 94.6066 245.143 94.7775 244.816 94.8571L245.358 96.7139L243.979 96.3501L243.528 94.7919ZM244.235 92.1967L243.517 92.0066L243.127 93.4943L243.838 93.6844C243.938 93.717 244.043 93.7289 244.148 93.7195C244.251 93.7099 244.353 93.6792 244.446 93.6293C244.538 93.5793 244.619 93.5109 244.685 93.4286C244.749 93.3461 244.797 93.2515 244.824 93.1501C244.85 93.0488 244.856 92.943 244.841 92.8393C244.825 92.7354 244.79 92.636 244.734 92.5468C244.679 92.4575 244.606 92.3804 244.521 92.3202C244.435 92.2601 244.337 92.2181 244.235 92.1967Z" fill="white"/>
<path d="M247.944 93.1959L246.547 92.8268L246.846 91.6865L250.921 92.7725L250.621 93.9126L249.231 93.5433L248.183 97.4904L246.896 97.1483L247.944 93.1959Z" fill="white"/>
<path d="M220.843 79.6935C219.838 79.5715 218.847 79.357 217.882 79.0527C216.891 78.8398 215.925 78.5345 214.991 78.1406C216.986 78.4764 218.945 78.9962 220.843 79.6935Z" fill="white"/>
<path d="M220.301 81.1486C219.319 81.0349 218.353 80.8277 217.41 80.5295C216.448 80.32 215.505 80.0218 214.598 79.6392C216.542 79.9595 218.453 80.4648 220.301 81.1486Z" fill="white"/>
<path d="M251.151 87.7178C250.146 87.6 249.155 87.3873 248.19 87.0825C247.199 86.8678 246.23 86.5625 245.294 86.1704C247.292 86.5 249.253 87.018 251.151 87.7178Z" fill="white"/>
<path d="M250.607 89.1783C249.625 89.0654 248.659 88.8582 247.716 88.5594C246.75 88.3508 245.807 88.051 244.898 87.6636C246.845 87.9833 248.757 88.4905 250.607 89.1783Z" fill="white"/>
<path d="M249.677 129.143C249.388 129.662 248.998 130.118 248.529 130.484C248.06 130.849 247.522 131.117 246.948 131.272C246.374 131.427 245.775 131.465 245.185 131.385C244.597 131.305 244.029 131.107 243.517 130.804C243.517 130.804 245.854 127.096 249.677 129.143Z" fill="white"/>
<path d="M245.978 134.632C245.585 134.971 245.126 135.228 244.631 135.387C244.135 135.546 243.615 135.604 243.096 135.559C242.578 135.513 242.075 135.365 241.615 135.122C241.155 134.878 240.749 134.546 240.421 134.143C240.421 134.143 243.442 131.798 245.978 134.632Z" fill="white"/>
<path d="M241.562 138.34C241.059 138.574 240.514 138.704 239.959 138.724C239.405 138.744 238.852 138.653 238.334 138.456C237.815 138.26 237.341 137.961 236.938 137.578C236.537 137.196 236.216 136.737 235.995 136.228C235.995 136.228 239.792 134.702 241.562 138.34Z" fill="white"/>
<path d="M241.023 127.862C241.415 128.203 241.734 128.62 241.963 129.086C242.191 129.553 242.323 130.061 242.351 130.579C242.382 131.098 242.305 131.617 242.13 132.106C241.956 132.595 241.685 133.044 241.333 133.427C241.333 133.427 238.58 130.756 241.023 127.862Z" fill="white"/>
<path d="M239.182 131.977C239.182 131.977 240.219 134.588 237.314 135.826C237.314 135.826 236.423 133.068 239.182 131.977Z" fill="white"/>
<path d="M249.313 124.045C249.24 124.511 249.074 124.957 248.827 125.358C248.579 125.758 248.253 126.105 247.869 126.379C247.484 126.652 247.049 126.846 246.59 126.948C246.13 127.051 245.654 127.061 245.19 126.977C245.19 126.977 245.907 123.6 249.313 124.045Z" fill="white"/>
<path d="M245.164 119.446C245.164 119.446 247.679 121.374 245.572 124.365C245.572 124.365 243.11 122.199 245.164 119.446Z" fill="white"/>
<path d="M242.201 123.719C242.711 123.923 243.173 124.226 243.561 124.612C243.95 124.997 244.257 125.457 244.463 125.963C244.672 126.47 244.773 127.013 244.768 127.56C244.761 128.107 244.643 128.647 244.424 129.148C244.424 129.148 240.779 127.427 242.201 123.719Z" fill="white"/>
<path d="M233.099 136.532H233.3C233.436 136.532 233.632 136.532 233.881 136.532C234.587 136.501 235.286 136.403 235.972 136.239C236.994 135.989 237.977 135.604 238.895 135.093C239.437 134.797 239.956 134.461 240.45 134.089L240.835 133.785L241.025 133.633L241.209 133.47L241.585 133.134C241.704 133.014 241.819 132.889 241.943 132.77L242.116 132.585L242.286 132.395C242.394 132.27 242.508 132.145 242.617 132.015L242.92 131.624L243.068 131.434L243.203 131.233L243.474 130.837L243.719 130.441L243.84 130.24C243.883 130.175 243.915 130.109 243.952 130.039L244.159 129.642C244.64 128.71 245.005 127.721 245.246 126.7C245.405 126.013 245.508 125.314 245.556 124.61C245.556 124.36 245.556 124.164 245.556 124.034V123.882C245.556 123.866 245.556 123.849 245.556 123.833V124.034C245.556 124.164 245.556 124.36 245.556 124.61C245.512 125.317 245.412 126.019 245.257 126.711C245.014 127.735 244.651 128.727 244.17 129.664L243.959 130.061L243.85 130.262C243.811 130.327 243.768 130.392 243.731 130.462L243.485 130.864L243.214 131.26L243.079 131.456C243.029 131.526 242.975 131.586 242.925 131.651L242.622 132.048L242.291 132.428L242.122 132.618L241.943 132.802L241.585 133.161L241.214 133.503L241.025 133.666L240.835 133.818L240.45 134.122C239.952 134.495 239.43 134.833 238.885 135.131C237.963 135.638 236.979 136.02 235.956 136.266C235.266 136.43 234.562 136.525 233.855 136.549C233.605 136.549 233.409 136.549 233.274 136.549H233.072L233.099 136.532Z" fill="white"/>
<path d="M198.14 115.488C198.135 116.083 198.249 116.672 198.474 117.222C198.7 117.772 199.033 118.271 199.456 118.69C199.876 119.109 200.377 119.439 200.93 119.661C201.481 119.884 202.072 119.993 202.666 119.984C202.666 119.984 202.47 115.602 198.14 115.488Z" fill="white"/>
<path d="M198.646 122.096C198.821 122.585 199.092 123.035 199.443 123.419C199.794 123.802 200.219 124.111 200.691 124.329C201.163 124.546 201.673 124.666 202.193 124.682C202.712 124.699 203.231 124.611 203.716 124.425C203.716 124.425 202.238 120.885 198.646 122.096Z" fill="white"/>
<path d="M200.63 127.498C200.951 127.95 201.359 128.333 201.832 128.625C202.304 128.917 202.828 129.112 203.377 129.198C203.926 129.284 204.486 129.259 205.024 129.126C205.562 128.993 206.069 128.753 206.512 128.421C206.512 128.421 203.971 125.228 200.63 127.498Z" fill="white"/>
<path d="M206.291 118.659C205.782 118.762 205.297 118.966 204.867 119.258C204.438 119.551 204.07 119.927 203.787 120.363C203.505 120.8 203.313 121.289 203.222 121.801C203.131 122.313 203.144 122.837 203.259 123.344C203.259 123.344 206.976 122.384 206.291 118.659Z" fill="white"/>
<path d="M205.851 123.149C205.851 123.149 203.679 124.903 205.568 127.416C205.568 127.4 207.709 125.462 205.851 123.149Z" fill="white"/>
<path d="M200.978 111.243C200.81 111.683 200.734 112.153 200.752 112.623C200.768 113.094 200.88 113.557 201.078 113.984C201.277 114.411 201.559 114.794 201.908 115.11C202.258 115.426 202.668 115.669 203.113 115.825C203.113 115.825 204.151 112.519 200.978 111.243Z" fill="white"/>
<path d="M206.867 109.299C206.867 109.299 203.721 109.728 204.074 113.371C204.074 113.371 207.284 112.709 206.867 109.299Z" fill="white"/>
<path d="M207.316 114.479C206.776 114.406 206.227 114.442 205.701 114.584C205.176 114.727 204.684 114.973 204.254 115.308C203.824 115.644 203.468 116.062 203.202 116.537C202.937 117.013 202.769 117.537 202.71 118.078C202.71 118.078 206.714 118.404 207.316 114.479Z" fill="white"/>
<path d="M208.876 130.115L208.833 130.087L208.701 130.012C208.587 129.946 208.414 129.854 208.207 129.718C207.605 129.346 207.043 128.912 206.528 128.426C205.767 127.705 205.106 126.885 204.562 125.988C204.24 125.465 203.953 124.921 203.705 124.36L203.525 123.909L203.432 123.681C203.405 123.605 203.384 123.524 203.357 123.448C203.329 123.372 203.254 123.127 203.199 122.97L203.069 122.476L203.003 122.231L202.954 121.982C202.917 121.819 202.883 121.65 202.851 121.488L202.787 120.999C202.787 120.918 202.758 120.836 202.748 120.76V120.516C202.748 120.358 202.721 120.195 202.705 120.038C202.689 119.88 202.705 119.729 202.705 119.571C202.705 119.414 202.705 119.419 202.705 119.343C202.705 119.267 202.705 119.186 202.705 119.11C202.705 119.034 202.705 118.811 202.705 118.664C202.76 117.615 202.942 116.576 203.249 115.57C203.448 114.893 203.705 114.234 204.013 113.599L204.281 113.089L204.35 112.953L204.281 113.083C204.215 113.203 204.117 113.371 204.003 113.593C203.689 114.228 203.429 114.887 203.22 115.564C202.915 116.57 202.732 117.609 202.678 118.659C202.678 118.811 202.678 118.958 202.678 119.11C202.671 119.187 202.671 119.265 202.678 119.343C202.678 119.419 202.678 119.495 202.678 119.571C202.678 119.647 202.678 119.886 202.678 120.043C202.678 120.201 202.678 120.358 202.721 120.521V120.765C202.721 120.842 202.748 120.923 202.758 121.004L202.824 121.499C202.856 121.661 202.894 121.824 202.928 121.993L202.976 122.242L203.042 122.487L203.172 122.981C203.225 123.144 203.275 123.301 203.329 123.458C203.384 123.616 203.379 123.616 203.411 123.697C203.443 123.779 203.471 123.849 203.503 123.925L203.682 124.376C203.931 124.938 204.22 125.483 204.546 126.005C205.092 126.903 205.756 127.723 206.523 128.443C207.042 128.928 207.607 129.359 208.213 129.729C208.425 129.865 208.599 129.952 208.713 130.017L208.849 130.087L208.876 130.115Z" fill="white"/>
<path d="M175.418 210.581L111.155 210.544C109.317 210.544 107.497 210.182 105.799 209.478C104.101 208.775 102.558 207.745 101.258 206.444C99.9588 205.146 98.9282 203.603 98.2252 201.905C97.5222 200.209 97.1609 198.389 97.1616 196.552L97.1942 35.5318C97.1928 33.6931 97.5539 31.8722 98.2571 30.1731C98.9604 28.4739 99.9917 26.93 101.292 25.6295C102.593 24.3291 104.137 23.2977 105.837 22.5942C107.537 21.8907 109.359 21.5291 111.198 21.5298L175.468 21.5677C177.308 21.5663 179.131 21.9278 180.833 22.6311C182.534 23.3345 184.079 24.3663 185.38 25.6673C186.683 26.9683 187.715 28.513 188.419 30.2131C189.123 31.9132 189.485 33.7354 189.483 35.5752L189.449 196.595C189.449 198.435 189.087 200.258 188.382 201.957C187.676 203.657 186.642 205.199 185.337 206.498C184.034 207.798 182.487 208.828 180.785 209.528C179.083 210.228 177.259 210.586 175.418 210.581Z" fill="#263238"/>
<path d="M175.397 27.2741H162.936C162.116 27.2926 161.335 27.6357 160.769 28.2282C160.202 28.8207 159.892 29.614 159.91 30.4338V32.6925C159.926 33.5105 159.617 34.3016 159.05 34.8927C158.485 35.4838 157.708 35.8269 156.89 35.8468H132.601C131.781 35.8269 131.002 35.4825 130.434 34.8891C129.867 34.2957 129.559 33.5019 129.577 32.6816V30.4067C129.593 29.5873 129.282 28.7947 128.716 28.2026C128.149 27.6104 127.37 27.2668 126.55 27.2468H111.259C109.973 27.2468 108.7 27.5001 107.513 27.9923C106.326 28.4844 105.247 29.2057 104.339 30.1149C103.431 31.0242 102.711 32.1033 102.22 33.291C101.73 34.4785 101.478 35.751 101.481 37.0357L101.421 194.179C101.419 196.775 102.448 199.265 104.281 201.104C106.114 202.942 108.602 203.977 111.199 203.984L175.333 204.018C176.62 204.022 177.894 203.772 179.085 203.283C180.274 202.794 181.355 202.075 182.268 201.166C183.179 200.259 183.903 199.18 184.396 197.992C184.888 196.805 185.143 195.532 185.143 194.245L185.175 37.0739C185.173 34.4799 184.145 31.9922 182.311 30.1555C180.479 28.3187 177.992 27.2826 175.397 27.2741Z" fill="white"/>
<path d="M185.198 37.0739C185.197 34.4799 184.166 31.9922 182.334 30.1555C180.502 28.3187 178.015 27.2826 175.42 27.2741H162.936C162.116 27.2926 161.337 27.6357 160.769 28.2282C160.202 28.8207 159.894 29.614 159.911 30.4338V32.6925C159.927 33.5105 159.617 34.3016 159.052 34.8927C158.485 35.4838 157.708 35.8269 156.89 35.8468H132.603C131.781 35.8269 131.002 35.4825 130.436 34.8891C129.869 34.2957 129.559 33.5019 129.577 32.6816V30.4067C129.593 29.5873 129.284 28.7947 128.717 28.2026C128.149 27.6104 127.372 27.2668 126.552 27.2468H111.259C109.974 27.2468 108.701 27.5001 107.514 27.9923C106.326 28.4844 105.248 29.2057 104.34 30.1149C103.431 31.0242 102.711 32.1033 102.221 33.291C101.731 34.4785 101.479 35.751 101.481 37.0357L101.449 52.064H185.193L185.198 37.0739Z" fill="#F5F5F5"/>
<path d="M178.381 42.5952C177.265 42.6909 176.148 42.7288 175.028 42.7092C173.176 42.7092 171.672 42.7092 171.672 42.6549C172.786 42.5594 173.905 42.5213 175.023 42.5409C176.875 42.5247 178.381 42.5517 178.381 42.5952Z" fill="#263238"/>
<path d="M178.39 44.3326C177.276 44.4284 176.156 44.4665 175.039 44.4466C173.187 44.4466 171.686 44.4466 171.686 44.3924C172.802 44.2968 173.919 44.2588 175.039 44.2784C176.891 44.2403 178.39 44.2675 178.39 44.3326Z" fill="#263238"/>
<path d="M178.406 46.0268C177.292 46.1222 176.172 46.1604 175.055 46.1408C173.935 46.1798 172.814 46.1598 171.697 46.0809C171.697 46.0376 173.203 45.9833 175.055 45.9724C176.907 45.9616 178.406 45.9616 178.406 46.0268Z" fill="#263238"/>
<path d="M153.864 185.976C153.801 185.155 153.678 184.341 153.495 183.539C153.256 182.604 152.878 181.711 152.375 180.888C151.185 178.907 149.34 177.4 147.158 176.631C144.978 175.861 142.595 175.875 140.424 176.67C139.522 176.989 138.676 177.445 137.915 178.022C137.519 178.316 137.143 178.635 136.79 178.979C136.442 179.338 136.12 179.721 135.822 180.124C134.571 181.82 133.895 183.872 133.895 185.98C133.895 188.087 134.571 190.139 135.822 191.835C136.12 192.236 136.442 192.619 136.79 192.98C137.143 193.324 137.519 193.643 137.915 193.935C138.676 194.513 139.522 194.969 140.424 195.287C142.597 196.077 144.976 196.087 147.156 195.318C149.334 194.548 151.179 193.046 152.375 191.069C152.878 190.246 153.256 189.354 153.495 188.42C153.678 187.615 153.803 186.799 153.864 185.976C153.869 186.031 153.869 186.085 153.864 186.14C153.864 186.265 153.864 186.421 153.864 186.623C153.862 186.883 153.84 187.143 153.798 187.399C153.758 187.752 153.696 188.101 153.609 188.447C153.388 189.402 153.02 190.317 152.521 191.162C151.791 192.402 150.805 193.472 149.629 194.302C148.452 195.132 147.112 195.703 145.698 195.977C143.912 196.315 142.068 196.166 140.358 195.548C139.43 195.23 138.554 194.769 137.768 194.179C136.927 193.583 136.193 192.849 135.594 192.008C134.303 190.267 133.606 188.156 133.606 185.99C133.606 183.822 134.303 181.713 135.594 179.971C135.9 179.557 136.236 179.164 136.594 178.793C136.957 178.441 137.344 178.115 137.751 177.815C138.535 177.224 139.405 176.759 140.331 176.436C142.041 175.818 143.886 175.67 145.672 176.009C147.085 176.281 148.424 176.853 149.598 177.682C150.775 178.512 151.762 179.581 152.495 180.819C152.994 181.663 153.359 182.579 153.58 183.534C153.667 183.877 153.732 184.228 153.771 184.581C153.814 184.838 153.835 185.098 153.837 185.358C153.837 185.557 153.837 185.716 153.837 185.835C153.849 185.882 153.858 185.928 153.864 185.976Z" fill="#90C4E1"/>
<path d="M143.44 190.152L138.594 185.987L140.05 184.298L143.298 187.089L148.404 181.807L150.007 183.354L143.44 190.152Z" fill="#90C4E1"/>
<path d="M170.392 171.377H117.234C114.947 171.377 112.753 170.469 111.135 168.853C109.517 167.237 108.608 165.046 108.606 162.76C108.604 161.627 108.825 160.503 109.257 159.454C109.689 158.407 110.324 157.454 111.125 156.65C111.927 155.847 112.879 155.211 113.927 154.776C114.975 154.341 116.098 154.117 117.234 154.117H170.392C171.526 154.117 172.647 154.34 173.693 154.774C174.739 155.207 175.689 155.841 176.491 156.643C177.292 157.443 177.926 158.394 178.359 159.44C178.793 160.486 179.015 161.608 179.014 162.739C179.017 163.872 178.796 164.994 178.365 166.044C177.932 167.091 177.297 168.042 176.497 168.846C175.696 169.647 174.745 170.285 173.697 170.718C172.65 171.153 171.527 171.377 170.392 171.377Z" fill="#90C4E1"/>
<path d="M130.111 160.377H130.949V164.428H130.111V160.377Z" fill="white"/>
<path d="M135.109 164.428V161.994L134.024 163.999H133.642L132.557 162.05V164.428H131.774V160.377H132.464L133.822 162.891L135.159 160.377H135.849V164.428H135.109Z" fill="white"/>
<path d="M140.048 164.428V161.994L138.961 163.999H138.581L137.494 162.05V164.428H136.706V160.377H137.403L138.754 162.891L140.096 160.377H140.781V164.428H140.048Z" fill="white"/>
<path d="M141.679 162.646V160.377H142.52V162.609C142.52 163.379 142.82 163.694 143.33 163.694C143.841 163.694 144.134 163.379 144.134 162.609V160.377H144.937V162.646C144.937 163.835 144.324 164.492 143.308 164.492C142.292 164.492 141.679 163.835 141.679 162.646Z" fill="white"/>
<path d="M149.105 160.377V164.428H148.42L146.611 161.968V164.428H145.779V160.377H146.474L148.278 162.837V160.377H149.105Z" fill="white"/>
<path d="M149.962 160.377H150.803V164.428H149.962V160.377Z" fill="white"/>
<path d="M152.413 161.143H151.256V160.377H154.411V161.143H153.254V164.428H152.413V161.143Z" fill="white"/>
<path d="M156.534 162.994V164.428H155.698V162.978L154.292 160.377H155.183L156.154 162.174L157.122 160.377H157.942L156.534 162.994Z" fill="white"/>
<path d="M115.414 121.124V124.164H118.451V121.124V118.083H115.414V121.124Z" fill="#263238"/>
<path d="M118.451 102.892H115.408V105.933H118.451V102.892Z" fill="#263238"/>
<path d="M137.241 136.348H134.198V139.388H137.241V136.348Z" fill="#263238"/>
<path d="M118.451 108.968V112.008H115.414V115.049H118.451V118.084H121.493H124.534V121.124H127.571V118.084H130.614V115.049V112.008H127.571V115.049H124.534H121.493V112.008V108.968V105.927H118.451V108.968Z" fill="#263238"/>
<path d="M124.536 102.892H121.493V105.927H124.536H127.573V102.892H124.536Z" fill="#263238"/>
<path d="M138.212 127.318H139.848V124.278H138.212H136.583V127.318H138.212Z" fill="#263238"/>
<path d="M130.614 105.927H127.571V108.968H130.614V105.927Z" fill="#263238"/>
<path d="M151.898 118.083H148.855V121.124H151.898V118.083Z" fill="#263238"/>
<path d="M154.94 84.6558H151.897V87.6961H154.94V84.6558Z" fill="#263238"/>
<path d="M136.694 108.968V105.927H139.736V102.892H136.694V99.8521H133.657V102.892H130.616V105.927H133.657V108.968V112.008V115.048V118.083H136.694V115.048V112.008H139.736V108.968H136.694Z" fill="#263238"/>
<path d="M151.898 139.355H154.938V136.32H151.898H148.855V139.355H151.898Z" fill="#263238"/>
<path d="M148.862 84.6558H145.82V87.6961H148.862V84.6558Z" fill="#263238"/>
<path d="M148.094 108.968V105.927H145.057V102.892H142.016V105.927V108.968H138.974V112.008H142.016H145.057V108.968H148.094Z" fill="#263238"/>
<path d="M165.262 102.892H162.22V105.933H165.262V102.892Z" fill="#263238"/>
<path d="M133.742 118.083H130.7V121.124H133.742V118.083Z" fill="#263238"/>
<path d="M145.818 99.8519V96.8115H148.855V93.7712H151.898H154.938V90.7362H151.898V87.6958H148.855V90.7362H145.818V93.7712H142.775V96.8115H139.734V99.8519H142.775H145.818Z" fill="#263238"/>
<path d="M145.818 121.124V118.084H148.855V115.049H145.818H142.775V118.084H139.734V121.124H142.775H145.818Z" fill="#263238"/>
<path d="M154.94 133.28V130.24H151.898H148.855V127.199H145.82V130.24H142.777V133.28H139.735H136.694V136.315H139.735H142.777H145.82V133.28H148.855V136.315H151.898V133.28H154.94Z" fill="#263238"/>
<path d="M142.777 87.6961V84.6558H139.734H136.692V87.6961H133.656V90.7365H136.692H139.734V87.6961H142.777Z" fill="#263238"/>
<path d="M142.775 90.7363H139.734V93.7767H142.775V90.7363Z" fill="#263238"/>
<path d="M150.377 102.892H147.34V105.927V108.968V112.008H150.377H153.42V108.968H150.377V105.927H153.42V102.892H156.46V99.8521H153.42V96.8118H150.377V99.8521V102.892Z" fill="#263238"/>
<path d="M139.74 93.7769H136.699V96.8172H139.74V93.7769Z" fill="#263238"/>
<path d="M148.855 124.164V127.199H151.898H154.938V124.164H157.981H161.018V121.124H157.981H154.938H151.898V124.164H148.855Z" fill="#263238"/>
<path d="M165.262 112.008H162.22V115.049H165.262V112.008Z" fill="#263238"/>
<path d="M154.94 115.049H151.897V118.089H154.94V115.049Z" fill="#263238"/>
<path d="M162.538 105.927H159.501H156.46V108.968H159.501V112.008H162.538V108.968V105.927Z" fill="#263238"/>
<path d="M161.024 115.049H157.981V118.089H161.024V115.049Z" fill="#263238"/>
<path d="M127.556 133.334H136.681V121.118H124.46V124.143H121.478V127.178H124.46V130.218H121.478V133.258H124.46V133.313H124.518V136.299H121.478V142.374H124.518V139.344H127.556V133.334ZM134.341 123.458V131.059H126.736V123.458H134.341Z" fill="#263238"/>
<path d="M167.103 121.124H170.139V118.083H167.103H164.061H161.018V121.124H164.061H167.103Z" fill="#263238"/>
<path d="M167.102 108.968H170.139V105.927V102.892H167.102V105.927V108.968Z" fill="#263238"/>
<path d="M142.891 124.278H139.849V127.318V130.359H142.891V127.318V124.278Z" fill="#263238"/>
<path d="M173.181 121.124H170.139V124.164H173.181V121.124Z" fill="#263238"/>
<path d="M173.181 115.049V112.008H170.139V115.049V118.084H173.181V115.049Z" fill="#263238"/>
<path d="M118.451 136.32H115.414V139.355V142.396H118.451V139.355V136.32Z" fill="#263238"/>
<path d="M173.187 99.8521V84.6501H157.976V99.8521H173.187ZM160.262 97.5717V86.9359H170.905V97.5717H160.262Z" fill="#263238"/>
<path d="M168.619 89.2161H162.541V95.2914H168.619V89.2161Z" fill="#263238"/>
<path d="M173.187 127.199H157.976V142.401H173.187V127.199ZM160.257 140.115V129.479H170.9V140.115H160.257Z" fill="#263238"/>
<path d="M168.619 131.76H162.541V137.835H168.619V131.76Z" fill="#263238"/>
<path d="M115.371 84.6558V99.8575H130.58V84.6558H115.371ZM128.293 86.936V97.5718H117.652V86.936H128.293Z" fill="#263238"/>
<path d="M126.013 89.2161H119.934V95.2914H126.013V89.2161Z" fill="#263238"/>
<path d="M111.035 95.248V84.4601C110.966 83.4675 111.272 82.4851 111.894 81.7075C112.265 81.2967 112.724 80.9733 113.236 80.7612C113.748 80.549 114.301 80.4532 114.854 80.4804H126.208C126.29 80.4699 126.366 80.4297 126.422 80.3673C126.477 80.3048 126.507 80.2244 126.507 80.1411C126.507 80.0579 126.477 79.9774 126.422 79.915C126.366 79.8525 126.29 79.8122 126.208 79.8017H114.979C114.026 79.7516 113.079 79.99 112.263 80.4859C111.679 80.8763 111.2 81.4034 110.867 82.0214C110.533 82.6392 110.356 83.3293 110.351 84.0312C110.318 85.8065 110.351 87.5874 110.351 89.3628V95.248C110.361 95.3305 110.402 95.4066 110.464 95.4616C110.527 95.5167 110.607 95.547 110.69 95.547C110.774 95.547 110.854 95.5167 110.917 95.4616C110.979 95.4066 111.019 95.3305 111.03 95.248H111.035Z" fill="#90C4E1"/>
<path d="M125.215 147.526H114.415C113.423 147.594 112.441 147.29 111.661 146.674C111.25 146.302 110.927 145.844 110.714 145.332C110.502 144.821 110.406 144.268 110.433 143.715V132.368C110.423 132.285 110.382 132.209 110.32 132.154C110.257 132.099 110.177 132.069 110.093 132.069C110.01 132.069 109.93 132.099 109.867 132.154C109.805 132.209 109.764 132.285 109.754 132.368V143.59C109.706 144.543 109.945 145.488 110.439 146.305C110.827 146.89 111.354 147.37 111.973 147.704C112.592 148.037 113.283 148.213 113.986 148.216C115.763 148.248 117.543 148.216 119.32 148.216H125.215C125.297 148.205 125.373 148.165 125.429 148.103C125.482 148.04 125.514 147.96 125.514 147.876C125.514 147.793 125.482 147.713 125.429 147.65C125.373 147.588 125.297 147.548 125.215 147.537V147.526Z" fill="#90C4E1"/>
<path d="M177.19 132.286V143.08C177.258 144.07 176.953 145.049 176.336 145.827C175.964 146.238 175.506 146.561 174.994 146.773C174.483 146.985 173.93 147.081 173.376 147.054H162.024C161.94 147.065 161.865 147.105 161.81 147.167C161.754 147.23 161.724 147.31 161.724 147.393C161.724 147.477 161.754 147.557 161.81 147.62C161.865 147.682 161.94 147.722 162.024 147.733H173.251C174.205 147.784 175.151 147.545 175.967 147.049C176.554 146.661 177.033 146.136 177.368 145.518C177.702 144.901 177.876 144.211 177.88 143.509C177.912 141.728 177.88 139.953 177.88 138.177V132.286C177.869 132.204 177.828 132.128 177.766 132.073C177.703 132.018 177.623 131.988 177.539 131.988C177.457 131.988 177.375 132.018 177.313 132.073C177.251 132.128 177.211 132.204 177.201 132.286H177.19Z" fill="#90C4E1"/>
<path d="M162.219 80.4806H173.019C174.01 80.4122 174.99 80.7183 175.767 81.3384C176.177 81.71 176.502 82.1682 176.714 82.6798C176.926 83.1916 177.022 83.744 176.996 84.2973V95.6444C177.006 95.7271 177.045 95.803 177.108 95.858C177.17 95.9131 177.25 95.9435 177.334 95.9435C177.418 95.9435 177.498 95.9131 177.561 95.858C177.623 95.803 177.664 95.7271 177.675 95.6444V84.4222C177.725 83.4691 177.486 82.523 176.99 81.7075C176.6 81.1228 176.072 80.6426 175.454 80.3094C174.835 79.9761 174.145 79.8 173.441 79.7964C171.666 79.764 169.889 79.7964 168.114 79.7964H162.219C162.136 79.8069 162.061 79.8472 162.005 79.9097C161.95 79.972 161.92 80.0526 161.92 80.1357C161.92 80.2191 161.95 80.2995 162.005 80.362C162.061 80.4243 162.136 80.4646 162.219 80.4751V80.4806Z" fill="#90C4E1"/>
<path d="M121.921 60.1155V63.7476H121.539V62.0701H119.269V63.7476H118.862V60.1155H119.247V61.7442H121.518V60.1155H121.921Z" fill="#263238"/>
<path d="M125.673 63.4165V63.7476H123.104V60.1155H125.593V60.4466H123.489V61.7389H125.381V62.0645H123.506V63.4165H125.673Z" fill="#263238"/>
<path d="M128.853 62.7922H126.832L126.391 63.764H125.996L127.657 60.1318H128.033L129.694 63.764H129.288L128.853 62.7922ZM128.712 62.4826L127.842 60.5335L126.967 62.4826H128.712Z" fill="#263238"/>
<path d="M130.297 60.1155H130.677V63.4165H132.714V63.7476H130.297V60.1155Z" fill="#263238"/>
<path d="M133.719 60.4466H132.443V60.1155H135.382V60.4466H134.106V63.7476H133.719V60.4466Z" fill="#263238"/>
<path d="M139.027 60.1155V63.7476H138.653V62.0701H136.377V63.7476H135.99V60.1155H136.377V61.7442H138.653V60.1155H139.027Z" fill="#263238"/>
<path d="M144.394 61.3587C144.394 62.1353 143.852 62.6022 142.911 62.6022H141.934V63.7476H141.547V60.1155H142.911C143.852 60.1155 144.394 60.5824 144.394 61.3587ZM144.009 61.3587C144.009 60.7778 143.624 60.4466 142.922 60.4466H141.956V62.2493H142.922C143.645 62.2493 144.03 61.929 144.03 61.3587H144.009Z" fill="#263238"/>
<path d="M147.343 62.7922H145.317L144.882 63.764H144.481L146.142 60.1318H146.524L148.179 63.764H147.778L147.343 62.7922ZM147.203 62.4826L146.328 60.5335L145.481 62.4664L147.203 62.4826Z" fill="#263238"/>
<path d="M148.436 63.3351L148.588 63.0365C148.917 63.3269 149.343 63.4838 149.782 63.4762C150.461 63.4762 150.76 63.1938 150.76 62.8356C150.76 61.8365 148.522 62.4501 148.522 61.109C148.522 60.566 148.94 60.11 149.864 60.11C150.263 60.1057 150.653 60.219 150.988 60.4358L150.858 60.7399C150.561 60.5484 150.217 60.4449 149.864 60.4411C149.195 60.4411 148.903 60.7344 148.903 61.0981C148.903 62.0918 151.14 61.4892 151.14 62.8138C151.14 63.3568 150.712 63.802 149.782 63.802C149.292 63.8187 148.81 63.6522 148.436 63.3351Z" fill="#263238"/>
<path d="M151.625 63.3349L151.777 63.0363C152.108 63.3261 152.536 63.4829 152.978 63.4759C153.655 63.4759 153.949 63.1936 153.949 62.8353C153.949 61.8363 151.716 62.4498 151.716 61.1088C151.716 60.5658 152.129 60.1098 153.053 60.1098C153.452 60.1048 153.842 60.2183 154.177 60.4356L154.053 60.7397C153.753 60.5489 153.407 60.4454 153.053 60.4409C152.39 60.4409 152.092 60.7342 152.092 61.0979C152.092 62.0914 154.329 61.489 154.329 62.8136C154.329 63.3566 153.906 63.8018 152.978 63.8018C152.484 63.8192 152.001 63.6528 151.625 63.3349Z" fill="#263238"/>
<path d="M158.008 61.3587C158.008 62.1353 157.464 62.6022 156.525 62.6022H155.552V63.7476H155.167V60.1155H156.525C157.432 60.1155 158.008 60.5824 158.008 61.3587ZM157.628 61.3587C157.628 60.7778 157.241 60.4466 156.514 60.4466H155.552V62.2493H156.514C157.241 62.2493 157.628 61.929 157.628 61.3587Z" fill="#263238"/>
<path d="M158.567 61.9288C158.555 61.5497 158.657 61.1758 158.858 60.8548C159.061 60.5338 159.353 60.2803 159.701 60.1267C160.047 59.9732 160.432 59.9265 160.806 59.9926C161.179 60.0588 161.524 60.2348 161.797 60.4983C162.07 60.7618 162.259 61.1006 162.337 61.4713C162.417 61.8422 162.384 62.2283 162.241 62.5801C162.1 62.9319 161.856 63.2335 161.542 63.4462C161.229 63.6591 160.858 63.7735 160.478 63.7747C160.23 63.7858 159.983 63.746 159.749 63.658C159.517 63.57 159.305 63.4355 159.125 63.2629C158.947 63.0901 158.804 62.8828 158.708 62.6533C158.612 62.4239 158.564 62.1773 158.567 61.9288ZM162 61.9288C162.004 61.626 161.918 61.3286 161.753 61.0748C161.589 60.8209 161.35 60.622 161.072 60.5033C160.794 60.3847 160.485 60.3517 160.188 60.4085C159.89 60.4654 159.615 60.6095 159.4 60.8225C159.184 61.0354 159.038 61.3078 158.977 61.6046C158.917 61.9016 158.947 62.2096 159.063 62.4894C159.179 62.7695 159.375 63.0087 159.628 63.1765C159.879 63.3445 160.175 63.4337 160.478 63.4327C160.68 63.4386 160.877 63.4038 161.065 63.3306C161.25 63.2572 161.419 63.1469 161.562 63.0064C161.704 62.8657 161.817 62.6977 161.892 62.5124C161.966 62.3273 162.004 62.1287 162 61.9288Z" fill="#263238"/>
<path d="M165.726 63.7475L164.895 62.5803C164.797 62.5858 164.699 62.5858 164.601 62.5803H163.629V63.7313H163.243V60.0991H164.601C165.524 60.0991 166.084 60.566 166.084 61.3424C166.096 61.598 166.021 61.8503 165.872 62.0576C165.722 62.265 165.505 62.4148 165.259 62.4825L166.144 63.7313L165.726 63.7475ZM165.726 61.3586C165.726 60.7777 165.341 60.4465 164.612 60.4465H163.651V62.2491H164.612C165.317 62.2491 165.704 61.9286 165.704 61.3586H165.726Z" fill="#263238"/>
<path d="M167.649 60.4466H166.373V60.1155H169.312V60.4466H168.036V63.7476H167.649V60.4466Z" fill="#263238"/>
<path d="M130.896 70.2246C130.874 69.9274 130.915 69.6292 131.017 69.3485C131.117 69.0679 131.274 68.8108 131.477 68.5933C131.682 68.376 131.928 68.2027 132.2 68.0845C132.475 67.9663 132.769 67.9057 133.068 67.9064C133.4 67.8941 133.731 67.9645 134.029 68.1114C134.329 68.2582 134.585 68.477 134.78 68.7479L134.074 69.4755C133.915 69.2573 133.69 69.0948 133.434 69.0114C133.179 68.928 132.903 68.9279 132.646 69.0111C132.389 69.0943 132.165 69.2565 132.006 69.4746C131.847 69.6926 131.764 69.9552 131.764 70.2246C131.764 70.4941 131.847 70.7567 132.006 70.9747C132.165 71.1928 132.389 71.3551 132.646 71.4382C132.903 71.5214 133.179 71.5213 133.434 71.4379C133.69 71.3545 133.915 71.1921 134.074 70.9738L134.79 71.7014C134.596 71.9705 134.337 72.1877 134.04 72.3336C133.74 72.4795 133.411 72.5495 133.079 72.5376C132.78 72.5397 132.484 72.4802 132.209 72.363C131.935 72.2458 131.687 72.0733 131.482 71.8563C131.279 71.6394 131.12 71.3825 131.019 71.1017C130.917 70.821 130.876 70.5224 130.896 70.2246Z" fill="#90C4E1"/>
<path d="M135.013 70.2245C135.032 69.7911 135.179 69.3728 135.433 69.0217C135.688 68.6704 136.039 68.4018 136.446 68.2491C136.852 68.0962 137.294 68.0661 137.718 68.1623C138.141 68.2585 138.528 68.4767 138.827 68.7901C139.128 69.1035 139.33 69.498 139.406 69.9249C139.485 70.3517 139.435 70.7919 139.266 71.1911C139.094 71.5901 138.811 71.9304 138.449 72.1698C138.087 72.4092 137.663 72.537 137.228 72.5375C136.929 72.5393 136.631 72.48 136.355 72.3631C136.079 72.2462 135.829 72.0743 135.622 71.8579C135.416 71.6414 135.253 71.3849 135.148 71.104C135.045 70.8232 134.999 70.524 135.013 70.2245ZM138.305 70.2245C138.269 70.0214 138.177 69.8324 138.039 69.6797C137.9 69.5269 137.72 69.4168 137.522 69.3623C137.323 69.3076 137.112 69.3106 136.915 69.3712C136.719 69.4316 136.542 69.547 136.408 69.7038C136.275 69.8606 136.187 70.0522 136.159 70.2562C136.129 70.4604 136.159 70.6686 136.244 70.8565C136.328 71.0443 136.465 71.2043 136.638 71.3172C136.811 71.4303 137.011 71.492 137.218 71.495C137.374 71.4877 137.528 71.4485 137.669 71.3797C137.809 71.311 137.934 71.2141 138.036 71.0949C138.139 70.9759 138.214 70.8371 138.26 70.6875C138.307 70.5378 138.321 70.3802 138.305 70.2245Z" fill="#90C4E1"/>
<path d="M143.943 67.9988L142.237 72.4507H141.135L139.435 67.9988H140.651L141.738 70.898L142.825 67.9988H143.943Z" fill="#90C4E1"/>
<path d="M144.176 67.9988H145.306V72.4507H144.176V67.9988Z" fill="#90C4E1"/>
<path d="M146.11 67.9988H147.994C148.586 67.9988 149.153 68.2334 149.57 68.6508C149.987 69.0682 150.222 69.6345 150.222 70.2248C150.222 70.8152 149.987 71.3813 149.57 71.7987C149.153 72.2163 148.586 72.4507 147.994 72.4507H146.11V67.9988ZM147.946 71.4464C148.251 71.4177 148.533 71.2766 148.739 71.0507C148.944 70.8248 149.058 70.5302 149.058 70.2248C149.058 69.9193 148.944 69.6249 148.739 69.399C148.533 69.1731 148.251 69.032 147.946 69.0031H147.235V71.4464H147.946Z" fill="#90C4E1"/>
<path d="M150.7 70.1704H152.363V71.1042H150.7V70.1704Z" fill="#90C4E1"/>
<path d="M154.405 67.9988V72.4507H153.281V68.9707H152.541V67.9988H154.405Z" fill="#90C4E1"/>
<path d="M158.316 70.1052C158.316 71.6526 157.453 72.5374 156.193 72.5374C155.78 72.5495 155.373 72.438 155.024 72.2171L155.432 71.3105C155.644 71.4705 155.904 71.5512 156.17 71.5386C156.714 71.5386 157.106 71.1857 157.17 70.5123C156.924 70.7321 156.603 70.8472 156.273 70.8328C156.09 70.8358 155.908 70.8014 155.737 70.7312C155.567 70.6612 155.414 70.5572 155.286 70.4254C155.157 70.2937 155.058 70.1371 154.992 69.9652C154.926 69.7935 154.897 69.6102 154.904 69.4265C154.899 69.2222 154.936 69.0188 155.013 68.8294C155.09 68.6398 155.206 68.4685 155.352 68.3256C155.498 68.1829 155.673 68.0719 155.863 67.9998C156.056 67.9276 156.259 67.8957 156.464 67.9063C157.589 67.9063 158.316 68.661 158.316 70.1052ZM157.093 69.3668C157.093 69.2227 157.036 69.0847 156.935 68.9829C156.833 68.881 156.696 68.8239 156.551 68.8239C156.407 68.8239 156.268 68.881 156.166 68.9829C156.065 69.0847 156.008 69.2227 156.008 69.3668C156.008 69.5108 156.065 69.6488 156.166 69.7507C156.268 69.8525 156.407 69.9098 156.551 69.9098C156.696 69.9098 156.833 69.8525 156.935 69.7507C157.036 69.6488 157.093 69.5108 157.093 69.3668Z" fill="#90C4E1"/>
<path d="M123.545 154.356H121.372V204.506H123.545V154.356Z" fill="#263238"/>
<path d="M105.5 156.169H103.327V206.32H105.5V156.169Z" fill="#263238"/>
<path d="M124.087 158.847H120.829V154.003C120.83 153.932 120.805 153.861 120.757 153.807C120.707 153.752 120.64 153.72 120.567 153.716H106.308C106.271 153.716 106.236 153.725 106.202 153.741C106.17 153.755 106.14 153.779 106.115 153.805C106.09 153.832 106.071 153.862 106.058 153.896C106.046 153.93 106.04 153.967 106.042 154.003V158.043H102.782V154.003C102.781 153.066 103.151 152.166 103.812 151.502C104.473 150.838 105.37 150.463 106.308 150.458H120.567C121.504 150.463 122.401 150.838 123.062 151.504C123.721 152.168 124.09 153.068 124.087 154.003V158.847Z" fill="#455A64"/>
<path d="M103.154 263.386C103.154 264.054 102.955 264.708 102.584 265.263C102.213 265.817 101.685 266.25 101.068 266.507C100.45 266.762 99.7712 266.829 99.1156 266.699C98.4602 266.567 97.8581 266.247 97.3856 265.775C96.9131 265.303 96.5914 264.7 96.4609 264.045C96.3306 263.389 96.3974 262.711 96.6532 262.094C96.909 261.478 97.3419 260.949 97.8977 260.578C98.4533 260.208 99.1065 260.01 99.7749 260.01C100.671 260.01 101.529 260.366 102.162 261C102.796 261.633 103.152 262.492 103.154 263.386Z" fill="#263238"/>
<path d="M132.291 263.386C132.291 264.054 132.093 264.708 131.723 265.263C131.35 265.819 130.822 266.252 130.204 266.507C129.587 266.762 128.906 266.829 128.252 266.697C127.596 266.567 126.994 266.245 126.521 265.773C126.049 265.299 125.728 264.697 125.598 264.041C125.468 263.386 125.536 262.707 125.792 262.091C126.049 261.473 126.484 260.947 127.04 260.577C127.596 260.206 128.25 260.008 128.919 260.01C129.814 260.01 130.671 260.368 131.304 261C131.936 261.633 132.291 262.492 132.291 263.386Z" fill="#263238"/>
<path d="M137.332 237.988V213.15C138.022 213.15 138.685 213.424 139.171 213.912C139.66 214.398 139.934 215.061 139.934 215.751V235.387C139.933 236.077 139.658 236.737 139.17 237.226C138.683 237.712 138.022 237.986 137.332 237.988Z" fill="#263238"/>
<path d="M130.922 192.389H96.9872C92.7961 192.389 89.3984 195.785 89.3984 199.973V254.151C89.3984 258.341 92.7961 261.736 96.9872 261.736H130.922C135.115 261.736 138.512 258.341 138.512 254.151V199.973C138.512 195.785 135.115 192.389 130.922 192.389Z" fill="#455A64"/>
<path d="M138.469 201.075C138.469 201.15 127.473 201.216 113.909 201.216C100.345 201.216 89.3394 201.15 89.3394 201.075C89.3394 200.999 100.34 200.935 113.909 200.935C127.479 200.935 138.469 200.999 138.469 201.075Z" fill="#263238"/>
<path d="M138.469 208.399C138.469 208.475 127.473 208.54 113.909 208.54C100.345 208.54 89.3394 208.475 89.3394 208.399C89.3394 208.324 100.34 208.258 113.909 208.258C127.479 208.258 138.469 208.295 138.469 208.399Z" fill="#263238"/>
<path d="M138.469 215.724C138.469 215.799 127.473 215.865 113.909 215.865C100.345 215.865 89.3394 215.799 89.3394 215.724C89.3394 215.647 100.34 215.582 113.909 215.582C127.479 215.582 138.469 215.642 138.469 215.724Z" fill="#263238"/>
<path d="M138.469 223.047C138.469 223.124 127.473 223.188 113.909 223.188C100.345 223.188 89.3394 223.124 89.3394 223.047C89.3394 222.971 100.34 222.907 113.909 222.907C127.479 222.907 138.469 222.955 138.469 223.047Z" fill="#263238"/>
<path d="M138.469 230.371C138.469 230.447 127.473 230.511 113.909 230.511C100.345 230.511 89.3394 230.447 89.3394 230.371C89.3394 230.296 100.34 230.23 113.909 230.23C127.479 230.23 138.469 230.291 138.469 230.371Z" fill="#263238"/>
<path d="M138.469 237.696C138.469 237.771 127.473 237.837 113.909 237.837C100.345 237.837 89.3394 237.771 89.3394 237.696C89.3394 237.619 100.34 237.548 113.909 237.548C127.479 237.548 138.469 237.614 138.469 237.696Z" fill="#263238"/>
<path d="M138.469 245.014C138.469 245.096 127.473 245.155 113.909 245.155C100.345 245.155 89.3394 245.096 89.3394 245.014C89.3394 244.932 100.34 244.873 113.909 244.873C127.479 244.873 138.469 244.937 138.469 245.014Z" fill="#263238"/>
<path d="M138.469 252.338C138.469 252.419 127.473 252.48 113.909 252.48C100.345 252.48 89.3394 252.419 89.3394 252.338C89.3394 252.257 100.34 252.197 113.909 252.197C127.479 252.197 138.469 252.273 138.469 252.338Z" fill="#263238"/>
<path d="M119.444 211.602H108.465V213.59H119.444V211.602Z" fill="white"/>
<path d="M52.7688 63.4056C52.12 64.4707 51.8039 65.7052 51.8617 66.9508C51.8617 68.1725 52.7037 70.6537 54.8766 70.7513C54.3007 74.2477 56.5389 76.832 60.2654 76.8375C63.9919 76.8429 68.2616 70.4527 71.7165 69.0465L81.7391 66.4025C82.6244 66.1962 82.9831 65.1266 82.9667 64.2308C82.9504 63.3351 82.7169 62.3904 83.0374 61.5162C83.4773 60.3597 84.8191 59.7409 85.2809 58.5844C85.824 57.2759 84.9929 55.8264 84.0641 54.7839C83.1351 53.7416 81.9944 52.7208 81.701 51.3418C81.4293 50.0768 81.9129 48.6271 81.2828 47.5413C80.5059 46.1515 78.4634 45.9723 77.5182 44.6909C77.0346 44.072 76.9152 43.2467 76.4915 42.6387C75.7148 41.5529 74.2316 41.2976 72.9224 41.4389C71.6133 41.58 70.3531 42.0523 69.0439 42.1501C67.2403 42.2803 65.3825 41.6994 63.6552 42.2206C61.7483 42.7962 60.5859 44.4846 59.3473 46.1242L57.7176 48.0191C57.3836 48.3453 57.0198 48.6398 56.6312 48.8986C55.9097 49.2679 55.2258 49.7061 54.5886 50.2071C54.2941 50.519 54.0658 50.8872 53.9172 51.2895C53.7685 51.6917 53.7026 52.12 53.7232 52.5482C53.7441 52.9766 53.8512 53.3963 54.0382 53.7824C54.2252 54.1684 54.4881 54.5128 54.8114 54.7948C54.1216 55.0349 53.5272 55.4899 53.1154 56.0929C52.7037 56.6959 52.4966 57.415 52.5244 58.1445C52.5244 58.1445 52.3451 59.8059 53.399 60.5443C52.9762 60.8726 52.6816 61.3384 52.5666 61.8611C52.4515 62.3838 52.523 62.9301 52.7688 63.4056Z" fill="#263238"/>
<path d="M59.4884 66.7934C58.5954 64.274 57.9229 61.6818 57.4786 59.046C57.0314 56.3972 57.2497 53.679 58.114 51.1356C58.2553 50.7555 59.4613 48.2091 59.8633 48.2472C60.1511 48.2743 59.4069 50.6523 59.5536 50.9021C60.9443 53.291 61.3245 56.163 61.1018 58.9212C60.8534 61.5977 60.3067 64.2382 59.4722 66.7934" fill="#263238"/>
<path d="M66.0933 90.1121C60.1937 89.3956 59.493 79.8671 59.493 79.8671L59.2214 56.5975C59.0041 49.8978 62.7253 44.1862 69.4341 44.1536L70.0533 44.1862C73.0586 44.354 75.891 45.6443 77.9889 47.8014C80.0868 49.9585 81.2971 52.8248 81.3796 55.8318C81.5316 61.6412 81.6295 68.0586 81.4284 71.1587C81.0047 77.576 74.5241 78.2166 74.5241 78.2166C74.415 79.3389 74.395 80.4682 74.4644 81.5937C74.8337 88.4183 67.7283 90.2425 66.0715 90.0959L66.0933 90.1121Z" fill="#FFBE9D"/>
<path d="M74.5458 78.2328C71.5774 78.0676 68.7189 77.0536 66.3105 75.3118C66.3105 75.3118 68.0978 80.0895 74.5403 79.8562L74.5458 78.2328Z" fill="#EB996E"/>
<path d="M79.7063 61.098C79.6949 61.3371 79.5912 61.5624 79.4169 61.7267C79.2426 61.8907 79.0114 61.9807 78.7718 61.9777C78.6546 61.9805 78.5378 61.9599 78.4285 61.9169C78.3191 61.8742 78.2196 61.8099 78.1355 61.7277C78.0516 61.6458 77.9847 61.548 77.9391 61.4397C77.8936 61.3316 77.8701 61.2154 77.8701 61.098C77.8813 60.8589 77.9851 60.6336 78.1594 60.4695C78.3337 60.3055 78.5651 60.2155 78.8044 60.2185C78.9219 60.2157 79.0387 60.2363 79.1479 60.2791C79.2572 60.322 79.3568 60.3863 79.4409 60.4683C79.5249 60.5502 79.5917 60.6482 79.6372 60.7563C79.6828 60.8645 79.7063 60.9808 79.7063 61.098Z" fill="#263238"/>
<path d="M79.881 58.4487C79.7614 58.5627 79.0931 58.0144 78.1046 57.9601C77.1159 57.9059 76.3716 58.3673 76.2684 58.2371C76.1652 58.1067 76.3445 57.9709 76.6758 57.7593C77.1159 57.4883 77.6287 57.3592 78.1447 57.3893C78.6606 57.4194 79.1548 57.6073 79.5603 57.9276C79.8483 58.1501 79.9407 58.3728 79.881 58.4487Z" fill="#263238"/>
<path d="M70.4235 61.098C70.4122 61.3371 70.3085 61.5624 70.1342 61.7267C69.9599 61.8907 69.7287 61.9807 69.4891 61.9777C69.3718 61.9805 69.2551 61.9599 69.1458 61.9169C69.0364 61.8742 68.9369 61.8099 68.8528 61.7277C68.7688 61.6458 68.702 61.548 68.6564 61.4397C68.6109 61.3316 68.5874 61.2154 68.5874 61.098C68.5986 60.8589 68.7024 60.6336 68.8767 60.4695C69.051 60.3055 69.2824 60.2155 69.5217 60.2185C69.6392 60.2157 69.7559 60.2363 69.8652 60.2791C69.9745 60.322 70.0741 60.3863 70.1582 60.4683C70.2422 60.5502 70.309 60.6482 70.3545 60.7563C70.4001 60.8645 70.4236 60.9808 70.4235 61.098Z" fill="#263238"/>
<path d="M70.189 58.302C70.0641 58.416 69.3959 57.8677 68.4127 57.8133C67.4294 57.7592 66.6743 58.2206 66.5711 58.0957C66.4679 57.9708 66.6472 57.8297 66.9786 57.6126C67.4217 57.3411 67.9373 57.2123 68.4562 57.2433C68.9708 57.2713 69.4633 57.4613 69.863 57.7863C70.1509 58.0305 70.2434 58.2532 70.189 58.302Z" fill="#263238"/>
<path d="M73.3234 66.0768C73.8561 65.9421 74.4037 65.8746 74.953 65.8758C75.2084 65.8758 75.4475 65.827 75.4963 65.6532C75.5298 65.3943 75.4844 65.1312 75.366 64.8986C75.1596 64.2742 74.9477 63.6227 74.7249 62.9386C73.834 60.1534 73.204 57.8623 73.318 57.8297C73.4321 57.7971 74.2415 60.0014 75.1323 62.8138C75.3443 63.5032 75.5507 64.1548 75.7409 64.7846C75.8836 65.0959 75.9125 65.4476 75.8223 65.778C75.7806 65.865 75.72 65.9412 75.6446 66.0014C75.5694 66.0616 75.4817 66.104 75.3877 66.1256C75.2452 66.1577 75.099 66.1705 74.953 66.1635C74.4085 66.207 73.8604 66.1778 73.3234 66.0768Z" fill="#263238"/>
<path d="M70.3805 66.5925C70.5434 66.5925 70.489 67.6783 71.3637 68.4764C72.2383 69.2746 73.3899 69.2256 73.3899 69.3778C73.3899 69.4428 73.1238 69.5732 72.6402 69.5568C72.0116 69.5344 71.4111 69.2901 70.9453 68.8674C70.4999 68.4596 70.2293 67.8955 70.1903 67.2928C70.1741 66.8531 70.3099 66.5925 70.3805 66.5925Z" fill="#263238"/>
<path d="M70.3475 54.2953C70.2388 54.5559 69.261 54.3767 68.0931 54.4583C66.9251 54.5397 65.969 54.8003 65.8279 54.5506C65.7682 54.431 65.942 54.1868 66.3385 53.9479C66.8554 53.6494 67.4369 53.4798 68.0332 53.4538C68.63 53.4131 69.228 53.5154 69.7772 53.7525C70.1953 53.9479 70.3964 54.1704 70.3475 54.2953Z" fill="#263238"/>
<path d="M79.6526 55.1204C79.4624 55.3322 78.7943 55.0662 77.9794 55.0119C77.1645 54.9576 76.4583 55.0824 76.3118 54.8382C76.2519 54.7187 76.3715 54.5015 76.6864 54.2952C77.1101 54.0572 77.5955 53.9518 78.0796 53.9924C78.5639 54.033 79.0248 54.2179 79.4027 54.5233C79.6526 54.7784 79.7504 55.0119 79.6526 55.1204Z" fill="#263238"/>
<path d="M59.494 61.3805C59.3854 61.3317 55.1483 59.8387 55.0504 64.2363C54.9526 68.6339 59.3963 67.8249 59.3963 67.7001C59.3963 67.5752 59.494 61.3805 59.494 61.3805Z" fill="#FFBE9D"/>
<path d="M58.0966 66.0061C58.0966 66.0061 58.0205 66.055 57.8902 66.1146C57.7048 66.1862 57.4997 66.1862 57.3143 66.1146C56.8526 65.9301 56.4778 65.1863 56.4723 64.3936C56.4721 64.0186 56.5535 63.6481 56.7113 63.3078C56.7555 63.1701 56.8325 63.0454 56.9357 62.9442C57.0387 62.843 57.1651 62.7684 57.3034 62.7269C57.392 62.7053 57.4854 62.7159 57.567 62.7566C57.6485 62.7974 57.713 62.8657 57.7488 62.9494C57.8032 63.0743 57.7488 63.1612 57.7978 63.1666C57.8467 63.1721 57.8955 63.096 57.8629 62.9168C57.8421 62.8058 57.7823 62.7057 57.6946 62.6346C57.6369 62.5869 57.5699 62.5516 57.4979 62.5311C57.426 62.5106 57.3505 62.5051 57.2763 62.5151C57.0956 62.5477 56.9259 62.6255 56.7835 62.7413C56.6411 62.8571 56.5302 63.0073 56.4614 63.1774C56.2636 63.554 56.1627 63.9737 56.1682 64.3991C56.1682 65.284 56.6136 66.1255 57.2546 66.3209C57.3722 66.3573 57.4964 66.3674 57.6185 66.3505C57.7406 66.3336 57.8574 66.2903 57.9607 66.2233C58.0857 66.1093 58.1128 66.0115 58.0966 66.0061Z" fill="#EB996E"/>
<path d="M78.6636 48.5075C79.3862 48.1221 77.273 45.793 75.5348 44.9732C72.9056 43.7406 68.8748 42.9481 66.4249 43.6104C63.4752 44.4032 60.9927 45.831 59.5095 48.4967C58.0549 51.2 57.3444 54.2409 57.4508 57.3085C57.3992 58.2494 57.6018 59.1872 58.0374 60.023C58.6404 61.0056 59.8138 61.6518 59.7432 62.9711C59.7232 63.2144 59.7518 63.4592 59.8273 63.6911C59.9029 63.9233 60.0237 64.1381 60.1831 64.323C60.9763 65.1863 61.9758 64.3991 62.4375 63.5955C63.4262 61.8853 63.562 59.8276 63.6707 57.8568C63.8258 56.4586 63.7506 55.0447 63.4479 53.6708C63.2415 52.9324 62.9047 52.2375 62.7364 51.4991C62.6346 51.1337 62.6123 50.7507 62.6715 50.3761C62.7305 50.0015 62.8694 49.6437 63.0786 49.3274C63.1879 49.1979 63.3098 49.0797 63.4426 48.9745C64.0618 48.4452 64.8115 48.0911 65.6139 47.9489C66.4162 47.8066 67.242 47.8814 68.0056 48.1655C70.4719 49.0723 74.6873 50.4351 75.8062 49.6097C77.4361 48.4208 77.8054 47.6389 77.8054 47.6389L78.6636 48.5075Z" fill="#263238"/>
<path d="M66.6416 43.0133C67.8522 42.602 69.1324 42.4349 70.408 42.5215C71.6835 42.6082 72.9294 42.9471 74.073 43.5182C74.6856 43.8087 75.2329 44.2201 75.682 44.7278C76.131 45.2353 76.4725 45.8287 76.6859 46.4718C77.039 47.7802 76.4632 49.3764 75.2029 49.8705L75.1161 49.9247C73.2257 50.5329 72.0088 50.2614 70.1455 49.5935C68.5756 49.0507 67.1904 48.0353 65.615 47.4817C63.9329 46.8851 62.1104 46.8076 60.3838 47.259C62.061 45.3195 64.2192 43.8554 66.6416 43.0133Z" fill="#263238"/>
<path d="M58.2705 47.3621C58.3087 47.4 58.6617 46.9766 59.3571 46.4826C59.7859 46.1881 60.2493 45.9475 60.7368 45.7659C61.3027 45.5342 61.9134 45.4321 62.524 45.4674C63.6461 45.5908 64.7103 46.0294 65.5932 46.7324C66.2723 47.2752 66.5874 47.7259 66.6309 47.6933C66.6742 47.6607 66.5819 47.5575 66.4407 47.3568C66.2338 47.0699 65.9951 46.8077 65.729 46.5749C64.8401 45.7875 63.727 45.2978 62.5458 45.1742C61.8904 45.1364 61.2352 45.2536 60.6336 45.5162C60.1463 45.7186 59.6893 45.9872 59.2756 46.3143C58.866 46.5836 58.5224 46.9417 58.2705 47.3621Z" fill="#455A64"/>
<path d="M71.6841 42.6116C72.0634 42.7788 72.4516 42.9256 72.8466 43.0514C74.7037 43.7907 76.2838 45.0908 77.3662 46.7705C77.779 47.4111 77.9747 47.8563 78.018 47.8563C77.9346 47.4412 77.7744 47.0453 77.5455 46.6889C76.5233 44.8959 74.8755 43.5427 72.9173 42.8884C72.5261 42.7234 72.1085 42.6296 71.6841 42.6116Z" fill="#455A64"/>
<path d="M56.0009 243.71L45.3537 252.273C45.3537 252.273 51.2261 265.303 49.4117 267.079L31.3223 247.702L47.3638 233.682L56.0009 243.71Z" fill="#90C4E1"/>
<g opacity="0.6">
<path d="M40.8611 245.324C40.6347 245.181 40.3638 245.128 40.1002 245.173C39.8366 245.217 39.5988 245.358 39.4325 245.568C39.2821 245.787 39.2218 246.056 39.2642 246.32C39.3067 246.582 39.4485 246.819 39.6606 246.979C39.9002 247.13 40.187 247.186 40.4658 247.137C40.7445 247.089 40.9957 246.941 41.1709 246.719C41.3024 246.473 41.334 246.184 41.2591 245.915C41.1842 245.646 41.0087 245.417 40.7688 245.274" fill="white"/>
</g>
<g opacity="0.6">
<path d="M31.3223 247.702L32.9519 246.284L49.7919 265.607C49.8729 265.901 49.8794 266.209 49.8112 266.507C49.7429 266.803 49.6019 267.077 49.4009 267.307L31.3223 247.702Z" fill="white"/>
</g>
<path d="M45.74 252.512C45.6368 252.594 45.1968 252.143 44.4364 251.931C43.6758 251.719 43.0728 251.823 43.0347 251.698C42.9967 251.573 43.6867 251.231 44.5667 251.502C45.4467 251.773 45.8488 252.452 45.74 252.512Z" fill="#263238"/>
<path d="M46.689 255.362C46.6128 255.466 46.0751 255.188 45.3743 255.216C44.6736 255.243 44.1521 255.524 44.0706 255.421C43.989 255.318 44.4943 254.782 45.3634 254.766C46.2325 254.748 46.7758 255.28 46.689 255.362Z" fill="#263238"/>
<path d="M45.2018 258.733C45.104 258.663 45.4788 258.104 46.2338 257.892C46.989 257.68 47.592 257.952 47.5485 258.066C47.505 258.18 46.9726 258.141 46.3534 258.327C45.7342 258.51 45.2995 258.82 45.2018 258.733Z" fill="#263238"/>
<path d="M47.9438 250.291C47.8244 250.325 47.569 249.749 47.053 249.238C46.537 248.728 45.9666 248.44 46.0263 248.315C46.086 248.19 46.776 248.315 47.3734 248.923C47.9711 249.532 48.0634 250.269 47.9438 250.291Z" fill="#263238"/>
<g opacity="0.3">
<path d="M53.8923 245.404L51.9963 246.936L42.9028 237.587L45.2061 235.562L53.8923 245.404Z" fill="black"/>
</g>
<path d="M50.0634 248.522C50.0254 248.559 49.6289 248.222 49.1997 247.517C48.953 247.098 48.7562 246.651 48.6131 246.186C48.5288 245.912 48.4651 245.63 48.4229 245.345C48.3942 245.178 48.3942 245.007 48.4229 244.84C48.4323 244.713 48.4858 244.594 48.5742 244.503C48.6624 244.412 48.7801 244.355 48.9063 244.341C49.0168 244.332 49.1278 244.348 49.2307 244.391C49.3335 244.432 49.4251 244.496 49.4984 244.579C49.6109 244.704 49.7025 244.845 49.77 244.998C49.9057 245.256 50.0148 245.527 50.096 245.807C50.2356 246.277 50.3017 246.765 50.2916 247.257C50.3288 247.709 50.2224 248.164 49.9873 248.554C49.9167 248.554 50.0255 248.05 49.9873 247.268C49.9424 246.546 49.7422 245.841 49.4007 245.205C49.2702 244.943 49.1182 244.765 48.9715 244.791C48.9227 244.791 48.9063 244.791 48.8792 244.911C48.8615 245.034 48.8615 245.158 48.8792 245.28C48.9159 245.547 48.9687 245.812 49.0367 246.072C49.1492 246.518 49.3057 246.951 49.5039 247.366C49.7176 247.736 49.9046 248.123 50.0634 248.522Z" fill="#263238"/>
<path d="M49.8138 248.516C49.7703 248.516 49.9495 248 50.5524 247.43C50.9102 247.093 51.3214 246.819 51.7693 246.616C52.0367 246.498 52.3151 246.407 52.6004 246.345C52.783 246.277 52.9801 246.261 53.1712 246.297C53.3622 246.332 53.5403 246.418 53.687 246.544C53.7631 246.635 53.8112 246.747 53.8257 246.865C53.8401 246.981 53.8203 247.1 53.7684 247.207C53.6959 247.36 53.6027 247.503 53.4914 247.631C53.2947 247.857 53.0658 248.051 52.8124 248.212C52.3899 248.484 51.9064 248.646 51.4053 248.684C50.5471 248.739 50.0744 248.434 50.1017 248.397C50.5238 248.411 50.9464 248.402 51.3674 248.369C51.8042 248.292 52.2194 248.123 52.5842 247.87C52.7892 247.715 52.9719 247.531 53.1275 247.326C53.3122 247.109 53.4153 246.881 53.323 246.822C53.2293 246.765 53.1241 246.73 53.0152 246.719C52.9063 246.708 52.7961 246.721 52.6928 246.756C52.4329 246.804 52.1782 246.877 51.9324 246.974C51.5132 247.143 51.12 247.369 50.7644 247.647C50.1505 248.135 49.8735 248.559 49.8138 248.516Z" fill="#263238"/>
<path d="M55.359 245.454L56.3912 259.075C56.3912 259.075 42.8649 263.707 42.8105 266.242L69.3255 266.177L68.5867 244.895L55.359 245.454Z" fill="#90C4E1"/>
<g opacity="0.6">
<path d="M64.5395 257.598C64.7974 257.668 65.0215 257.828 65.1687 258.049C65.3159 258.271 65.3762 258.54 65.338 258.804C65.2794 259.064 65.1236 259.292 64.9026 259.442C64.6814 259.591 64.4119 259.65 64.1485 259.608C63.8749 259.536 63.6378 259.365 63.4833 259.128C63.3286 258.891 63.2676 258.606 63.312 258.327C63.4016 258.063 63.5891 257.844 63.8358 257.714C64.0825 257.586 64.3695 257.555 64.6374 257.632" fill="white"/>
</g>
<g opacity="0.6">
<path d="M69.3255 266.177L69.2494 264.032L43.6473 264.982C43.3773 265.124 43.1468 265.331 42.9769 265.584C42.8072 265.837 42.7033 266.129 42.6748 266.432L69.3255 266.177Z" fill="white"/>
</g>
<path d="M55.9566 258.955C55.9566 259.087 56.6137 259.119 57.2711 259.499C57.9284 259.88 58.2815 260.416 58.401 260.363C58.5206 260.307 58.2924 259.57 57.4939 259.109C56.6954 258.647 55.9239 258.836 55.9566 258.955Z" fill="#263238"/>
<path d="M53.2246 260.217C53.2246 260.341 53.7677 260.541 54.2295 261.068C54.6913 261.595 54.8434 262.155 54.9683 262.155C55.0933 262.155 55.153 261.41 54.5664 260.764C53.9796 260.119 53.2246 260.09 53.2246 260.217Z" fill="#263238"/>
<path d="M51.78 263.603C51.8996 263.603 52.0516 262.974 51.6932 262.279C51.3346 261.583 50.7153 261.323 50.6663 261.432C50.6175 261.54 51.0032 261.909 51.2911 262.484C51.5791 263.06 51.6497 263.592 51.78 263.603Z" fill="#263238"/>
<path d="M56.065 255.829C56.1247 255.943 56.7113 255.742 57.4448 255.763C58.178 255.785 58.7593 255.991 58.8192 255.877C58.8789 255.763 58.3139 255.336 57.4501 255.336C56.5864 255.336 55.9998 255.726 56.065 255.829Z" fill="#263238"/>
<g opacity="0.3">
<path d="M55.9575 253.255L56.1368 255.683L68.9568 255.46L68.8645 252.865L55.9575 253.255Z" fill="black"/>
</g>
<path d="M55.9087 253.077C56.3477 253.178 56.8061 253.157 57.2343 253.016C57.7105 252.913 58.1722 252.751 58.6085 252.533C58.8664 252.405 59.1151 252.261 59.3528 252.099C59.499 252.011 59.6309 251.901 59.7439 251.773C59.8238 251.677 59.8676 251.554 59.8676 251.429C59.8676 251.302 59.8238 251.181 59.7439 251.083C59.6762 250.996 59.5888 250.925 59.4888 250.877C59.3888 250.829 59.279 250.805 59.1682 250.807C58.9997 250.814 58.8334 250.845 58.6737 250.9C58.3927 250.978 58.1198 251.083 57.859 251.213C57.4202 251.434 57.0188 251.721 56.6693 252.067C56.0771 252.658 55.8869 253.152 55.9304 253.152C55.9739 253.152 56.2727 252.772 56.8812 252.279C57.2355 251.994 57.6243 251.755 58.0381 251.568C58.2807 251.459 58.5313 251.37 58.7878 251.301C59.065 251.213 59.3311 251.203 59.3855 251.327C59.3855 251.372 59.3855 251.393 59.3855 251.475C59.3074 251.573 59.2138 251.661 59.1083 251.73C58.8894 251.887 58.6609 252.031 58.4239 252.159C58.0203 252.38 57.5965 252.562 57.1582 252.701C56.7334 252.797 56.316 252.922 55.9087 253.077Z" fill="#263238"/>
<path d="M56.0878 253.255C56.3209 252.865 56.4254 252.411 56.3867 251.958C56.3886 251.466 56.3079 250.978 56.1477 250.513C56.0482 250.239 55.9247 249.974 55.7782 249.721C55.7006 249.548 55.5791 249.398 55.4256 249.288C55.2721 249.175 55.0921 249.106 54.9035 249.086C54.7852 249.094 54.6713 249.133 54.5752 249.202C54.479 249.272 54.4045 249.366 54.3604 249.477C54.2988 249.635 54.2585 249.801 54.2408 249.97C54.2077 250.269 54.2187 250.572 54.2735 250.866C54.3697 251.36 54.5841 251.821 54.8982 252.213C55.4415 252.875 55.9846 253.011 55.9846 252.968C55.9846 252.924 55.5664 252.669 55.1426 252.024C54.9002 251.653 54.7408 251.235 54.6754 250.797C54.6374 250.54 54.6374 250.28 54.6754 250.025C54.6754 249.742 54.8003 249.514 54.9091 249.537C55.0176 249.558 55.273 249.731 55.3871 249.954C55.529 250.178 55.6491 250.414 55.7456 250.661C55.911 251.082 56.0152 251.523 56.0552 251.974C56.1313 252.745 56.0118 253.239 56.0878 253.255Z" fill="#263238"/>
<path d="M45.4946 147.402C45.4946 147.402 48.3682 188.187 49.4872 197.541C50.1989 203.486 53.632 253.462 53.632 253.462L70.9339 252.918L68.1471 173.745V149.481L45.4946 147.402Z" fill="#263238"/>
<path d="M43.1758 234.682L54.6269 246.3C54.6269 246.3 89.3011 212.532 90.708 210C92.115 207.47 91.6966 176.232 91.6966 176.232L90.6862 148.238L65.9261 149.497L68.3705 177.343L71.6679 202.965L43.1758 234.682Z" fill="#263238"/>
<path d="M74.6326 226.614L74.2795 226.984L73.1932 228.069L69.1569 232.086L54.7071 246.371L54.6201 246.459L54.5387 246.371L43.0767 234.78L42.9844 234.687L43.0712 234.589L52.306 224.275L71.6015 202.867V202.965C70.5639 194.224 69.7002 186.933 69.0972 181.79C68.8038 179.239 68.5539 177.234 68.4127 175.856C68.342 175.177 68.2823 174.657 68.2443 174.288C68.2443 174.119 68.2443 173.989 68.2063 173.885C68.1979 173.841 68.1979 173.795 68.2063 173.75C68.2088 173.795 68.2088 173.841 68.2063 173.885L68.266 174.288C68.3149 174.651 68.3855 175.172 68.4725 175.845C68.6462 177.224 68.9016 179.228 69.2221 181.768L71.8241 202.91V202.965L71.7861 203.008L52.5233 224.481L43.2885 234.796V234.612C47.3953 238.775 51.2522 242.702 54.7235 246.225H54.5551L69.1025 231.99L73.1876 228.021L74.274 226.979C74.4968 226.722 74.6326 226.614 74.6326 226.614Z" fill="#455A64"/>
<path d="M77.0946 205.386C76.2168 205.114 75.3701 204.749 74.5686 204.3C73.7262 203.936 72.9234 203.487 72.1729 202.958C73.0477 203.234 73.8922 203.6 74.6935 204.045C75.5371 204.41 76.3415 204.859 77.0946 205.386Z" fill="#455A64"/>
<path d="M70.2603 172.409C69.9159 172.471 69.5671 172.505 69.2172 172.512L66.4304 172.658H66.311V172.533C66.311 171.094 66.311 169.336 66.262 167.435C66.2187 164.971 66.1208 162.744 66.0502 161.127L65.9688 159.215C65.942 158.98 65.942 158.745 65.9688 158.51C66.0246 158.74 66.059 158.973 66.072 159.21C66.1208 159.655 66.186 160.297 66.2458 161.116C66.3707 162.744 66.4957 164.966 66.5445 167.43C66.5826 169.336 66.5445 171.094 66.5445 172.539L66.4251 172.419L69.2172 172.371C69.5653 172.353 69.9143 172.366 70.2603 172.409Z" fill="#455A64"/>
<path d="M69.0543 159.433C69.0543 159.433 69.1466 159.383 69.3257 159.406C69.5835 159.442 69.8218 159.563 70.0048 159.748C70.1473 159.882 70.2578 160.047 70.3282 160.231C70.3987 160.414 70.4274 160.61 70.4123 160.806C70.3704 161.047 70.2629 161.271 70.1016 161.456C69.9403 161.64 69.7314 161.775 69.4979 161.848C69.2644 161.921 69.0152 161.929 68.7778 161.87C68.5404 161.809 68.324 161.686 68.1524 161.512C68.0322 161.36 67.9462 161.186 67.9002 160.999C67.8542 160.812 67.8496 160.616 67.8863 160.427C67.9294 160.17 68.0552 159.935 68.2449 159.759C68.3805 159.639 68.4839 159.616 68.4892 159.629C68.2734 159.855 68.1313 160.144 68.0818 160.454C68.062 160.614 68.0754 160.776 68.1212 160.931C68.167 161.086 68.2442 161.23 68.3481 161.355C68.4869 161.487 68.6582 161.579 68.8448 161.624C69.0316 161.67 69.2266 161.663 69.4104 161.61C69.5943 161.554 69.7601 161.451 69.8913 161.31C70.0225 161.171 70.1141 160.999 70.1569 160.812C70.1713 160.651 70.1521 160.489 70.1007 160.336C70.0492 160.183 69.9667 160.04 69.8581 159.921C69.6441 159.682 69.3644 159.513 69.0543 159.433Z" fill="#455A64"/>
<path d="M59.1076 80.3555C59.1076 80.3555 63.6055 85.269 75.4043 81.3491L82.8519 92.2076L90.5061 154.183L65.4144 158.227L45.8584 155.127L52.0945 92.2347L59.1076 80.3555Z" fill="#E0E0E0"/>
<path d="M60.1945 81.0018C61.1506 83.0975 63.4538 88.0272 63.4538 88.0272C63.4538 88.0272 57.6305 126.662 57.0167 132.77C56.3431 139.497 60.5095 163.32 60.5095 163.32L40.0952 160.128L45.8424 97.1484L43.0558 84.9922C46.2743 83.6994 49.5913 82.6664 52.9751 81.903L57.261 81.295L58.4453 79.3349L59.2329 78.1514L60.1945 81.0018Z" fill="#90C4E1"/>
<g opacity="0.3">
<path d="M61.2474 128.117C58.7487 128.062 51.4693 130.158 48.9923 130.43C46.4228 130.707 44.7008 131.038 42.604 132.542L42.2671 135.837C43.723 136.548 45.3581 136.722 46.9552 136.994C47.748 137.163 48.5681 137.161 49.3598 136.986C50.1517 136.812 50.897 136.47 51.5454 135.984C52.2245 135.414 52.7188 134.632 53.4793 134.176C54.2399 133.72 54.9243 133.09 55.7228 133.226C61.7634 134.398 63.2954 129.208 61.2474 128.117Z" fill="black"/>
</g>
<path d="M57.7275 81.6965C57.812 81.8695 57.8758 82.0518 57.9177 82.2395C58.0209 82.6088 58.1623 83.1407 58.3305 83.8032C58.6674 85.1279 59.1184 86.9629 59.5909 88.9936C59.7647 89.7318 59.9331 90.4485 60.0853 91.1163H59.8245C59.9944 90.4063 60.2575 89.7217 60.6067 89.0803C60.8569 88.553 61.2118 88.082 61.6497 87.696C61.8363 87.5587 62.0647 87.4895 62.2962 87.5004C62.4664 87.5111 62.6295 87.5736 62.7634 87.6796C62.986 87.8697 62.9589 88.0542 62.9534 88.0434C62.948 88.0325 62.9154 87.8914 62.709 87.7557C62.5614 87.6634 62.388 87.6215 62.2146 87.6361C62.0413 87.6509 61.8773 87.7213 61.7474 87.8371C61.3542 88.2253 61.0371 88.6838 60.8131 89.189C60.4896 89.8189 60.2452 90.4862 60.0853 91.176L59.9548 91.719L59.8245 91.176C59.667 90.5137 59.493 89.797 59.3192 89.0533C58.8412 87.0281 58.423 85.1876 58.135 83.8521C57.9938 83.1842 57.8798 82.6412 57.8092 82.2668C57.7578 82.0808 57.7306 81.8893 57.7275 81.6965Z" fill="#263238"/>
<path d="M45.2886 133.812L50.4654 135.316C51.5402 138.011 52.2066 140.851 52.4428 143.742C52.7471 148.249 50.7696 180.917 50.7696 180.917L34.1795 180.199L33.6744 178.685C33.417 177.917 33.3172 177.105 33.381 176.296C33.7938 170.932 34.5326 152.298 38.5634 141.457C40.4864 136.288 45.2886 133.812 45.2886 133.812Z" fill="#455A64"/>
<path d="M51.0892 81.9897C51.0892 81.9897 52.6592 84.9595 52.4743 91.5018C52.2897 98.0441 43.2124 143.557 43.2124 143.557L48.9977 144.068C48.9977 144.068 54.8809 106.259 55.185 102.458C55.4893 98.6576 57.6187 84.7858 55.185 81.7563C55.185 81.7563 52.7732 80.7085 51.0892 81.9897Z" fill="#455A64"/>
<path d="M41.1162 137.238C41.1162 137.238 35.0268 144.812 33.0332 159.107L35.7166 159.687L41.1162 137.238Z" fill="#455A64"/>
<path d="M44.6413 140.506C44.6457 140.601 44.6365 140.696 44.6142 140.789C44.5816 141 44.5436 141.261 44.4946 141.576C44.386 142.26 44.2285 143.243 44.06 144.47C43.7016 146.913 43.3756 150.322 42.6748 154.042C42.4901 154.97 42.3108 155.872 42.0935 156.755C41.9096 157.614 41.5508 158.426 41.0397 159.139C40.7982 159.468 40.4838 159.739 40.1211 159.926C39.7584 160.115 39.357 160.217 38.9483 160.225C38.2672 160.204 37.5892 160.124 36.922 159.987C35.6943 159.775 34.7491 159.486 34.0538 159.367L33.2717 159.215C33.1797 159.206 33.09 159.182 33.0054 159.144C33.0973 159.132 33.1906 159.132 33.2825 159.144L34.0755 159.247C34.7655 159.335 35.7378 159.595 36.9546 159.791C37.6106 159.914 38.2756 159.981 38.9429 159.992C39.3133 159.983 39.6766 159.889 40.0043 159.716C40.3323 159.543 40.6159 159.297 40.8333 158.998C41.3164 158.312 41.6545 157.534 41.8274 156.712C42.0338 155.856 42.2185 154.949 42.3707 154.024C43.066 150.322 43.457 146.918 43.8319 144.475C44.0274 143.253 44.2176 142.271 44.3752 141.592C44.4458 141.283 44.5001 141.049 44.549 140.816C44.5632 140.708 44.5944 140.604 44.6413 140.506Z" fill="#263238"/>
<path d="M50.5838 135.62C50.5895 135.919 50.5731 136.219 50.5348 136.516C50.4751 137.14 50.3936 137.955 50.3013 138.943C50.2469 139.486 50.1872 140.028 50.1275 140.615C50.0767 141.264 49.986 141.91 49.8559 142.548C49.6972 143.282 49.2809 143.934 48.6825 144.388C48.3615 144.632 47.9906 144.803 47.5963 144.887C47.2019 144.972 46.7937 144.968 46.4009 144.877C46.005 144.785 45.6359 144.602 45.3229 144.343C45.0099 144.084 44.7614 143.755 44.5974 143.384C44.354 142.687 44.2867 141.941 44.4019 141.212C44.5377 139.849 44.7277 138.639 44.945 137.623C45.1623 136.608 45.3307 135.799 45.4883 135.24C45.5546 134.948 45.6435 134.661 45.7544 134.382C45.7248 134.681 45.6722 134.977 45.597 135.267C45.4829 135.81 45.3198 136.646 45.1569 137.656C44.994 138.666 44.82 139.882 44.7006 141.234C44.5978 141.918 44.663 142.617 44.8908 143.27C45.0411 143.602 45.2665 143.894 45.5494 144.124C45.8323 144.354 46.1647 144.515 46.5205 144.594C46.8739 144.677 47.2414 144.68 47.5963 144.605C47.9514 144.529 48.2852 144.375 48.5738 144.155C49.1278 143.746 49.514 143.15 49.6602 142.477C49.7669 141.854 49.8377 141.225 49.8721 140.593C49.9482 139.996 50.0133 139.437 50.0785 138.921C50.209 137.938 50.3175 137.124 50.4045 136.505C50.4378 136.205 50.4979 135.909 50.5838 135.62Z" fill="#263238"/>
<path d="M50.8123 180.954C50.5941 180.769 50.3892 180.569 50.1985 180.357C49.8183 179.966 49.2696 179.401 48.5688 178.727C47.868 178.056 47.0206 177.251 46.0483 176.405C45.5594 175.981 45.0432 175.546 44.4946 175.102C43.9673 174.636 43.3444 174.29 42.6694 174.092C42.3334 174.01 41.9814 174.025 41.6536 174.135C41.3319 174.261 41.0356 174.447 40.779 174.678L39.247 175.997L36.6342 178.234L34.8523 179.716C34.6411 179.914 34.4159 180.094 34.1787 180.26C34.3598 180.039 34.5617 179.837 34.7817 179.657L36.4983 178.104L39.0732 175.824L40.6052 174.482C40.8888 174.238 41.2121 174.042 41.5613 173.907C41.9374 173.777 42.3427 173.759 42.7291 173.854C43.4487 174.066 44.1112 174.436 44.6685 174.938C45.2116 175.384 45.7549 175.829 46.2166 176.258C47.189 177.121 48.0255 177.935 48.71 178.637C49.3946 179.337 49.9215 179.928 50.2799 180.347C50.4753 180.532 50.6533 180.737 50.8123 180.954Z" fill="#263238"/>
<path d="M46.1361 145.132C46.2122 145.132 45.3811 151.561 44.2783 159.47C43.1756 167.381 42.2195 173.777 42.1435 173.766C42.0674 173.755 42.8932 167.337 43.9958 159.427C45.0986 151.516 46.0711 145.121 46.1361 145.132Z" fill="#263238"/>
<path d="M48.6288 142.016C48.5892 141.898 48.5566 141.779 48.531 141.657C48.4333 141.354 48.2433 141.088 47.9877 140.897C47.7989 140.762 47.5797 140.675 47.3496 140.645C47.1193 140.615 46.8851 140.642 46.6676 140.723C46.4042 140.822 46.1768 140.998 46.0163 141.229C45.8559 141.46 45.7698 141.734 45.7698 142.016C45.7698 142.297 45.8559 142.571 46.0163 142.802C46.1768 143.033 46.4042 143.21 46.6676 143.308C46.8856 143.388 47.12 143.414 47.3501 143.383C47.5802 143.352 47.7993 143.264 47.9877 143.129C48.2447 142.939 48.4349 142.673 48.531 142.368C48.5559 142.249 48.5885 142.131 48.6288 142.016C48.6288 142.016 48.6777 142.151 48.6288 142.396C48.5588 142.749 48.3664 143.066 48.0855 143.292C47.8727 143.458 47.6218 143.569 47.3553 143.615C47.0888 143.66 46.8152 143.639 46.5591 143.552C46.2408 143.44 45.965 143.232 45.77 142.957C45.575 142.682 45.4702 142.353 45.4702 142.016C45.4702 141.678 45.575 141.349 45.77 141.074C45.965 140.799 46.2408 140.591 46.5591 140.479C46.8145 140.388 47.0892 140.364 47.3564 140.41C47.6237 140.456 47.8749 140.569 48.0855 140.74C48.3686 140.963 48.5614 141.281 48.6288 141.636C48.6777 141.88 48.645 142.016 48.6288 142.016Z" fill="#263238"/>
<path d="M120.096 143.52L128.521 149.991L127.728 156.609L127.561 157.619L124.73 159.372H119.809C119.809 159.372 119.021 157.336 120.83 157.505C120.83 157.505 119.939 156.148 122.459 155.811C124.98 155.474 125.468 154.628 125.468 154.628L125.245 153.438L124.34 152.309L123.486 151.447L118.743 146.147L120.096 143.52Z" fill="#FFBE9D"/>
<path d="M104.413 135.772C104.413 135.832 114.191 145.876 114.191 145.876L120.107 143.52L113.002 128.909L107.075 126.803L104.424 131.521L104.413 135.772Z" fill="#FFBE9D"/>
<path d="M113.898 145.442C114.749 146.798 115.726 148.07 116.815 149.242C117.886 150.168 119.061 150.965 120.319 151.614C120.319 151.614 122.296 156.816 123.579 156.588C124.86 156.36 125.333 155.681 124.595 154.27C123.855 152.858 122.165 147.657 122.165 147.657L119.037 141.44L113.898 145.442Z" fill="#FFBE9D"/>
<path d="M89.0123 85.3235C89.0123 85.3235 92.614 86.4094 94.689 91.2522C96.7641 96.0952 105.07 113.447 105.07 113.447L113.898 129.301C113.898 129.301 109.916 129.301 106.977 131.548C104.038 133.796 104.38 136.738 104.38 136.738C104.38 136.738 101.816 136.196 101.452 134.665C101.24 133.695 101.24 132.691 101.452 131.722L98.3232 127.742L96.4219 123.942L90.4464 113.876L86.3994 97.8271L89.0123 85.3235Z" fill="#90C4E1"/>
<path d="M93.9949 165.687C93.9949 165.687 90.7844 132.536 90.9365 132.14C91.0887 131.744 90.5889 112.736 90.9365 112.443C91.2842 112.15 89.0136 85.3236 89.0136 85.3236L77.1875 81.6751H77.3451L74.6289 78.814C74.6289 78.814 71.3261 89.7701 71.3696 89.9493C72.3256 93.7227 75.7534 149.834 75.7534 149.834C75.7534 150.236 77.1005 165.666 77.1005 165.666L93.9949 165.687Z" fill="#90C4E1"/>
<path d="M90.4091 114.175C90.2877 114.293 90.1528 114.397 90.0072 114.484L88.8176 115.326H88.785H88.7524L82.4672 112.291L82.402 112.258V112.198C82.25 110.157 82.0762 107.855 81.8913 105.412C81.7284 103.121 81.5709 100.943 81.4351 98.9944V98.8804H81.5438C83.7598 98.4222 86.0479 98.437 88.2579 98.9238C88.8846 99.0653 89.5015 99.2466 90.105 99.4668C90.3248 99.53 90.5351 99.6232 90.7298 99.7436C90.7298 99.7436 90.5015 99.6731 90.0778 99.5482C89.4687 99.3642 88.8504 99.2121 88.2255 99.0922C86.0372 98.6625 83.7844 98.681 81.6035 99.1463L81.7013 99.0106C81.8479 100.965 82.0109 103.137 82.1847 105.428C82.3585 107.866 82.5216 110.179 82.6683 112.215L82.5975 112.112L88.823 115.255H88.7524L89.9801 114.473C90.1125 114.359 90.2564 114.259 90.4091 114.175Z" fill="#263238"/>
<path d="M90.6151 94.8247C90.6698 95.0892 90.6989 95.3582 90.7019 95.6283C90.74 96.1713 90.778 96.8988 90.8106 97.8C90.8758 99.6568 90.8921 102.225 90.8757 105.059C90.8594 107.893 90.8757 110.461 90.8757 112.318C90.8757 113.203 90.8757 113.947 90.8757 114.517C90.8922 114.787 90.8832 115.057 90.8486 115.326C90.7944 115.061 90.7653 114.792 90.7616 114.522C90.7236 113.979 90.691 113.252 90.6584 112.323C90.5878 110.461 90.5716 107.893 90.5878 105.059C90.6042 102.225 90.6204 99.6622 90.5878 97.8054C90.5878 96.915 90.5878 96.1766 90.5878 95.6066C90.5752 95.3456 90.5843 95.0841 90.6151 94.8247Z" fill="#263238"/>
<path d="M109.041 124.398C109.041 124.452 108.443 124.604 107.536 125.022C106.358 125.576 105.283 126.327 104.358 127.243C103.44 128.163 102.688 129.236 102.136 130.413C101.713 131.32 101.555 131.928 101.506 131.917C101.506 131.768 101.53 131.619 101.577 131.477C101.671 131.086 101.796 130.703 101.952 130.332C102.985 127.845 104.965 125.871 107.455 124.843C107.824 124.688 108.206 124.562 108.595 124.468C108.74 124.424 108.89 124.4 109.041 124.398Z" fill="#263238"/>
<path d="M106.336 123.752C105.301 124.31 104.307 124.94 103.359 125.636C102.473 126.407 101.638 127.236 100.86 128.117C100.99 127.79 101.173 127.487 101.403 127.221C101.917 126.547 102.512 125.94 103.174 125.413C103.843 124.884 104.572 124.437 105.347 124.083C105.655 123.916 105.99 123.804 106.336 123.752Z" fill="#263238"/>
<path d="M77.3441 81.6965C77.358 81.9434 77.3454 82.1909 77.3061 82.4349C77.2682 82.9074 77.1976 83.5859 77.0997 84.4275C76.9096 86.1105 76.6164 88.4342 76.2143 90.9861C76.0731 91.9091 75.9209 92.7941 75.7744 93.6139L75.7036 94.0047L75.5189 93.6518C75.1109 92.8605 74.6632 92.0904 74.1771 91.3444C73.9599 91.0078 73.7426 90.6982 73.5362 90.4105C73.3654 90.1415 73.1569 89.8982 72.917 89.6885C72.7339 89.5193 72.4924 89.4279 72.2432 89.4332C72.057 89.4532 71.8826 89.5355 71.749 89.6668C71.6406 89.7833 71.5805 89.9365 71.5805 90.0956C71.5805 90.0956 71.4556 89.8948 71.6837 89.6016C71.8242 89.4414 72.0165 89.3356 72.227 89.303C72.37 89.2898 72.5142 89.3052 72.6512 89.3479C72.7883 89.3908 72.9156 89.4605 73.0255 89.5528C73.2838 89.766 73.5105 90.0145 73.6991 90.2912C73.9164 90.5734 74.1445 90.883 74.3727 91.2195C74.8794 91.9609 75.3419 92.7314 75.758 93.5269L75.5081 93.5649C75.6439 92.7451 75.7852 91.8603 75.9373 90.9426C76.3339 88.3909 76.6597 86.0564 76.9042 84.4275C77.0236 83.6349 77.1215 82.967 77.1976 82.4458C77.2192 82.1916 77.2684 81.9404 77.3441 81.6965Z" fill="#263238"/>
<g opacity="0.3">
<path d="M75.5517 93.4184L75.0084 95.8073L73.3082 91.0512C73.2117 90.7325 73.067 90.4304 72.879 90.1555C72.7852 90.0178 72.661 89.9038 72.5159 89.8219C72.3708 89.7399 72.2088 89.6926 72.0425 89.6831C72.1088 89.5823 72.199 89.4996 72.3052 89.4423C72.4114 89.3851 72.5301 89.355 72.6508 89.355C72.7715 89.355 72.8904 89.3851 72.9966 89.4423C73.1028 89.4996 73.193 89.5823 73.2593 89.6831C73.9167 90.4215 75.5517 93.4184 75.5517 93.4184Z" fill="black"/>
</g>
<g opacity="0.3">
<path d="M90.8474 114.37C92.3305 109.066 92.0209 102.426 90.5977 97.0942L90.8474 114.37Z" fill="black"/>
</g>
<path d="M90.6159 102.078C90.1814 102.065 89.7488 102.014 89.323 101.926C88.53 101.817 87.4326 101.687 86.2157 101.617C84.9991 101.546 83.8907 101.557 83.0869 101.579C82.655 101.618 82.2205 101.618 81.7886 101.579C82.2067 101.453 82.6395 101.384 83.076 101.372C85.1753 101.196 87.2891 101.315 89.3556 101.725C89.7898 101.785 90.2138 101.904 90.6159 102.078Z" fill="#263238"/>
<path d="M91.1586 140.859C90.9673 140.8 90.7846 140.716 90.6153 140.61C90.2786 140.441 89.8006 140.17 89.2193 139.828C86.1798 138.03 83.3343 135.923 80.7286 133.54C80.2289 133.079 79.8323 132.699 79.5715 132.428C79.3107 132.156 79.164 132.004 79.1804 131.988C79.3507 132.087 79.5077 132.207 79.6476 132.346L80.8372 133.372C81.864 134.246 83.3035 135.43 84.9549 136.657C86.6063 137.884 88.1654 138.916 89.3008 139.643L90.6479 140.501C90.8327 140.598 91.0044 140.718 91.1586 140.859Z" fill="#263238"/>
<path d="M43.5011 84.813C43.5011 84.813 40.9588 85.2799 38.5469 90.3454C36.1349 95.411 29.9314 112.236 29.5293 113.36L42.2083 121.786L49.3625 100.58L43.5011 84.813Z" fill="#90C4E1"/>
<path d="M50.1172 130.506L50.2259 123.317L42.0395 120.543L43.5822 115.456L30.9686 109.484C30.9686 109.484 25.3245 124.257 25.3571 126.966C25.3571 127.965 27.6168 133.057 32.3158 133.513C35.3742 133.812 42.2894 134.214 46.9449 134.382C47.4324 134.409 47.9195 134.32 48.3664 134.124C48.8132 133.927 49.2073 133.627 49.5165 133.249C49.8256 132.872 50.0413 132.426 50.1455 131.949C50.25 131.473 50.2404 130.978 50.1172 130.506Z" fill="#90C4E1"/>
<path d="M47.8032 104.114C47.8793 104.114 46.771 107.877 45.3316 112.464C43.8921 117.052 42.6644 120.755 42.6154 120.733C42.5665 120.711 43.6476 116.971 45.0872 112.377C46.5267 107.784 47.7271 104.087 47.8032 104.114Z" fill="#263238"/>
<path d="M46.0218 121.889C45.8361 121.875 45.6532 121.835 45.4785 121.77C45.1418 121.672 44.6583 121.526 44.0553 121.336C43.4523 121.146 42.7679 120.869 41.9749 120.662C41.1191 120.42 40.2425 120.258 39.3565 120.179C37.7443 120.032 36.1193 120.217 34.5814 120.722C33.4081 121.129 32.7509 121.547 32.7236 121.499C32.8577 121.374 33.0074 121.268 33.1691 121.184C33.5999 120.931 34.0505 120.713 34.5164 120.532C36.0792 119.963 37.7502 119.754 39.4053 119.919C41.0402 120.096 42.639 120.519 44.1478 121.173C44.7344 121.385 45.2342 121.558 45.5384 121.688C45.7074 121.735 45.87 121.802 46.0218 121.889Z" fill="#263238"/>
<path d="M37.9229 116.069C38.261 116.105 38.5891 116.204 38.8898 116.363C39.6345 116.707 40.3129 117.179 40.8943 117.758C41.4718 118.34 41.9409 119.02 42.2796 119.767C42.4441 120.065 42.5439 120.394 42.573 120.733C42.0866 119.721 41.4531 118.786 40.6933 117.959C39.8667 117.198 38.9335 116.561 37.9229 116.069Z" fill="#263238"/>
<path d="M47.6993 97.0614C47.6449 97.0614 47.7428 96.3829 47.6993 95.2916C47.6125 92.4322 46.5788 89.6824 44.7604 87.4735C44.0651 86.6319 43.5436 86.1868 43.5815 86.1486C43.6197 86.1107 43.7282 86.2356 43.9673 86.431C44.3066 86.7089 44.6226 87.014 44.9125 87.3431C45.3415 87.8269 45.7286 88.3464 46.0696 88.8959C46.4945 89.5714 46.8581 90.2837 47.156 91.0242C47.4317 91.7722 47.6354 92.5448 47.7645 93.3315C47.8705 93.9719 47.9178 94.6207 47.9057 95.2699C47.9033 95.7079 47.8688 96.1452 47.8025 96.5783C47.7907 96.7433 47.7559 96.9059 47.6993 97.0614Z" fill="#263238"/>
<g opacity="0.3">
<path d="M37.2325 118.865C35.3283 118.93 33.4996 119.625 32.0337 120.842C31.9653 120.886 31.9068 120.944 31.8619 121.013C31.817 121.081 31.7867 121.157 31.7729 121.238C31.7826 121.347 31.8336 121.448 31.9154 121.521C31.9972 121.593 32.1036 121.632 32.213 121.629C32.4349 121.612 32.6492 121.541 32.8378 121.422C34.2977 120.675 35.8914 120.224 37.5267 120.095C39.1623 119.967 40.8069 120.163 42.3658 120.673L42.5398 120.516C41.003 119.392 39.1357 118.811 37.2325 118.865Z" fill="black"/>
</g>
<path d="M50.2255 131.961C50.2255 131.961 50.2255 132.026 50.1982 132.156C50.1681 132.343 50.1151 132.525 50.0406 132.699C49.8104 133.249 49.4186 133.716 48.9172 134.039C48.4158 134.362 47.8283 134.525 47.2323 134.507C46.7216 134.507 46.1783 134.507 45.6026 134.507C44.4564 134.48 43.2015 134.431 41.8868 134.355C39.2523 134.208 36.8783 134.018 35.1563 133.861C34.2981 133.78 33.6027 133.709 33.1192 133.655C32.8695 133.64 32.6219 133.601 32.3804 133.535C32.6297 133.511 32.8807 133.511 33.1301 133.535L35.1727 133.649L41.9032 134.062C43.2178 134.138 44.4672 134.192 45.608 134.236L47.2376 134.279C47.6941 134.309 48.1504 134.221 48.5632 134.024C49.1726 133.747 49.6649 133.265 49.9538 132.661C50.0349 132.497 50.1023 132.326 50.1547 132.151C50.1873 132.02 50.2146 131.955 50.2255 131.961Z" fill="#263238"/>
<path d="M51.9309 131.537L58.993 131.798C59.6992 131.825 60.3564 131.179 60.6606 130.169L66.1907 110.781C66.5438 109.446 65.7995 108.365 64.5935 108.289L55.2501 107.703C53.7454 107.703 52.9414 108.349 52.6753 109.478L49.0356 124.822C48.2426 128.079 49.72 131.456 51.9309 131.537Z" fill="#263238"/>
<path d="M45.8809 122.389L47.7604 118.409L50.8513 117.378L49.9061 121.178C51.1174 121.765 52.9372 122.069 53.9857 121.488C55.0341 120.907 59.1356 116.835 59.9068 117.226C60.6782 117.617 61.3735 118.551 60.6674 119.446C59.9612 120.342 56.1151 123.117 56.9083 123.936C57.7014 124.756 62.1341 121.162 63.4269 121.428C64.7198 121.694 65.5239 122.454 64.7959 123.008C64.068 123.562 62.2861 125.348 61.9712 126.13C62.0471 127.107 62.5143 128.492 62.0853 128.736C61.044 129.232 59.9508 129.61 58.8258 129.865C57.6686 130.228 56.5318 130.652 55.4198 131.136C53.7095 131.822 51.8083 131.865 50.069 131.255L49.1837 130.946C48.5101 130.709 47.9274 130.268 47.5173 129.683C47.1072 129.099 46.8902 128.402 46.8967 127.688L46.9293 124.756L45.8809 122.389Z" fill="#FFBE9D"/>
<path d="M50.6274 121.471C50.7524 121.167 50.8522 120.853 50.9264 120.532L51.6217 117.948C51.9151 116.862 52.2517 115.543 52.6212 114.109C52.8059 113.382 52.9959 112.622 53.197 111.84C53.398 111.058 53.5066 110.167 54.0445 109.587C54.5822 109.006 55.5002 108.979 56.2771 109.011L58.613 109.19L62.5731 109.473L65.2457 109.635C65.5729 109.664 65.9018 109.664 66.229 109.635C65.9094 109.561 65.5842 109.514 65.2565 109.494L62.5947 109.228L58.6347 108.875L56.2934 108.68C55.869 108.647 55.4423 108.665 55.0221 108.734C54.5632 108.804 54.1386 109.019 53.8108 109.348C53.5098 109.699 53.2991 110.118 53.197 110.569C53.0829 110.982 52.9906 111.384 52.8927 111.775C52.6972 112.562 52.5125 113.327 52.3496 114.055C52.0019 115.488 51.6867 116.797 51.4206 117.91C51.1545 119.023 50.9752 119.848 50.8176 120.521C50.7283 120.832 50.6649 121.15 50.6274 121.471Z" fill="#455A64"/>
<path d="M59.1079 112.095C59.1079 112.233 59.1487 112.367 59.2254 112.482C59.302 112.596 59.4109 112.685 59.5384 112.738C59.6658 112.79 59.8057 112.804 59.9408 112.776C60.0759 112.749 60.1998 112.682 60.2968 112.585C60.3937 112.487 60.4595 112.362 60.4857 112.227C60.5121 112.092 60.4975 111.952 60.444 111.825C60.3905 111.699 60.3005 111.59 60.1856 111.515C60.0704 111.439 59.9355 111.399 59.7977 111.4C59.6143 111.402 59.4387 111.476 59.3095 111.606C59.1803 111.736 59.1079 111.912 59.1079 112.095Z" fill="white"/>
<defs>
<filter id="filter0_d_345_27" x="0.861328" y="0.40979" width="253.496" height="253.366" filterUnits="userSpaceOnUse" color-interpolation-filters="sRGB">
<feFlood flood-opacity="0" result="BackgroundImageFix"/>
<feColorMatrix in="SourceAlpha" type="matrix" values="0 0 0 0 0 0 0 0 0 0 0 0 0 0 0 0 0 0 127 0" result="hardAlpha"/>
<feOffset/>
<feGaussianBlur stdDeviation="5"/>
<feComposite in2="hardAlpha" operator="out"/>
<feColorMatrix type="matrix" values="0 0 0 0 0.654167 0 0 0 0 0.654167 0 0 0 0 0.654167 0 0 0 0.25 0"/>
<feBlend mode="normal" in2="BackgroundImageFix" result="effect1_dropShadow_345_27"/>
<feBlend mode="normal" in="SourceGraphic" in2="effect1_dropShadow_345_27" result="shape"/>
</filter>
</defs>
</svg>
